<svg width="24" height="24" viewBox="0 0 24 24" fill="none" xmlns="http://www.w3.org/2000/svg">
<path d="M6.09128 11.331L9.37249 13.9951L7.07278 16.8275C6.31934 17.7554 6.08211 18.8409 6.23373 18.964C6.3793 19.0822 7.39286 18.6271 8.1463 17.6991L10.446 14.8667L13.7272 17.5308C14.2731 17.974 14.8945 17.9151 15.3131 17.3995C16.3522 16.1198 16.3712 14.0018 15.2954 12.0918L17.4048 9.08478C18.5838 9.20678 19.7745 9.22759 20.4187 9.06631C20.7499 8.99306 20.9901 8.84594 21.1329 8.67005C21.4333 8.30008 21.3698 7.79571 20.9453 7.451L14.4799 2.20156C14.0493 1.85193 13.5487 1.89833 13.2483 2.2683C13.1055 2.44419 13.0108 2.70949 13.0011 3.04374C12.9755 3.70731 13.2465 4.87329 13.602 5.99716L11.0923 8.67918C9.00209 8.01861 6.93311 8.47218 5.89406 9.75191C5.47548 10.2674 5.54542 10.8878 6.09128 11.331ZM13.517 9.99373C13.1288 9.67856 12.7232 9.40964 12.3123 9.1968L14.9368 6.33626C15.0118 6.25627 15.0243 6.2161 14.9883 6.13653C14.4577 4.93085 14.2023 3.8077 14.2522 3.647C14.2677 3.52876 14.3557 3.51963 14.4224 3.5738L19.608 7.78418C19.6747 7.83835 19.6839 7.92627 19.5713 7.96572C19.4243 8.04762 18.2726 8.02831 16.9837 7.75666C16.9045 7.74267 16.8617 7.75822 16.8049 7.85298L14.5443 11.009C14.2455 10.6457 13.9051 10.3089 13.517 9.99373ZM7.07747 10.6121C6.93797 10.4989 6.94134 10.3708 7.09856 10.2267C8.11839 9.24334 10.5721 9.07196 12.798 10.8792C15.0178 12.6816 15.354 15.1182 14.6011 16.3182C14.4924 16.5017 14.3677 16.5313 14.2282 16.418L7.07747 10.6121Z" fill="#ADADAD"/>
</svg>
