<svg width="24" height="24" viewBox="0 0 24 24" fill="none" xmlns="http://www.w3.org/2000/svg">
<path d="M13.9582 2.40189C13.5276 2.05225 13.027 2.09866 12.7266 2.46863C12.5838 2.64452 12.488 2.89883 12.4783 3.23308C12.4528 3.89665 12.7188 5.06869 13.2017 6.29598L12.502 7.04619L13.6418 17.9747C14.0667 18.1083 14.4812 17.982 14.7915 17.5999C15.8305 16.3201 15.9037 14.1354 14.7017 12.133L16.7619 9.18662C18.0561 9.40218 19.2358 9.42414 19.8811 9.27385C20.2172 9.19453 20.4635 9.05233 20.6112 8.87038C20.9116 8.50041 20.8482 7.99603 20.4236 7.65132L13.9582 2.40189ZM9.77277 1.78107L11.8449 21.638C11.8852 21.9726 12.1824 22.2139 12.506 22.1747C12.8357 22.1405 13.0831 21.8482 13.0428 21.5136L10.9767 1.66166C10.9425 1.33198 10.6441 1.07969 10.3095 1.11997C9.99084 1.15305 9.74462 1.45631 9.77277 1.78107ZM5.37242 9.95224C4.95384 10.4678 5.02378 11.0881 5.56964 11.5313L8.85085 14.1954L6.55114 17.0278C5.79771 17.9558 5.56047 19.0412 5.7121 19.1643C5.85766 19.2825 6.87123 18.8274 7.62466 17.8994L9.85543 15.152L10.2072 15.4376L9.51441 8.65591C7.78739 8.39085 6.21942 8.90905 5.37242 9.95224Z" fill="#ADADAD"/>
</svg>
