<svg xmlns="http://www.w3.org/2000/svg" width="60" height="40"><path fill="#C60B1E" d="M0 0h60v40H0z"/><path fill="#FFC400" d="M0 10h60v20H0z"/><path fill="#AD1519" stroke="#000" stroke-width=".021" stroke-linejoin="round" d="M13.4 17.8c-.1 0-.2-.1-.2-.1h-.1v-.1s-.1-.1 0-.2c0-.1.1-.1.1-.1H14.3s.1 0 .2.1c0 0 .1 0 .2.1l.1.1v.4l-.1.1h-.1s-.4-.1-.6-.1-.6-.2-.6-.2z"/><ellipse fill="#C8B100" stroke="#000" stroke-width=".021" cx="14.1" cy="17.3" rx=".1" ry=".2"/><ellipse fill="#C8B100" stroke="#000" stroke-width=".021" cx="14.1" cy="17.3" rx=".1" ry=".2"/><ellipse fill="#C8B100" cx="14.1" cy="17" rx=".1" ry=".1"/><path fill="#C8B100" stroke="#000" stroke-width=".024" d="M14.2 17H14v-.1l.2.1"/><path fill="none" stroke="#000" stroke-width=".021" d="M14.1 17v.1c-.1 0-.1 0 0-.1-.1 0-.1 0 0 0"/><path fill="#C8B100" stroke="#000" stroke-width=".021" d="M14.1 17.8h-.4V17.5l-.2-.2v-.1c.1-.1.3.1.4.3v.1h.3v-.1c.1-.2.3-.4.4-.3v.1l-.2.2V17.8h-.3z"/><path fill="none" stroke="#000" stroke-width=".021" d="M13.4 17.2c.1 0 .2.1.4.3m.9-.3c-.1 0-.2.1-.4.3"/><g fill="#C8B100" stroke="#000" stroke-width=".021"><path d="M13.5 17.9s-.1 0 0 0c.1-.1.3-.2.6-.2.2 0 .5 0 .6.1v.2c-.1 0-.3-.1-.5-.1-.4 0-.6.1-.7 0 0 .1 0 .1 0 0"/><path d="M14.1 18.1c.2 0 .4 0 .5-.1.1 0 .1 0 .1-.1-.1 0-.3-.1-.5-.1s-.4 0-.5.1c0 0 0 .1.1.1-.2.1.1.1.3.1z"/><path d="M14.7 17.8h-.1c-.1 0-.1-.1-.1-.1s-.1.1-.1 0h-.1-.1l-.1-.1-.1.1h-.1l-.1.1h-.1s0 .1-.1.1h-.1c.2 0 .4-.1.6-.1.2-.1.4 0 .6 0z"/><path d="M14.1 17.6c0 .1.1.1.1.1s.1 0 .1-.1c0 0 0 .1.1.1 0 0 .1 0 .1-.1 0 0 0 .1.1.1h.1v.1h.1l.1-.1s0 .1-.1.1h-.1-.1-.1c-.1 0-.1 0-.1-.1h-.1-.1-.1s-.1 0-.1-.1l-.1.1h-.1-.1-.1l-.1.1h-.1-.1-.1l-.1-.1.1.1h.1v-.1h.1s.1 0 .1-.1c0 0 0 .1.1.1 0 0 .1 0 .1-.1 0 0 0 .1.1.1.2 0 .2-.1.3-.1-.1 0-.1 0 0 0z"/><path stroke-linejoin="round" d="M14.1 17.8c-.2 0-.5 0-.6.1.1-.1.3-.2.6-.1h.6-.6z"/><path d="M13.2 17.7s0-.1 0 0l-.1-.1c.1 0 .1 0 .1.1v-.1.1c.1-.1 0 0 0 0zM13.4 17.6l-.1.1.1-.1M13.2 17.7s.1 0 0 0c.1 0 .1 0 0 0 .1 0 .1 0 0 0zM13.4 17.7s0-.1 0 0c.1-.1.1-.1 0 0 .1 0 .1 0 0 0 .1 0 0 0 0 0zM13.5 17.6h.1-.1M13.6 17.4v.1-.1M13.8 17.5h-.1.1M13.8 17.6c.1 0 .1 0 0 0 .1 0 .1 0 0 0zM13.9 17.5h.1-.1M14.1 17.4v.2-.2M14.2 17.5h-.1.1M14.3 17.6s-.1 0 0 0c-.1 0-.1 0 0 0zM14.3 17.5h.1-.1M14.5 17.4v.1-.1M14.6 17.6h-.1.1M14.7 17.7s0-.1 0 0c-.1-.1-.1-.1 0 0-.1 0-.1 0 0 0-.1 0 0 0 0 0zM14.9 17.7s0-.1 0 0l.1-.1c-.1 0-.1 0-.1.1v-.1.1c-.1-.1-.1 0 0 0-.1 0 0 0 0 0zM14.7 17.6l.1.1-.1-.1M14.9 17.7s-.1 0 0 0c-.1 0-.1 0 0 0-.1 0-.1 0 0 0z"/></g><g stroke="#000"><path fill="#AD1519" stroke-width=".021" d="M13.4 17.9"/><path fill="#058E6E" stroke-width=".021" d="M13.7 17.9c-.1 0-.1 0 0 0-.1 0-.1 0 0 0 0-.1 0 0 0 0"/><path fill="#AD1519" stroke-width=".021" d="M14.1 17.9H14s0-.1.1 0h0"/><path fill="#058E6E" stroke-width=".021" d="M14.4 17.9c.1 0 .1 0 0 0 .1 0 .1 0 0 0 0-.1 0 0 0 0"/><path fill="#AD1519" stroke-width=".021" d="M14.7 17.9"/><path fill="#AD1519" stroke-width=".021" stroke-linejoin="round" d="M14.1 18.1c-.2 0-.4 0-.5-.1.1 0 .3-.1.5-.1s.4 0 .5.1c-.2.1-.4.1-.5.1z"/><path fill="none" stroke-width=".001" d="M14.1 18.1V18"/><path fill="none" stroke-width=".002" d="M14 18.1V18M14 18.1V18"/><path fill="none" stroke-width=".003" d="M14 18.1V18M14 18.1V18"/><path fill="none" stroke-width=".004" d="M13.9 18.1V18"/><path fill="none" stroke-width=".005" d="M13.9 18.1"/><path fill="none" stroke-width=".006" d="M13.8 18.1"/><path fill="none" stroke-width=".007" d="M13.8 18.1"/><path fill="none" stroke-width=".008" d="M13.8 18.1"/><path fill="none" stroke-width=".009" d="M13.7 18.1"/><path fill="none" stroke-width=".01" d="M13.7 18.1"/><path fill="none" stroke-width=".011" d="M13.6 18.1"/><path fill="none" stroke-width=".012" d="M13.6 18.1"/><path fill="none" stroke-width=".014" d="M13.6 18"/></g><g stroke="#000" stroke-width=".031"><path fill="#005BBF" d="M15.3 26.5c-.1 0-.2 0-.3-.1-.1 0-.2-.1-.3-.1-.1 0-.2 0-.3.1-.1 0-.2.1-.3.1-.1 0-.2 0-.3-.1-.1 0-.2-.1-.3-.1-.1 0-.2 0-.3.1-.1 0-.2.1-.3.1v.2c.1 0 .2 0 .3-.1.1 0 .2-.1.3-.1.1 0 .2 0 .3.1.1 0 .2.1.3.1.1 0 .2 0 .3-.1.1 0 .2-.1.3-.1.1 0 .2 0 .3.1.1 0 .2.1.3.1v-.2z"/><path fill="#CCC" d="M15.3 26.6c-.1 0-.2 0-.3-.1-.1 0-.2-.1-.3-.1-.1 0-.2 0-.3.1-.1 0-.2.1-.3.1-.1 0-.2 0-.3-.1-.1 0-.2-.1-.3-.1-.1 0-.2 0-.3.1-.1 0-.2.1-.3.1v.2c.1 0 .2 0 .3-.1.1 0 .2-.1.3-.1.1 0 .2 0 .3.1.1 0 .2.1.3.1.1 0 .2 0 .3-.1.1 0 .2-.1.3-.1.1 0 .2 0 .3.1.1 0 .2.1.3.1v-.2"/><path fill="#005BBF" d="M15.3 26.8c-.1 0-.2 0-.3-.1-.1 0-.2-.1-.3-.1-.1 0-.2 0-.3.1-.1 0-.2.1-.3.1-.1 0-.2 0-.3-.1-.1 0-.2-.1-.3-.1-.1 0-.2 0-.3.1-.1 0-.2.1-.3.1v.2c.1 0 .2 0 .3-.1.1 0 .2-.1.3-.1.1 0 .2 0 .3.1.1 0 .2.1.3.1.1 0 .2 0 .3-.1.1 0 .2-.1.3-.1.1 0 .2 0 .3.1.1 0 .2.1.3.1v-.2"/><path fill="#CCC" d="M15.3 27.2c-.1 0-.2 0-.3-.1-.1 0-.2-.1-.3-.1-.1 0-.2 0-.3.1s-.2.1-.3.1c-.1 0-.2 0-.3-.1-.1 0-.2-.1-.3-.1-.1 0-.2 0-.3.1-.1 0-.2.1-.3.1V27c.1 0 .2 0 .3-.1.1 0 .2-.1.3-.1.1 0 .2 0 .3.1.1 0 .2.1.3.1.1 0 .2 0 .3-.1.1 0 .2-.1.3-.1.1 0 .2 0 .3.1.1 0 .2.1.3.1v.2"/><path fill="#005BBF" d="M15.3 27.4c-.1 0-.2 0-.3-.1-.1 0-.2-.1-.3-.1-.1 0-.2 0-.3.1s-.2.1-.3.1c-.1 0-.2 0-.3-.1-.1 0-.2-.1-.3-.1-.1 0-.2 0-.3.1-.1 0-.2.1-.3.1v-.2c.1 0 .2 0 .3-.1.1 0 .2-.1.3-.1.1 0 .2 0 .3.1.1 0 .2.1.3.1.1 0 .2 0 .3-.1.1 0 .2-.1.3-.1.1 0 .2 0 .3.1.1 0 .2.1.3.1v.2z"/><g fill="#C8B100"><path stroke-linejoin="round" d="M13.4 25.7c0 .2-.1.3-.2.3H15c-.1 0-.2-.1-.2-.2l-1.4-.1z"/><path d="M13.4 25.5h1.3s.1 0 .1.1c0 0 0 .1-.1.1h-1.3c-.1 0-.1-.1 0-.2-.1.1-.1 0 0 0zM13.1 26.4H15v-.5h-1.8v.5z"/></g><path fill="#CCC" d="M13.4 25.5h1.3v-6.4h-1.3v6.4z"/><path fill="none" d="M14.3 19.1v6.4m.2-6.4v6.4"/><g fill="#C8B100"><path d="M13.2 18.6H15v-.5h-1.8v.5z"/><path stroke-linejoin="round" d="M13.4 18.9h1.4l-.1-.1s0-.1.1-.1h-1.3l.1.1c-.2 0-.2.1-.2.1z"/><path d="M13.4 18.9h1.3s.1 0 .1.1c0 0 0 .1-.1.1h-1.3c-.1-.1-.1-.1 0-.2-.1 0-.1 0 0 0zM13.4 18.6h1.3s.1 0 .1.1c0 0 0 .1-.1.1h-1.3c-.1-.1-.1-.1 0-.2-.1 0-.1 0 0 0z"/></g></g><g fill="#AD1519" stroke="#000" stroke-width=".031"><path d="M13 23.9c-.2.1-.3.2-.3.3l.1.1c.1.1.2.3.1.3.1-.1.2-.2.2-.4.1-.1 0-.2-.1-.3z"/><path stroke-linejoin="round" d="M16 21.5c-.3-.1-.8-.2-1.3-.2-.2 0-.4 0-.6.1-.8.1-1.4.4-1.3.7l-.3-.7c-.1-.3.6-.6 1.5-.8.3 0 .5-.1.8-.1.6 0 1 .1 1.3.2l-.1.8"/><path d="M13.4 22.3c-.4 0-.6-.1-.6-.3 0-.1.1-.3.3-.4h.3v.7M14.7 21.8c.2 0 .4.1.5.2 0 .1-.2.3-.5.5v-.7"/><path stroke-linejoin="round" d="M12.6 23.5c0-.1.3-.3.8-.5l.6-.3c.7-.3 1.2-.7 1.1-.8l.1.7c.1.1-.4.5-1 .8-.2.1-.6.3-.8.3-.4.1-.7.4-.7.5l-.1-.7z"/></g><g><path fill="#AD1519" stroke="#000" stroke-width=".022" d="M26 17.6l-.1.1h-.1l-.1.1-.1-.1s0 .1-.1.1h-.1-.1l-.1-.1v-.1c0-.1.1-.1.2-.1h.2s.1-.1.3-.1c.1 0 .2 0 .2.1 0 0 .1-.1.2-.1s.2 0 .3.1h.2c.1 0 .2.1.2.1v.1l-.1.1h-.1-.1l-.1-.1-.1.1-.1-.1h-.1c-.3 0-.3-.1-.3-.1z"/><ellipse fill="#C8B100" stroke="#000" stroke-width=".021" cx="26" cy="17.3" rx=".1" ry=".2"/><ellipse fill="#C8B100" stroke="#000" stroke-width=".021" cx="26" cy="17.3" rx=".1" ry=".1"/><ellipse fill="#C8B100" cx="26" cy="17.1" rx=".1" ry=".1"/><path fill="#C8B100" stroke="#000" stroke-width=".024" d="M26.1 17.1h-.2.1V17l.1.1"/><path fill="none" stroke="#000" stroke-width=".021" d="M26 17c0 .1.1.1 0 0v.1c-.1.1-.1 0 0-.1-.1.1-.1.1 0 0"/><g fill="none" stroke="#000" stroke-width=".021"><path stroke-linecap="round" d="M25.2 17.6c-.1 0-.1-.1 0 0 0-.2.1-.3.2-.3h.1"/><path d="M25.6 17.4c-.1 0-.1 0 0 0 0-.2.1-.2.2-.2h.1M26.4 17.4c0-.2-.1-.2-.2-.2h-.1"/><path stroke-linecap="round" d="M26.8 17.6s0-.1 0 0c0-.2-.1-.3-.2-.3h-.1"/></g><g><g fill="#C8B100" stroke="#000" stroke-width=".021"><path d="M25.4 17.9c.1-.1.3-.2.6-.2.2 0 .5 0 .6.1v.2c-.1 0-.3-.1-.5-.1-.3 0-.6.1-.7 0 0 .1 0 .1 0 0"/><path d="M26 18.1c.2 0 .4 0 .5-.1.1 0 .1 0 .1-.1-.1 0-.3-.1-.5-.1s-.4 0-.5.1c0 0 0 .1.1.1-.1.1.1.1.3.1z"/><path d="M26.6 17.8h-.1c-.1 0-.1-.1-.1-.1s-.1.1-.1 0h-.1-.1l-.1-.1-.1.1h-.1l-.1.1c-.1.1-.1 0-.1 0s0 .1-.1.1h-.1c.2 0 .4-.1.6-.1h.6z"/><path d="M26 17.6c0 .1.1.1.1.1s.1 0 .1-.1c0 0 0 .1.1.1 0 0 .1 0 .1-.1 0 0 0 .1.1.1h.1v.1h.1l.1-.1s0 .1-.1.1h-.1-.1-.1c-.1 0-.1 0-.1-.1h-.1-.1-.1s-.1 0-.1-.1l-.1.1h-.1-.1-.1l-.1.1h-.1-.1-.1l-.1-.1.1.1h.1v-.1h.1s.1 0 .1-.1c0 0 0 .1.1.1 0 0 .1 0 .1-.1 0 0 0 .1.1.1.2 0 .3-.1.3-.1z"/><path stroke-linejoin="round" d="M26 17.8c-.2 0-.5 0-.6.1.1-.1.3-.2.6-.1h.6-.6z"/><path d="M25.2 17.7s-.1-.1 0 0l-.1-.1.1.1v-.1c-.1 0 0 0 0 .1 0-.1 0 0 0 0zM25.3 17.6l-.1.1.1-.1M25.2 17.7zM25.4 17.7s0-.1 0 0c0-.1 0-.1 0 0zM25.4 17.6h.1-.1M25.5 17.4v.1-.1M25.7 17.5h-.1.1M25.8 17.6zM25.8 17.5h.1-.1M26 17.4v.2-.2M26.1 17.5H26h.1M26.2 17.6zM26.3 17.5h.1-.1M26.4 17.4v.1-.1M26.5 17.6h-.1.1M26.6 17.7s0-.1 0 0c0-.1 0-.1 0 0zM26.8 17.7s0-.1 0 0l.1-.1c-.1 0-.1 0-.1.1v-.1.1c0-.1 0 0 0 0zM26.6 17.6l.1.1-.1-.1M26.8 17.7c-.1 0-.1 0 0 0z"/></g></g><g><g stroke="#000"><path fill="#AD1519" stroke-width=".021" d="M25.4 17.9"/><path fill="#058E6E" stroke-width=".021" d="M25.6 17.9c-.1 0-.1 0 0 0-.1 0-.1 0 0 0 .1-.1.1 0 0 0 .1 0 .1 0 0 0"/><path fill="#AD1519" stroke-width=".021" d="M26 17.9h-.1s0-.1.1 0h0"/><path fill="#058E6E" stroke-width=".021" d="M26.4 17.9s.1 0 0 0c.1 0 .1 0 0 0-.1-.1-.1 0 0 0-.1 0-.1 0 0 0"/><path fill="#AD1519" stroke-width=".021" d="M26.6 17.9"/><path fill="#AD1519" stroke-width=".021" stroke-linejoin="round" d="M26 18.1c-.2 0-.4 0-.5-.1.1 0 .3-.1.5-.1s.4 0 .5.1c-.1.1-.3.1-.5.1z"/><path fill="none" stroke-width=".001" d="M26 18.1V18"/><path fill="none" stroke-width=".002" d="M26 18.1V18M25.9 18.1V18"/><path fill="none" stroke-width=".003" d="M25.9 18.1V18M25.9 18.1V18"/><path fill="none" stroke-width=".004" d="M25.9 18.1V18"/><path fill="none" stroke-width=".005" d="M25.8 18.1"/><path fill="none" stroke-width=".006" d="M25.8 18.1"/><path fill="none" stroke-width=".007" d="M25.7 18.1"/><path fill="none" stroke-width=".008" d="M25.7 18.1"/><path fill="none" stroke-width=".009" d="M25.7 18.1"/><path fill="none" stroke-width=".01" d="M25.6 18.1"/><path fill="none" stroke-width=".011" d="M25.6 18.1"/><path fill="none" stroke-width=".012" d="M25.6 18.1"/><path fill="none" stroke-width=".014" d="M25.5 18"/></g></g></g><g><g stroke="#000" stroke-width=".031"><path fill="#005BBF" d="M27.2 26.5c-.1 0-.2 0-.3-.1-.1 0-.2-.1-.3-.1-.1 0-.2 0-.3.1-.1 0-.2.1-.3.1-.1 0-.2 0-.3-.1-.1 0-.2-.1-.3-.1-.1 0-.2 0-.3.1-.1 0-.2.1-.3.1v.2c.1 0 .2 0 .3-.1.1 0 .2-.1.3-.1.1 0 .2 0 .3.1.1 0 .2.1.3.1.1 0 .2 0 .3-.1.1 0 .2-.1.3-.1.1 0 .2 0 .3.1.1 0 .2.1.3.1v-.2z"/><path fill="#CCC" d="M27.2 26.6c-.1 0-.2 0-.3-.1-.1 0-.2-.1-.3-.1-.1 0-.2 0-.3.1-.1 0-.2.1-.3.1-.1 0-.2 0-.3-.1-.1 0-.2-.1-.3-.1-.1 0-.2 0-.3.1-.1 0-.2.1-.3.1v.2c.1 0 .2 0 .3-.1.1 0 .2-.1.3-.1.1 0 .2 0 .3.1.1 0 .2.1.3.1.1 0 .2 0 .3-.1.1 0 .2-.1.3-.1.1 0 .2 0 .3.1.1 0 .2.1.3.1v-.2"/><path fill="#005BBF" d="M27.2 26.8c-.1 0-.2 0-.3-.1-.1 0-.2-.1-.3-.1-.1 0-.2 0-.3.1-.1 0-.2.1-.3.1-.1 0-.2 0-.3-.1-.1 0-.2-.1-.3-.1-.1 0-.2 0-.3.1-.1 0-.2.1-.3.1v.2c.1 0 .2 0 .3-.1.1 0 .2-.1.3-.1.1 0 .2 0 .3.1.1 0 .2.1.3.1.1 0 .2 0 .3-.1.1 0 .2-.1.3-.1.1 0 .2 0 .3.1.1 0 .2.1.3.1v-.2"/><path fill="#CCC" d="M27.2 27.2c-.1 0-.2 0-.3-.1-.1 0-.2-.1-.3-.1-.1 0-.2 0-.3.1s-.2.1-.3.1c-.1 0-.2 0-.3-.1-.1 0-.2-.1-.3-.1-.1 0-.2 0-.3.1-.1 0-.2.1-.3.1V27c.1 0 .2 0 .3-.1.1 0 .2-.1.3-.1.1 0 .2 0 .3.1.1 0 .2.1.3.1.1 0 .2 0 .3-.1.1 0 .2-.1.3-.1.1 0 .2 0 .3.1.1 0 .2.1.3.1v.2"/><path fill="#005BBF" d="M27.2 27.4c-.1 0-.2 0-.3-.1-.1 0-.2-.1-.3-.1-.1 0-.2 0-.3.1s-.2.1-.3.1c-.1 0-.2 0-.3-.1-.1 0-.2-.1-.3-.1-.1 0-.2 0-.3.1-.1 0-.2.1-.3.1v-.2c.1 0 .2 0 .3-.1.1 0 .2-.1.3-.1.1 0 .2 0 .3.1.1 0 .2.1.3.1.1 0 .2 0 .3-.1.1 0 .2-.1.3-.1.1 0 .2 0 .3.1.1 0 .2.1.3.1v.2z"/><g fill="#C8B100"><path stroke-linejoin="round" d="M25.3 25.7c0 .2-.1.3-.2.3h1.8c-.1 0-.2-.1-.2-.2l-1.4-.1z"/><path d="M25.3 25.5h1.3s.1 0 .1.1c0 0 0 .1-.1.1h-1.3s-.1-.1 0-.2c-.1.1 0 0 0 0zM25.1 26.4h1.8v-.5h-1.8v.5z"/></g><path fill="#CCC" d="M25.3 25.5h1.3v-6.4h-1.3v6.4z"/><path fill="none" d="M26.3 19.1v6.4m.1-6.4v6.4"/><g fill="#C8B100"><path d="M25.1 18.6h1.8v-.5h-1.8v.5z"/><path stroke-linejoin="round" d="M25.3 18.9h1.4l-.1-.1s0-.1.1-.1h-1.3l.1.1c-.1 0-.2.1-.2.1z"/><path d="M25.3 18.9h1.3s.1 0 .1.1c0 0 0 .1-.1.1h-1.3c0-.1-.1-.1 0-.2-.1 0 0 0 0 0zM25.3 18.6h1.3s.1 0 .1.1c0 0 0 .1-.1.1h-1.3c0-.1-.1-.1 0-.2-.1 0 0 0 0 0z"/></g></g></g><g><g fill="#AD1519" stroke="#000" stroke-width=".031"><path d="M473.57 23.9c-.2.1-.3.2-.3.3l.1.1c.1.1.2.3.1.3.1-.1.2-.2.2-.4 0-.1 0-.2-.1-.3z"/><path stroke-linejoin="round" d="M476.57 21.5c-.3-.1-.8-.2-1.3-.2-.2 0-.4 0-.6.1-.8.1-1.4.4-1.3.7l-.3-.7c-.1-.3.6-.6 1.5-.8.3 0 .5-.1.8-.1.6 0 1 .1 1.3.2l-.1.8"/><path d="M473.97 22.3c-.4 0-.6-.1-.6-.3 0-.1.1-.3.3-.4h.3v.7M475.27 21.8c.2 0 .4.1.5.2 0 .1-.2.3-.5.5v-.7"/><path stroke-linejoin="round" d="M473.07 23.5c0-.1.3-.3.8-.5l.6-.3c.7-.3 1.2-.7 1.1-.8l.1.7c.1.1-.4.5-1 .8-.2.1-.6.3-.8.3-.4.1-.7.4-.7.5l-.1-.7z"/></g></g><g fill="#C8B100"><path d="M13.3 21.2c.2-.1.3-.1.2-.3 0-.1-.1-.1-.2-.1l-.2.1.2.5h.2l-.2-.2zm-.1-.3h.2v.1h-.1l-.1-.1M13.8 20.7s0 .1 0 0h-.1l.1.5.4-.1c-.1 0-.1 0-.2.1l-.2-.5M14.5 21.2c.1-.2.1-.4.2-.5 0 .1-.1.3-.1.4-.1-.1-.1-.2-.2-.4h-.1-.1c.1.1.2.3.3.5M15.3 20.8s0-.1 0 0c0-.1 0-.1-.1-.1s-.2 0-.2.1c0 .2.3.2.3.3 0 .1-.1.1-.1.1-.1 0-.1 0-.1-.1v.1h.1c.1 0 .3 0 .3-.1 0-.2-.3-.2-.3-.3 0 0 0-.1.1-.1-.1 0-.1 0 0 .1M24.8 21.2c0-.2.1-.4.2-.5 0 .1-.1.3-.1.4-.1-.1-.2-.2-.2-.3h-.1-.1c0 .1.1.2.3.4M25.3 20.7h-.1v.5h.4-.2l-.1-.5M25.9 20.7h.2-.5.2v.5h.2l-.1-.5M26.1 21.2h.1l.1-.2v.1l.1.2h.2v-.1c0-.1-.1-.2-.1-.2.1 0 .2 0 .2-.1 0 0 0-.1-.1-.1H26.3l-.2.4m.2-.4c.1 0 .1 0 .1.1s-.1.1-.2.1l.1-.2M27 21.4v.2h.2V21l-.5.3.1-.1.2.2zm-.1-.1l.2-.1v.2l-.2-.1"/></g><g stroke="#000"><path fill="#AD1519" stroke-width=".021" d="M20 14.6c.5 0 1 .1 1.3.2.2.1.4.1.7.2h.5c.2 0 .5.1.8.2.3.1.5.3.6.4l-.1.1v.3l-.3.4-.2.1-.4.3h-.2l-.1.2-2.6-.2-2.6.3-.1-.2h-.2l-.4-.3-.2-.1-.3-.5v-.3l-.2-.1c.1-.1.4-.3.6-.4.3-.1.6-.2.8-.2h.5c.3 0 .5-.1.7-.2.4-.1.8-.2 1.4-.2z"/><path fill="#C8B100" stroke-width=".031" d="M18 15.3l.1.1.2-.3c-.2-.1-.3-.3-.3-.5v-.1c0-.3.4-.6 1-.6.3 0 .5.1.7.2V14c-.2-.1-.4-.2-.7-.2-.6 0-1.1.4-1.1.8v.1c0 .2.1.4.3.6H18"/><path fill="#C8B100" stroke-width=".031" d="M18 15.3c-.2-.2-.3-.4-.3-.6 0-.3.2-.5.4-.7-.2.1-.3.3-.3.5v.1c0 .2.1.4.3.6l-.1.1"/><path fill="#C8B100" stroke-width=".031" d="M16.2 15.6c-.1-.1-.2-.3-.2-.5 0-.1 0-.2.1-.3.2-.4.7-.6 1.3-.6.2 0 .3 0 .5.1l-.1.1h-.4c-.6 0-1.1.2-1.2.5 0 .1-.1.2-.1.3 0 .2.1.4.2.5l-.2.3-.1-.2.2-.2z"/><path fill="#C8B100" stroke-width=".031" d="M16.4 14.4c-.2.1-.3.2-.3.3 0 .1-.1.2-.1.3 0 .2.1.4.2.5l-.2.3c-.1-.2-.2-.3-.2-.5.1-.4.3-.7.6-.9zM20 13.7c.1 0 .3.1.3.2v.4c0 .3 0 .5.1.7l-.4.5-.4-.4c.1-.2.1-.4.1-.7V14c0-.2.2-.3.3-.3z"/><path fill="#C8B100" stroke-width=".031" d="M20 13.8c.1 0 .1 0 .1.1v.4c0 .3 0 .5.1.6l-.2.4-.3-.3c.1-.1.1-.4.1-.6V14c.1-.1.1-.2.2-.2zM22 15.3l-.1.1-.2-.3c.2-.1.3-.3.3-.5v-.1c0-.3-.4-.6-1-.6-.3 0-.5.1-.7.2V14c.2-.1.4-.2.7-.2.6 0 1.1.4 1.1.8v.1c0 .2-.1.4-.3.6h.2"/><path fill="#C8B100" stroke-width=".031" d="M22 15.3c.2-.2.3-.4.3-.6 0-.3-.2-.5-.4-.7.2.1.3.3.3.5v.1c0 .2-.1.4-.3.6l.1.1"/><path fill="#C8B100" stroke-width=".031" d="M23.8 15.6c.1-.1.2-.3.2-.5 0-.1 0-.2-.1-.3-.2-.4-.7-.6-1.3-.6-.2 0-.3 0-.5.1l.1.1h.4c.6 0 1.1.2 1.2.5 0 .1.1.2.1.3 0 .2-.1.4-.2.5l.2.3.1-.1-.2-.3z"/><path fill="#C8B100" stroke-width=".031" d="M23.6 14.4c.2.1.3.2.3.3 0 .1.1.2.1.3 0 .2-.1.4-.2.5l.1.2c.1-.2.2-.3.2-.5 0-.3-.2-.6-.5-.8z"/><ellipse fill="#005BBF" stroke-width=".021" cx="20" cy="13.4" rx=".4" ry=".3"/><path fill="#C8B100" stroke-width=".021" d="M19.9 12.4v.2h-.2v.2h.2v.6h-.2v.1h.6v-.1h-.2v-.6h.2v-.2h-.2v-.2h-.2z"/><g fill="#FFF" stroke-width=".031"><ellipse cx="20" cy="15.1" rx=".2" ry=".1"/><ellipse cx="20" cy="14.8" rx=".2" ry=".1"/><ellipse cx="20" cy="14.5" rx=".1" ry=".1"/><ellipse cx="20" cy="14.3" rx=".1" ry=".1"/><ellipse cx="20" cy="14" rx=".1" ry=".1"/><ellipse cx="15.9" cy="15.9" rx=".1" ry=".1"/><ellipse cx="15.8" cy="15.7" rx=".1" ry=".1"/><ellipse cx="15.7" cy="15.4" rx=".1" ry=".1"/><ellipse cx="15.7" cy="15.2" rx=".1" ry=".1"/><ellipse cx="15.8" cy="14.9" rx=".1" ry=".1"/><ellipse cx="15.9" cy="14.7" rx=".1" ry=".1"/><ellipse cx="16.1" cy="14.5" rx=".1" ry=".1"/><ellipse cx="16.3" cy="14.3" rx=".1" ry=".1"/><ellipse cx="16.5" cy="14.2" rx=".1" ry=".1"/><ellipse cx="16.8" cy="14.1" rx=".1" ry=".1"/><ellipse cx="17.1" cy="14" rx=".1" ry=".1"/><ellipse cx="17.4" cy="14" rx=".1" ry=".1"/><ellipse cx="17.6" cy="14" rx=".1" ry=".1"/><ellipse cx="17.9" cy="15.2" rx=".1" ry=".1"/><ellipse cx="17.8" cy="15" rx=".1" ry=".1"/><ellipse cx="17.7" cy="14.8" rx=".1" ry=".1"/><ellipse cx="17.7" cy="14.5" rx=".1" ry=".1"/><ellipse cx="17.8" cy="14.3" rx=".1" ry=".1"/><ellipse cx="17.9" cy="14" rx=".1" ry=".1"/><ellipse cx="18.1" cy="13.9" rx=".1" ry=".1"/><ellipse cx="18.4" cy="13.7" rx=".1" ry=".1"/><ellipse cx="18.6" cy="13.7" rx=".1" ry=".1"/><ellipse cx="18.9" cy="13.6" rx=".1" ry=".1"/><ellipse cx="19.2" cy="13.6" rx=".1" ry=".1"/><ellipse cx="19.4" cy="13.7" rx=".1" ry=".1"/><ellipse cx="19.7" cy="13.8" rx=".1" ry=".1"/><ellipse cx="20.3" cy="13.8" rx=".1" ry=".1"/><ellipse cx="20.6" cy="13.7" rx=".1" ry=".1"/><ellipse cx="20.8" cy="13.6" rx=".1" ry=".1"/><ellipse cx="21.1" cy="13.6" rx=".1" ry=".1"/><ellipse cx="21.4" cy="13.7" rx=".1" ry=".1"/><ellipse cx="21.7" cy="13.7" rx=".1" ry=".1"/><ellipse cx="21.9" cy="13.9" rx=".1" ry=".1"/><ellipse cx="22.1" cy="14" rx=".1" ry=".1"/><ellipse cx="22.2" cy="14.3" rx=".1" ry=".1"/><ellipse cx="22.3" cy="14.5" rx=".1" ry=".1"/><ellipse cx="22.3" cy="14.8" rx=".1" ry=".1"/><ellipse cx="22.2" cy="15" rx=".1" ry=".1"/><ellipse cx="22.1" cy="15.2" rx=".1" ry=".1"/><ellipse cx="22.4" cy="14" rx=".1" ry=".1"/><ellipse cx="22.6" cy="14" rx=".1" ry=".1"/><ellipse cx="22.9" cy="14" rx=".1" ry=".1"/><ellipse cx="23.2" cy="14.1" rx=".1" ry=".1"/><ellipse cx="23.5" cy="14.2" rx=".1" ry=".1"/><ellipse cx="23.7" cy="14.3" rx=".1" ry=".1"/><ellipse cx="23.9" cy="14.5" rx=".1" ry=".1"/><ellipse cx="24.1" cy="14.7" rx=".1" ry=".1"/><ellipse cx="24.2" cy="14.9" rx=".1" ry=".1"/><ellipse cx="24.3" cy="15.2" rx=".1" ry=".1"/><ellipse cx="24.3" cy="15.4" rx=".1" ry=".1"/><ellipse cx="24.2" cy="15.7" rx=".1" ry=".1"/><ellipse cx="24.1" cy="15.9" rx=".1" ry=".1"/></g><g stroke-width=".031"><path fill="#C8B100" d="M20 18.1c-1 0-1.9-.1-2.5-.3l-.1-.1s0-.1.1-.1c.6-.2 1.5-.3 2.5-.3s1.9.1 2.5.3l.1.1s0 .1-.1.1c-.6.2-1.5.3-2.5.3"/><path fill="#C8B100" d="M20 17.3c-1 0-1.9.1-2.5.3.1 0 0-.1 0-.3-.1-.2-.2-.2-.2-.2.7-.2 1.7-.3 2.7-.3 1.1 0 2 .1 2.7.3 0 0-.1 0-.2.2s-.1.2 0 .3c-.6-.2-1.5-.3-2.5-.3"/><path fill="#C8B100" d="M20 16.8c-1.1 0-2 .1-2.7.3h-.1s0-.1.1-.1c.7-.2 1.7-.3 2.8-.4 1.1 0 2.1.1 2.8.4l.1.1s-.1.1-.1 0c-.8-.1-1.8-.3-2.9-.3"/><path fill="#C8B100" d="M20 16l.1.1c0 .2.2.4.4.4s.3-.1.4-.3c0 0 0-.1.1-.1v.1c0 .2.2.3.4.3s.4-.2.4-.4l.1-.1.1.2v.2c0 .2.2.4.4.4.1 0 .2-.1.3-.2l.1-.1v.1c0 .1.1.2.2.3 0 0 .1 0 .3-.1.2-.1.3-.3.3-.3v.1l-.3.3c-.3.1-.4.1-.5.1-.1 0-.2-.1-.2-.2-.1 0-.2.1-.3.1-.2 0-.4-.1-.5-.3-.1.1-.2.2-.4.2s-.3-.1-.4-.2c-.1.1-.2.1-.4.1s-.4-.1-.5-.2c-.1.1-.3.2-.5.2s-.3-.1-.4-.1c-.1.1-.3.2-.4.2-.2 0-.3-.1-.4-.2-.1.2-.3.3-.5.3-.1 0-.2 0-.3-.1 0 .1-.1.2-.2.2s-.2 0-.3-.1c-.2-.1-.3-.3-.3-.3v-.1l.3.3c.2.1.3.1.3.1.1 0 .2-.1.2-.3v-.1l.1.1c.1.1.2.2.3.2.2 0 .4-.2.4-.4v-.2l.1-.2.1.1c0 .2.2.4.4.4s.4-.1.4-.3v-.1s0 .1.1.1c.1.1.2.3.4.3s.4-.2.4-.4V16H20"/><path fill="#C8B100" d="M16.7 16.5s-.1-.1 0 0c-.1-.1-.2-.1-.2-.1s-.1-.2-.2-.2c-.1-.1-.3 0-.3 0 0-.1.1-.2.2-.2s.2 0 .2.1V16s.1 0 .2.1v.3s0-.1.1-.1c0-.1.1-.1.2-.1s.1-.1.1-.1v.1h.3c0 .1-.1.1-.2.2l.1.1h-.1-.4"/><path fill="#AD1519" d="M16.4 16.4h.2c.1.1.1.1 0 .2h-.2v-.2"/><path fill="#FFF" d="M17.3 16.5v-.1s.1 0 .1.1v.1l-.1-.1"/><path fill="#C8B100" d="M18.1 16.1s-.1 0 0 0c-.1-.1-.1-.1 0-.1 0 0-.1 0-.1-.1h-.2-.1v.1c-.1 0-.2.1-.2.2.1.1.2.1.3.1v.1h.1s.1 0 .2-.1c-.1-.1 0-.2 0-.2M18.1 15.3c.1.1.2.1.2.2h.2V15.8c0 .1-.1.1-.1.1h-.1s-.1 0-.1.1c0 0-.1 0-.1-.1s-.1-.1-.1-.2l-.1-.1h.2c-.1-.1-.1-.2 0-.3"/><path fill="#C8B100" d="M18.3 16.1s0-.1 0 0v-.2l.1-.1s.1-.1.2-.1h.1v.1c.1 0 .2 0 .3.1l-.2.2v.1h-.1-.2c-.1-.1-.2-.1-.2-.1"/><ellipse fill="#AD1519" cx="18.2" cy="16" rx=".2" ry=".2"/><path fill="#FFF" d="M19 16.1c0-.1 0-.1.1-.1s.1 0 .1.1 0 .1-.1.1c0 .1-.1 0-.1-.1"/><path fill="#C8B100" d="M19.9 16v-.1-.1s-.1-.1-.2-.1-.2 0-.2-.1h-.1v.2c-.1 0-.2.1-.3.1.1.1.2.1.3.1v.2h.1s.1 0 .2-.1.2-.1.2-.1M20 15.1c.1.1.1.2.2.3h.2v.1s0 .1-.1.2c0 .1-.1.1-.1.1l-.1-.1c-.1 0-.1 0-.1.1 0 0 0-.1-.1-.1 0-.1-.1-.2-.1-.2v-.1h.2c-.1-.1-.1-.3 0-.3"/><path fill="#C8B100" d="M20.1 16v-.1-.1s.1-.1.2-.1.2 0 .2-.1h.1v.2c.1 0 .2.1.3.1-.1.1-.2.1-.3.1v.2h-.1s-.1 0-.2-.1-.2-.1-.2-.1"/><ellipse fill="#AD1519" cx="20" cy="15.9" rx=".2" ry=".2"/><path fill="#FFF" d="M21 16.1c0-.1 0-.1-.1-.1s-.1 0-.1.1 0 .1.1.1c0 .1.1 0 .1-.1"/><path fill="#C8B100" d="M21.7 16.1s0-.1 0 0v-.2l-.1-.1s-.1-.1-.2-.1h-.1v.1c-.1 0-.2 0-.3.1l.2.2v.1H21.5c.1-.1.2-.1.2-.1"/><path fill="#C8B100" d="M22 15.3c-.1.1-.2.1-.2.2h-.1-.1V15.8c0 .1.1.1.1.1h.1s.1 0 .1.1c0 0 .1 0 .1-.1s.1-.1.1-.2l.1-.1H22c.1-.1 0-.2 0-.3M21.9 16.1c.1 0 .1 0 0 0l.1-.1s.1 0 .1-.1H22.4v.1c.1 0 .2.1.2.2-.1.1-.2.1-.3.1v.1h-.1s-.1 0-.2-.1c0-.1-.1-.2-.1-.2"/><ellipse fill="#AD1519" cx="21.8" cy="16" rx=".2" ry=".2"/><path fill="#FFF" d="M22.7 16.5v-.1s-.1 0-.1.1v.1l.1-.1"/><path fill="#C8B100" d="M23.4 16.5s0-.1 0 0c.1-.1.2-.1.2-.1s.1-.2.2-.2c.1-.1.3 0 .3 0 0-.1-.1-.2-.2-.2s-.2 0-.2.1V16s-.1 0-.2.1v.3s0-.1-.1-.1c0-.1-.1-.1-.2-.1s-.1-.1-.1-.1v.1h-.3c0 .1.1.1.2.2l-.1.1h.5"/><path fill="#AD1519" d="M23.6 16.4h-.2c-.1.1-.1.1 0 .2h.2v-.2"/></g><g><path fill="#AD1519" stroke-width=".031" stroke-linejoin="round" d="M20 18c-.9 0-1.7-.1-2.3-.3.6-.2 1.4-.3 2.3-.3.9 0 1.7.1 2.3.3-.6.2-1.4.3-2.3.3z"/><path fill="none" stroke-width=".004" d="M20.6 17.9v-.5m-.2.6v-.5m-.2.5v-.5"/><path fill="none" stroke-width=".007" d="M20.1 18v-.5"/><path fill="none" stroke-width=".011" d="M19.9 18v-.5"/><path fill="none" stroke-width=".014" d="M19.8 18v-.5"/><path fill="none" stroke-width=".018" d="M19.7 18v-.5"/><path fill="none" stroke-width=".022" d="M19.5 18v-.5"/><path fill="none" stroke-width=".026" d="M19.3 17.9v-.5m.1.5v-.5"/><path fill="none" stroke-width=".03" d="M19.1 17.9v-.4m.1.4v-.5"/><path fill="none" stroke-width=".034" d="M18.8 17.9v-.4m.1.4v-.4m.1.4v-.4"/><path fill="none" stroke-width=".037" d="M18.7 17.9v-.4"/><path fill="none" stroke-width=".041" d="M18.6 17.9v-.3"/><path fill="none" stroke-width=".045" d="M18.5 17.9v-.3"/><path fill="none" stroke-width=".048" d="M18.3 17.8v-.3m.1.3v-.3"/><path fill="none" stroke-width=".05" d="M18.2 17.8v-.2"/><path fill="none" stroke-width=".054" d="M18.1 17.8v-.2"/><path fill="none" stroke-width=".058" d="M18 17.8v-.1"/><path fill="none" stroke-width=".062" d="M17.9 17.8v-.1"/><path fill="none" stroke-width=".073" d="M17.8 17.7"/><path fill="none" stroke-width=".031" d="M17.6 17.7c.6-.2 1.5-.3 2.4-.3.9 0 1.8.1 2.4.3"/><path fill="#AD1519" stroke-width=".031" d="M17.3 17.4l.1-.1h.3l-.2.2-.2-.1"/><path fill="#FFF" stroke-width=".031" d="M17.9 17.2s.1-.1 0 0c.1-.1.2 0 .2 0 0 .1 0 .1-.2 0 .1.1 0 .1 0 0"/><path fill="#058E6E" stroke-width=".031" d="M18.7 17.2h-.2s-.1 0-.1-.1c0 0 0-.1.1-.1h.4s.1 0 .1.1c0 0 0 .1-.1.1h-.2"/><path fill="#FFF" stroke-width=".031" d="M19.2 17.1c0-.1.1-.1 0 0 .1-.1.2 0 .2 0s0 .1-.2 0c.1.1 0 0 0 0"/><path fill="#AD1519" stroke-width=".031" d="M20 17.1h-.3s-.1 0-.1-.1c0 0 0-.1.1-.1h.5s.1 0 .1.1c0 0 0 .1-.1.1H20"/><path fill="#FFF" stroke-width=".031" d="M20.6 17.1c0-.1 0-.1 0 0 .1-.1.2 0 .2 0s-.1.1-.2 0c0 .1 0 0 0 0"/><path fill="#058E6E" stroke-width=".031" d="M21.3 17.2h.2s.1 0 .1-.1 0-.1-.1-.1h-.4s-.1 0-.1.1c0 0 0 .1.1.1h.2"/><path fill="#FFF" stroke-width=".031" d="M21.9 17.2s.1-.1 0 0c.1-.1.2 0 .2 0 0 .1 0 .1-.2 0 .1.1 0 .1 0 0"/><path fill="#AD1519" stroke-width=".031" d="M22.7 17.4l-.1-.1h-.3l.2.2.2-.1"/></g></g><g><g stroke="#000" stroke-width=".042"><path fill="#CCC" d="M20 27.5c-1 0-2.1-.3-3-.7-.6-.3-1.1-1-1.1-1.7v-2.7h8v2.7c0 .7-.4 1.4-1.1 1.7-.7.5-1.7.7-2.8.7z"/><path fill="#FFD691" d="M20.2 26.4c.2.1.3.2.3.3 0 .2-.2.3-.4.3s-.4-.1-.4-.3c0-.1.1-.3.2-.3l-.1-.1h.2v-.1h.1v.1s.1 0 .1.1v-.1s.1 0 0 .1c0-.1 0 0 0 0"/><path fill="#058E6E" d="M20 27.2s-.3-.2-.5-.2H19l.1.1s.2.1.3.2c.4 0 .6-.1.6-.1M20.1 27.2s.2-.2.4-.2h.5s-.1 0-.1.1c0 0-.2.1-.3.1h-.5c.1 0 0 0 0 0"/><path fill="#AD1519" d="M20.1 27c-.1-.1-.1-.2-.1-.3 0-.1 0-.2.1-.3.1.1.1.2.1.3 0 .1-.1.2-.1.3"/><path fill="#058E6E" d="M20 27.4s0-.1.1-.2V27v.4H20"/></g><g stroke="#000" stroke-width=".042"><path fill="#AD1519" d="M20 25.2c0 1.1-.9 1.9-2 1.9s-2-.9-2-1.9v-2.7h4v2.7"/><path fill="#C8B100" d="M16 25.1c0 .6.2 1 .5 1.3v-4H16v2.7zM16.9 26.7c.1.1.3.2.5.2v-4.6h-.5v4.4zM17.8 27.1h.5v-4.7h-.5v4.7zM18.7 27c.2 0 .4-.2.5-.2v-4.3h-.5V27zM19.6 26.3c.2-.2.4-.6.4-1v-2.9h-.5l.1 3.9z"/></g><path fill="#AD1519" stroke="#000" stroke-width=".042" d="M24.1 22.5v2.7c0 1.1-.9 1.9-2 1.9s-2-.9-2-1.9v-2.7h4"/><path fill="#C8B100" stroke="#C8B100" stroke-width=".021" d="M21.8 24.5l-.3-.4-.1.1-.2-.3.1-.1-.4-.5v.3h.1v.4h-.1v.3c.1 0 .1.1.1.1h.3v-.1h.4v.1l.1.1zm-.5-1.5v.1h.2V23h-.2zm-.6 1.6s.1 0 0 0c.1-.1.1-.2 0-.2-.1.1-.1.1 0 .2-.1 0-.1 0 0 0zm1.3-.7h-.1v-.4h.1v-.2c-.1 0-.1-.1-.1-.1h-.2v.1h-.4v-.1h-.2l.4.5.1-.1.2.3-.2.1.3.4.1-.5zm-.6-.1l-.1.1.1.2.1-.1-.1-.2zm.6 2.8c-.1 0-.2-.1-.2-.2-.1 0-.3-.1-.4-.1l.1-.1c.1 0 .2.1.3.1 0-.1.1-.1.1-.1v-.4h-.1v-.4h.1v-.6l-.3.4.1.1-.2.3-.1-.1-.3.3v.2c.1.1.2.2.3.2l-.1.1-.3-.3h-.2c-.1-.1-.1-.2 0-.3-.1-.1-.1-.3-.1-.4h.1c0 .1 0 .2.1.3h.1l.3-.3-.1-.1.2-.3.1.1.3-.4h-.2v.1h-.4v-.1h-.3c0 .1-.1.1-.1.1v.3h-.1v-.3c-.1 0-.2-.1-.2-.2s.1-.2.2-.2V24h-.1v-.4h.1v-.3c-.1 0-.1-.1-.1-.2s.1-.2.2-.2.2.1.2.1h.2v-.1h.4v.1h.2c0-.1.1-.1.2-.1V26.6zm-.5-1.4l-.1-.1-.1.2.1.1.1-.2zm-.8-1.5h-.1v.2h.1v-.2zm.8.9v-.1h-.2v.1h.2zm-.9.8h-.1V25h.1v.4zm.1-.4h.1v.4h-.1V25zm.9 1.3v-.1c-.1 0-.2-.1-.3-.2l-.1.1c.1.1.3.2.4.2zm-.1.1l-.1.1c-.1 0-.2-.1-.3-.2v-.1c.2.1.3.2.4.2zM528.23 24.5l-.3-.4-.1.1-.2-.3.1-.1-.4-.5v.3h.1v.4h-.1v.3c.1 0 .1.1.1.1h.3v-.1h.4v.1l.1.1zm-.6-1.5v.1h.2V23h-.2zm-.6 1.6c.1 0 .1 0 0 0 .1-.1.1-.2 0-.2 0 .1-.1.1 0 .2-.1 0 0 0 0 0zm1.3-.7h-.1v-.4h.1v-.2c-.1 0-.1-.1-.1-.1h-.2v.1h-.4v-.1h-.2l.4.5.1-.1.2.3-.1.1.3.4v-.5zm-.6-.1l-.1.1.2.1.1-.1-.2-.1zm.7 2.8c-.1 0-.2-.1-.2-.2-.1 0-.3-.1-.4-.1l.1-.1c.1 0 .2.1.3.1 0-.1.1-.1.1-.1v-.4h-.1v-.4h.1v-.6l-.3.4.1.1-.2.3-.1-.1-.3.3v.2c.1.1.2.2.3.2l-.1.1-.3-.3h-.2c-.1-.1-.1-.2 0-.3-.1-.1-.1-.3-.1-.4h.1c0 .1 0 .2.1.3h.1l.3-.3-.1-.1.1-.2h.2l.3-.4h-.2v.1h-.4v-.1h-.3c0 .1-.1.1-.1.1v.3h-.1v-.3c-.1 0-.2-.1-.2-.2s.1-.2.2-.2V24h-.1v-.4h.1v-.3c-.1 0-.1-.1-.1-.2s.1-.2.2-.2.2.1.2.1h.2v-.1h.4v.1h.2c0-.1.1-.1.2-.1v.7h-.1v.2h.1v1.7h-.1v.2h.1v.9zm-.5-1.4l-.1-.1-.1.2.1.1.1-.2zm-.8-1.5h-.1v.2h.1v-.2zm.7.9v-.1h-.2v.1h.2zm-.8.8h-.1V25h.1v.4zm.1-.4h.1v.4h-.1V25zm.9 1.3v-.1c-.1 0-.2-.1-.3-.2l-.1.1c.1.1.2.2.4.2zm-.1.1l-.1.1c-.1 0-.2-.1-.3-.2v-.1c.1.1.3.2.4.2z"/><path fill="#058E6E" d="M21.8 24.6c0-.1.1-.2.2-.2s.2.1.2.2-.1.2-.2.2-.2-.1-.2-.2"/><g><path fill="#AD1519" stroke="#000" stroke-width=".042" d="M16 22.5h4V18h-4v4.5z"/><path fill="#C8B100" stroke="#000" stroke-width=".037" d="M17.4 19.1l-.2-.1v.3h.1v.2H17v.6h.1v1.2h-.3v.6h2.3v-.6h-.3v-1.2h.2v-.6h-.3v-.2h.1V19h-.1v.1h-.1V19h-.1v.1h-.1V19h-.1v.3h.1v.2h-.3v-.6h.1v-.3h-.1v.1H18v-.1.1h-.1v-.1h-.1v.3h.1v.6h-.3v-.2h.1V19h-.1v.1h-.1V19l-.1.1zm-.5 2.8h2.3m-2.3-.2h2.3m-2.3-.1h2.3m-2.3-.2h2.3m-2.3-.1h2.3m-2-.2h1.7m-1.7-.1h1.7m-1.7-.2h1.7m-1.7-.1h1.7m-1.7-.2h1.7m-1.7-.1h1.7m-1.7-.2h1.7m-1.9-.1h2m-2-.2h2m-2-.1h2m-2-.2h2m-1.7-.1h1.4m-.8-.1h.3m-.3-.2h.3m-.3-.1h.3m-.3-.2h.3m-.5-.2h.6m-1 .7h.3m-.4-.2h.6m-.6 2.7v-.1m0-.2v-.1m-.2.1v.1m.3 0v-.1m.2.3v-.1m0-.2v-.1m0-.2v-.1m0-.2v-.2m-.2.6v-.2m-.3.2v-.2m.6.1v.2m.1-.2v-.1m-.4-.2v.1m.3-.1v.1m.3-.1v.1m-.2-.1v-.2m.2-.1v.1m0-.4v.1m-.2-.3v.1m.2-.2v.1m-.3-.1v.1m-.3-.1v.1m-.1-.3v.1m.3-.1v.1m.2-.1v.1m.2-.2v.1m-.3-.1v.1m-.3-.1v.1m-.1-.3v.1m.5-.1v.1m-.2-.3v.1m1.2-.1h-.3m.5-.2h-.6m.6 2.7v-.1m0-.2v-.1m.1.1v.1m-.3 0v-.1m-.1.3v-.1m0-.2v-.1m0-.2v-.1m0-.2v-.2m.1.6v-.2m.3.2v-.2m-.6.1v.2m-.1-.2v-.1m.4-.2v.1m-.3-.1v.1m-.2-.1v.1m.1-.1v-.2m-.1-.1v.1m0-.4v.1m.1-.3v.1m-.1-.2v.1m.2-.1v.1m.3-.1v.1m.2-.3v.1m-.3-.1v.1m-.3-.1v.1m-.1-.2v.1m.2-.1v.1m.3-.1v.1m.2-.3v.1m-.6-.1v.1m.3-.3v.1M18 21v-.2m0-.4v-.1m0 .4v-.1m0-.5V20m0-.2v-.1m0-.3v-.1m0-.2V19m-.7.3h.3m.3-.4h.3m.2.4h.3"/><path fill="#C8B100" stroke="#000" stroke-width=".037" d="M18.4 21.9v-.4c0-.1 0-.3-.4-.3-.3 0-.4.2-.4.3v.4h.8z"/><path fill="#C8B100" stroke="#000" stroke-width=".037" d="M17.8 21.5h-.2c0-.1 0-.2.1-.2l.2.1c-.1 0-.1.1-.1.1zM18.1 21.3l.1-.2H18h-.1l.1.2h.1zM18.3 21.5h.2c0-.1 0-.2-.1-.2l-.2.1.1.1zM17.7 20.9v-.4c0-.1-.1-.2-.2-.2s-.2.1-.2.2v.4h.4zM18.3 20.9v-.4c0-.1.1-.2.2-.2s.2.1.2.2v.4h-.4zM17.6 19.9v-.4h-.4v.4h.4zM18.2 19.9v-.4h-.4v.4h.4zM18.4 19.9v-.4h.4v.4h-.4z"/><g fill="#0039F0"><path d="M18.3 21.9v-.3c0-.1 0-.2-.3-.2-.2 0-.2.2-.2.2v.3h.5zM17.7 20.8v-.4c0-.1-.1-.2-.2-.2s-.2.1-.2.2v.4h.4zM18.3 20.8v-.4c0-.1.1-.2.2-.2s.2.1.2.2v.4h-.4z"/></g></g><g stroke="#000"><path fill="#CCC" stroke-width=".042" d="M20 22.5h4V18h-4v4.5z"/><path fill="#DB4446" stroke-width=".031" d="M22.1 19.1c0-.1-.1-.1-.2-.1s-.1 0-.2-.1l-.1-.1h-.2s.1 0 .1.1c.1.1.1.1.2.1h.3c0 .1.1.1.1.1z"/><path fill="#ED72AA" stroke-width=".031" d="M22.7 19v.4h-.1v.2l.1.1v.1s0-.1-.1-.1h-.1l.1.1v.1s0-.1-.1-.1l-.1-.1v.4s0-.1-.1-.1c0 0-.1 0-.1-.1v.1s0 .2.2.4c.1.1.2.3.4.2.2-.1.2-.4.1-.6.1-.1.1-.3.1-.4v-.3-.3c0-.1.1-.1.1-.2v-.1-.1s0 .1.1.1v.1s0-.1.1-.1.2-.1.2-.1v.2l-.1.2h.2l-.1.1c-.1.1 0 .1-.1.2 0 .1-.1.1-.1.1-.1.1 0 .3 0 .4 0 0 .2.4.2.5 0 .1 0 .3-.1.4-.1.1-.2.1-.3.1 0 0-.1.1-.1.2s.1.2.1.2h.1v.2l-.1.1-.1.2v.1s.1.1 0 .1h-.1-.1v-.1-.1.1h-.1-.1s0-.1.1-.1c0 0 .1 0 0 0h-.1-.1v-.1-.1h.1s.1 0 .1-.1v-.1s-.1 0-.1-.1v-.1.2l-.1-.1-.1-.1v.2l-.1-.1s-.1 0-.1-.1V21v-.1-.1H22v.4s0 .1-.1.1h-.1-.2-.1s-.1 0-.1.1v.1h-.1-.1v-.1h-.1-.1v-.1c0-.1-.1-.1 0-.1h.1v-.1s-.1 0 0-.1h.1s0-.1.1-.1c0 0 0 .1.1.1 0 .1.1.1.2.1h.1V21v-.1h-.1v-.1-.1.2s-.1 0 0-.1v-.2s.1-.1.2-.1h.4s-.2 0-.2-.1c-.1 0-.1-.1-.2-.2l-.1-.1h-.1l-.1.1-.1.1v-.1-.1s0 .1-.1.1-.1.1-.1.1v-.1-.1s0 .1-.1.1h-.2v.1h-.1-.1v-.1s.1-.1 0-.1h-.1-.1V20h0s-.1 0 0-.1v-.1s0-.1.1 0c0 0 0 .1.1.1h.2l.1-.1.1-.1s-.1 0-.1-.1l-.1-.1s-.1 0-.2-.1h-.1.2-.1-.1-.1.1v-.1h-.1v-.1-.1h.1s0-.1-.1-.1c0 0-.1 0-.1-.1h.1s0-.1.1-.1l.1.1v-.1-.1h.2v.2l.1.1s.1 0 .1.1c0 0 .1.1.2.1h.4l.1-.1-.1-.1h.1c.1 0 .1 0 .2-.1 0-.1 0-.1-.1-.2-.1 0-.1 0-.2-.1v-.1H22v-.1h.1s.1.1.2.1c.3.4.4.5.4.5"/><path fill="none" stroke-width=".031" d="M21.5 19.5l-.1.1H21.7l-.1.1v.2h.1c.1 0 .1 0 .1-.1l.1-.1v.2h.1s.1 0 .1-.1v-.1.1l.1.1v-.1l.1-.1v-.1.1m-.9.2s.1-.1 0 0c.1-.1.2-.1.2-.2h.1m.1.4s.1 0 .1-.1h.1"/><path fill="none" stroke-width=".021" d="M22.6 19.3s0-.1 0 0c0-.1 0-.1 0 0"/><path fill="none" stroke-width=".031" d="M22.3 20.6s.2.1.2.2-.1.2-.1.2"/><path stroke-width=".021" d="M21.8 18.9c0-.1 0-.1 0 0 0-.1.1-.1 0 0 .1 0 .1 0 0 0 .1 0 0 0 0 0z"/><path stroke-width=".004" d="M22.2 18.8c.1 0 .2.1.2.1-.1 0-.1-.1-.2-.1.1 0 0 0 0 0z"/><g stroke-width=".021"><path d="M22 19"/></g><g fill="#DB4446" stroke-width=".031"><path d="M21 18.9h.1v-.1c0-.1-.1-.1-.1-.1v.2zM20.8 19s0-.1-.1-.1-.1.1-.1.1h.1s0 .1.1 0c-.1.1-.1 0 0 0-.1 0 0 0 0 0zM20.7 19.2s-.1 0 0 0c-.1.1-.1.2-.1.2h.2s-.1-.1-.1-.2c0 .1 0 0 0 0zM20.9 20c-.2 0-.2.1-.2.1h.1l.1-.1c-.1.1 0 .1 0 0 0 .1 0 0 0 0zM20.8 20.3l-.1.1.1-.1v0zM20.9 20.5v.1h.1l-.1-.1c.1.1.1 0 .1 0h-.1c.1 0 0 0 0 0zM21.5 21h-.2.1c0 .1 0 .1.1 0-.1.1 0 .1 0 0 0 .1 0 0 0 0zM21.3 21.3h-.1v.1l.1-.1v.1s.1-.1 0-.1c.1 0 0 0 0 0zM21.5 21.5s0 .1 0 0c0 .1.1.2.1.2s0-.1-.1-.2c.1.1.1 0 .1 0h-.1zM22.5 21.6h-.1l-.1.1s.1 0 .2-.1c0 .1 0 .1 0 0 0 .1 0 .1 0 0zM22.5 21.8s0 .1 0 0v.1h.1l-.1-.1c.1.1 0 0 0 0zM22.8 21.9v.1h.1l-.1-.1h0z"/></g><g><path fill="#C8B100" stroke-width=".021" d="M22.6 18.6c-.1 0-.1.1-.1 0v-.1h-.1l-.1-.1v.2c.1 0 .1.1.2.1.1.1.2.1.2.2h.1v-.1h-.1c-.1-.1-.1-.1-.1-.2 0 .1 0 0 0 0z"/><g stroke-width=".004"><path d="M22.5 18.7c-.1 0-.1 0 0 0zM22.5 18.7c.1 0 .1.1 0 0 .1.1.1.1 0 0M22.4 18.6c0 .1 0 .1 0 0M22.3 18.6zM22.6 18.8zM22.7 18.8c0 .1 0 .1 0 0 0 .1 0 .1 0 0-.1 0-.1 0 0 0-.1 0-.1 0 0 0M22.7 18.9z"/></g><path fill="#C8B100" stroke-width=".021" d="M22.4 18.5s.1 0 0 0c.1 0 .1 0 0 0 .1 0 .1 0 0 0zM22.3 18.4c-.1 0-.1-.1 0 0-.1-.1 0-.1 0 0zM22.3 18.4s0 .1 0 0zM22.6 18.6c.1 0 .1 0 0 0zM22.8 18.8s0-.1 0 0c0-.1 0-.1 0 0 0-.1 0 0 0 0zM22.9 18.9h0c.1 0 0 0 0 0zM22.9 18.9z"/></g></g><g><ellipse fill="#AD1519" stroke="#000" stroke-width=".049" cx="20" cy="22.5" rx="1.3" ry="1.5"/><ellipse fill="#005BBF" stroke="#000" stroke-width=".049" cx="20" cy="22.5" rx=".9" ry="1.1"/><g fill="#C8B100" stroke="#000" stroke-width=".027"><path stroke-linejoin="round" d="M19.6 21.7s-.1.1-.1.2v.2l-.1-.1c-.1 0-.1.1-.1.1v.2h.1s.1 0 .1.1h-.1v.1h.1l-.1.1h.1l.1.1.1-.1h.1l-.1-.1h.1v-.1h-.1s0-.1.1-.1h.1v-.1-.1c0-.1-.1-.1-.1-.1-.1 0-.1 0-.1.1v-.2l-.1-.2z"/><path d="M19.4 22.5h.3v-.1l-.3.1z"/></g><g fill="#C8B100" stroke="#000" stroke-width=".027"><path stroke-linejoin="round" d="M20.5 21.7s-.1.1-.1.2v.2l-.1-.1c-.1 0-.1.1-.1.1v.2h.1s.1 0 .1.1h-.1v.1h.1l-.1.1h.1l.1.1.1-.1h.1l-.1-.1h.1v-.1h-.1s0-.1.1-.1h.1v-.1-.1c0-.1-.1-.1-.1-.1-.1 0-.1 0-.1.1v-.2l-.1-.2z"/><path d="M20.3 22.5h.3v-.1l-.3.1z"/></g><g fill="#C8B100" stroke="#000" stroke-width=".027"><path stroke-linejoin="round" d="M20 22.5s-.1.1-.1.2v.2l-.1-.1c-.1 0-.1.1-.1.1v.2h.1s.1 0 .1.1h-.1v.1h.1l-.1.1h.1l.1.1.1-.1h.1l-.1-.1h.1v-.1h-.1s0-.1.1-.1h.1V23v-.1c0-.1-.1-.1-.1-.1-.1 0-.1 0-.1.1v-.2c0-.1-.1-.2-.1-.2z"/><path d="M19.9 23.2h.3v-.1l-.3.1z"/></g></g></g></svg>