<svg version="1.1" xmlns="http://www.w3.org/2000/svg" viewBox="0 0 43 32" width="43" height="32"><path fill="#bd3d44" d="M0 0h55.962v2.458h-55.962zM0 4.924h55.962v2.458h-55.962zM0 9.847h55.962v2.458h-55.962zM0 14.771h55.962v2.458h-55.962zM0 19.695h55.962v2.492h-55.962zM0 24.619h55.962v2.458h-55.962zM0 29.542h55.962v2.458h-55.962z"></path><path fill="#fff" d="M0 2.458h55.962v2.466h-55.962zM0 7.381h55.962v2.458h-55.962zM0 12.305h55.962v2.458h-55.962zM0 17.229h55.962v2.458h-55.962zM0 22.187h55.962v2.458h-55.962zM0 27.11h55.962v2.458h-55.962z"></path><path fill="#192f5d" d="M0 0h22.383v17.229h-22.383z"></path><path fill="#fff" d="M1.869 0.734l0.205 0.683h0.657l-0.529 0.418 0.205 0.683-0.529-0.418-0.546 0.461 0.205-0.683-0.529-0.418h0.657zM5.598 0.734l0.205 0.683h0.657l-0.529 0.418 0.205 0.683-0.529-0.418-0.546 0.461 0.205-0.683-0.529-0.418h0.657zM9.327 0.734l0.205 0.683h0.657l-0.529 0.418 0.205 0.683-0.529-0.418-0.538 0.461 0.205-0.683-0.529-0.418h0.657zM13.056 0.734l0.205 0.683h0.657l-0.529 0.418 0.205 0.683-0.529-0.418-0.538 0.461 0.205-0.683-0.529-0.418h0.657zM16.785 0.734l0.205 0.683h0.657l-0.529 0.418 0.205 0.683-0.529-0.418-0.58 0.461 0.205-0.683-0.529-0.418h0.657zM20.48 0.734l0.205 0.683h0.649l-0.529 0.418 0.205 0.683-0.529-0.418-0.495 0.461 0.205-0.683-0.563-0.461h0.657zM3.686 2.441l0.205 0.683h0.657l-0.529 0.418 0.247 0.725-0.529-0.418-0.538 0.418 0.213-0.708-0.529-0.418h0.657zM7.415 2.441l0.205 0.683h0.657l-0.529 0.418 0.205 0.683-0.529-0.418-0.495 0.461 0.205-0.683-0.529-0.418h0.657zM11.145 2.441l0.205 0.683h0.657l-0.529 0.418 0.205 0.683-0.529-0.418-0.495 0.461 0.205-0.683-0.529-0.418h0.657zM14.874 2.441l0.205 0.683h0.657l-0.529 0.418 0.205 0.683-0.529-0.418-0.495 0.461 0.205-0.683-0.529-0.418h0.657zM18.603 2.441l0.205 0.683h0.657l-0.529 0.418 0.205 0.683-0.529-0.418-0.486 0.461 0.205-0.683-0.529-0.418h0.657zM1.869 4.181l0.205 0.683h0.657l-0.529 0.418 0.205 0.683-0.538-0.418-0.538 0.427 0.205-0.683-0.529-0.427h0.657zM5.598 4.181l0.205 0.683h0.657l-0.529 0.418 0.205 0.683-0.538-0.418-0.538 0.427 0.205-0.683-0.529-0.427h0.657zM9.327 4.181l0.205 0.683h0.657l-0.529 0.418 0.205 0.683-0.529-0.418-0.538 0.427 0.205-0.683-0.538-0.427h0.657zM13.056 4.181l0.205 0.683h0.657l-0.529 0.418 0.205 0.683-0.538-0.418-0.529 0.427 0.205-0.683-0.529-0.418h0.657zM16.785 4.181l0.205 0.683h0.657l-0.529 0.418 0.205 0.683-0.529-0.418-0.58 0.427 0.205-0.683-0.529-0.418h0.657zM20.48 4.181l0.205 0.683h0.649l-0.529 0.418 0.205 0.683-0.529-0.418-0.495 0.427 0.205-0.683-0.563-0.427h0.657zM3.686 5.888l0.205 0.683h0.657l-0.529 0.418 0.247 0.691-0.529-0.418-0.538 0.418 0.213-0.674-0.529-0.418h0.657zM7.415 5.888l0.205 0.683h0.657l-0.529 0.418 0.205 0.683-0.529-0.418-0.495 0.427 0.205-0.683-0.529-0.418h0.657zM11.145 5.888l0.205 0.683h0.657l-0.529 0.418 0.205 0.683-0.529-0.418-0.495 0.427 0.205-0.683-0.529-0.418h0.657zM14.874 5.888l0.205 0.683h0.657l-0.529 0.418 0.205 0.683-0.529-0.418-0.495 0.427 0.205-0.683-0.529-0.418h0.657zM18.603 5.888l0.205 0.683h0.657l-0.529 0.418 0.205 0.683-0.529-0.418-0.486 0.427 0.205-0.683-0.529-0.418h0.657zM1.809 7.595l0.205 0.683h0.717l-0.529 0.418 0.205 0.683-0.529-0.418-0.546 0.427 0.205-0.683-0.529-0.418h0.657zM5.538 7.595l0.205 0.683h0.657l-0.529 0.418 0.205 0.683-0.529-0.418-0.486 0.427 0.205-0.683-0.529-0.418h0.657zM9.267 7.595l0.205 0.683h0.657l-0.529 0.418 0.205 0.683-0.529-0.418-0.529 0.418 0.205-0.683-0.529-0.418h0.657zM12.996 7.595l0.205 0.683h0.657l-0.529 0.418 0.205 0.683-0.529-0.418-0.529 0.418 0.205-0.683-0.529-0.418h0.649zM16.725 7.595l0.205 0.683h0.657l-0.529 0.418 0.205 0.683-0.529-0.418-0.521 0.427 0.205-0.683-0.529-0.418h0.657zM20.48 7.595l0.205 0.683h0.649l-0.529 0.418 0.205 0.683-0.512-0.384-0.529 0.418 0.205-0.683-0.546-0.418h0.657zM3.729 9.387l0.205 0.683h0.657l-0.529 0.418 0.205 0.606-0.529-0.418-0.538 0.418 0.213-0.683-0.529-0.418h0.657zM7.458 9.387l0.205 0.683h0.657l-0.529 0.418 0.205 0.683-0.529-0.418-0.538 0.341 0.205-0.683-0.529-0.418h0.657zM11.187 9.387l0.205 0.683h0.657l-0.529 0.418 0.205 0.683-0.529-0.418-0.529 0.418 0.205-0.683-0.529-0.418h0.657zM14.916 9.387l0.205 0.683h0.657l-0.529 0.418 0.205 0.683-0.529-0.418-0.529 0.418 0.205-0.683-0.529-0.418h0.657zM18.645 9.387l0.205 0.683h0.657l-0.529 0.418 0.205 0.683-0.529-0.418-0.529 0.418 0.205-0.683-0.529-0.418h0.657zM1.869 11.093l0.205 0.683h0.657l-0.529 0.418 0.205 0.683-0.529-0.418-0.529 0.418 0.205-0.683-0.529-0.418h0.683zM5.598 11.093l0.205 0.683h0.657l-0.529 0.418 0.205 0.683-0.529-0.418-0.529 0.418 0.205-0.683-0.529-0.418h0.657zM9.327 11.093l0.205 0.683h0.657l-0.529 0.418 0.205 0.683-0.529-0.418-0.529 0.418 0.205-0.683-0.529-0.418h0.657zM13.056 11.093l0.205 0.683h0.657l-0.529 0.418 0.205 0.683-0.529-0.418-0.529 0.418 0.205-0.683-0.529-0.418h0.657zM16.785 11.093l0.205 0.683h0.657l-0.529 0.418 0.205 0.683-0.529-0.418-0.529 0.418 0.205-0.683-0.529-0.418h0.657zM20.48 11.093l0.205 0.683h0.649l-0.529 0.418 0.205 0.683-0.529-0.435-0.529 0.418 0.205-0.683-0.529-0.418h0.657zM3.729 12.8l0.205 0.683h0.657l-0.529 0.418 0.205 0.683-0.529-0.418-0.529 0.418 0.205-0.683-0.529-0.418h0.657zM7.458 12.8l0.205 0.683h0.657l-0.529 0.418 0.205 0.683-0.529-0.418-0.529 0.418 0.205-0.683-0.529-0.418h0.657zM11.187 12.8l0.205 0.683h0.657l-0.529 0.418 0.205 0.683-0.529-0.418-0.529 0.418 0.205-0.683-0.529-0.418h0.657zM14.916 12.8l0.205 0.683h0.657l-0.529 0.418 0.205 0.683-0.529-0.418-0.529 0.418 0.205-0.683-0.529-0.418h0.657zM18.645 12.8l0.205 0.683h0.657l-0.529 0.418 0.205 0.683-0.529-0.418-0.529 0.418 0.205-0.683-0.529-0.418h0.657zM1.869 14.507l0.205 0.683h0.657l-0.529 0.418 0.205 0.683-0.529-0.418-0.529 0.418 0.205-0.683-0.529-0.418h0.683zM5.598 14.507l0.205 0.683h0.657l-0.529 0.418 0.205 0.683-0.529-0.418-0.529 0.418 0.205-0.683-0.529-0.418h0.657zM9.327 14.507l0.205 0.683h0.657l-0.529 0.418 0.205 0.683-0.529-0.418-0.529 0.418 0.205-0.683-0.529-0.418h0.657zM13.056 14.507l0.205 0.683h0.657l-0.529 0.418 0.205 0.683-0.529-0.418-0.529 0.418 0.205-0.683-0.529-0.418h0.657zM16.785 14.507l0.205 0.683h0.657l-0.529 0.418 0.205 0.683-0.529-0.418-0.529 0.418 0.205-0.683-0.529-0.418h0.657zM20.48 14.507l0.205 0.683h0.649l-0.529 0.418 0.205 0.683-0.529-0.41-0.529 0.418 0.205-0.683-0.529-0.41h0.657z"></path></svg>
