<svg data-name="Camada 1" xmlns="http://www.w3.org/2000/svg" viewBox="0 0 50 37.13"><path fill="#229e45" class="cls-1" d="M0 0h50v37.5H0z"/><path fill="#f8e509" class="cls-2" d="M25.11 34.06l23.55-15.29L25 3.44 1.34 18.81l23.77 15.25z"/><path fill="#2b49a3" class="cls-3" d="M35.37 18.75a10 10 0 1 1-10-9.95 10 10 0 0 1 10 9.95z"/><path fill="#ffffef" class="cls-4" d="M22.13 24.71l-.31-.18-.32.16.07-.36-.25-.26h.35l.17-.32.16.25.35.06-.26.24m6.73 2l-.31-.18-.32.16.07-.36-.26-.16h.35l.17-.32.15.33.35.06-.26.24m-2.83-2.37l-.27-.15-.28.14.06-.31-.21-.23h.3l.14-.28.13.28.3.05-.23.21m6.79-.66l-.26-.15-.27.13.06-.3-.19-.24h.3l.14-.27.13.28.3.05-.22.21m-6.82-1.72l-.31-.18-.32.16.07-.36-.27-.29h.35l.17-.32.15.33.35.06-.26.24m-8.17-2.73l-.31-.18-.28.13.07-.36-.28-.24h.35l.17-.32.15.33.35.06-.26.24m1 4.46l-.31-.18-.32.16.07-.36-.25-.26h.35l.17-.32.15.33.35.06-.26.24m10.31-5.26l-.24-.18-.28.14.06-.31-.22-.23h.31l.15-.28.13.29.31.06-.23.22m-.52 3l-.21-.12-.22.11.05-.25-.17-.18h.25l.12-.22.1.23h.24l-.18.17m-11.13 3.84l-.21-.12-.21.11v-.24l-.12-.22h.24l.11-.21.06.21h.23l-.17.16m15.64 1.18l-.17-.09-.17.08v-.18l-.13-.13h.19l.09-.16.08.16h.19l-.14.12"/><path fill="#ffffef" class="cls-4" d="M17.13 22.47l-.21-.12-.21.11v-.24l-.12-.22h.24l.11-.21.06.21h.23l-.17.16"/><path fill="#ffffef" class="cls-4" d="M17.13 22.47l-.21-.12-.21.11v-.24l-.12-.22h.24l.11-.21.06.21h.23l-.17.16m3.3.24l-.21-.12-.21.11v-.24l-.07-.15h.24l.11-.21.1.22h.23l-.17.16M20 23.56l-.21-.12-.21.11v-.24l-.16-.17h.24l.11-.21.1.22h.23l-.17.16m6.83-1.74l-.21-.12-.21.11v-.24l-.16-.17h.24l.11-.21.1.22h.23l-.17.16m-2 .24l-.21-.12-.21.11v-.24l-.16-.17h.24l.11-.21.1.22h.23l-.17.16m-5.38-.46l-.13-.07-.13.07v-.15l-.1-.11h.15l.07-.13.06.14h.15l-.11.1m13.11 3.55l-.21-.12-.21.11V24l-.16-.17h.24l.11-.21.1.22h.23l-.17.16m-1.63.46l-.17-.1-.18.09v-.2l-.14-.14h.2l.09-.18.08.18h.19l-.14.14m.81.18l-.16-.09-.16.08v-.18l-.13-.13h.18l.09-.16.08.17h.18l-.13.13m2.27-1.78l-.15-.09-.16.08v-.18l-.12-.13h.18l.08-.16.07.16h.17l-.13.12m-3 3.27l-.2-.11-.21.1v-.22l-.16-.16h.23l.11-.2.1.2h.23l-.17.15m0 1.11l-.18-.11-.19.1v-.22l-.15-.16h.21l.1-.2.09.2h.21l-.15.15m-1.48-1.8l-.15-.09-.16.08v-.18l-.12-.13h.18l.08-.16.07.16h.17l-.13.12m-1.39.18l-.15-.09-.16.08v-.18l-.12-.13h.18l.08-.16.07.16h.17l-.13.12m-2.38-1.92l-.15-.09-.16.08v-.18l-.12-.13h.18l.08-.16.07.16h.17l-.13.12m.29 4.45l-.13-.07-.13.07v-.15l-.1-.11h.15l.07-.13.06.14h.15l-.11.1m-3.6-6.77l-.31-.18-.32.16.07-.36-.25-.26h.35l.17-.32.15.33.35.06-.26.24"/><path fill="#fff" class="cls-5" d="M34.72 22.33a9.73 9.73 0 0 0 .45-1.55c-5.29-4.65-11.19-7-18.65-6.54a9.73 9.73 0 0 0-.66 1.63 23.85 23.85 0 0 1 18.86 6.46z"/><path fill="#309e3a" class="cls-6" d="M32.34 19.72l.19.1a.27.27 0 0 0 0 .18.24.24 0 0 0 .1.13.24.24 0 0 0 .16.05.13.13 0 0 0 .1-.06.1.1 0 0 0 0-.07.18.18 0 0 0 0-.08l-.12-.14a.6.6 0 0 1-.15-.23.29.29 0 0 1 0-.24.28.28 0 0 1 .13-.1.3.3 0 0 1 .17 0 .54.54 0 0 1 .2.09.46.46 0 0 1 .21.25.32.32 0 0 1 0 .26l-.19-.12a.19.19 0 0 0 0-.13.22.22 0 0 0-.09-.11.25.25 0 0 0-.15-.05.08.08 0 0 0-.07 0 .09.09 0 0 0 0 .07.58.58 0 0 0 .13.17 1.05 1.05 0 0 1 .15.2.3.3 0 0 1 0 .16.34.34 0 0 1-.2.29.31.31 0 0 1-.19 0 .62.62 0 0 1-.22-.1.48.48 0 0 1-.21-.26.42.42 0 0 1 0-.31zm-.9-.59l.19.1a.27.27 0 0 0 0 .18.24.24 0 0 0 .11.13.24.24 0 0 0 .16 0 .13.13 0 0 0 .1-.06.1.1 0 0 0 0-.07.18.18 0 0 0 0-.08l-.12-.13a.6.6 0 0 1-.15-.22.29.29 0 0 1 0-.24.28.28 0 0 1 .12-.11.3.3 0 0 1 .17 0 .55.55 0 0 1 .2.08.46.46 0 0 1 .22.24.32.32 0 0 1 0 .26l-.19-.11a.19.19 0 0 0 0-.13.22.22 0 0 0-.1-.11.25.25 0 0 0-.15 0 .08.08 0 0 0-.07 0 .08.08 0 0 0 0 .07.58.58 0 0 0 .13.17 1.05 1.05 0 0 1 .16.19.3.3 0 0 1 0 .16.34.34 0 0 1-.19.29.31.31 0 0 1-.19 0 .62.62 0 0 1-.22-.09.48.48 0 0 1-.22-.25.42.42 0 0 1 0-.31zm-1.11-.3l.57-.93.69.42-.1.16-.5-.31-.13.21.47.29-.1.16-.47-.29-.15.25.52.32-.1.16-.71-.43zm-1.62-1.33l.08-.16.42.22-.2.39a.6.6 0 0 1-.23 0 .73.73 0 0 1-.26-.08.6.6 0 0 1-.23-.2.46.46 0 0 1-.08-.27.67.67 0 0 1 .08-.29.63.63 0 0 1 .2-.24.48.48 0 0 1 .28-.09.57.57 0 0 1 .26.07.52.52 0 0 1 .24.22.38.38 0 0 1 0 .28l-.21-.06a.23.23 0 0 0 0-.15.26.26 0 0 0-.12-.11.3.3 0 0 0-.25 0 .39.39 0 0 0-.2.2.43.43 0 0 0-.06.3.29.29 0 0 0 .16.19h.28l.06-.12-.22-.12zm-7.05-1.75l.16-1.08h.33l.09.77.3-.71h.33l-.16 1.08h-.2l.13-.85-.34.82h-.21l-.09-.85-.13.85h-.2zm-1.1-.13l.1-1.09.81.08v.18l-.59-.06v.24l.55.05v.18l-.55-.05v.3l.61.06v.18l-.83-.08zM16.91 14.94a.7.7 0 0 1 .06-.28.52.52 0 0 1 .11-.15.42.42 0 0 1 .14-.09.6.6 0 0 1 .24 0 .51.51 0 0 1 .38.16.67.67 0 0 1 0 .83.51.51 0 0 1-.39.14.51.51 0 0 1-.38-.16.57.57 0 0 1-.13-.41z"/><path fill="#f7ffff" class="cls-7" d="M17.14 14.94a.41.41 0 0 0 .08.28.29.29 0 0 0 .43 0 .42.42 0 0 0 .09-.28.41.41 0 0 0-.08-.28.28.28 0 0 0-.22-.1.28.28 0 0 0-.22.09.41.41 0 0 0-.09.28z"/><path fill="#309e3a" class="cls-6" d="M18.21 15.51v-1.1h.46a.78.78 0 0 1 .25 0 .25.25 0 0 1 .13.11.32.32 0 0 1 0 .17.29.29 0 0 1-.07.2.35.35 0 0 1-.22.1l.12.09a1.21 1.21 0 0 1 .12.18l.13.22h-.26l-.16-.24-.11-.16h-.23v.46h-.22z"/><path fill="#fff" class="cls-5" d="M18.44 14.88h.36a.12.12 0 0 0 .06 0 .14.14 0 0 0 0-.08.13.13 0 0 0 0-.09.13.13 0 0 0-.08 0h-.33v.28z"/><path fill="#309e3a" class="cls-6" d="M19.45 14.47h.61a.37.37 0 0 1 .16.11.48.48 0 0 1 .1.18.81.81 0 0 1 0 .26.72.72 0 0 1 0 .23.48.48 0 0 1-.13.19.39.39 0 0 1-.16.08h-.61l.06-1.09z"/><path fill="#fff" class="cls-5" d="M19.66 14.66v.72h.39a.23.23 0 0 0 .06-.1.72.72 0 0 0 0-.2.66.66 0 0 0 0-.2.25.25 0 0 0-.06-.11.21.21 0 0 0-.1-.06h-.28z"/><path fill="#309e3a" class="cls-6" d="M24.81 16.42l.25-1.06.34.08.25.08a.29.29 0 0 1 .13.14.34.34 0 0 1 0 .22.36.36 0 0 1-.07.16.3.3 0 0 1-.12.08h-.49l-.1.4-.21-.05z"/><path fill="#fff" class="cls-5" d="M25.24 15.59l-.07.3H25.46a.14.14 0 0 0 .12-.11.14.14 0 0 0 0-.1.15.15 0 0 0-.07-.07h-.25z"/><path fill="#309e3a" class="cls-6" d="M25.83 16.73l.36-1 .44.15a.78.78 0 0 1 .23.11.25.25 0 0 1 .09.14.32.32 0 0 1 0 .18.29.29 0 0 1-.14.17.35.35 0 0 1-.24 0 .5.5 0 0 1 .08.13 1.22 1.22 0 0 1 .06.21l.06.25-.26-.07-.07-.28a1.52 1.52 0 0 0-.06-.19.17.17 0 0 0 0-.07h-.1l-.28.34-.21-.07z"/><path fill="#fff" class="cls-5" d="M26.25 16.21l.15.05.19.05h.07a.14.14 0 0 0 0-.07.13.13 0 0 0 0-.09.13.13 0 0 0-.06-.07l-.1-.08-.16-.06-.09.26z"/><path fill="#309e3a" class="cls-6" d="M27.11 16.69a.7.7 0 0 1 .13-.25.51.51 0 0 1 .14-.11.43.43 0 0 1 .16-.05.6.6 0 0 1 .24 0 .51.51 0 0 1 .32.26.67.67 0 0 1-.25.8.51.51 0 0 1-.41 0 .51.51 0 0 1-.33-.26.57.57 0 0 1 0-.44z"/><path fill="#fff" class="cls-5" d="M27.33 16.75a.41.41 0 0 0 0 .3.28.28 0 0 0 .18.16.28.28 0 0 0 .23 0 .42.42 0 0 0 .17-.25.41.41 0 0 0 0-.29.3.3 0 0 0-.42-.13.41.41 0 0 0-.16.24z"/><path fill="#309e3a" class="cls-6" d="M29.24 18.21l.5-1 .41.21a.78.78 0 0 1 .21.14.25.25 0 0 1 .07.15.32.32 0 0 1 0 .18.29.29 0 0 1-.16.15.35.35 0 0 1-.24 0 .51.51 0 0 1 .06.14 1.24 1.24 0 0 1 0 .22v.25l-.23-.12v-.28a1.52 1.52 0 0 0 0-.2.17.17 0 0 0 0-.07l-.09-.06-.21.41-.2-.1z"/><path fill="#fff" class="cls-5" d="M29.73 17.75l.14.08.18.08h.08a.14.14 0 0 0 .06-.06.13.13 0 0 0 0-.09.13.13 0 0 0-.05-.08l-.14-.1-.15-.08-.13.25z"/><path fill="#309e3a" class="cls-6" d="M33.29 20.21a.7.7 0 0 1 .2-.2.52.52 0 0 1 .17-.07.43.43 0 0 1 .17 0A.6.6 0 0 1 34 20a.51.51 0 0 1 .24.34.67.67 0 0 1-.46.69.51.51 0 0 1-.4-.09.52.52 0 0 1-.24-.34.57.57 0 0 1 .11-.42z"/><path fill="#fff" class="cls-5" d="M33.48 20.33a.41.41 0 0 0-.09.28.28.28 0 0 0 .13.2.28.28 0 0 0 .23 0 .42.42 0 0 0 .23-.19.41.41 0 0 0 .09-.28.3.3 0 0 0-.36-.24.41.41 0 0 0-.23.19z"/><path fill="#309e3a" class="cls-6" d="M23.58 16l.18-.77.57.13v.13l-.41-.1v.17l.38.09v.13l-.38-.09v.21l.43.1v.13l-.77-.13z"/></svg>