<?xml version="1.0" standalone="no"?>
<!DOCTYPE svg PUBLIC "-//W3C//DTD SVG 20010904//EN"
 "http://www.w3.org/TR/2001/REC-SVG-20010904/DTD/svg10.dtd">
<svg version="1.0" xmlns="http://www.w3.org/2000/svg"
 width="650.000000pt" height="650.000000pt" viewBox="0 0 650.000000 650.000000"
 preserveAspectRatio="xMidYMid meet">
<metadata>
Created by potrace 1.11, written by Peter Selinger 2001-2013
</metadata>
<g transform="translate(0.000000,650.000000) scale(0.100000,-0.100000)"
fill="#000000" stroke="none">
<path d="M2988 6025 c-2 -2 -39 -6 -83 -9 -119 -10 -308 -43 -410 -72 -49 -13
-101 -27 -114 -30 -62 -13 -279 -103 -405 -167 -533 -272 -948 -708 -1196
-1259 -69 -153 -154 -419 -174 -548 -3 -19 -7 -44 -10 -55 -2 -11 -9 -54 -15
-95 -9 -68 -13 -101 -26 -255 -3 -27 -5 -124 -5 -215 0 -151 3 -212 14 -295 2
-16 7 -55 11 -85 9 -76 39 -226 71 -345 92 -354 298 -758 539 -1060 108 -135
327 -354 455 -454 58 -46 112 -88 120 -94 24 -19 201 -132 245 -157 260 -146
589 -268 830 -306 28 -4 52 -9 55 -9 3 -1 30 -5 60 -9 30 -5 64 -11 75 -14 11
-3 624 -8 1363 -9 l1342 -4 1 483 c2 1945 1 2618 -4 2648 -4 19 -9 67 -13 105
-3 39 -8 73 -10 76 -2 4 -6 27 -9 50 -3 24 -15 82 -26 129 -11 47 -23 96 -25
109 -10 52 -94 292 -137 392 -158 368 -389 678 -707 950 -182 156 -367 271
-650 402 -172 80 -495 164 -745 193 -56 6 -411 14 -417 9z"/>
</g>
</svg>
