<svg width="28" height="20" viewBox="0 0 28 20" fill="none" xmlns="http://www.w3.org/2000/svg">
<g clip-path="url(#clip0_383_458)">
<rect width="28" height="20" fill="url(#paint0_linear_383_458)"/>
<path d="M3.31055 17.1562C3.82812 17.1562 4.08203 16.9609 4.26758 16.4141L5.52734 12.9668H11.2891L12.5488 16.4141C12.7344 16.9609 12.9883 17.1562 13.4961 17.1562C14.0137 17.1562 14.3457 16.8438 14.3457 16.3555C14.3457 16.1895 14.3164 16.0332 14.2383 15.8281L9.6582 3.63086C9.43359 3.03516 9.0332 2.73242 8.4082 2.73242C7.80273 2.73242 7.39258 3.02539 7.17773 3.62109L2.59766 15.8379C2.51953 16.043 2.49023 16.1992 2.49023 16.3652C2.49023 16.8535 2.80273 17.1562 3.31055 17.1562ZM6.00586 11.4824L8.37891 4.91016H8.42773L10.8008 11.4824H6.00586ZM20.0684 17.2246C21.7383 17.2246 23.0078 16.4336 23.6035 15.0273H23.6621V16.4141C23.6621 16.9219 23.9844 17.2344 24.4434 17.2344C24.9121 17.2344 25.2344 16.9121 25.2344 16.4043V7.14648C25.2344 6.64844 24.9121 6.29688 24.4434 6.29688C23.9844 6.29688 23.6621 6.64844 23.6621 7.14648V8.52344H23.6035C23.0078 7.14648 21.6797 6.31641 20.0684 6.31641C17.4219 6.31641 15.6543 8.51367 15.6543 11.7754C15.6543 15.0566 17.4219 17.2246 20.0684 17.2246ZM20.459 15.7988C18.5547 15.7988 17.3438 14.2461 17.3438 11.7754C17.3438 9.30469 18.5547 7.74219 20.459 7.74219C22.3633 7.74219 23.6133 9.35352 23.6133 11.7949C23.6133 14.2363 22.3828 15.7988 20.459 15.7988Z" fill="white"/>
</g>
<defs>
<linearGradient id="paint0_linear_383_458" x1="0.999999" y1="0.500001" x2="27.5" y2="20.5" gradientUnits="userSpaceOnUse">
<stop stop-color="#FA00FF"/>
<stop offset="0.260417" stop-color="#0066FF"/>
<stop offset="0.546496" stop-color="#ADFF00"/>
<stop offset="0.817708" stop-color="#F1A32E"/>
<stop offset="1" stop-color="#FF0000"/>
</linearGradient>
<clipPath id="clip0_383_458">
<rect width="28" height="20" fill="white"/>
</clipPath>
</defs>
</svg>
