<svg width="11" height="15" viewBox="0 0 11 15" fill="none" xmlns="http://www.w3.org/2000/svg">
<path d="M5.53906 12.1484C8.35156 12.1484 10.0938 10.4609 10.0938 8.00781V1.29688C10.0938 0.859375 9.80469 0.570312 9.35938 0.570312C8.92188 0.570312 8.64844 0.859375 8.64844 1.29688V7.89062C8.64844 9.63281 7.5 10.8203 5.53906 10.8203C3.58594 10.8203 2.4375 9.63281 2.4375 7.89062V1.29688C2.4375 0.859375 2.14844 0.570312 1.70312 0.570312C1.26562 0.570312 0.992188 0.859375 0.992188 1.29688V8.00781C0.992188 10.4609 2.72656 12.1484 5.53906 12.1484ZM1.45312 14.5469H9.625C9.88281 14.5469 10.0938 14.3516 10.0938 14.0859C10.0938 13.8203 9.88281 13.6172 9.625 13.6172H1.45312C1.20312 13.6172 0.992188 13.8203 0.992188 14.0859C0.992188 14.3516 1.20312 14.5469 1.45312 14.5469Z" fill="#6D6D6D"/>
</svg>
