<svg width="11" height="12" viewBox="0 0 11 12" fill="none" xmlns="http://www.w3.org/2000/svg">
<path d="M2.3125 11.9453H6.38281C8.77344 11.9453 10.2812 10.6875 10.2812 8.75781C10.2812 7.23438 9.17969 6.13281 7.59375 6.04688V5.98438C8.89062 5.80469 9.77344 4.82812 9.77344 3.58594C9.77344 1.84375 8.4375 0.773438 6.27344 0.773438H2.3125C1.47656 0.773438 0.992188 1.26562 0.992188 2.125V10.6016C0.992188 11.4531 1.47656 11.9453 2.3125 11.9453ZM3.57031 5.41406V2.60938H5.49219C6.58594 2.60938 7.23438 3.10938 7.23438 3.96875C7.23438 4.875 6.51562 5.41406 5.29688 5.41406H3.57031ZM3.57031 10.1406V7.03906H5.53125C6.89844 7.03906 7.66406 7.57031 7.66406 8.57031C7.66406 9.59375 6.92969 10.1406 5.58594 10.1406H3.57031Z" fill="#6D6D6D"/>
</svg>
