<svg width="28" height="27" viewBox="0 0 28 27" fill="none" xmlns="http://www.w3.org/2000/svg">
<path d="M3.31055 19.1562C3.82812 19.1562 4.08203 18.9609 4.26758 18.4141L5.52734 14.9668H11.2891L12.5488 18.4141C12.7344 18.9609 12.9883 19.1562 13.4961 19.1562C14.0137 19.1562 14.3457 18.8438 14.3457 18.3555C14.3457 18.1895 14.3164 18.0332 14.2383 17.8281L9.6582 5.63086C9.43359 5.03516 9.0332 4.73242 8.4082 4.73242C7.80273 4.73242 7.39258 5.02539 7.17773 5.62109L2.59766 17.8379C2.51953 18.043 2.49023 18.1992 2.49023 18.3652C2.49023 18.8535 2.80273 19.1562 3.31055 19.1562ZM6.00586 13.4824L8.37891 6.91016H8.42773L10.8008 13.4824H6.00586ZM20.0684 19.2246C21.7383 19.2246 23.0078 18.4336 23.6035 17.0273H23.6621V18.4141C23.6621 18.9219 23.9844 19.2344 24.4434 19.2344C24.9121 19.2344 25.2344 18.9121 25.2344 18.4043V9.14648C25.2344 8.64844 24.9121 8.29688 24.4434 8.29688C23.9844 8.29688 23.6621 8.64844 23.6621 9.14648V10.5234H23.6035C23.0078 9.14648 21.6797 8.31641 20.0684 8.31641C17.4219 8.31641 15.6543 10.5137 15.6543 13.7754C15.6543 17.0566 17.4219 19.2246 20.0684 19.2246ZM20.459 17.7988C18.5547 17.7988 17.3438 16.2461 17.3438 13.7754C17.3438 11.3047 18.5547 9.74219 20.459 9.74219C22.3633 9.74219 23.6133 11.3535 23.6133 13.7949C23.6133 16.2363 22.3828 17.7988 20.459 17.7988Z" fill="#6D6D6D"/>
<circle cx="21.5" cy="20.5" r="6" fill="url(#paint0_angular_157_1129)" stroke="#6D6D6D"/>
<defs>
<radialGradient id="paint0_angular_157_1129" cx="0" cy="0" r="1" gradientUnits="userSpaceOnUse" gradientTransform="translate(21.5 20.5) rotate(90) scale(6.5)">
<stop stop-color="#FA00FF"/>
<stop offset="0.260417" stop-color="#0066FF"/>
<stop offset="0.557292" stop-color="#ADFF00"/>
<stop offset="0.817708" stop-color="#F1A32E"/>
<stop offset="1" stop-color="#FF0000"/>
</radialGradient>
</defs>
</svg>
