<svg width="10" height="12" viewBox="0 0 10 12" fill="none" xmlns="http://www.w3.org/2000/svg">
<path d="M1.61719 11.9453H6.55469C6.92188 11.9453 7.1875 11.7188 7.1875 11.3516C7.1875 11 6.92969 10.7734 6.5625 10.7734H4.8125L6.71094 1.94531H8.46094C8.82812 1.94531 9.08594 1.71875 9.08594 1.35156C9.08594 1 8.83594 0.773438 8.46875 0.773438H3.50781C3.14062 0.773438 2.89062 1 2.89062 1.35156C2.89062 1.71875 3.14844 1.94531 3.51562 1.94531H5.26562L3.36719 10.7734H1.60938C1.24219 10.7734 0.992188 11 0.992188 11.3516C0.992188 11.7188 1.25 11.9453 1.61719 11.9453Z" fill="#6D6D6D"/>
</svg>
