<svg width="17" height="15" viewBox="0 0 17 15" fill="none" xmlns="http://www.w3.org/2000/svg">
<path d="M1.57812 1.78906H16.1328C16.4609 1.78906 16.7344 1.53125 16.7344 1.19531C16.7344 0.867188 16.4609 0.609375 16.1328 0.609375H1.57812C1.25 0.609375 0.992188 0.867188 0.992188 1.19531C0.992188 1.53125 1.25 1.78906 1.57812 1.78906ZM1.57812 5.88281H16.1328C16.4609 5.88281 16.7344 5.625 16.7344 5.28906C16.7344 4.96094 16.4609 4.70312 16.1328 4.70312H1.57812C1.25 4.70312 0.992188 4.96094 0.992188 5.28906C0.992188 5.625 1.25 5.88281 1.57812 5.88281ZM1.57812 9.97656H16.1328C16.4609 9.97656 16.7344 9.71094 16.7344 9.38281C16.7344 9.05469 16.4609 8.79688 16.1328 8.79688H1.57812C1.25 8.79688 0.992188 9.05469 0.992188 9.38281C0.992188 9.71094 1.25 9.97656 1.57812 9.97656ZM1.57812 14.0625H16.1328C16.4609 14.0625 16.7344 13.8047 16.7344 13.4766C16.7344 13.1484 16.4609 12.8828 16.1328 12.8828H1.57812C1.25 12.8828 0.992188 13.1484 0.992188 13.4766C0.992188 13.8047 1.25 14.0625 1.57812 14.0625Z" fill="#6D6D6D"/>
</svg>
