<svg width="18" height="19" viewBox="0 0 18 19" fill="none" xmlns="http://www.w3.org/2000/svg">
<path d="M8.98438 12.5156L10.0234 11.4609C8.99219 11.3828 8.32031 11.0703 7.8125 10.5625C6.44531 9.19531 6.45312 7.25781 7.80469 5.90625L10.3516 3.35938C11.7188 2 13.6406 1.99219 15.0078 3.35938C16.375 4.72656 16.3594 6.65625 15.0078 8.00781L13.4766 9.53906C13.6953 10.0391 13.7422 10.6172 13.6641 11.125L15.9609 8.83594C17.8281 6.96094 17.8438 4.3125 15.9531 2.41406C14.0547 0.515625 11.3984 0.53125 9.52344 2.40625L6.85938 5.07812C4.98438 6.95312 4.96875 9.60938 6.86719 11.5C7.35938 11.9922 7.98438 12.3438 8.98438 12.5156ZM9.17969 6.07812L8.14062 7.13281C9.17188 7.21875 9.84375 7.52344 10.3516 8.03125C11.7188 9.39844 11.7109 11.3359 10.3594 12.6875L7.80469 15.2344C6.44531 16.5938 4.52344 16.6016 3.15625 15.2422C1.78906 13.8672 1.79688 11.9453 3.15625 10.5859L4.6875 9.05469C4.46875 8.5625 4.41406 7.97656 4.5 7.46875L2.20312 9.75781C0.335938 11.6328 0.320312 14.2891 2.21094 16.1797C4.10938 18.0781 6.76562 18.0625 8.63281 16.1953L11.3047 13.5156C13.1797 11.6406 13.1953 8.98438 11.2969 7.09375C10.8047 6.60156 10.1797 6.25 9.17969 6.07812Z" fill="#6D6D6D"/>
</svg>
