<svg width="17" height="14" viewBox="0 0 17 14" fill="none" xmlns="http://www.w3.org/2000/svg">
<path d="M2.69531 4.21875C2.99219 4.21875 3.20312 4.04688 3.20312 3.69531V1.17188C3.20312 0.84375 2.96875 0.632812 2.625 0.632812C2.35156 0.632812 2.17969 0.726562 1.98438 0.859375L1.42969 1.24219C1.27344 1.35156 1.1875 1.45312 1.1875 1.61719C1.1875 1.82031 1.34375 1.96094 1.52344 1.96094C1.625 1.96094 1.67188 1.94531 1.80469 1.85156L2.16406 1.60938H2.17969V3.69531C2.17969 4.04688 2.38281 4.21875 2.69531 4.21875ZM5.79688 3.27344H16.1016C16.4531 3.27344 16.7344 3 16.7344 2.64844C16.7344 2.28906 16.4531 2.01562 16.1016 2.01562H5.79688C5.44531 2.01562 5.16406 2.28906 5.16406 2.64844C5.16406 3 5.44531 3.27344 5.79688 3.27344ZM1.4375 8.92969H3.44531C3.65625 8.92969 3.82031 8.78125 3.82031 8.5625C3.82031 8.32812 3.66406 8.17969 3.44531 8.17969H2.32812V8.15625L2.96875 7.64062C3.5 7.20312 3.71094 6.95312 3.71094 6.49219C3.71094 5.86719 3.1875 5.44531 2.34375 5.44531C1.59375 5.44531 1.05469 5.83594 1.05469 6.33594C1.05469 6.58594 1.21875 6.71875 1.48438 6.71875C1.66406 6.71875 1.78125 6.66406 1.89062 6.48438C2 6.29688 2.14062 6.19531 2.35938 6.19531C2.58594 6.19531 2.75 6.34375 2.75 6.5625C2.75 6.75 2.65625 6.91406 2.25 7.23438L1.22656 8.07812C1.07031 8.20312 1.00781 8.34375 1.00781 8.51562C1.00781 8.75781 1.17969 8.92969 1.4375 8.92969ZM5.79688 8H16.1016C16.4531 8 16.7344 7.71875 16.7344 7.36719C16.7344 7.01562 16.4531 6.74219 16.1016 6.74219H5.79688C5.44531 6.74219 5.16406 7.01562 5.16406 7.36719C5.16406 7.71875 5.44531 8 5.79688 8ZM2.35938 13.7969C3.28906 13.7969 3.83594 13.3828 3.83594 12.7266C3.83594 12.2969 3.53906 12 3 11.9531V11.9297C3.39062 11.8594 3.70312 11.5938 3.70312 11.1406C3.70312 10.5469 3.125 10.2188 2.35156 10.2188C1.74219 10.2188 1.07812 10.5078 1.07812 11.0234C1.07812 11.2422 1.23438 11.3984 1.47656 11.3984C1.64844 11.3984 1.72656 11.3281 1.83594 11.2109C2.01562 11.0156 2.15625 10.9531 2.35156 10.9531C2.59375 10.9531 2.77344 11.0703 2.77344 11.3047C2.77344 11.5234 2.58594 11.6328 2.26562 11.6328H2.17969C1.96094 11.6328 1.82031 11.7422 1.82031 11.9688C1.82031 12.1797 1.95312 12.3047 2.17969 12.3047H2.28125C2.63281 12.3047 2.82031 12.4219 2.82031 12.6641C2.82031 12.875 2.625 13.0312 2.35938 13.0312C2.08594 13.0312 1.89062 12.875 1.74219 12.7266C1.64844 12.6406 1.57031 12.5781 1.42188 12.5781C1.17188 12.5781 0.992188 12.7266 0.992188 12.9688C0.992188 13.5078 1.72656 13.7969 2.35938 13.7969ZM5.79688 12.7188H16.1016C16.4531 12.7188 16.7344 12.4453 16.7344 12.0938C16.7344 11.7344 16.4531 11.4609 16.1016 11.4609H5.79688C5.44531 11.4609 5.16406 11.7344 5.16406 12.0938C5.16406 12.4453 5.44531 12.7188 5.79688 12.7188Z" fill="#6D6D6D"/>
</svg>
