<svg width="17" height="13" viewBox="0 0 17 13" fill="none" xmlns="http://www.w3.org/2000/svg">
<path d="M1.97656 2.625C2.52344 2.625 2.96094 2.1875 2.96094 1.64844C2.96094 1.10156 2.52344 0.664062 1.97656 0.664062C1.42969 0.664062 0.992188 1.10156 0.992188 1.64844C0.992188 2.1875 1.42969 2.625 1.97656 2.625ZM5.42969 2.27344H16.1016C16.4531 2.27344 16.7344 2 16.7344 1.64844C16.7344 1.28906 16.4531 1.01562 16.1016 1.01562H5.42969C5.07031 1.01562 4.79688 1.28906 4.79688 1.64844C4.79688 2 5.07031 2.27344 5.42969 2.27344ZM1.97656 7.35156C2.52344 7.35156 2.96094 6.91406 2.96094 6.36719C2.96094 5.82031 2.52344 5.38281 1.97656 5.38281C1.42969 5.38281 0.992188 5.82031 0.992188 6.36719C0.992188 6.91406 1.42969 7.35156 1.97656 7.35156ZM5.42969 7H16.1016C16.4531 7 16.7344 6.71875 16.7344 6.36719C16.7344 6.01562 16.4531 5.74219 16.1016 5.74219H5.42969C5.07031 5.74219 4.79688 6.01562 4.79688 6.36719C4.79688 6.71875 5.07031 7 5.42969 7ZM1.97656 12.0781C2.52344 12.0781 2.96094 11.6328 2.96094 11.0938C2.96094 10.5469 2.52344 10.1094 1.97656 10.1094C1.42969 10.1094 0.992188 10.5469 0.992188 11.0938C0.992188 11.6328 1.42969 12.0781 1.97656 12.0781ZM5.42969 11.7188H16.1016C16.4531 11.7188 16.7344 11.4453 16.7344 11.0938C16.7344 10.7344 16.4531 10.4609 16.1016 10.4609H5.42969C5.07031 10.4609 4.79688 10.7344 4.79688 11.0938C4.79688 11.4453 5.07031 11.7188 5.42969 11.7188Z" fill="#6D6D6D"/>
</svg>
