<svg id="artwork" xmlns="http://www.w3.org/2000/svg" xmlns:xlink="http://www.w3.org/1999/xlink" viewBox="0 0 154.29 45.71"><defs><linearGradient id="linear-gradient" x1="25.27" y1="184.9" x2="6.09" y2="165.72" gradientTransform="matrix(1, 0, 0, -1, 0, 202)" gradientUnits="userSpaceOnUse"><stop offset="0" stop-color="#00a0ff"/><stop offset="0.01" stop-color="#00a1ff"/><stop offset="0.26" stop-color="#00beff"/><stop offset="0.51" stop-color="#00d2ff"/><stop offset="0.76" stop-color="#00dfff"/><stop offset="1" stop-color="#00e3ff"/></linearGradient><linearGradient id="linear-gradient-2" x1="39.02" y1="172" x2="11.37" y2="172" gradientTransform="matrix(1, 0, 0, -1, 0, 202)" gradientUnits="userSpaceOnUse"><stop offset="0" stop-color="#ffe000"/><stop offset="0.41" stop-color="#ffbd00"/><stop offset="0.78" stop-color="orange"/><stop offset="1" stop-color="#ff9c00"/></linearGradient><linearGradient id="linear-gradient-3" x1="28.73" y1="169.38" x2="2.72" y2="143.37" gradientTransform="matrix(1, 0, 0, -1, 0, 202)" gradientUnits="userSpaceOnUse"><stop offset="0" stop-color="#ff3a44"/><stop offset="1" stop-color="#c31162"/></linearGradient><linearGradient id="linear-gradient-4" x1="8.7" y1="194.66" x2="20.31" y2="183.04" gradientTransform="matrix(1, 0, 0, -1, 0, 202)" gradientUnits="userSpaceOnUse"><stop offset="0" stop-color="#32a071"/><stop offset="0.07" stop-color="#2da771"/><stop offset="0.48" stop-color="#15cf74"/><stop offset="0.8" stop-color="#06e775"/><stop offset="1" stop-color="#00f076"/></linearGradient></defs><rect width="154.29" height="45.71" rx="5.71" ry="5.71"/><path fill="#a6a6a6" class="cls-1" d="M148.93,8.06a4.81,4.81,0,0,1,4.8,4.8V47.14a4.81,4.81,0,0,1-4.8,4.8H6.07a4.81,4.81,0,0,1-4.8-4.8V12.86a4.81,4.81,0,0,1,4.8-4.8H148.93m0-.91H6.07A5.73,5.73,0,0,0,.36,12.86V47.14a5.73,5.73,0,0,0,5.71,5.71H148.93a5.73,5.73,0,0,0,5.71-5.71V12.86a5.73,5.73,0,0,0-5.71-5.71Z" transform="translate(-0.36 -7.14)"/><path fill="#fff" stroke="#fff" stroke-miterlimit="10" stroke-width="0.2px" class="cls-2" d="M54.55,18.85a3.09,3.09,0,0,1-.85,2.29,3.32,3.32,0,0,1-2.52,1,3.53,3.53,0,0,1-3.56-3.58A3.53,3.53,0,0,1,51.18,15a3.54,3.54,0,0,1,1.41.29,2.83,2.83,0,0,1,1.07.77l-.6.6a2.32,2.32,0,0,0-1.88-.81,2.65,2.65,0,0,0-2.66,2.74,2.7,2.7,0,0,0,4.58,2,2.16,2.16,0,0,0,.57-1.39H51.18v-.82H54.5A2.91,2.91,0,0,1,54.55,18.85Z" transform="translate(-0.36 -7.14)"/><path fill="#fff" stroke="#fff" stroke-miterlimit="10" stroke-width="0.2px" class="cls-2" d="M59.82,16H56.69v2.17h2.82V19H56.69v2.17h3.12V22h-4V15.14h4Z" transform="translate(-0.36 -7.14)"/><path fill="#fff" stroke="#fff" stroke-miterlimit="10" stroke-width="0.2px" class="cls-2" d="M63.53,22h-.88V16H60.74v-.84h4.71V16H63.53Z" transform="translate(-0.36 -7.14)"/><path fill="#fff" stroke="#fff" stroke-miterlimit="10" stroke-width="0.2px" class="cls-2" d="M68.86,22V15.14h.88V22Z" transform="translate(-0.36 -7.14)"/><path fill="#fff" stroke="#fff" stroke-miterlimit="10" stroke-width="0.2px" class="cls-2" d="M73.65,22h-.88V16H70.85v-.84h4.71V16H73.65Z" transform="translate(-0.36 -7.14)"/><path fill="#fff" stroke="#fff" stroke-miterlimit="10" stroke-width="0.2px" class="cls-2" d="M84.48,21.11a3.56,3.56,0,0,1-5,0,3.7,3.7,0,0,1,0-5.08,3.55,3.55,0,0,1,5,0,3.69,3.69,0,0,1,0,5.08Zm-4.38-.57a2.64,2.64,0,0,0,3.73,0,2.68,2.68,0,0,0,.76-2,2.68,2.68,0,0,0-.76-2,2.64,2.64,0,0,0-3.73,0,2.93,2.93,0,0,0,0,3.94Z" transform="translate(-0.36 -7.14)"/><path fill="#fff" stroke="#fff" stroke-miterlimit="10" stroke-width="0.2px" class="cls-2" d="M86.73,22V15.14H87.8l3.33,5.33h0l0-1.32v-4H92V22H91.1l-3.49-5.59h0l0,1.32V22Z" transform="translate(-0.36 -7.14)"/><path fill="#fff" class="cls-3" d="M78.23,32a4.86,4.86,0,1,0,4.88,4.86A4.79,4.79,0,0,0,78.23,32Zm0,7.81A3,3,0,1,1,81,36.86,2.81,2.81,0,0,1,78.23,39.81ZM67.58,32a4.86,4.86,0,1,0,4.88,4.86A4.79,4.79,0,0,0,67.58,32Zm0,7.81a3,3,0,1,1,2.74-2.95A2.81,2.81,0,0,1,67.58,39.81ZM54.92,33.49v2.06h4.93a4.3,4.3,0,0,1-1.12,2.6,5.05,5.05,0,0,1-3.81,1.51,5.49,5.49,0,0,1,0-11,5.26,5.26,0,0,1,3.72,1.47l1.45-1.45a7.19,7.19,0,0,0-5.17-2.08,7.55,7.55,0,1,0,0,15.1,6.9,6.9,0,0,0,5.27-2.12A6.81,6.81,0,0,0,62,34.78a6.71,6.71,0,0,0-.11-1.29Zm51.78,1.6A4.52,4.52,0,0,0,102.54,32,4.62,4.62,0,0,0,98,36.86a4.76,4.76,0,0,0,4.82,4.86,4.83,4.83,0,0,0,4.05-2.15l-1.66-1.1a2.78,2.78,0,0,1-2.39,1.34,2.47,2.47,0,0,1-2.36-1.47l6.5-2.69Zm-6.63,1.62a2.67,2.67,0,0,1,2.54-2.84,1.88,1.88,0,0,1,1.8,1Zm-5.28,4.71h2.14V27.14H94.79Zm-3.5-8.34h-.07A3.37,3.37,0,0,0,88.66,32a4.87,4.87,0,0,0,0,9.72,3.31,3.31,0,0,0,2.56-1.1h.07v.7c0,1.86-1,2.85-2.6,2.85a2.69,2.69,0,0,1-2.45-1.73l-1.86.77a4.63,4.63,0,0,0,4.31,2.87c2.5,0,4.62-1.47,4.62-5.06V32.3h-2Zm-2.45,6.72a3,3,0,0,1,0-5.89,2.74,2.74,0,0,1,2.6,3A2.72,2.72,0,0,1,88.84,39.81Zm27.86-12.67H111.6V41.43h2.13V36h3a4.44,4.44,0,1,0,0-8.87Zm.06,6.89h-3v-4.9h3a2.45,2.45,0,1,1,0,4.9ZM129.94,32a4,4,0,0,0-3.8,2.19L128,35a2,2,0,0,1,1.95-1,2.05,2.05,0,0,1,2.24,1.84v.15a4.72,4.72,0,0,0-2.22-.55c-2,0-4.12,1.12-4.12,3.22a3.3,3.3,0,0,0,3.55,3.14,3,3,0,0,0,2.72-1.4h.07v1.1h2.06V35.93C134.28,33.39,132.39,32,129.94,32Zm-.26,7.83c-.7,0-1.67-.35-1.67-1.21,0-1.1,1.21-1.53,2.26-1.53a3.8,3.8,0,0,1,1.95.48A2.59,2.59,0,0,1,129.68,39.81Zm12.09-7.52-2.44,6.19h-.07l-2.54-6.19h-2.3l3.8,8.66-2.17,4.82h2.22l5.86-13.47Zm-19.21,9.14h2.13V27.14h-2.13Z" transform="translate(-0.36 -7.14)"/><path fill="url(#linear-gradient)" class="cls-4" d="M12.28,15.76a2.29,2.29,0,0,0-.53,1.61V42.64a2.29,2.29,0,0,0,.53,1.61l.08.08L26.53,30.17v-.33L12.37,15.67Z" transform="translate(-0.36 -7.14)"/><path fill="url(#linear-gradient-3)" class="cls-5" d="M31.25,34.89l-4.72-4.72v-.33l4.72-4.72.11.06,5.59,3.18c1.6.91,1.6,2.39,0,3.3l-5.59,3.18Z" transform="translate(-0.36 -7.14)"/><path fill="url(#linear-gradient-3)" class="cls-6" d="M31.35,34.83,26.53,30,12.28,44.24a1.86,1.86,0,0,0,2.37.07l16.7-9.49" transform="translate(-0.36 -7.14)"/><path fill="url(#linear-gradient-4)" class="cls-7" d="M31.35,25.17l-16.7-9.49a1.86,1.86,0,0,0-2.37.07L26.53,30Z" transform="translate(-0.36 -7.14)"/><path opacity="0.2" isolation="isolate" class="cls-8" d="M31.25,34.72,14.66,44.15a1.9,1.9,0,0,1-2.29,0h0l-.09.09h0l.08.08h0a1.9,1.9,0,0,0,2.29,0l16.7-9.49Z" transform="translate(-0.36 -7.14)"/><path opacity="0.12" isolation="isolate" class="cls-9" d="M12.28,44.08a2.29,2.29,0,0,1-.53-1.61v.17a2.29,2.29,0,0,0,.53,1.61l.09-.09Z" transform="translate(-0.36 -7.14)"/><path opacity="0.12" isolation="isolate" class="cls-9" d="M36.95,31.48l-5.7,3.24.11.11,5.59-3.18A2,2,0,0,0,38.14,30h0A2.13,2.13,0,0,1,36.95,31.48Z" transform="translate(-0.36 -7.14)"/><path fill="#fff" isolation="isolate" opacity="0.25" class="cls-10" d="M14.66,15.86,36.95,28.52A2.13,2.13,0,0,1,38.14,30h0a2,2,0,0,0-1.2-1.65L14.66,15.69c-1.6-.91-2.9-.15-2.9,1.68v.17C11.75,15.7,13.06,14.95,14.66,15.86Z" transform="translate(-0.36 -7.14)"/></svg>