<svg width="17" height="19" viewBox="0 0 17 19" fill="none" xmlns="http://www.w3.org/2000/svg">
<path d="M11.0834 10.2916C11.5206 10.2916 11.8751 9.93721 11.8751 9.49998C11.8751 9.06275 11.5206 8.70831 11.0834 8.70831C10.6462 8.70831 10.2917 9.06275 10.2917 9.49998C10.2917 9.93721 10.6462 10.2916 11.0834 10.2916Z" stroke="#B5B5B5" stroke-width="1.58333" stroke-linecap="round" stroke-linejoin="round"/>
<path d="M11.0834 4.75002C11.5206 4.75002 11.8751 4.39558 11.8751 3.95835C11.8751 3.52113 11.5206 3.16669 11.0834 3.16669C10.6462 3.16669 10.2917 3.52113 10.2917 3.95835C10.2917 4.39558 10.6462 4.75002 11.0834 4.75002Z" stroke="#B5B5B5" stroke-width="1.58333" stroke-linecap="round" stroke-linejoin="round"/>
<path d="M11.0834 15.8333C11.5206 15.8333 11.8751 15.4789 11.8751 15.0417C11.8751 14.6044 11.5206 14.25 11.0834 14.25C10.6462 14.25 10.2917 14.6044 10.2917 15.0417C10.2917 15.4789 10.6462 15.8333 11.0834 15.8333Z" stroke="#B5B5B5" stroke-width="1.58333" stroke-linecap="round" stroke-linejoin="round"/>
<path d="M5.54167 10.2916C5.97889 10.2916 6.33333 9.93721 6.33333 9.49998C6.33333 9.06275 5.97889 8.70831 5.54167 8.70831C5.10444 8.70831 4.75 9.06275 4.75 9.49998C4.75 9.93721 5.10444 10.2916 5.54167 10.2916Z" stroke="#B5B5B5" stroke-width="1.58333" stroke-linecap="round" stroke-linejoin="round"/>
<path d="M5.54167 4.75002C5.97889 4.75002 6.33333 4.39558 6.33333 3.95835C6.33333 3.52113 5.97889 3.16669 5.54167 3.16669C5.10444 3.16669 4.75 3.52113 4.75 3.95835C4.75 4.39558 5.10444 4.75002 5.54167 4.75002Z" stroke="#B5B5B5" stroke-width="1.58333" stroke-linecap="round" stroke-linejoin="round"/>
<path d="M5.54167 15.8333C5.97889 15.8333 6.33333 15.4789 6.33333 15.0417C6.33333 14.6044 5.97889 14.25 5.54167 14.25C5.10444 14.25 4.75 14.6044 4.75 15.0417C4.75 15.4789 5.10444 15.8333 5.54167 15.8333Z" stroke="#B5B5B5" stroke-width="1.58333" stroke-linecap="round" stroke-linejoin="round"/>
</svg>
