<svg width="28" height="22" viewBox="0 0 28 22" fill="none" xmlns="http://www.w3.org/2000/svg">
<path d="M2.45081 21.33H3.78712C4.64373 21.33 5.30618 20.6675 5.30618 19.8223V17.9492C7.79607 18.0863 11.1426 18.1891 13.8609 18.1891C16.5792 18.1891 19.9257 18.0863 22.427 17.9492V19.8223C22.427 20.6675 23.078 21.33 23.9346 21.33H25.2824C26.139 21.33 26.79 20.6675 26.79 19.8223V16.9327C27.1784 16.5215 27.3725 15.9619 27.3725 15.2537V13.2436C27.3725 11.3133 26.9842 10.2397 25.9334 8.86913L24.9626 7.62419C24.5514 5.56832 23.7862 3.40965 23.3978 2.56446C22.7811 1.27383 21.6047 0.50859 20.0856 0.303003C19.3204 0.20021 16.8191 0.143102 13.8609 0.143102C10.9141 0.143102 8.41283 0.211631 7.64759 0.303003C6.12853 0.485747 4.94069 1.27383 4.33535 2.56446C3.9356 3.40965 3.18178 5.56832 2.75919 7.62419L1.79978 8.86913C0.737581 10.2397 0.34925 11.3133 0.34925 13.2436V15.2537C0.34925 15.9619 0.554837 16.5215 0.931747 16.9327V19.8223C0.931747 20.6675 1.59419 21.33 2.45081 21.33ZM13.8609 16.6929C9.97758 16.6929 4.9978 16.5101 3.15894 16.2817C2.18811 16.1675 1.84547 15.6649 1.84547 14.7969V13.2436C1.84547 11.6788 2.09674 10.9478 2.98762 9.78285L4.15261 8.25237C4.46099 6.59625 5.20339 4.28911 5.69451 3.23833C6.06 2.45025 6.77956 1.95912 7.81891 1.83348C8.54989 1.74211 10.8685 1.63932 13.8609 1.63932C16.8647 1.63932 19.2176 1.74211 19.88 1.83348C20.9536 1.97054 21.6618 2.46167 22.0387 3.23833C22.5298 4.28911 23.2722 6.59625 23.5692 8.25237L24.7456 9.78285C25.625 10.9478 25.8763 11.6788 25.8763 13.2436V14.7969C25.8763 15.6649 25.5337 16.1675 24.5628 16.2817C22.7354 16.5101 17.7442 16.6929 13.8609 16.6929ZM5.70593 7.32723C5.61456 7.72698 5.78588 7.88688 6.2199 7.86404C8.04734 7.7384 10.2174 7.63561 13.8609 7.63561C17.5158 7.63561 19.6859 7.7384 21.5133 7.86404C21.9359 7.88688 22.1072 7.72698 22.0158 7.32723C21.7417 6.11655 21.2163 4.54038 20.8508 3.9122C20.5539 3.39823 20.2227 3.1698 19.6287 3.08985C18.8064 2.97563 16.9333 2.89568 13.8609 2.89568C10.7999 2.89568 8.9268 2.97563 8.09303 3.08985C7.49911 3.1698 7.16789 3.39823 6.87093 3.9122C6.50544 4.54038 5.99147 6.11655 5.70593 7.32723ZM5.62598 15.1053C6.66534 15.1053 7.46485 14.3058 7.46485 13.2664C7.46485 12.2156 6.66534 11.4275 5.62598 11.4275C4.58663 11.4275 3.78712 12.2156 3.78712 13.2664C3.78712 14.3058 4.58663 15.1053 5.62598 15.1053ZM22.0958 15.1053C23.1466 15.1053 23.9346 14.3058 23.9346 13.2664C23.9346 12.2156 23.1466 11.4275 22.0958 11.4275C21.0564 11.4275 20.2683 12.2156 20.2683 13.2664C20.2683 14.3058 21.0564 15.1053 22.0958 15.1053ZM10.8456 14.6484H16.8876C17.6642 14.6484 18.2011 14.1116 18.2011 13.3235C18.2011 12.5469 17.6642 12.01 16.8876 12.01H10.8456C10.0575 12.01 9.52072 12.5469 9.52072 13.3235C9.52072 14.1116 10.0575 14.6484 10.8456 14.6484Z" fill="#4B5A6D"/>
</svg>
