<svg width="23" height="21" viewBox="0 0 23 21" fill="none" xmlns="http://www.w3.org/2000/svg">
<path d="M4.1123 20.1484H18.7861C21.0312 20.1484 22.1484 19.0312 22.1484 16.8184V3.70215C22.1484 1.48926 21.0312 0.37207 18.7861 0.37207H4.1123C1.86719 0.37207 0.739258 1.47852 0.739258 3.70215V16.8184C0.739258 19.042 1.86719 20.1484 4.1123 20.1484ZM3.95117 18.4189C2.99512 18.4189 2.46875 17.9141 2.46875 16.915V6.78516C2.46875 5.79688 2.99512 5.28125 3.95117 5.28125H18.9258C19.8818 5.28125 20.4189 5.79688 20.4189 6.78516V16.915C20.4189 17.9141 19.8818 18.4189 18.9258 18.4189H3.95117ZM9.35449 9.1377H9.98828C10.3643 9.1377 10.4824 9.03027 10.4824 8.6543V8.02051C10.4824 7.64453 10.3643 7.52637 9.98828 7.52637H9.35449C8.97852 7.52637 8.84961 7.64453 8.84961 8.02051V8.6543C8.84961 9.03027 8.97852 9.1377 9.35449 9.1377ZM12.9209 9.1377H13.5547C13.9307 9.1377 14.0596 9.03027 14.0596 8.6543V8.02051C14.0596 7.64453 13.9307 7.52637 13.5547 7.52637H12.9209C12.5449 7.52637 12.416 7.64453 12.416 8.02051V8.6543C12.416 9.03027 12.5449 9.1377 12.9209 9.1377ZM16.4873 9.1377H17.1211C17.4971 9.1377 17.626 9.03027 17.626 8.6543V8.02051C17.626 7.64453 17.4971 7.52637 17.1211 7.52637H16.4873C16.1113 7.52637 15.9932 7.64453 15.9932 8.02051V8.6543C15.9932 9.03027 16.1113 9.1377 16.4873 9.1377ZM5.78809 12.6504H6.41113C6.79785 12.6504 6.91602 12.543 6.91602 12.167V11.5332C6.91602 11.1572 6.79785 11.0498 6.41113 11.0498H5.78809C5.40137 11.0498 5.2832 11.1572 5.2832 11.5332V12.167C5.2832 12.543 5.40137 12.6504 5.78809 12.6504ZM9.35449 12.6504H9.98828C10.3643 12.6504 10.4824 12.543 10.4824 12.167V11.5332C10.4824 11.1572 10.3643 11.0498 9.98828 11.0498H9.35449C8.97852 11.0498 8.84961 11.1572 8.84961 11.5332V12.167C8.84961 12.543 8.97852 12.6504 9.35449 12.6504ZM12.9209 12.6504H13.5547C13.9307 12.6504 14.0596 12.543 14.0596 12.167V11.5332C14.0596 11.1572 13.9307 11.0498 13.5547 11.0498H12.9209C12.5449 11.0498 12.416 11.1572 12.416 11.5332V12.167C12.416 12.543 12.5449 12.6504 12.9209 12.6504ZM16.4873 12.6504H17.1211C17.4971 12.6504 17.626 12.543 17.626 12.167V11.5332C17.626 11.1572 17.4971 11.0498 17.1211 11.0498H16.4873C16.1113 11.0498 15.9932 11.1572 15.9932 11.5332V12.167C15.9932 12.543 16.1113 12.6504 16.4873 12.6504ZM5.78809 16.1738H6.41113C6.79785 16.1738 6.91602 16.0557 6.91602 15.6797V15.0459C6.91602 14.6699 6.79785 14.5625 6.41113 14.5625H5.78809C5.40137 14.5625 5.2832 14.6699 5.2832 15.0459V15.6797C5.2832 16.0557 5.40137 16.1738 5.78809 16.1738ZM9.35449 16.1738H9.98828C10.3643 16.1738 10.4824 16.0557 10.4824 15.6797V15.0459C10.4824 14.6699 10.3643 14.5625 9.98828 14.5625H9.35449C8.97852 14.5625 8.84961 14.6699 8.84961 15.0459V15.6797C8.84961 16.0557 8.97852 16.1738 9.35449 16.1738ZM12.9209 16.1738H13.5547C13.9307 16.1738 14.0596 16.0557 14.0596 15.6797V15.0459C14.0596 14.6699 13.9307 14.5625 13.5547 14.5625H12.9209C12.5449 14.5625 12.416 14.6699 12.416 15.0459V15.6797C12.416 16.0557 12.5449 16.1738 12.9209 16.1738Z" fill="#4B5A6D"/>
</svg>
