<svg width="22" height="23" viewBox="0 0 22 23" fill="none" xmlns="http://www.w3.org/2000/svg">
<path d="M10.7817 11.4062C13.687 11.4062 16.0552 8.81836 16.0552 5.66895C16.0552 2.54395 13.6992 0.090332 10.7817 0.090332C7.88867 0.090332 5.5083 2.59277 5.5083 5.69336C5.52051 8.83057 7.87646 11.4062 10.7817 11.4062ZM10.7817 9.56299C8.99951 9.56299 7.47363 7.854 7.47363 5.69336C7.47363 3.56934 8.9751 1.93359 10.7817 1.93359C12.6006 1.93359 14.0898 3.54492 14.0898 5.66895C14.0898 7.82959 12.5762 9.56299 10.7817 9.56299ZM3.10352 22.6978H18.4478C20.4741 22.6978 21.4385 22.0874 21.4385 20.7446C21.4385 17.5464 17.3979 12.9199 10.7817 12.9199C4.15332 12.9199 0.112793 17.5464 0.112793 20.7446C0.112793 22.0874 1.07715 22.6978 3.10352 22.6978ZM2.52979 20.8545C2.2124 20.8545 2.07812 20.769 2.07812 20.5127C2.07812 18.5107 5.17871 14.7632 10.7817 14.7632C16.3726 14.7632 19.4731 18.5107 19.4731 20.5127C19.4731 20.769 19.3511 20.8545 19.0337 20.8545H2.52979Z" fill="#4B5A6D"/>
</svg>
