<svg width="21" height="21" viewBox="0 0 21 21" fill="none" xmlns="http://www.w3.org/2000/svg">
<path d="M10.709 20.9102C16.1582 20.9102 20.6699 16.3887 20.6699 10.9492C20.6699 5.5 16.1484 0.988281 10.6992 0.988281C5.25977 0.988281 0.748047 5.5 0.748047 10.9492C0.748047 16.3887 5.26953 20.9102 10.709 20.9102ZM10.709 19.25C6.09961 19.25 2.41797 15.5586 2.41797 10.9492C2.41797 6.33984 6.08984 2.64844 10.6992 2.64844C15.3086 2.64844 19 6.33984 19.0098 10.9492C19.0195 15.5586 15.3184 19.25 10.709 19.25ZM10.6992 16.5254C10.9629 16.5254 11.1582 16.3398 11.1582 16.0664V15.3828C12.6719 15.2363 13.8535 14.3574 13.8535 12.8828C13.8535 11.5547 12.9941 10.7539 11.2949 10.4512L11.1582 10.4219V7.69727C11.8613 7.82422 12.3496 8.24414 12.5449 8.89844C12.6426 9.19141 12.8281 9.37695 13.1406 9.37695C13.4727 9.37695 13.7168 9.14258 13.7168 8.80078C13.7168 8.70312 13.6875 8.60547 13.668 8.49805C13.4141 7.44336 12.4082 6.7207 11.1582 6.57422V5.90039C11.1582 5.62695 10.9629 5.44141 10.6992 5.44141C10.4355 5.44141 10.2402 5.62695 10.2402 5.90039V6.57422C8.75586 6.74023 7.70117 7.66797 7.70117 8.99609C7.70117 10.2363 8.54102 10.9785 10.1719 11.3594L10.2402 11.3789V14.2695C9.36133 14.1426 8.84375 13.6543 8.6875 13C8.57031 12.668 8.375 12.5117 8.08203 12.5117C7.75 12.5117 7.51562 12.7461 7.51562 13.0879C7.51562 13.1953 7.53516 13.293 7.56445 13.3906C7.83789 14.5137 8.93164 15.2363 10.2402 15.3633V16.0664C10.2402 16.3398 10.4355 16.5254 10.6992 16.5254ZM10.2402 10.1777L10.1719 10.1582C9.29297 9.9043 8.90234 9.51367 8.90234 8.9375C8.90234 8.3418 9.41016 7.84375 10.2402 7.69727V10.1777ZM11.1582 11.6133L11.373 11.6621C12.3203 11.9258 12.6426 12.3262 12.6426 12.9512C12.6426 13.6348 12.1543 14.1523 11.1582 14.2695V11.6133Z" fill="#4B5A6D"/>
</svg>
