<svg width="20" height="22" viewBox="0 0 20 22" fill="none" xmlns="http://www.w3.org/2000/svg">
<path d="M6.35352 3.9082C6.35352 5.62695 7.51562 7.0625 9.10742 7.46289V13.6445C9.10742 16.5254 9.625 18.0977 10.0156 18.0977C10.416 18.0977 10.9238 16.5352 10.9238 13.6445V7.46289C12.5156 7.07227 13.6875 5.62695 13.6875 3.9082C13.6875 1.88672 12.0566 0.226562 10.0156 0.226562C7.98438 0.226562 6.35352 1.88672 6.35352 3.9082ZM8.9707 4.11328C8.30664 4.11328 7.7207 3.52734 7.7207 2.84375C7.7207 2.16992 8.30664 1.59375 8.9707 1.59375C9.66406 1.59375 10.2305 2.16992 10.2305 2.84375C10.2305 3.52734 9.66406 4.11328 8.9707 4.11328ZM10.0254 21.6719C15.9141 21.6719 19.293 19.6406 19.293 17.4922C19.293 14.9141 15.2012 13.3418 12.5156 13.3125V14.7383C14.4004 14.7676 17.3203 15.793 17.3203 17.2578C17.3203 18.9375 14.2246 20.1289 10.0254 20.1289C5.80664 20.1289 2.73047 18.957 2.73047 17.2578C2.73047 15.793 5.64062 14.7676 7.52539 14.7383V13.3125C4.83984 13.3418 0.748047 14.9141 0.748047 17.4922C0.748047 19.6406 4.13672 21.6719 10.0254 21.6719Z" fill="#4B5A6D"/>
</svg>
