<svg width="18" height="23" viewBox="0 0 18 23" fill="none" xmlns="http://www.w3.org/2000/svg">
<path d="M9.15234 14.6055C9.57227 14.6055 9.93359 14.2539 9.93359 13.8438V3.81445L9.875 2.34961L10.5293 3.04297L12.0137 4.625C12.1504 4.78125 12.3457 4.85938 12.541 4.85938C12.9414 4.85938 13.2539 4.56641 13.2539 4.16602C13.2539 3.96094 13.166 3.80469 13.0195 3.6582L9.71875 0.474609C9.52344 0.279297 9.35742 0.210938 9.15234 0.210938C8.95703 0.210938 8.79102 0.279297 8.58594 0.474609L5.28516 3.6582C5.13867 3.80469 5.06055 3.96094 5.06055 4.16602C5.06055 4.56641 5.35352 4.85938 5.76367 4.85938C5.94922 4.85938 6.16406 4.78125 6.30078 4.625L7.77539 3.04297L8.43945 2.34961L8.38086 3.81445V13.8438C8.38086 14.2539 8.73242 14.6055 9.15234 14.6055ZM3.55664 22.252H14.7578C16.7988 22.252 17.8242 21.2363 17.8242 19.2246V9.47852C17.8242 7.4668 16.7988 6.45117 14.7578 6.45117H12.0332V8.02344H14.7285C15.6953 8.02344 16.252 8.55078 16.252 9.56641V19.1367C16.252 20.1523 15.6953 20.6797 14.7285 20.6797H3.57617C2.59961 20.6797 2.0625 20.1523 2.0625 19.1367V9.56641C2.0625 8.55078 2.59961 8.02344 3.57617 8.02344H6.28125V6.45117H3.55664C1.51562 6.45117 0.490234 7.4668 0.490234 9.47852V19.2246C0.490234 21.2363 1.51562 22.252 3.55664 22.252Z" fill="#4B5A6D"/>
</svg>
