<svg width="24" height="19" viewBox="0 0 24 19" fill="none" xmlns="http://www.w3.org/2000/svg">
<path d="M3.55664 18.9434H20.4512C22.502 18.9434 23.5176 17.9375 23.5176 15.9258V3.99219C23.5176 1.98047 22.502 0.964844 20.4512 0.964844H3.55664C1.51562 0.964844 0.490234 1.98047 0.490234 3.99219V15.9258C0.490234 17.9375 1.51562 18.9434 3.55664 18.9434ZM2.0625 4.08008C2.0625 3.06445 2.59961 2.53711 3.57617 2.53711H20.4316C21.3984 2.53711 21.9453 3.06445 21.9453 4.08008V6.7168H2.0625V4.08008ZM20.4316 17.3711H12.7949V8.19141H21.9453V15.8379C21.9453 16.8535 21.3984 17.3711 20.4316 17.3711ZM3.57617 17.3711C2.59961 17.3711 2.0625 16.8535 2.0625 15.8379V8.19141H11.2227V17.3711H3.57617Z" fill="#4B5A6D"/>
</svg>
