<svg width="23" height="16" viewBox="0 0 23 16" fill="none" xmlns="http://www.w3.org/2000/svg">
<path d="M18.1162 15.18C18.3604 15.4323 18.751 15.4486 19.0033 15.18C19.2718 14.9115 19.2474 14.5452 19.0033 14.293L5.39648 0.694335C5.15234 0.450194 4.75358 0.450194 4.5013 0.694335C4.2653 0.930338 4.2653 1.34538 4.5013 1.58138L18.1162 15.18ZM11.7848 1.1582C10.3688 1.1582 9.08301 1.40234 7.88672 1.80111L8.96094 2.86719C9.85612 2.59863 10.7757 2.44401 11.7848 2.44401C17.1396 2.44401 21.4772 7.16406 21.4772 8.13249C21.4772 8.79167 20.0531 10.5658 17.7988 11.9492L18.7998 12.9502C21.3714 11.2819 22.9014 9.09277 22.9014 8.13249C22.9014 6.46419 18.3604 1.1582 11.7848 1.1582ZM11.7848 15.1068C13.2985 15.1068 14.682 14.8382 15.9434 14.4069L14.8773 13.3408C13.9089 13.6419 12.8835 13.821 11.7848 13.821C6.42188 13.821 2.08431 9.27995 2.08431 8.13249C2.08431 7.56283 3.58984 5.66667 5.99056 4.22624L4.98145 3.21712C2.27148 4.89355 0.660156 7.14779 0.660156 8.13249C0.660156 9.79264 5.29069 15.1068 11.7848 15.1068ZM15.9596 9.91471C16.2119 9.36947 16.3503 8.75911 16.3503 8.13249C16.3503 5.58529 14.3158 3.57519 11.7848 3.57519C11.1419 3.57519 10.5397 3.71354 9.99447 3.94954L15.9596 9.91471ZM11.7848 12.6898C12.501 12.6898 13.1764 12.5107 13.7786 12.2178L7.67513 6.11426C7.37402 6.71647 7.20313 7.40006 7.20313 8.13249C7.21126 10.6146 9.23763 12.6898 11.7848 12.6898Z" fill="#4B5A6D"/>
</svg>
