<svg width="24" height="19" viewBox="0 0 24 19" fill="none" xmlns="http://www.w3.org/2000/svg">
<path d="M3.55664 18.9434H20.4512C22.502 18.9434 23.5176 17.9375 23.5176 15.9258V3.99219C23.5176 1.98047 22.502 0.964844 20.4512 0.964844H3.55664C1.51562 0.964844 0.490234 1.98047 0.490234 3.99219V15.9258C0.490234 17.9375 1.51562 18.9434 3.55664 18.9434ZM16.7109 9.94922C16.2715 9.55859 15.7637 9.34375 15.2363 9.34375C14.6992 9.34375 14.2207 9.5293 13.7715 9.92969L9.35742 13.875L7.55078 12.2441C7.14062 11.873 6.69141 11.6875 6.23242 11.6875C5.79297 11.6875 5.38281 11.8633 4.97266 12.2344L2.0625 14.8613V4.08008C2.0625 3.06445 2.59961 2.53711 3.57617 2.53711H20.4316C21.3984 2.53711 21.9453 3.06445 21.9453 4.08008V14.8613L16.7109 9.94922ZM7.76562 10.0469C9.02539 10.0469 10.0605 9.01172 10.0605 7.74219C10.0605 6.48242 9.02539 5.4375 7.76562 5.4375C6.49609 5.4375 5.46094 6.48242 5.46094 7.74219C5.46094 9.01172 6.49609 10.0469 7.76562 10.0469Z" fill="#4B5A6D"/>
</svg>
