<svg width="21" height="22" viewBox="0 0 21 22" fill="none" xmlns="http://www.w3.org/2000/svg">
<path d="M4.5625 1.38867H16.8867C16.8281 0.558594 16.3594 0.128906 15.4512 0.128906H5.98828C5.08984 0.128906 4.62109 0.558594 4.5625 1.38867ZM2.55078 4.09375H18.8984C18.752 3.20508 18.332 2.7168 17.3555 2.7168H4.09375C3.11719 2.7168 2.69727 3.20508 2.55078 4.09375ZM3.55664 21.75H17.8828C19.9141 21.75 20.9492 20.7344 20.9492 18.7227V8.69336C20.9492 6.68164 19.9141 5.66602 17.8828 5.66602H3.55664C1.50586 5.66602 0.490234 6.68164 0.490234 8.69336V18.7227C0.490234 20.7344 1.50586 21.75 3.55664 21.75ZM3.57617 20.1777C2.59961 20.1777 2.0625 19.6504 2.0625 18.6348V8.78125C2.0625 7.76562 2.59961 7.23828 3.57617 7.23828H17.8535C18.8203 7.23828 19.377 7.76562 19.377 8.78125V18.6348C19.377 19.6504 18.8203 20.1777 17.8535 20.1777H3.57617Z" fill="#4B5A6D"/>
</svg>
