<svg width="19" height="12" viewBox="0 0 19 12" fill="none" xmlns="http://www.w3.org/2000/svg">
<path d="M0.53 11C0.43 11 0.345 10.97 0.275 10.91C0.205 10.84 0.17 10.75 0.17 10.64V0.875C0.17 0.764999 0.205 0.674999 0.275 0.605C0.345 0.534999 0.43 0.499999 0.53 0.499999H1.895C2.005 0.499999 2.09 0.534999 2.15 0.605C2.22 0.674999 2.255 0.764999 2.255 0.875V4.745H6.68V0.875C6.68 0.764999 6.715 0.674999 6.785 0.605C6.855 0.534999 6.94 0.499999 7.04 0.499999H8.39C8.5 0.499999 8.59 0.534999 8.66 0.605C8.73 0.674999 8.765 0.764999 8.765 0.875V10.64C8.765 10.74 8.73 10.825 8.66 10.895C8.59 10.965 8.5 11 8.39 11H7.04C6.94 11 6.855 10.965 6.785 10.895C6.715 10.825 6.68 10.74 6.68 10.64V6.62H2.255V10.64C2.255 10.74 2.22 10.825 2.15 10.895C2.09 10.965 2.005 11 1.895 11H0.53ZM14.0927 11.15C13.3927 11.15 12.7877 11.065 12.2777 10.895C11.7677 10.725 11.3427 10.505 11.0027 10.235C10.6727 9.955 10.4227 9.655 10.2527 9.335C10.0827 9.005 9.99273 8.68 9.98273 8.36C9.98273 8.27 10.0127 8.2 10.0727 8.15C10.1427 8.09 10.2227 8.06 10.3127 8.06H11.6627C11.7627 8.06 11.8477 8.08 11.9177 8.12C11.9877 8.16 12.0477 8.24 12.0977 8.36C12.1877 8.63 12.3327 8.845 12.5327 9.005C12.7427 9.165 12.9827 9.28 13.2527 9.35C13.5227 9.41 13.8077 9.44 14.1077 9.44C14.7077 9.44 15.1827 9.3 15.5327 9.02C15.8927 8.73 16.0727 8.32 16.0727 7.79C16.0727 7.26 15.9077 6.88 15.5777 6.65C15.2477 6.41 14.7877 6.29 14.1977 6.29H12.6527C12.5427 6.29 12.4527 6.26 12.3827 6.2C12.3127 6.13 12.2777 6.04 12.2777 5.93V5.3C12.2777 5.2 12.2977 5.115 12.3377 5.045C12.3877 4.965 12.4377 4.9 12.4877 4.85L15.1727 2.225H10.8827C10.7727 2.225 10.6827 2.19 10.6127 2.12C10.5527 2.05 10.5227 1.965 10.5227 1.865V0.875C10.5227 0.764999 10.5527 0.674999 10.6127 0.605C10.6827 0.534999 10.7727 0.499999 10.8827 0.499999H17.3177C17.4277 0.499999 17.5177 0.534999 17.5877 0.605C17.6577 0.674999 17.6927 0.764999 17.6927 0.875V1.775C17.6927 1.865 17.6727 1.945 17.6327 2.015C17.5927 2.085 17.5477 2.145 17.4977 2.195L14.9027 4.865L15.0827 4.88C15.6927 4.93 16.2327 5.07 16.7027 5.3C17.1827 5.52 17.5527 5.845 17.8127 6.275C18.0827 6.705 18.2177 7.245 18.2177 7.895C18.2177 8.575 18.0377 9.16 17.6777 9.65C17.3277 10.13 16.8427 10.5 16.2227 10.76C15.6027 11.02 14.8927 11.15 14.0927 11.15Z" fill="#4B5A6D"/>
</svg>
