<svg width="24" height="18" viewBox="0 0 24 18" fill="none" xmlns="http://www.w3.org/2000/svg">
<path d="M10.002 1.98633H22.3262C22.7363 1.98633 23.0684 1.66406 23.0684 1.24414C23.0684 0.833984 22.7363 0.511719 22.3262 0.511719H10.002C9.58203 0.511719 9.25977 0.833984 9.25977 1.24414C9.25977 1.66406 9.58203 1.98633 10.002 1.98633ZM10.002 7.10352H22.3262C22.7363 7.10352 23.0684 6.78125 23.0684 6.36133C23.0684 5.95117 22.7363 5.62891 22.3262 5.62891H10.002C9.58203 5.62891 9.25977 5.95117 9.25977 6.36133C9.25977 6.78125 9.58203 7.10352 10.002 7.10352ZM2.02344 11.918L5.25586 9.75977C5.83203 9.36914 5.8125 8.53906 5.25586 8.14844L2.02344 5.95117C1.27148 5.44336 0.480469 5.72656 0.490234 6.625V11.2539C0.480469 12.123 1.30078 12.3867 2.02344 11.918ZM10.002 12.2207H22.3262C22.7363 12.2207 23.0684 11.8887 23.0684 11.4785C23.0684 11.0684 22.7363 10.7461 22.3262 10.7461H10.002C9.58203 10.7461 9.25977 11.0684 9.25977 11.4785C9.25977 11.8887 9.58203 12.2207 10.002 12.2207ZM10.002 17.3281H17.3359C17.7461 17.3281 18.0879 17.0059 18.0879 16.5957C18.0879 16.1855 17.7461 15.8535 17.3359 15.8535H10.002C9.58203 15.8535 9.25977 16.1855 9.25977 16.5957C9.25977 17.0059 9.58203 17.3281 10.002 17.3281Z" fill="#4B5A6D"/>
</svg>
