<svg width="23" height="18" viewBox="0 0 23 18" fill="none" xmlns="http://www.w3.org/2000/svg">
<path d="M3.55664 17.377H19.2793C21.0371 17.377 22.0527 16.3613 22.0527 14.3496V3.56836C22.0527 1.56641 21.0273 0.550781 18.9863 0.550781H3.26367C1.50586 0.550781 0.490234 1.55664 0.490234 3.56836V14.3496C0.490234 16.3711 1.51562 17.377 3.55664 17.377ZM10.1094 9.45703L2.73633 2.18164C2.95117 2.09375 3.20508 2.04492 3.49805 2.04492H19.0449C19.3477 2.04492 19.6113 2.09375 19.8262 2.19141L12.4727 9.45703C12.0527 9.87695 11.6719 10.0625 11.291 10.0625C10.9004 10.0625 10.5195 9.86719 10.1094 9.45703ZM1.98438 14.3496V3.56836C1.98438 3.49023 1.98438 3.5293 1.98438 3.46094L7.59961 8.97852L1.99414 14.5156C1.98438 14.4668 1.98438 14.4082 1.98438 14.3496ZM20.5586 3.57812V14.3594C20.5586 14.3984 20.5586 14.4473 20.5586 14.4863L14.9824 8.97852L20.5586 3.49023C20.5586 3.57812 20.5586 3.57812 20.5586 3.57812ZM3.49805 15.8828C3.22461 15.8828 2.99023 15.8438 2.78516 15.7559L8.625 9.98438L9.25977 10.6094C9.94336 11.2832 10.5977 11.5664 11.291 11.5664C11.9746 11.5664 12.6387 11.2832 13.3223 10.6094L13.957 9.98438L19.7871 15.7461C19.5723 15.8438 19.3281 15.8828 19.0449 15.8828H3.49805Z" fill="#4B5A6D"/>
</svg>
