<svg width="21" height="21" viewBox="0 0 21 21" fill="none" xmlns="http://www.w3.org/2000/svg">
<path d="M10.709 20.9102C16.1582 20.9102 20.6699 16.3887 20.6699 10.9492C20.6699 5.5 16.1484 0.988281 10.6992 0.988281C5.25977 0.988281 0.748047 5.5 0.748047 10.9492C0.748047 16.3887 5.26953 20.9102 10.709 20.9102ZM10.709 19.25C6.09961 19.25 2.41797 15.5586 2.41797 10.9492C2.41797 6.33984 6.08984 2.64844 10.6992 2.64844C15.3086 2.64844 19 6.33984 19.0098 10.9492C19.0195 15.5586 15.3184 19.25 10.709 19.25ZM7.89648 15.9883L10.6992 13.9277L13.502 15.9883C14.0781 16.418 14.6738 15.9688 14.459 15.3047L13.3457 11.9941L16.1777 9.97266C16.6953 9.5918 16.5391 8.83008 15.8164 8.83984L12.3398 8.86914L11.2754 5.53906C11.0703 4.89453 10.3281 4.89453 10.123 5.53906L9.05859 8.86914L5.58203 8.83984C4.86914 8.83008 4.69336 9.58203 5.2207 9.97266L8.05273 11.9941L6.94922 15.3047C6.72461 15.9688 7.33008 16.418 7.89648 15.9883Z" fill="#4B5A6D"/>
</svg>
