<svg width="28" height="14" viewBox="0 0 28 14" fill="none" xmlns="http://www.w3.org/2000/svg">
<path d="M8.73145 12.9561H16.0352C16.4746 12.9561 16.7646 12.6748 16.7646 12.2529C16.7646 11.8311 16.4746 11.541 16.0352 11.541H10.1816V11.4971L13.6182 8.13086C15.6924 6.10059 16.3252 5.0459 16.3252 3.70117C16.3252 1.67969 14.541 0.141602 12.1592 0.141602C10.2871 0.141602 8.6875 1.16113 8.15137 2.70801C8.0459 2.99805 8.00195 3.25293 8.00195 3.47266C8.00195 3.91211 8.26562 4.20215 8.69629 4.20215C9.10938 4.20215 9.28516 4.00879 9.41699 3.56934C9.4873 3.29688 9.58398 3.04199 9.72461 2.82227C10.1904 2.03125 11.0605 1.53906 12.1592 1.53906C13.5742 1.53906 14.7168 2.54102 14.7168 3.78906C14.7168 4.7998 14.2949 5.47656 12.5635 7.19922L8.4502 11.3125C8.08105 11.6729 7.95801 11.9014 7.95801 12.2178C7.95801 12.6748 8.26562 12.9561 8.73145 12.9561ZM22.4512 13.1494C25.1406 13.1494 27.0742 11.5762 27.0742 9.43164C27.0742 7.69141 25.8174 6.54883 23.8223 6.41699V6.38184C25.4922 6.10059 26.5293 4.98438 26.5293 3.41992C26.5293 1.52148 24.8066 0.141602 22.4072 0.141602C20.5967 0.141602 19.1377 0.941406 18.5137 2.25098C18.3467 2.57617 18.2764 2.875 18.2764 3.21777C18.2764 3.63086 18.5576 3.91211 18.9619 3.91211C19.3574 3.91211 19.5332 3.74512 19.665 3.34082C20.043 2.18945 21.0186 1.53027 22.3545 1.53027C23.9277 1.53027 24.9385 2.35645 24.9385 3.62207C24.9385 4.94043 23.8574 5.81055 22.2842 5.81055H21.3174C20.8955 5.81055 20.623 6.06543 20.623 6.46973C20.623 6.86523 20.8955 7.12891 21.3174 7.12891H22.3018C24.2529 7.12891 25.4131 7.95508 25.4131 9.42285C25.4131 10.7764 24.2002 11.7256 22.46 11.7256C20.9395 11.7256 19.8584 11.0576 19.4629 9.89746C19.3223 9.51953 19.1113 9.34375 18.7334 9.34375C18.2852 9.34375 17.9863 9.63379 17.9863 10.0908C17.9863 10.3984 18.0654 10.6797 18.2324 10.9873C18.9619 12.376 20.4912 13.1494 22.4512 13.1494ZM4.72363 13.1318C5.20703 13.1318 5.52344 12.8154 5.52344 12.332V1.09961C5.52344 0.52832 5.16309 0.211914 4.61816 0.211914C4.21387 0.211914 3.99414 0.334961 3.625 0.572266L0.698242 2.4707C0.355469 2.69922 0.241211 2.90137 0.241211 3.19141C0.241211 3.55176 0.504883 3.81543 0.891602 3.81543C1.12891 3.81543 1.24316 3.74512 1.40137 3.63965L3.90625 2.06641H3.94141V12.332C3.94141 12.8154 4.24023 13.1318 4.72363 13.1318Z" fill="#4B5A6D"/>
</svg>
