<svg width="20" height="20" viewBox="0 0 20 20" fill="none" xmlns="http://www.w3.org/2000/svg">
<path d="M10.2211 19.7795C15.4433 19.7795 19.767 15.4558 19.767 10.2336C19.767 5.02083 15.4339 0.687745 10.2118 0.687745C4.99894 0.687745 0.675212 5.02083 0.675212 10.2336C0.675212 15.4558 5.0083 19.7795 10.2211 19.7795ZM10.2211 18.1886C5.80379 18.1886 2.27555 14.651 2.27555 10.2336C2.27555 5.81633 5.79443 2.27873 10.2118 2.27873C14.6291 2.27873 18.1667 5.81633 18.176 10.2336C18.1854 14.651 14.6384 18.1886 10.2211 18.1886ZM10.2305 15.0534C10.7171 15.0534 10.9885 14.7633 10.9792 14.2579L10.8949 11.4503L13.4312 13.0974C13.5715 13.1816 13.7306 13.2378 13.9178 13.2378C14.3015 13.2378 14.6571 12.9383 14.6571 12.461C14.6571 12.1522 14.5168 11.9463 14.2079 11.7778L11.55 10.2898L14.2079 8.81112C14.5168 8.64266 14.6571 8.42741 14.6571 8.12793C14.6571 7.64128 14.3015 7.3418 13.9178 7.3418C13.7306 7.3418 13.5715 7.39795 13.4312 7.49154L10.8949 9.1106L10.9792 6.21875C10.9885 5.70402 10.7171 5.4139 10.2305 5.4139C9.73446 5.4139 9.43498 5.72274 9.44434 6.21875L9.52856 9.1106L6.99235 7.5009C6.85197 7.40731 6.69287 7.36051 6.5057 7.36051C6.12199 7.36051 5.76636 7.65064 5.76636 8.13729C5.76636 8.44613 5.90674 8.65202 6.21558 8.82983L8.85474 10.2898L6.21558 11.7685C5.90674 11.9369 5.76636 12.1522 5.76636 12.4517C5.76636 12.929 6.12199 13.2284 6.5057 13.2284C6.69287 13.2284 6.85197 13.1723 6.99235 13.0881L9.52856 11.4503L9.44434 14.2579C9.43498 14.7445 9.73446 15.0534 10.2305 15.0534Z" fill="#4B5A6D"/>
</svg>
