<svg width="21" height="21" viewBox="0 0 21 21" fill="none" xmlns="http://www.w3.org/2000/svg">
<path d="M10.709 20.9102C16.1582 20.9102 20.6699 16.3887 20.6699 10.9492C20.6699 5.5 16.1484 0.988281 10.6992 0.988281C5.25977 0.988281 0.748047 5.5 0.748047 10.9492C0.748047 16.3887 5.26953 20.9102 10.709 20.9102ZM10.709 19.25C6.09961 19.25 2.41797 15.5586 2.41797 10.9492C2.41797 6.33984 6.08984 2.64844 10.6992 2.64844C15.3086 2.64844 19 6.33984 19.0098 10.9492C19.0195 15.5586 15.3184 19.25 10.709 19.25ZM9.64453 13.8887C10.4355 13.8887 11.1777 13.6543 11.8027 13.2637L14.3027 15.7539C14.498 15.959 14.7129 16.0469 14.9961 16.0469C15.4648 16.0469 15.7871 15.7051 15.7871 15.2168C15.7871 14.9922 15.6797 14.7871 15.5234 14.6211L13.0039 12.0918C13.4434 11.4473 13.707 10.666 13.707 9.82617C13.707 7.58984 11.8809 5.76367 9.64453 5.76367C7.4082 5.76367 5.58203 7.59961 5.58203 9.82617C5.58203 12.0527 7.4082 13.8887 9.64453 13.8887ZM9.64453 12.5605C8.15039 12.5605 6.91016 11.3203 6.91016 9.82617C6.91016 8.33203 8.15039 7.0918 9.64453 7.0918C11.1387 7.0918 12.3691 8.32227 12.3691 9.82617C12.3691 11.3203 11.1387 12.5605 9.64453 12.5605Z" fill="#4B5A6D"/>
</svg>
