<svg width="18" height="11" viewBox="0 0 18 11" fill="none" xmlns="http://www.w3.org/2000/svg">
<path d="M0.529983 11.0001C0.429983 11.0001 0.344983 10.9701 0.274983 10.9101C0.204983 10.8401 0.169983 10.7501 0.169983 10.6401V0.875068C0.169983 0.765068 0.204983 0.675068 0.274983 0.605068C0.344983 0.535068 0.429983 0.500068 0.529983 0.500068H1.89498C2.00498 0.500068 2.08998 0.535068 2.14998 0.605068C2.21998 0.675068 2.25498 0.765068 2.25498 0.875068V4.74507H6.67998V0.875068C6.67998 0.765068 6.71498 0.675068 6.78498 0.605068C6.85498 0.535068 6.93998 0.500068 7.03998 0.500068H8.38998C8.49998 0.500068 8.58998 0.535068 8.65998 0.605068C8.72998 0.675068 8.76498 0.765068 8.76498 0.875068V10.6401C8.76498 10.7401 8.72998 10.8251 8.65998 10.8951C8.58998 10.9651 8.49998 11.0001 8.38998 11.0001H7.03998C6.93998 11.0001 6.85498 10.9651 6.78498 10.8951C6.71498 10.8251 6.67998 10.7401 6.67998 10.6401V6.62007H2.25498V10.6401C2.25498 10.7401 2.21998 10.8251 2.14998 10.8951C2.08998 10.9651 2.00498 11.0001 1.89498 11.0001H0.529983Z" fill="#4B5A6D"/>
<path d="M10.4627 11.0001C10.3627 11.0001 10.2777 10.9651 10.2077 10.8951C10.1377 10.8251 10.1027 10.7401 10.1027 10.6401V9.87507C10.1027 9.78507 10.1227 9.68007 10.1627 9.56007C10.2127 9.43007 10.3177 9.30007 10.4777 9.17007L12.8477 6.81507C13.5077 6.29507 14.0377 5.85507 14.4377 5.49507C14.8477 5.12507 15.1427 4.79007 15.3227 4.49007C15.5127 4.18007 15.6077 3.87507 15.6077 3.57507C15.6077 3.12507 15.4827 2.76007 15.2327 2.48007C14.9927 2.20007 14.6077 2.06007 14.0777 2.06007C13.7277 2.06007 13.4327 2.13507 13.1927 2.28507C12.9527 2.42507 12.7627 2.61507 12.6227 2.85507C12.4927 3.09507 12.4027 3.36007 12.3527 3.65007C12.3327 3.78007 12.2777 3.87007 12.1877 3.92007C12.0977 3.97007 12.0077 3.99507 11.9177 3.99507H10.5827C10.4927 3.99507 10.4177 3.96507 10.3577 3.90507C10.2977 3.84507 10.2677 3.77507 10.2677 3.69507C10.2777 3.26507 10.3677 2.85007 10.5377 2.45007C10.7077 2.04007 10.9527 1.68007 11.2727 1.37007C11.6027 1.05007 12.0027 0.795068 12.4727 0.605068C12.9427 0.415069 13.4727 0.320068 14.0627 0.320068C14.8927 0.320068 15.5777 0.460068 16.1177 0.740068C16.6677 1.02007 17.0777 1.40007 17.3477 1.88007C17.6277 2.36007 17.7677 2.90007 17.7677 3.50007C17.7677 3.97007 17.6777 4.40507 17.4977 4.80507C17.3177 5.19507 17.0577 5.57507 16.7177 5.94507C16.3777 6.30507 15.9677 6.67507 15.4877 7.05507L13.3577 9.21507H17.6327C17.7427 9.21507 17.8277 9.25007 17.8877 9.32007C17.9577 9.38007 17.9927 9.46507 17.9927 9.57507V10.6401C17.9927 10.7401 17.9577 10.8251 17.8877 10.8951C17.8277 10.9651 17.7427 11.0001 17.6327 11.0001H10.4627Z" fill="#4B5A6D"/>
</svg>
