<svg width="25" height="22" viewBox="0 0 25 22" fill="none" xmlns="http://www.w3.org/2000/svg">
<path d="M2.79584 9.82853H22.2238C23.9713 9.82853 24.8508 8.97192 24.8508 7.21301V2.85C24.8508 1.10251 23.9713 0.257317 22.2238 0.257317H2.79584C1.04835 0.257317 0.168891 1.10251 0.168891 2.85V7.21301C0.168891 8.97192 1.04835 9.82853 2.79584 9.82853ZM2.93289 8.10389C2.25903 8.10389 1.89354 7.74982 1.89354 7.04169V3.04416C1.89354 2.32461 2.25903 1.98196 2.93289 1.98196H22.0753C22.7606 1.98196 23.1261 2.32461 23.1261 3.04416V7.04169C23.1261 7.74982 22.7606 8.10389 22.0753 8.10389H2.93289ZM2.79584 21.2843H22.2238C23.9713 21.2843 24.8508 20.4391 24.8508 18.6802V14.3058C24.8508 12.5697 23.9713 11.7131 22.2238 11.7131H2.79584C1.04835 11.7131 0.168891 12.5697 0.168891 14.3058V18.6802C0.168891 20.4391 1.04835 21.2843 2.79584 21.2843ZM2.93289 19.5597C2.25903 19.5597 1.89354 19.2056 1.89354 18.4975V14.4999C1.89354 13.7804 2.25903 13.4377 2.93289 13.4377H22.0753C22.7606 13.4377 23.1261 13.7804 23.1261 14.4999V18.4975C23.1261 19.2056 22.7606 19.5597 22.0753 19.5597H2.93289Z" fill="#4B5A6D"/>
</svg>
