<svg width="22" height="16" viewBox="0 0 22 16" fill="none" xmlns="http://www.w3.org/2000/svg">
<path d="M1.90674 2.69531C2.62451 2.69531 3.19873 2.12109 3.19873 1.41357C3.19873 0.695801 2.62451 0.121582 1.90674 0.121582C1.18896 0.121582 0.614746 0.695801 0.614746 1.41357C0.614746 2.12109 1.18896 2.69531 1.90674 2.69531ZM6.43896 2.23389H20.4458C20.9072 2.23389 21.2764 1.875 21.2764 1.41357C21.2764 0.941895 20.9072 0.583008 20.4458 0.583008H6.43896C5.96729 0.583008 5.6084 0.941895 5.6084 1.41357C5.6084 1.875 5.96729 2.23389 6.43896 2.23389ZM1.90674 8.89893C2.62451 8.89893 3.19873 8.32471 3.19873 7.60693C3.19873 6.88916 2.62451 6.31494 1.90674 6.31494C1.18896 6.31494 0.614746 6.88916 0.614746 7.60693C0.614746 8.32471 1.18896 8.89893 1.90674 8.89893ZM6.43896 8.4375H20.4458C20.9072 8.4375 21.2764 8.06836 21.2764 7.60693C21.2764 7.14551 20.9072 6.78662 20.4458 6.78662H6.43896C5.96729 6.78662 5.6084 7.14551 5.6084 7.60693C5.6084 8.06836 5.96729 8.4375 6.43896 8.4375ZM1.90674 15.1025C2.62451 15.1025 3.19873 14.5181 3.19873 13.8105C3.19873 13.0928 2.62451 12.5186 1.90674 12.5186C1.18896 12.5186 0.614746 13.0928 0.614746 13.8105C0.614746 14.5181 1.18896 15.1025 1.90674 15.1025ZM6.43896 14.6309H20.4458C20.9072 14.6309 21.2764 14.272 21.2764 13.8105C21.2764 13.3389 20.9072 12.98 20.4458 12.98H6.43896C5.96729 12.98 5.6084 13.3389 5.6084 13.8105C5.6084 14.272 5.96729 14.6309 6.43896 14.6309Z" fill="#4B5A6D"/>
</svg>
