<svg width="23" height="24" viewBox="0 0 23 24" fill="none" xmlns="http://www.w3.org/2000/svg">
<path d="M21.5727 3.38805L22.3951 2.54285C22.7834 2.13168 22.7834 1.58345 22.3951 1.20654L22.1324 0.932423C21.7783 0.578357 21.2187 0.624043 20.8418 0.989531L20.008 1.81188L21.5727 3.38805ZM7.83267 15.8489L10.0599 14.8781L20.7275 4.22182L19.1628 2.67991L8.50654 13.3362L7.47861 15.4834C7.38724 15.6776 7.61567 15.9403 7.83267 15.8489ZM3.67525 23.25H17.0841C19.14 23.25 20.3278 22.0622 20.3278 19.7094V7.49979L18.4889 9.33865V19.618C18.4889 20.8058 17.8493 21.4112 17.0612 21.4112H3.70951C2.56736 21.4112 1.92776 20.8058 1.92776 19.618V6.6546C1.92776 5.46676 2.56736 4.85 3.70951 4.85H14.1145L15.9534 3.01114H3.67525C1.29958 3.01114 0.0888973 4.19897 0.0888973 6.5518V19.7094C0.0888973 22.0736 1.29958 23.25 3.67525 23.25Z" fill="#4B5A6D"/>
</svg>
