<svg width="20" height="22" viewBox="0 0 20 22" fill="none" xmlns="http://www.w3.org/2000/svg">
<path d="M13.5859 21.0859H19.2891C19.7383 21.0859 19.9727 20.8711 19.9727 20.5098C19.9727 20.1387 19.7383 19.9434 19.2891 19.9434H17.1016V1.88672H19.2891C19.7383 1.88672 19.9727 1.68164 19.9727 1.31055C19.9727 0.949219 19.7383 0.753906 19.2891 0.753906H13.5859C13.1465 0.753906 12.9121 0.949219 12.9121 1.31055C12.9121 1.68164 13.1465 1.88672 13.5859 1.88672H15.7832V19.9434H13.5859C13.1465 19.9434 12.9121 20.1387 12.9121 20.5098C12.9121 20.8711 13.1465 21.0859 13.5859 21.0859ZM1.31055 18.1172C1.82812 18.1172 2.08203 17.9219 2.26758 17.3848L3.52734 13.9277H9.28906L10.5488 17.3848C10.7344 17.9219 10.9883 18.1172 11.4961 18.1172C12.0137 18.1172 12.3457 17.8047 12.3457 17.3164C12.3457 17.1504 12.3164 17.0039 12.2383 16.7891L7.6582 4.60156C7.43359 3.99609 7.0332 3.70312 6.4082 3.70312C5.80273 3.70312 5.39258 3.98633 5.17773 4.5918L0.597656 16.7988C0.509766 17.0137 0.490234 17.1602 0.490234 17.3262C0.490234 17.8145 0.802734 18.1172 1.31055 18.1172ZM4.02539 12.4336L6.39844 5.86133H6.44727L8.82031 12.4336H4.02539Z" fill="#4B5A6D"/>
</svg>
