<svg width="26" height="20" viewBox="0 0 26 20" fill="none" xmlns="http://www.w3.org/2000/svg">
<path d="M4.33691 0.17334C2.2041 0.17334 1.12744 1.22949 1.12744 3.35205V5.86426C1.12744 6.39746 1.4248 6.70508 1.94775 6.70508C2.4707 6.70508 2.77832 6.39746 2.77832 5.86426V3.43408C2.77832 2.36768 3.34229 1.82422 4.36768 1.82422H22.0659C23.0708 1.82422 23.6553 2.36768 23.6553 3.43408V5.86426C23.6553 6.39746 23.9526 6.70508 24.4756 6.70508C25.019 6.70508 25.3062 6.39746 25.3062 5.86426V3.35205C25.3062 1.23975 24.2397 0.17334 22.0864 0.17334H4.33691ZM9.85352 14.4263C10.2227 14.4263 10.479 14.252 10.6328 13.77L11.3813 11.5859H15.0522L15.8008 13.77C15.9546 14.2417 16.2212 14.4263 16.5903 14.4263C17.0415 14.4263 17.3491 14.1289 17.3491 13.7188C17.3491 13.5547 17.3184 13.4111 17.2363 13.1855L14.3652 5.44385C14.1602 4.91064 13.7705 4.63379 13.2065 4.63379C12.6528 4.63379 12.2734 4.91064 12.0786 5.44385L9.19727 13.1855C9.12549 13.4111 9.08447 13.5547 9.08447 13.7085C9.08447 14.1392 9.39209 14.4263 9.85352 14.4263ZM11.8018 10.3555L13.1655 6.38721H13.2783L14.6421 10.3555H11.8018ZM1.94775 10.6836C2.68604 10.6836 3.28076 10.0786 3.28076 9.34033C3.28076 8.6123 2.68604 8.01758 1.94775 8.01758C1.21973 8.01758 0.614746 8.6123 0.614746 9.34033C0.614746 10.0786 1.21973 10.6836 1.94775 10.6836ZM24.4756 10.6836C25.2036 10.6836 25.8086 10.0786 25.8086 9.34033C25.8086 8.6123 25.2036 8.01758 24.4756 8.01758C23.7373 8.01758 23.1426 8.60205 23.1426 9.34033C23.1426 10.0786 23.7373 10.6836 24.4756 10.6836ZM4.33691 19.0508H22.0864C24.2397 19.0508 25.3062 17.9844 25.3062 15.8721V12.8472C25.3062 12.314 25.0088 12.0166 24.4756 12.0166C23.9424 12.0166 23.6553 12.314 23.6553 12.8472V15.79C23.6553 16.8564 23.0708 17.3999 22.0659 17.3999H4.36768C3.34229 17.3999 2.77832 16.8564 2.77832 15.79V12.8472C2.77832 12.314 2.4707 12.0166 1.94775 12.0166C1.4248 12.0166 1.12744 12.314 1.12744 12.8472V15.8721C1.12744 17.9946 2.2041 19.0508 4.33691 19.0508Z" fill="#4B5A6D"/>
</svg>
