<svg width="16" height="11" viewBox="0 0 16 11" fill="none" xmlns="http://www.w3.org/2000/svg">
<path d="M0.529983 11C0.429983 11 0.344983 10.97 0.274983 10.91C0.204983 10.84 0.169983 10.75 0.169983 10.64V0.875C0.169983 0.765 0.204983 0.675 0.274983 0.605C0.344983 0.535 0.429983 0.5 0.529983 0.5H1.89498C2.00498 0.5 2.08998 0.535 2.14998 0.605C2.21998 0.675 2.25498 0.765 2.25498 0.875V4.745H6.67998V0.875C6.67998 0.765 6.71498 0.675 6.78498 0.605C6.85498 0.535 6.93998 0.5 7.03998 0.5H8.38998C8.49998 0.5 8.58998 0.535 8.65998 0.605C8.72998 0.675 8.76498 0.765 8.76498 0.875V10.64C8.76498 10.74 8.72998 10.825 8.65998 10.895C8.58998 10.965 8.49998 11 8.38998 11H7.03998C6.93998 11 6.85498 10.965 6.78498 10.895C6.71498 10.825 6.67998 10.74 6.67998 10.64V6.62H2.25498V10.64C2.25498 10.74 2.21998 10.825 2.14998 10.895C2.08998 10.965 2.00498 11 1.89498 11H0.529983Z" fill="#4B5A6D"/>
<path d="M13.5827 11C13.4727 11 13.3827 10.965 13.3127 10.895C13.2527 10.825 13.2227 10.74 13.2227 10.64V2.87L10.9427 4.625C10.8527 4.685 10.7627 4.71 10.6727 4.7C10.5827 4.68 10.5027 4.625 10.4327 4.535L9.80272 3.725C9.74272 3.635 9.71772 3.54 9.72772 3.44C9.74772 3.34 9.80272 3.26 9.89272 3.2L13.2527 0.605C13.3127 0.555001 13.3727 0.525 13.4327 0.515C13.4927 0.505 13.5577 0.5 13.6277 0.5H14.9477C15.0477 0.5 15.1327 0.535 15.2027 0.605C15.2727 0.675 15.3077 0.76 15.3077 0.86V10.64C15.3077 10.74 15.2727 10.825 15.2027 10.895C15.1327 10.965 15.0477 11 14.9477 11H13.5827Z" fill="#4B5A6D"/>
</svg>
