<svg width="25" height="25" viewBox="0 0 25 25" fill="none" xmlns="http://www.w3.org/2000/svg">
<path d="M5.37063 2.625C2.68667 2.625 0.5 4.80245 0.5 7.48125V17.5188C0.5 20.1976 2.68667 22.375 5.37063 22.375H19.6294C22.3133 22.375 24.5 20.1976 24.5 17.5188V7.48125C24.5 4.80245 22.3133 2.625 19.6294 2.625H5.37063ZM5.37063 4.125H19.6294C21.5111 4.125 23 5.61033 23 7.48125V17.5188C23 19.3897 21.5111 20.875 19.6294 20.875H5.37063C3.48892 20.875 2 19.3897 2 17.5188V7.48125C2 5.61033 3.48892 4.125 5.37063 4.125ZM4.47163 5.92385V15.4223H17.1244V5.92385H4.47163ZM5.01045 9.21267H16.5856V11.7926H7.9885V9.21904H7.44968V11.7926H5.01045V9.21267ZM5.01045 12.3314H7.44968V14.8835H5.01045V12.3314ZM7.9885 12.3314H16.5856V14.8835H7.9885V12.3314Z" fill="black" fill-opacity="0.7"/>
<path d="M5.05957 6.53204V9.22173H16.5801V6.53204H5.05957Z" fill="black" fill-opacity="0.7"/>
</svg>
