<svg width="25" height="25" viewBox="0 0 25 25" fill="none" xmlns="http://www.w3.org/2000/svg">
<path d="M12.5006 4.23857C10.528 4.23857 8.55856 4.4012 7.01611 4.73759C6.24489 4.90579 5.5807 5.11486 5.05999 5.38925C4.55843 5.65356 4.15029 5.99445 4.02444 6.48708C4.01577 6.51281 4.00952 6.53929 4.00576 6.56618L3.99219 6.63205L4.00139 6.67668C3.99495 10.6147 4.00139 14.3621 4.00139 18.4126L4.0104 18.4563C4.11831 18.9799 4.53927 19.3364 5.05999 19.6108C5.5807 19.8852 6.24489 20.0942 7.01611 20.2624C8.55856 20.5988 10.528 20.7614 12.5006 20.7614C14.4733 20.7614 16.4427 20.5988 17.9852 20.2624C18.7564 20.0942 19.4206 19.8852 19.9413 19.6108C20.462 19.3364 20.883 18.9799 20.9909 18.4563L20.9999 18.4126C20.9999 14.5393 21 10.3209 20.9999 6.65197C21.0011 6.63327 21.0011 6.6145 20.9999 6.5958V6.58745L20.9984 6.58027C20.9946 6.54447 20.9864 6.50928 20.974 6.47549C20.8447 5.98906 20.4389 5.65149 19.9413 5.38925C19.4206 5.11486 18.7564 4.90579 17.9852 4.73759C16.4427 4.4012 14.4733 4.23857 12.5006 4.23857V4.23857ZM12.5006 5.11357C14.4245 5.11357 16.3516 5.2769 17.7987 5.5925C18.5223 5.7503 19.1261 5.94875 19.5333 6.16335C19.8584 6.33462 20.0285 6.50477 20.0981 6.63205C20.0285 6.75934 19.8583 6.92949 19.5333 7.10075C19.1261 7.31535 18.5223 7.51378 17.7987 7.67158C16.3516 7.98718 14.4245 8.15053 12.5006 8.15053C10.5768 8.15053 8.64968 7.98718 7.20256 7.67158C6.479 7.51378 5.87515 7.31535 5.46792 7.10075C5.14293 6.92949 4.97279 6.75934 4.90317 6.63205C4.97279 6.50477 5.14292 6.33462 5.46792 6.16335C5.87515 5.94875 6.479 5.7503 7.20256 5.5925C8.64968 5.2769 10.5768 5.11357 12.5006 5.11357V5.11357ZM4.87639 7.7716C4.93595 7.80726 4.99714 7.84173 5.05999 7.87485C5.5807 8.14925 6.24489 8.35829 7.01611 8.52649C8.55856 8.86288 10.528 9.02553 12.5006 9.02553C14.4733 9.02553 16.4427 8.86288 17.9852 8.52649C18.7564 8.35829 19.4206 8.14925 19.9413 7.87485C20.0041 7.84173 20.0653 7.80726 20.1249 7.7716V8.79738C20.0821 8.9275 19.9131 9.12622 19.5333 9.32634C19.1261 9.54094 18.5223 9.73936 17.7987 9.89717C16.3516 10.2128 14.4245 10.3761 12.5006 10.3761C10.5768 10.3761 8.64968 10.2128 7.20256 9.89717C6.479 9.73936 5.87515 9.54094 5.46792 9.32634C5.08816 9.12622 4.91915 8.9275 4.87639 8.79738V7.7716ZM4.87639 9.99719C4.93595 10.0328 4.99714 10.0673 5.05999 10.1004C5.5807 10.3748 6.24489 10.5839 7.01611 10.7521C8.55856 11.0885 10.528 11.2511 12.5006 11.2511C14.4733 11.2511 16.4427 11.0885 17.9852 10.7521C18.7564 10.5839 19.4206 10.3748 19.9413 10.1004C20.0041 10.0673 20.0653 10.0328 20.1249 9.99719V11.023C20.0821 11.1531 19.9131 11.3518 19.5333 11.5519C19.1261 11.7665 18.5223 11.9649 17.7987 12.1228C16.3516 12.4384 14.4245 12.6017 12.5006 12.6017C10.5768 12.6017 8.64968 12.4384 7.20256 12.1228C6.479 11.9649 5.87515 11.7665 5.46792 11.5519C5.08816 11.3518 4.91915 11.1531 4.87639 11.023V9.99719ZM4.87639 12.2228C4.93595 12.2585 4.99714 12.2929 5.05999 12.326C5.5807 12.6004 6.24489 12.8095 7.01611 12.9777C8.55856 13.3141 10.528 13.4767 12.5006 13.4767C14.4733 13.4767 16.4427 13.3141 17.9852 12.9777C18.7564 12.8095 19.4206 12.6004 19.9413 12.326C20.0041 12.2929 20.0653 12.2585 20.1249 12.2228V18.3077C20.0821 18.4378 19.9131 18.6365 19.5333 18.8367C19.1261 19.0513 18.5223 19.2497 17.7987 19.4075C16.3516 19.7231 14.4245 19.8864 12.5006 19.8864C10.5768 19.8864 8.64968 19.7231 7.20256 19.4075C6.479 19.2497 5.87515 19.0513 5.46792 18.8367C5.08816 18.6365 4.91915 18.4378 4.87639 18.3077V12.2228Z" fill="black" fill-opacity="0.7"/>
</svg>
