<svg width="25" height="25" viewBox="0 0 25 25" fill="none" xmlns="http://www.w3.org/2000/svg">
<path d="M15.6492 2.59871C12.0713 2.59872 8.49341 2.59872 4.91553 2.59873V22.4014H20.0844C20.0844 17.3186 20.0844 12.2359 20.0844 7.15318C18.606 5.63502 17.1276 4.11687 15.6492 2.59871V2.59871ZM14.3466 3.72371V8.36931H18.9594V21.2764C14.6531 21.2764 10.3468 21.2764 6.04053 21.2764C6.04053 15.4255 6.04053 9.57461 6.04053 3.72373C8.80921 3.72373 11.5779 3.72372 14.3466 3.72371V3.72371ZM15.4716 4.02886C16.5153 5.10068 17.5591 6.1725 18.6029 7.24431C17.5591 7.24431 16.5153 7.24431 15.4716 7.24431C15.4716 6.1725 15.4716 5.10068 15.4716 4.02886Z" fill="black" fill-opacity="0.7"/>
</svg>
