<svg width="25" height="25" viewBox="0 0 25 25" fill="none" xmlns="http://www.w3.org/2000/svg">
<path d="M12.3905 1.20859C7.31436 1.17079 2.55226 5.0189 1.48423 9.97619C0.454134 14.3307 2.2985 19.1879 5.99244 21.7264C9.5779 24.2944 14.6879 24.4957 18.4176 22.1107C22.1678 19.8141 24.3763 15.2281 23.6765 10.8641C23.0357 6.34043 19.4221 2.40603 14.9347 1.47617C14.1004 1.29004 13.2451 1.20292 12.3905 1.20859V1.20859ZM12.66 4.74717C16.39 4.73536 19.8162 7.82232 20.1964 11.5357C20.6817 15.085 18.3934 18.7978 14.953 19.8649C11.5952 21.0076 7.54613 19.5493 5.79684 16.4346C3.86123 13.203 4.68478 8.59811 7.75197 6.35456C9.14292 5.28132 10.9039 4.70678 12.66 4.74717V4.74717Z" fill="black" fill-opacity="0.7"/>
</svg>
