<svg width="25" height="25" viewBox="0 0 25 25" fill="none" xmlns="http://www.w3.org/2000/svg">
<path d="M12.272 1.20834C6.80822 1.21295 1.78535 5.76574 1.26987 11.2118C0.716728 15.8503 3.32718 20.6985 7.58783 22.6688C11.5446 24.6027 16.6232 23.9907 19.9048 21.013C23.2438 18.1237 24.7027 13.1989 23.2361 8.99732C21.8413 4.71084 17.7251 1.4292 13.1916 1.23058C12.8855 1.21057 12.5786 1.20681 12.272 1.20834V1.20834ZM12.4958 4.74512C16.5195 4.62807 20.2085 8.17697 20.2557 12.2024C20.4297 15.8849 17.6631 19.501 13.9933 20.1184C10.4421 20.8298 6.50348 18.7774 5.26047 15.3298C3.92232 11.9205 5.28754 7.60916 8.54471 5.81976C9.73562 5.1205 11.1144 4.7434 12.4958 4.74512V4.74512ZM12.5002 6.76476C8.78094 6.62355 5.79161 10.6869 7.02112 14.1949C7.98603 17.7874 12.7495 19.4488 15.7386 17.2335C18.8867 15.25 19.0652 10.2087 16.0653 8.00743C15.0618 7.20695 13.7836 6.76157 12.5002 6.76476V6.76476Z" fill="black" fill-opacity="0.7"/>
</svg>
