<svg width="25" height="25" viewBox="0 0 25 25" fill="none" xmlns="http://www.w3.org/2000/svg">
<path d="M12.5005 1.21289C12.2646 1.21268 12.0287 1.30016 11.8538 1.47596L1.47651 11.8533C1.12654 12.2032 1.12816 12.7968 1.47813 13.1468L11.8538 23.5223C12.2037 23.8724 12.7973 23.8739 13.1472 23.5223L23.5245 13.1451C23.8745 12.7952 23.8729 12.2016 23.5229 11.8516L13.1472 1.47596C12.9722 1.30099 12.7364 1.2131 12.5005 1.21289V1.21289ZM12.4997 2.75153L22.249 12.5009L12.4997 22.2501L2.75043 12.5009L12.4997 2.75153ZM12.5002 7.25103C9.60433 7.25103 7.2512 9.6043 7.2512 12.5002C7.2512 15.396 9.60433 17.7492 12.5002 17.7492C15.3961 17.7492 17.7492 15.396 17.7492 12.5002C17.7492 9.6043 15.3961 7.25103 12.5002 7.25103V7.25103ZM12.5002 7.83318C15.0809 7.83318 17.1672 9.91952 17.1672 12.5002C17.1672 15.0808 15.0809 17.1673 12.5002 17.1673C9.91957 17.1673 7.8332 15.0808 7.8332 12.5002C7.8332 9.91952 9.91957 7.83318 12.5002 7.83318V7.83318Z" fill="black" fill-opacity="0.7"/>
</svg>
