<svg width="25" height="25" viewBox="0 0 25 25" fill="none" xmlns="http://www.w3.org/2000/svg">
<path d="M12.5005 1.21289C12.2646 1.21268 12.0287 1.30016 11.8538 1.47596L1.47651 11.8533C1.12654 12.2032 1.12816 12.7968 1.47813 13.1468L11.8538 23.5223C12.2037 23.8724 12.7973 23.8739 13.1472 23.5223L23.5245 13.1451C23.8745 12.7952 23.8729 12.2016 23.5229 11.8516L13.1472 1.47596C12.9722 1.30099 12.7364 1.2131 12.5005 1.21289V1.21289ZM12.4997 2.75153L22.249 12.5009L12.4997 22.2501L2.75043 12.5009L12.4997 2.75153ZM8.85869 8.17617C8.85852 8.17618 8.74136 8.1986 8.74127 8.1986C8.74114 8.1986 8.64184 8.26591 8.64177 8.26591L8.26662 8.64113C8.2665 8.64113 8.19813 8.74154 8.1981 8.74272C8.1981 8.74284 8.1769 8.85845 8.17691 8.85845C8.1769 8.85857 8.19971 8.97301 8.19975 8.97301C8.19975 8.97313 8.2649 9.0746 8.26498 9.0746L11.6916 12.5011L8.26662 15.9261V15.925C8.26662 15.9251 8.19813 16.0266 8.1981 16.0266C8.1981 16.0267 8.17691 16.1423 8.17691 16.1423C8.17691 16.1426 8.19971 16.2569 8.19975 16.2569C8.19975 16.2569 8.26491 16.3573 8.26498 16.3585L8.64015 16.7336C8.64028 16.7337 8.74282 16.8009 8.74291 16.8009C8.74303 16.8009 8.85699 16.8233 8.85709 16.8233C8.85721 16.8233 8.9728 16.8021 8.97289 16.8021C8.97301 16.8021 9.07396 16.7336 9.07403 16.7336L12.499 13.3085L15.9248 16.7343C15.9249 16.7344 16.0275 16.8016 16.0275 16.8016C16.0277 16.8016 16.1416 16.824 16.1417 16.824C16.1418 16.824 16.2574 16.8028 16.2575 16.8028C16.2577 16.8028 16.3586 16.7343 16.3586 16.7343L16.7338 16.3592C16.7339 16.3591 16.8006 16.26 16.8007 16.26C16.8007 16.2598 16.8235 16.143 16.8235 16.1419C16.8235 16.1417 16.8007 16.0273 16.8007 16.0273C16.8007 16.0273 16.7339 15.9245 16.7338 15.9245L13.3084 12.4991L16.7338 9.07377C16.7339 9.07377 16.8006 8.97456 16.8007 8.97456C16.8007 8.97444 16.8235 8.85764 16.8235 8.85764C16.8235 8.8574 16.8007 8.74308 16.8007 8.74308C16.8007 8.74296 16.7323 8.64149 16.7322 8.64149L16.357 8.26627C16.3569 8.26627 16.2576 8.19896 16.2575 8.19896C16.2574 8.19896 16.1435 8.1765 16.1434 8.1765C16.1432 8.1765 16.026 8.19896 16.0259 8.19896C16.0258 8.19896 15.9265 8.26627 15.9264 8.26627L12.501 11.6917L9.074 8.26462V8.26355C9.07388 8.26355 8.97295 8.1986 8.97287 8.1986C8.97275 8.1986 8.85885 8.17618 8.85871 8.17617H8.85869Z" fill="black" fill-opacity="0.7"/>
</svg>
