<svg width="25" height="25" viewBox="0 0 25 25" fill="none" xmlns="http://www.w3.org/2000/svg">
<path d="M12.5005 1.21289C12.2646 1.21268 12.0287 1.30016 11.8538 1.47596L1.47651 11.8533C1.12654 12.2032 1.12816 12.7968 1.47813 13.1468L11.8538 23.5223C12.2037 23.8724 12.7973 23.8739 13.1472 23.5223L23.5245 13.1451C23.8745 12.7952 23.8729 12.2016 23.5229 11.8516L13.1472 1.47596C12.9722 1.30099 12.7364 1.2131 12.5005 1.21289V1.21289ZM12.4997 2.75153L22.249 12.5009L12.4997 22.2501L2.75043 12.5009L12.4997 2.75153ZM12.2336 6.77765C12.2336 6.77777 12.1157 6.80009 12.1156 6.80009C12.1155 6.80009 12.0191 6.86506 12.019 6.86506C12.0189 6.86518 11.9519 6.96426 11.9518 6.96426C11.9518 6.96438 11.9291 7.08238 11.9291 7.08238V11.9268H7.08259L7.08178 11.9258C7.08178 11.9259 6.96437 11.9518 6.96431 11.9518C6.96419 11.9519 6.86779 12.0168 6.86773 12.0168L6.86782 12.0156C6.8677 12.0157 6.80072 12.1148 6.80066 12.1148C6.80054 12.1148 6.77794 12.2329 6.77789 12.2329V12.7635C6.77789 12.7635 6.80045 12.8829 6.80126 12.8838C6.80126 12.8839 6.86813 12.9806 6.86813 12.9806C6.86825 12.9807 6.96526 13.0456 6.96529 13.0456C6.96541 13.0457 7.08316 13.0715 7.08321 13.0715H11.9291V17.9151L11.9284 17.9144C11.9284 17.9145 11.9518 18.0346 11.9517 18.0346C11.9517 18.0348 12.0186 18.1315 12.0186 18.1315C12.0187 18.1316 12.1157 18.1964 12.1158 18.1964C12.1158 18.1964 12.2328 18.2212 12.2337 18.2224L12.7642 18.2223C12.7644 18.2223 12.8844 18.1975 12.8845 18.1975C12.8845 18.1975 12.981 18.1326 12.9811 18.1326C12.9812 18.1324 13.0479 18.0357 13.048 18.0357C13.048 18.0357 13.071 17.9158 13.071 17.9158V13.072H17.9158C17.9159 13.0721 18.036 13.0472 18.036 13.0472C18.0361 13.0472 18.1326 12.9823 18.1326 12.9823C18.1327 12.9821 18.1994 12.8854 18.1995 12.8854C18.1995 12.8854 18.2225 12.7655 18.2226 12.7655V12.235C18.2226 12.2349 18.1996 12.1181 18.1997 12.1169C18.1995 12.1168 18.1331 12.0177 18.1323 12.0177C18.1322 12.0176 18.0352 11.9527 18.0351 11.9527C18.0351 11.9529 17.9153 11.9267 17.9152 11.9279H13.071V7.08366C13.071 7.08355 13.0481 6.96676 13.0481 6.96558C13.048 6.96546 12.9816 6.86635 12.9816 6.86635C12.9815 6.86623 12.8845 6.8014 12.8844 6.8014C12.8843 6.8014 12.7642 6.77777 12.7642 6.77777L12.2336 6.77765Z" fill="black" fill-opacity="0.7"/>
</svg>
