<svg width="25" height="25" viewBox="0 0 25 25" fill="none" xmlns="http://www.w3.org/2000/svg">
<path fill-rule="evenodd" clip-rule="evenodd" d="M12.4591 2.49367C11.9762 2.49079 11.5575 2.77279 11.3345 3.1474C11.1114 3.52202 11.0171 3.97328 10.9634 4.47304C10.856 5.47256 10.9364 6.68785 10.9491 7.75153C10.9557 8.3032 10.9527 8.8728 10.9472 9.41706C10.8092 9.06775 10.6762 8.72724 10.5708 8.44725L10.5701 8.44543L10.5694 8.44365C10.1837 7.44711 9.8244 6.43112 9.33097 5.68602C9.08425 5.31346 8.79813 4.99663 8.41611 4.81755C8.03409 4.63846 7.56469 4.64029 7.12113 4.83849L7.1174 4.84018L7.11368 4.84191C6.68382 5.04411 6.41475 5.4485 6.3359 5.87313C6.25704 6.29777 6.31619 6.74782 6.42499 7.23186C6.64261 8.19993 7.08401 9.31912 7.38474 10.4286C7.62209 11.3042 7.85222 12.1856 8.04401 12.9281C7.76075 12.6416 7.4448 12.3393 7.10397 12.0496C6.51897 11.5525 5.87585 11.0934 5.21261 10.8453C4.54937 10.5973 3.78831 10.5826 3.22622 11.0805L3.22191 11.0843L3.21771 11.0882C2.7759 11.5015 2.55689 12.0135 2.61454 12.5129C2.67219 13.0123 2.94608 13.4506 3.30598 13.9006C4.02577 14.8006 5.15679 15.7863 6.24851 17.0957C7.47057 18.5615 8.80192 20.9038 9.74882 22.1347L9.87547 22.2994H18.1675L18.2602 22.0038C18.4226 21.486 18.603 20.4521 18.8921 19.16C19.1812 17.8679 19.5668 16.3516 20.0807 15.0191C20.7637 13.2482 21.464 11.5816 21.7786 10.259C21.9359 9.59777 22.0089 9.01975 21.8801 8.50803C21.7517 7.99758 21.3245 7.5761 20.7526 7.47608C20.2498 7.38039 19.7736 7.6036 19.4396 7.94237C19.1045 8.28221 18.8516 8.73489 18.6159 9.24194C18.4333 9.63488 18.264 10.0645 18.0975 10.4961C18.0939 9.77594 18.0932 9.60344 18.0881 8.63031C18.0824 7.54575 18.1503 6.33051 18.069 5.35306C18.0283 4.86434 17.9585 4.43354 17.7758 4.07144C17.5981 3.71914 17.2125 3.42592 16.78 3.44142C16.3583 3.42053 15.9737 3.63755 15.7379 3.93737C15.4972 4.24351 15.3565 4.62194 15.2436 5.03817C15.0178 5.87065 14.9188 6.87741 14.7666 7.70849C14.6939 8.10541 14.6242 8.49981 14.5569 8.88282C14.5066 8.48603 14.4565 8.0631 14.4103 7.60493C14.3088 6.59646 14.2373 5.39363 14.0276 4.40886C13.9227 3.91647 13.7884 3.47587 13.5585 3.11847C13.3286 2.76107 12.9328 2.47515 12.4718 2.49475L12.5049 2.49464C12.4897 2.4941 12.4745 2.49376 12.4591 2.49367V2.49367ZM12.4541 3.33742C12.4606 3.33746 12.4675 3.33761 12.4747 3.33786L12.4912 3.33846L12.5077 3.33775C12.6493 3.33174 12.7165 3.36914 12.8489 3.5749C12.9812 3.78067 13.1083 4.1431 13.2023 4.58459C13.3904 5.46757 13.4668 6.65583 13.5709 7.68948C13.7994 9.95882 14.1234 11.6024 14.1234 11.6024L14.9537 11.5883C14.9537 11.5883 15.2615 9.69012 15.5966 7.86045C15.7581 6.97813 15.8621 5.9807 16.0579 5.25909C16.1558 4.89828 16.2806 4.61219 16.4011 4.45897C16.5216 4.30576 16.583 4.27205 16.7449 4.28392L16.7762 4.2862L16.8076 4.28383C16.9363 4.27409 16.9321 4.2721 17.0225 4.45146C17.113 4.63082 17.1916 4.98423 17.2282 5.42303C17.3012 6.30061 17.2385 7.51361 17.2443 8.63475C17.2552 10.7149 17.2644 12.623 17.2644 12.623L18.0667 12.8035C18.5565 11.7828 18.9478 10.5295 19.381 9.59759C19.5976 9.13163 19.8275 8.75067 20.0404 8.53475C20.2533 8.31883 20.3882 8.26465 20.5965 8.30511L20.6009 8.30597L20.6054 8.30674C20.9274 8.36207 20.994 8.44426 21.0619 8.71396C21.1298 8.98366 21.1005 9.46385 20.9578 10.0638C20.6723 11.2636 19.9817 12.9311 19.2935 14.7155C18.7534 16.1157 18.3619 17.6654 18.0687 18.9757C17.8321 20.033 17.6525 20.9491 17.5322 21.4557H10.2948C9.43231 20.2828 8.146 18.054 6.89657 16.5554C5.75605 15.1875 4.59817 14.1655 3.96491 13.3736C3.64829 12.9777 3.47961 12.6489 3.45273 12.4162C3.42603 12.1848 3.48023 12 3.78876 11.7097C4.07912 11.4546 4.4152 11.4479 4.91703 11.6356C5.42063 11.8239 6.01335 12.23 6.55756 12.6925C7.64597 13.6176 8.54606 14.7424 8.54606 14.7424L9.28511 14.3768C9.28511 14.3768 8.74261 12.2129 8.19909 10.2078C7.882 9.03805 7.44167 7.90746 7.2482 7.04681C7.15147 6.61648 7.12272 6.25742 7.16547 6.02719C7.20796 5.79842 7.26977 5.70195 7.46925 5.60727C7.73714 5.48837 7.88768 5.5017 8.05798 5.58154C8.22915 5.66178 8.42899 5.85211 8.62749 6.15186C9.0245 6.75136 9.39254 7.74056 9.78255 8.74819L9.78119 8.74459C10.1794 9.802 10.9416 11.6653 10.9416 11.6653L11.7538 11.5177C11.7538 11.5177 11.8133 9.46123 11.7928 7.74147C11.7797 6.64567 11.708 5.44135 11.8023 4.56319C11.8495 4.12411 11.9446 3.77201 12.0594 3.57901C12.1743 3.38602 12.2421 3.33616 12.4541 3.33742V3.33742Z" fill="black" fill-opacity="0.7"/>
</svg>
