<svg width="25" height="25" viewBox="0 0 25 25" fill="none" xmlns="http://www.w3.org/2000/svg">
<path d="M12.3891 1.21306C6.92426 1.14692 1.85079 5.6503 1.28127 11.0906C0.677048 15.7183 3.21765 20.5995 7.45614 22.6163C11.4584 24.6273 16.6482 24.0216 19.9675 20.9695C23.3194 18.0297 24.7199 13.0275 23.1691 8.8143C21.7546 4.70088 17.8294 1.55149 13.4621 1.25516C13.1053 1.22445 12.7471 1.21027 12.3891 1.21263V1.21306ZM12.5958 2.43291C17.6207 2.36323 22.2478 6.65064 22.5412 11.6738C22.9363 16.1237 20.0566 20.6702 15.7716 22.0439C11.6756 23.4596 6.72448 21.9589 4.26789 18.344C1.69962 14.7474 1.81057 9.43437 4.73641 6.07011C6.64848 3.78262 9.60134 2.36311 12.5958 2.43291V2.43291ZM12.3029 3.53165C7.66201 3.51394 3.49292 7.68117 3.50859 12.3248C3.39622 16.5386 6.59244 20.6079 10.7805 21.3226C14.6015 22.0749 18.8132 20.0907 20.5121 16.5522C22.3023 13.0291 21.4911 8.33789 18.4259 5.77758C16.7552 4.31034 14.5317 3.46728 12.3029 3.53165V3.53165ZM12.6612 4.72728C16.7729 4.70838 20.4415 8.48385 20.2837 12.5993C20.2666 16.3431 17.2365 19.8522 13.4763 20.2312C9.89088 20.702 6.11061 18.403 5.07981 14.8955C3.99537 11.5434 5.42868 7.50566 8.55944 5.79229C9.79473 5.07113 11.2303 4.6935 12.6612 4.72728Z" fill="black" fill-opacity="0.7"/>
</svg>
