<svg width="25" height="25" viewBox="0 0 25 25" fill="none" xmlns="http://www.w3.org/2000/svg">
<path d="M12.4786 1.21292C6.98206 1.10072 1.85301 5.61903 1.28126 11.0908C0.677048 15.7184 3.21765 20.5995 7.45615 22.6163C11.4584 24.6274 16.6482 24.0218 19.9675 20.9697C23.3194 18.0299 24.7199 13.0275 23.1691 8.8143C21.7433 4.66156 17.7556 1.49878 13.345 1.24579C13.0567 1.22453 12.7677 1.21263 12.4786 1.21263V1.21292ZM12.3507 2.43075C17.3908 2.24095 22.1279 6.4437 22.5229 11.4765C23.0079 15.915 20.2152 20.5133 15.9654 21.976C11.8341 23.5036 6.76303 22.0185 4.2679 18.344C1.70702 14.7569 1.80873 9.46197 4.71444 6.09664C6.5742 3.85651 9.42776 2.44162 12.3507 2.43075V2.43075ZM12.5508 3.52834C7.8883 3.38 3.59879 7.47346 3.51456 12.1362C3.30902 16.3496 6.43178 20.4846 10.6034 21.2871C14.4687 22.1333 18.7875 20.1475 20.5121 16.5522C22.2956 13.0409 21.498 8.36817 18.4549 5.80325C16.8425 4.37499 14.7097 3.5307 12.5508 3.52834V3.52834ZM12.4959 4.72527C16.6062 4.61661 20.3495 8.31549 20.2836 12.4297C20.3563 16.2331 17.2951 19.8479 13.4763 20.2314C9.89088 20.7021 6.11061 18.403 5.0798 14.8955C3.99931 11.5537 5.41889 7.5287 8.53275 5.80801C9.72664 5.10468 11.1096 4.72302 12.4959 4.72527ZM8.32002 8.59372C9.74271 9.74785 11.1654 10.902 12.5881 12.0562C14.0108 10.902 15.4335 9.74785 16.8562 8.59372C14.0108 8.59372 11.1654 8.59372 8.32002 8.59372V8.59372ZM7.373 9.39719V16.4063H17.627C17.627 14.1175 17.627 11.8289 17.627 9.54007C15.9473 10.9028 14.2677 12.2654 12.5881 13.6281C10.8497 12.2178 9.11136 10.8075 7.373 9.39719V9.39719Z" fill="black" fill-opacity="0.7"/>
</svg>
