<svg width="25" height="25" viewBox="0 0 25 25" fill="none" xmlns="http://www.w3.org/2000/svg">
<path d="M12.4786 1.21295C6.98206 1.10075 1.85301 5.61907 1.28126 11.0908C0.677048 15.7185 3.21765 20.5995 7.45615 22.6163C11.4584 24.6274 16.6482 24.0218 19.9675 20.9697C23.3194 18.0299 24.7199 13.0275 23.1691 8.81433C21.7433 4.66159 17.7556 1.49881 13.345 1.24582C13.0567 1.22456 12.7677 1.21266 12.4786 1.21266V1.21295ZM12.3507 2.43078C17.3908 2.24099 22.1279 6.44373 22.5229 11.4765C23.0079 15.9151 20.2152 20.5133 15.9654 21.976C11.8341 23.5036 6.76303 22.0186 4.2679 18.344C1.70702 14.7569 1.80873 9.462 4.71444 6.09667C6.5742 3.85654 9.42776 2.44165 12.3507 2.43078V2.43078ZM12.5508 3.52837C7.8883 3.38003 3.59879 7.47349 3.51456 12.1362C3.30902 16.3497 6.43178 20.4846 10.6034 21.2872C14.4687 22.1333 18.7875 20.1475 20.5121 16.5522C22.2956 13.0409 21.498 8.3682 18.4549 5.80328C16.8425 4.37502 14.7097 3.53073 12.5508 3.52837V3.52837ZM12.4959 4.7253C16.6062 4.61664 20.3496 8.31552 20.2836 12.4298C20.3563 16.2331 17.2951 19.8479 13.4763 20.2314C9.89088 20.7022 6.11061 18.4031 5.0798 14.8956C3.99931 11.5537 5.41889 7.52873 8.53275 5.80804C9.72664 5.10471 11.1096 4.72305 12.4959 4.7253ZM13.753 7.61726V10.1288C11.8705 10.1288 9.98797 10.1288 8.10544 10.1288V14.8716H13.753V17.3828C15.1257 15.7553 16.4984 14.1277 17.8711 12.5001C16.4984 10.8725 15.1257 9.24489 13.753 7.61726V7.61726ZM14.441 9.44293C15.2913 10.4542 16.1415 11.4654 16.9918 12.4766C16.1415 13.4878 15.2913 14.4991 14.441 15.5103C14.441 15.0551 14.441 14.6 14.441 14.1447C12.5852 14.1447 10.7295 14.1447 8.87372 14.1447C8.87372 13.0409 8.87372 11.937 8.87372 10.8332H14.441C14.441 10.3699 14.441 9.90638 14.441 9.44293Z" fill="black" fill-opacity="0.7"/>
</svg>
