<svg width="25" height="25" viewBox="0 0 25 25" fill="none" xmlns="http://www.w3.org/2000/svg">
<path d="M12.4786 1.21282C12.4488 1.2128 12.4189 1.21289 12.3891 1.2131C7.35298 1.17177 2.61406 4.95236 1.50771 9.86241C0.44039 14.1874 2.19922 19.0483 5.84128 21.6335C9.46135 24.3092 14.703 24.533 18.4929 22.0736C22.2168 19.7593 24.3765 15.1754 23.6671 10.8312C23.0287 6.42325 19.5777 2.56744 15.2261 1.54842C14.3286 1.32382 13.4036 1.21338 12.4786 1.21282V1.21282ZM12.3507 2.43059C12.4323 2.43027 12.5141 2.43102 12.5958 2.4329C17.2755 2.38566 21.6532 6.06942 22.4074 10.6901C23.2057 14.8641 21.0593 19.4118 17.2779 21.3822C13.4118 23.5099 8.19002 22.713 5.18813 19.4566C2.11046 16.2801 1.51253 11.0123 3.8842 7.26064C5.64483 4.35561 8.94764 2.44402 12.3507 2.43059V2.43059ZM12.5508 3.52829C12.4682 3.52818 12.3855 3.5293 12.3029 3.53165C7.99379 3.53165 4.0452 7.09789 3.58229 11.3821C3.03108 15.3968 5.55653 19.584 9.38754 20.9318C13.017 22.3034 17.4509 21.0027 19.7165 17.8378C22.1613 14.6003 22.0207 9.68785 19.2952 6.65558C17.6289 4.71543 15.1115 3.53176 12.5508 3.52829V3.52829ZM12.4959 4.72518C12.551 4.72526 12.6061 4.72596 12.6612 4.72725C16.4754 4.72725 19.9513 7.94578 20.2424 11.75C20.6401 15.3737 18.1532 19.0703 14.6123 19.9983C11.1998 20.9937 7.22686 19.3381 5.61006 16.1519C3.86989 12.9318 4.76227 8.52685 7.73835 6.34554C9.08928 5.30104 10.7886 4.72262 12.4959 4.72518V4.72518ZM12.3988 7.1405C10.3049 7.1553 8.30821 8.53069 7.53651 10.4765C6.73341 12.3784 7.17739 14.7193 8.62153 16.1948C10.0257 17.7064 12.3392 18.2634 14.2771 17.555C16.3079 16.8632 17.7997 14.8544 17.8535 12.7065C17.9617 10.6197 16.7076 8.55646 14.8193 7.67027C14.0988 7.3214 13.299 7.13978 12.4986 7.14083C12.4653 7.14038 12.432 7.14027 12.3988 7.1405V7.1405ZM12.5897 8.11673C14.5027 8.12529 16.2972 9.53909 16.7433 11.4026C17.2401 13.2216 16.4031 15.2958 14.7735 16.2489C13.1097 17.2932 10.7639 17.0149 9.39763 15.6006C7.95581 14.2097 7.69905 11.8032 8.80521 10.1351C9.58863 8.89067 11.0275 8.10307 12.4986 8.1174C12.529 8.11682 12.5594 8.11659 12.5897 8.11673ZM13.8831 9.36273C13.3952 10.2479 12.9073 11.133 12.4194 12.0181C11.9674 12.0662 11.86 12.752 12.2771 12.9349C12.5526 13.1261 12.7684 12.8081 13.0192 12.819H15.2566V12.2087H13.0113C13.4801 11.3582 13.9489 10.5078 14.4176 9.65734C14.2394 9.55914 14.0613 9.46093 13.8831 9.36273V9.36273Z" fill="black" fill-opacity="0.7"/>
</svg>
