<svg width="25" height="25" viewBox="0 0 25 25" fill="none" xmlns="http://www.w3.org/2000/svg">
<path fill-rule="evenodd" clip-rule="evenodd" d="M7.57361 1.31V6.76144H10.1391V1.31H7.57361ZM1.36182 7.45499V10.0205H6.81323V7.45499H1.36182ZM10.8609 7.45499V10.0205H16.3124V7.45499H10.8609ZM19.5844 8.2046V9.2046H22.6494V12.1202H23.6494V8.2046H19.5844ZM7.57361 10.8091V16.2605H10.1391V10.8091H7.57361ZM22.6409 14.7808V16.6964H23.6409V14.7808H22.6409ZM22.6494 19.5206V22.4362H19.6746V23.4362H23.6494V19.5206H22.6494ZM8.38933 19.5491V23.4646H12.3641V22.4646H9.38933V19.5491H8.38933ZM14.9868 22.4646V23.4646H17.0519V22.4646H14.9868Z" fill="black" fill-opacity="0.7"/>
</svg>
