<svg width="25" height="25" viewBox="0 0 25 25" fill="none" xmlns="http://www.w3.org/2000/svg">
<path d="M5.37063 2.625C2.68667 2.625 0.5 4.80245 0.5 7.48125V17.5188C0.5 20.1976 2.68667 22.375 5.37063 22.375H19.6294C22.3133 22.375 24.5 20.1976 24.5 17.5188V7.48125C24.5 4.80245 22.3133 2.625 19.6294 2.625H5.37063ZM5.37063 4.125H19.6294C21.5111 4.125 23 5.61033 23 7.48125V17.5188C23 19.3897 21.5111 20.875 19.6294 20.875H5.37063C3.48892 20.875 2 19.3897 2 17.5188V7.48125C2 5.61033 3.48892 4.125 5.37063 4.125ZM7.61282 6.43242L7.55498 6.46677L7.53608 6.47798C6.71833 6.96259 6.15557 7.40698 5.78408 7.84092C5.41208 8.27545 5.23221 8.71298 5.2271 9.13477C5.21692 9.97415 5.83606 10.6032 6.38538 11.1657C6.93428 11.7279 7.42391 12.2581 7.47 12.6968C7.49348 12.9204 7.44061 13.145 7.19678 13.4526C6.95397 13.7588 6.51329 14.1257 5.80874 14.5364L4.76858 15.1427H11.1882L11.2642 15.0985L11.2643 15.0984C12.0109 14.6632 12.5139 14.2611 12.8344 13.8568C13.1559 13.4513 13.2867 13.0271 13.2449 12.6288C13.162 11.8397 12.5192 11.2647 11.9788 10.7112C11.4379 10.1573 10.9995 9.63487 11.0055 9.14263C11.0085 8.89413 11.104 8.61691 11.4061 8.26401C11.7077 7.91173 12.2162 7.49956 12.9958 7.0376V7.03757L14.0169 6.43242H7.61282ZM7.79375 7.08301H11.7473C11.3991 7.34262 11.1238 7.59344 10.9119 7.84092C10.5399 8.27545 10.3601 8.71298 10.355 9.13477C10.3448 9.97415 10.9639 10.6032 11.5133 11.1657C12.0622 11.7279 12.5517 12.258 12.5978 12.6968C12.6213 12.9204 12.5685 13.145 12.3246 13.4526C12.0908 13.7475 11.6703 14.0995 11.0098 14.4921H7.04612C7.32108 14.2776 7.53952 14.0675 7.70659 13.8568C8.02807 13.4513 8.15887 13.0271 8.11704 12.6288C8.03416 11.8397 7.39132 11.2647 6.8509 10.7112C6.31006 10.1573 5.87169 9.6349 5.87766 9.14265C5.88067 8.89415 5.97619 8.61693 6.2783 8.26404C6.56976 7.92358 7.0574 7.5264 7.79375 7.08301V7.08301ZM6.86868 8.19263V8.49314H9.95925V8.19263H6.86868ZM6.75383 9.81128V10.1118H9.94934V9.81128H6.75383ZM8.20176 11.4299V11.7304H11.2965V11.4299H8.20176ZM8.64426 13.0485V13.349H11.851V13.0485H8.64426Z" fill="black" fill-opacity="0.7"/>
</svg>
