<svg width="25" height="25" viewBox="0 0 25 25" fill="none" xmlns="http://www.w3.org/2000/svg">
<path d="M5.37063 2.625C2.68667 2.625 0.5 4.80245 0.5 7.48125V17.5188C0.5 20.1976 2.68667 22.375 5.37063 22.375H19.6294C22.3133 22.375 24.5 20.1976 24.5 17.5188V7.48125C24.5 4.80245 22.3133 2.625 19.6294 2.625H5.37063ZM5.37063 4.125H19.6294C21.5111 4.125 23 5.61033 23 7.48125V17.5188C23 19.3897 21.5111 20.875 19.6294 20.875H5.37063C3.48892 20.875 2 19.3897 2 17.5188V7.48125C2 5.61033 3.48892 4.125 5.37063 4.125ZM6.28489 5.38584C6.28453 5.67544 6.28497 5.96507 6.28572 6.25466C6.03874 6.32454 5.81306 6.42203 5.59993 6.54148L4.977 5.92605L3.81226 7.09756L4.43511 7.71287C4.31479 7.92852 4.22084 8.15771 4.15527 8.39575L3.27295 8.39736V10.0473L4.16448 10.0441C4.24601 10.3673 4.42345 10.6579 4.60017 10.9178V9.49458L3.82085 9.49736V8.94426L4.59629 8.94287L4.63982 8.72236C4.7033 8.40078 4.82901 8.09422 5.00962 7.81992L5.13318 7.63228L4.58835 7.09407L4.98047 6.69968L5.52627 7.23892L5.71201 7.11497C5.99586 6.92769 6.30633 6.80217 6.61592 6.73679L6.83477 6.69136L6.83279 5.93379H7.39609L7.39175 6.6874H7.61426H8.86982C8.73118 6.5219 8.15658 6.30654 7.94221 6.24653L7.94719 5.38586C7.33353 5.38585 6.85241 5.38589 6.28489 5.38584V5.38584ZM7.84375 6.96428L7.84602 7.83306C7.59903 7.90293 7.37334 8.00044 7.16021 8.1199L6.53728 7.50447L5.37251 8.67598L5.99539 9.29128C5.87506 9.50695 5.7811 9.73612 5.71553 9.97417L4.83323 9.97576V11.6257L5.72476 11.6225C5.79493 11.8671 5.89221 12.0906 6.01143 12.3015L5.37356 12.9369L6.55129 14.0944L7.18689 13.4617C7.4046 13.5826 7.63602 13.6765 7.87595 13.7418L7.87637 14.6397C8.443 14.6447 9.04627 14.6421 9.53054 14.642V13.7335C9.77771 13.6638 10.0041 13.5656 10.2173 13.4462L10.8524 14.0724L12.0179 12.9023L11.3815 12.2752C11.5021 12.059 11.5961 11.8294 11.6617 11.5911L12.5257 11.5858V9.93745L11.652 9.94275C11.5818 9.69786 11.4859 9.47596 11.3651 9.26365L11.9688 8.65845L10.7917 7.49897L10.1888 8.10393C9.97197 7.98402 9.74149 7.89038 9.50249 7.82498L9.50745 6.96428H7.84377H7.84375ZM8.39309 7.51221H8.9564L8.95205 8.26584L9.17454 8.3095C9.49759 8.37289 9.80724 8.49845 10.0826 8.67795L10.2691 8.79951L10.7952 8.27161L11.1915 8.66187L10.6646 9.19009L10.7914 9.3772C10.9774 9.65799 11.1008 9.96153 11.1704 10.2741L11.2162 10.4933L11.9777 10.4887V11.0412L11.2205 11.0459L11.177 11.2651C11.1131 11.5871 10.9877 11.8936 10.8068 12.1684L10.6831 12.3563L11.2408 12.906L10.8488 13.2995L10.291 12.7495L10.1055 12.8727C9.8216 13.0583 9.51362 13.1868 9.20288 13.2501L8.98257 13.2941V14.0941C8.83196 14.0945 8.66768 14.0943 8.42395 14.0939L8.42358 13.2999L8.2023 13.2566C7.87879 13.1935 7.56968 13.0685 7.29475 12.8882L7.10881 12.7663L6.54885 13.3237L6.15259 12.9343L6.71333 12.3757L6.58538 12.1878C6.39919 11.9076 6.27603 11.6038 6.20625 11.2916L6.16045 11.073L5.38113 11.0758V10.5227L6.15657 10.5213L6.2001 10.3008C6.26357 9.97922 6.38929 9.67263 6.5699 9.39834L6.69346 9.21069L6.14863 8.67249L6.54072 8.2781L7.08655 8.81733L7.27229 8.69341C7.5565 8.50735 7.8581 8.3839 8.1762 8.31523L8.39504 8.2698L8.39309 7.51221ZM8.68398 9.52542C8.00577 9.52542 7.4501 10.0811 7.4501 10.7593C7.4501 11.4375 8.00577 11.9932 8.68398 11.9932C9.3622 11.9932 9.91787 11.4375 9.91787 10.7593C9.91787 10.0811 9.3622 9.52542 8.68398 9.52542ZM8.68398 10.0733C9.06609 10.0733 9.36997 10.3772 9.36997 10.7593C9.36997 11.1414 9.06609 11.4453 8.68398 11.4453C8.30188 11.4453 7.99802 11.1414 7.99802 10.7593C7.99802 10.3772 8.30188 10.0733 8.68398 10.0733V10.0733Z" fill="black" fill-opacity="0.7"/>
</svg>
