<svg width="25" height="25" viewBox="0 0 25 25" fill="none" xmlns="http://www.w3.org/2000/svg">
<path d="M12.3959 1.20764C7.99289 1.19302 3.76798 4.03804 2.09685 8.10783C0.337588 12.138 1.25167 17.1445 4.32905 20.2877C7.28881 23.4736 12.1653 24.643 16.2495 23.1523C20.4821 21.711 23.6069 17.5542 23.7768 13.0804C24.0617 8.68425 21.4753 4.29838 17.5151 2.38345C15.9644 1.60959 14.2328 1.20604 12.5 1.20852C12.4653 1.20805 12.4306 1.20775 12.3959 1.20764V1.20764ZM12.7054 2.42801C17.0154 2.45167 21.0746 5.56959 22.1893 9.74038C23.3737 13.7309 21.7716 18.3513 18.333 20.7148C14.7611 23.3402 9.46409 23.1503 6.09101 20.2734C2.6924 17.5637 1.47587 12.5516 3.21959 8.57689C4.73091 4.90243 8.52462 2.38258 12.5 2.42922C12.5685 2.42803 12.637 2.42763 12.7054 2.42801V2.42801Z" fill="black" fill-opacity="0.7"/>
</svg>
