<svg width="25" height="25" viewBox="0 0 25 25" fill="none" xmlns="http://www.w3.org/2000/svg">
<path d="M5.3871 3.33998C3.25421 3.33998 1.51807 5.07613 1.51807 7.20901V17.791C1.51807 19.9239 3.25421 21.66 5.3871 21.66H19.6132C21.746 21.66 23.4822 19.9239 23.4822 17.791V7.20901C23.4822 5.07613 21.746 3.33998 19.6132 3.33998H5.3871ZM5.3871 4.56068H19.6132C21.0909 4.56068 22.2615 5.73128 22.2615 7.20901V17.791C22.2615 19.2687 21.0909 20.4393 19.6132 20.4393H16.7293V12.7398H8.27092V13.1272V20.4393H5.3871C3.90937 20.4393 2.73877 19.2687 2.73877 17.791V7.20901C2.73877 5.73128 3.90937 4.56068 5.3871 4.56068V4.56068ZM9.04573 13.5146H15.9545V20.4234H9.04573V13.5146ZM11.9206 14.4973V15.0769V16.4224H10.575H9.99544V17.5816H10.575H11.9206V18.9271V19.5066H13.0797V18.9271V17.5816H14.4252H15.0048V16.4224H14.4252H13.0797V15.0769V14.4973H11.9206Z" fill="black" fill-opacity="0.7"/>
</svg>
