<svg width="25" height="25" viewBox="0 0 25 25" fill="none" xmlns="http://www.w3.org/2000/svg">
<path d="M5.38603 3.33947C3.25314 3.33947 1.51758 5.07503 1.51758 7.20792V17.7914C1.51758 19.9243 3.25314 21.6598 5.38603 21.6598H19.6142C21.7471 21.6598 23.4826 19.9243 23.4826 17.7914V7.20792C23.4826 5.07503 21.7471 3.33947 19.6142 3.33947H5.38603ZM5.38603 4.55975H19.6142C21.0919 4.55975 22.2623 5.73029 22.2623 7.20792V17.7914C22.2623 19.2691 21.0919 20.4395 19.6142 20.4395H5.38603C3.9083 20.4395 2.73786 19.2691 2.73786 17.7914V7.20792C2.73786 5.73029 3.9083 4.55975 5.38603 4.55975V4.55975Z" fill="black" fill-opacity="0.7"/>
</svg>
