<svg width="25" height="25" viewBox="0 0 25 25" fill="none" xmlns="http://www.w3.org/2000/svg">
<path fill-rule="evenodd" clip-rule="evenodd" d="M8.19707 5.97615C6.924 5.97615 6.01328 6.95481 6.01072 8.06957V8.06989V8.0702C6.0108 8.40732 6.10203 8.76311 6.24455 9.08402C6.34746 9.31574 6.4754 9.52877 6.63131 9.69942C5.70473 10.0164 4.61919 10.5382 4.07051 11.5669L4.04094 11.6224V14.9527H12.3532V11.6224L12.3236 11.5669C11.7828 10.5529 10.7208 10.0319 9.80316 9.71363C10.2511 9.25811 10.3833 8.67016 10.3834 8.0702V8.06989V8.06957C10.3809 6.95481 9.47013 5.97615 8.19707 5.97615V5.97615ZM7.32784 7.16319C7.38669 7.16334 7.4513 7.1653 7.52252 7.1695C8.09 7.20295 8.281 7.3051 8.4278 7.40198C8.57461 7.49886 8.67811 7.59108 9.06609 7.6024H9.0662H9.06633C9.36868 7.59109 9.51408 7.53718 9.61835 7.47612C9.6606 7.45138 9.69608 7.42566 9.73243 7.4011C9.82853 7.60707 9.88013 7.83476 9.88071 8.07041C9.88051 8.74142 9.76516 9.21133 9.1499 9.59587L9.21008 10.0495C9.33815 10.0884 9.47052 10.1311 9.60487 10.1779C9.62363 10.2561 9.64531 10.3588 9.65989 10.4679C9.67517 10.5823 9.68117 10.7012 9.67176 10.7906C9.66234 10.8799 9.63461 10.9281 9.62974 10.933C9.31702 11.2457 8.76191 11.4281 8.19887 11.4281C7.63582 11.4281 7.08072 11.2457 6.768 10.933C6.76313 10.9281 6.73539 10.8799 6.72598 10.7906C6.71656 10.7012 6.72257 10.5823 6.73784 10.4679C6.7525 10.3582 6.77435 10.2549 6.79319 10.1765C6.9262 10.1302 7.05724 10.088 7.18406 10.0495L7.21994 9.56343C7.19072 9.52596 7.16096 9.50114 7.12543 9.47449C6.98812 9.37147 6.82159 9.14484 6.70397 8.87999C6.58639 8.61523 6.51354 8.31261 6.51343 8.07035C6.51416 7.77991 6.59232 7.50152 6.73588 7.26105C6.76156 7.25149 6.78865 7.24138 6.81909 7.23137C6.92615 7.19616 7.07285 7.16255 7.32785 7.16319H7.32784ZM6.24099 10.3916C6.24053 10.3948 6.24003 10.3981 6.23958 10.4014C6.22101 10.5404 6.21009 10.6918 6.22606 10.8433C6.24203 10.9948 6.28201 11.1579 6.41255 11.2884C6.85813 11.734 7.53247 11.9308 8.19886 11.9308C8.86526 11.9308 9.53959 11.734 9.98517 11.2884C10.1157 11.1579 10.1557 10.9948 10.1717 10.8433C10.1876 10.6918 10.1767 10.5404 10.1581 10.4014C10.1578 10.3986 10.1573 10.396 10.157 10.3932C10.8344 10.6903 11.4892 11.1158 11.8505 11.751V14.45H10.6477V12.547H10.145V14.45H6.23839V12.547H5.73571V14.45H4.54363V11.751C4.90562 11.1146 5.56219 10.6887 6.24099 10.3916ZM5.37063 2.62498C2.68667 2.62498 0.5 4.80243 0.5 7.48123V17.5187C0.5 20.1975 2.68667 22.375 5.37063 22.375H19.6294C22.3133 22.375 24.5 20.1975 24.5 17.5187V7.48123C24.5 4.80243 22.3133 2.62498 19.6294 2.62498H5.37063V2.62498ZM5.37063 4.12498H19.6294C21.5111 4.12498 23 5.61031 23 7.48123V17.5187C23 19.3897 21.5111 20.875 19.6294 20.875H5.37063C3.48892 20.875 2 19.3897 2 17.5187V7.48123C2 5.61031 3.48892 4.12498 5.37063 4.12498V4.12498Z" fill="black" fill-opacity="0.7"/>
</svg>
