<svg width="43" height="40" viewBox="0 0 43 40" fill="none" xmlns="http://www.w3.org/2000/svg">
<path d="M14.1875 13.5703C17.7422 13.5703 20.7109 10.6211 20.7109 7.06641C20.7109 3.51172 17.7422 0.542969 14.1875 0.542969C10.6328 0.542969 7.66406 3.51172 7.66406 7.06641C7.66406 10.6211 10.6328 13.5703 14.1875 13.5703ZM28.5039 13.5703C32.0586 13.5703 35.0273 10.6211 35.0273 7.06641C35.0273 3.51172 32.0586 0.542969 28.5039 0.542969C24.9492 0.542969 21.9805 3.51172 21.9805 7.06641C21.9805 10.6211 24.9492 13.5703 28.5039 13.5703ZM14.1875 10.4258C12.3516 10.4258 10.8086 8.88281 10.8086 7.06641C10.8086 5.23047 12.3516 3.6875 14.1875 3.6875C16.0234 3.6875 17.5664 5.23047 17.5664 7.06641C17.5664 8.88281 16.0234 10.4258 14.1875 10.4258ZM28.5039 10.4258C26.668 10.4258 25.125 8.88281 25.125 7.06641C25.125 5.23047 26.668 3.6875 28.5039 3.6875C30.3398 3.6875 31.8828 5.23047 31.8828 7.06641C31.8828 8.88281 30.3398 10.4258 28.5039 10.4258ZM7.01953 26.4219C10.5938 26.4219 13.5625 23.4531 13.5625 19.8984C13.5625 16.3438 10.5938 13.375 7.01953 13.375C3.46484 13.375 0.496094 16.3438 0.496094 19.8984C0.496094 23.4531 3.46484 26.4219 7.01953 26.4219ZM21.3555 26.4219C24.9102 26.4219 27.8789 23.4531 27.8789 19.8984C27.8789 16.3438 24.9102 13.375 21.3555 13.375C17.7812 13.375 14.8125 16.3438 14.8125 19.8984C14.8125 23.4531 17.7812 26.4219 21.3555 26.4219ZM35.6719 26.4219C39.2266 26.4219 42.1953 23.4531 42.1953 19.8984C42.1953 16.3438 39.2266 13.375 35.6719 13.375C32.1172 13.375 29.1289 16.3438 29.1289 19.8984C29.1289 23.4531 32.1172 26.4219 35.6719 26.4219ZM7.01953 23.2773C5.18359 23.2773 3.64062 21.7344 3.64062 19.8984C3.64062 18.0625 5.18359 16.5195 7.01953 16.5195C8.85547 16.5195 10.418 18.0625 10.418 19.8984C10.418 21.7344 8.85547 23.2773 7.01953 23.2773ZM21.3555 23.2773C19.5 23.2773 17.957 21.7344 17.957 19.8984C17.957 18.0625 19.5 16.5195 21.3555 16.5195C23.1914 16.5195 24.7344 18.0625 24.7344 19.8984C24.7344 21.7344 23.1914 23.2773 21.3555 23.2773ZM35.6719 23.2773C33.8359 23.2773 32.2734 21.7344 32.2734 19.8984C32.2734 18.0625 33.8359 16.5195 35.6719 16.5195C37.5078 16.5195 39.0508 18.0625 39.0508 19.8984C39.0508 21.7344 37.5078 23.2773 35.6719 23.2773ZM14.1875 39.2539C17.7422 39.2539 20.7109 36.2656 20.7109 32.7305C20.7109 29.1562 17.7422 26.207 14.1875 26.207C10.6328 26.207 7.66406 29.1562 7.66406 32.7305C7.66406 36.2852 10.6328 39.2539 14.1875 39.2539ZM28.5039 39.2539C32.0586 39.2539 35.0273 36.2852 35.0273 32.7305C35.0273 29.1562 32.0586 26.207 28.5039 26.207C24.9492 26.207 21.9805 29.1562 21.9805 32.7305C21.9805 36.2852 24.9492 39.2539 28.5039 39.2539ZM14.1875 36.1094C12.3516 36.1094 10.8086 34.5664 10.8086 32.7305C10.8086 30.8945 12.3516 29.3516 14.1875 29.3516C16.0234 29.3516 17.5664 30.8945 17.5664 32.7305C17.5664 34.5664 16.0234 36.1094 14.1875 36.1094ZM28.5039 36.1094C26.668 36.1094 25.125 34.5664 25.125 32.7305C25.125 30.8945 26.668 29.3516 28.5039 29.3516C30.3398 29.3516 31.8828 30.8945 31.8828 32.7305C31.8828 34.5664 30.3398 36.1094 28.5039 36.1094Z" fill="#54667A"/>
</svg>
