<svg width="33" height="45" viewBox="0 0 33 45" fill="none" xmlns="http://www.w3.org/2000/svg">
<path d="M0.980469 16.5312C0.980469 21.1211 3.01172 25.2812 6.21484 28.1328L6.23438 42.8789C6.23438 44.0508 6.83984 44.5391 7.64062 44.5391C8.32422 44.5391 8.83203 44.1484 9.35938 43.6211L15.707 37.293C16.0586 36.9805 16.293 36.8633 16.5273 36.8633C16.7617 36.8633 17.0156 36.9805 17.3477 37.293L23.6953 43.6211C24.2422 44.168 24.7695 44.5391 25.4141 44.5391C26.2539 44.5391 26.8398 44.0508 26.8398 42.8789V28.0742C30.0039 25.2422 32.0156 21.1016 32.0352 16.5312C32.0547 7.9375 25.0234 0.925781 16.5078 0.925781C7.97266 0.925781 0.980469 7.9375 0.980469 16.5312ZM4.16406 16.5312C4.16406 9.59766 9.57422 4.03125 16.5273 4.03125C23.4609 4.03125 28.8711 9.59766 28.8906 16.5312C28.9102 23.4453 23.4609 29.0117 16.5273 28.9922C9.57422 28.9727 4.16406 23.4453 4.16406 16.5312Z" fill="#54667A"/>
</svg>
