<svg width="45" height="38" viewBox="0 0 45 38" fill="none" xmlns="http://www.w3.org/2000/svg">
<path d="M0.980469 33.7812C0.980469 35.3828 2.03516 36.0078 3.1875 36.0078C3.85156 36.0078 4.41797 35.6172 5.16016 35.168C7.30859 33.7031 9.96484 32.8047 12.6797 32.8242C15.4922 32.8438 18.2852 33.8789 20.4727 35.9883C21.332 36.7695 21.957 37.0234 22.6797 37.0234C23.3828 37.0234 24.0273 36.7695 24.8672 35.9883C27.0547 33.8984 29.8477 32.8438 32.6797 32.8242C35.3945 32.8047 38.0312 33.7031 40.1797 35.168C40.9219 35.6172 41.4883 36.0078 42.1719 36.0078C43.3047 36.0078 44.3594 35.3828 44.3594 33.7812V7.27734C44.3594 6.94531 44.3398 6.67188 44.125 6.33984C42.3867 3.3125 37.9727 0.753906 32.6016 0.753906C28.3438 0.753906 24.6523 2.45312 22.6797 4.85547C20.707 2.45312 16.9961 0.753906 12.7578 0.753906C7.36719 0.753906 2.95312 3.3125 1.21484 6.33984C1.01953 6.67188 0.980469 6.94531 0.980469 7.27734V33.7812ZM4.125 32.1211V7.72656C5.70703 5.44141 9.14453 3.89844 12.7578 3.89844C16.4688 3.89844 19.7109 5.46094 21.0977 7.84375V32.4531C19.1055 30.8711 16 29.6797 12.7578 29.6797C9.35938 29.6797 6.19531 30.6367 4.125 32.1211ZM24.2422 32.4531V7.84375C25.6289 5.46094 28.8906 3.89844 32.6016 3.89844C36.1953 3.89844 39.6328 5.44141 41.2148 7.72656V32.1211C39.1445 30.6367 35.9805 29.6797 32.6016 29.6797C29.3398 29.6797 26.2344 30.8711 24.2422 32.4531Z" fill="#54667A"/>
</svg>
