<svg width="24" height="37" viewBox="0 0 24 37" fill="none" xmlns="http://www.w3.org/2000/svg">
<path d="M4.16406 36.8477H20.6875C22.6602 36.8477 23.8711 35.7344 23.8711 33.6445V33.2539C23.8711 28.5469 18.8906 23.5469 16.1562 20.832C14.8281 19.5039 14.9258 18.1367 16.1562 16.9062C18.8906 14.2109 23.8711 9.23047 23.8711 4.48438V4.15234C23.8711 2.0625 22.6602 0.929688 20.6875 0.929688H4.16406C2.19141 0.929688 0.980469 2.0625 0.980469 4.15234V4.48438C0.980469 9.23047 5.98047 14.2109 8.69531 16.9062C9.94531 18.1367 10.043 19.5039 8.69531 20.832C5.98047 23.5469 0.980469 28.5469 0.980469 33.2539V33.6445C0.980469 35.7344 2.19141 36.8477 4.16406 36.8477ZM5.66797 34.1914C4.82812 34.1914 4.63281 33.2148 5.19922 32.6875L11.4297 26.75C11.6641 26.5352 11.7617 26.4375 11.7617 26.125V17.4727C11.7617 16.5742 11.5859 16.125 10.9219 15.5586C9.61328 14.4453 7.77734 12.8438 6.56641 11.5742C6.05859 11.0664 6.33203 10.4414 6.9375 10.4414H17.9141C18.5195 10.4414 18.793 11.0664 18.2852 11.5742C17.0938 12.8438 15.2578 14.4453 13.9297 15.5586C13.2656 16.125 13.1094 16.5742 13.1094 17.4727V26.125C13.1094 26.4375 13.1875 26.5352 13.4219 26.75L19.6523 32.6875C20.2188 33.2148 20.0234 34.1914 19.1836 34.1914H5.66797Z" fill="#54667A"/>
</svg>
