<svg width="38" height="36" viewBox="0 0 38 36" fill="none" xmlns="http://www.w3.org/2000/svg">
<path d="M5.57019 10.0233L7.36707 7.67959C12.0937 10.7069 17.3085 17.5038 17.3085 22.1913V33.4022C17.3085 34.7499 17.914 35.4726 19.0077 35.4726C20.1015 35.4726 20.7069 34.7499 20.7069 33.4022V22.1913C20.7069 17.5624 25.8046 10.8437 30.5507 7.73818L32.2108 10.0038C33.0311 11.1366 34.0272 10.8827 34.4374 9.61318L36.8983 2.42568C37.2499 1.37099 36.6835 0.628807 35.6093 0.648339L27.9921 0.765526C26.6835 0.785057 26.1366 1.64443 26.9374 2.75771L28.5194 4.92568C23.9296 8.14834 19.6132 13.8905 19.0272 16.8397H18.9687C18.3827 13.871 14.0858 8.14834 9.49597 4.92568L11.039 2.93349C11.8788 1.83974 11.3515 0.960839 10.0429 0.902245L2.44519 0.570213C1.35144 0.51162 0.76551 1.23428 1.09754 2.30849L3.34363 9.55459C3.73426 10.8437 4.71082 11.1366 5.57019 10.0233Z" fill="#54667A"/>
</svg>
