<svg width="34" height="43" viewBox="0 0 34 43" fill="none" xmlns="http://www.w3.org/2000/svg">
<path d="M0.980469 36.7227C0.980469 40.8047 2.99219 42.8359 7.03516 42.8359H27.7773C31.8203 42.8359 33.832 40.8047 33.832 36.7227V7.09375C33.832 3.03125 31.8203 0.960938 27.7773 0.960938H7.03516C2.99219 0.960938 0.980469 3.03125 0.980469 7.09375V36.7227ZM4.125 36.6641V7.15234C4.125 5.19922 5.16016 4.10547 7.19141 4.10547H27.6211C29.6523 4.10547 30.6875 5.19922 30.6875 7.15234V36.6641C30.6875 38.6172 29.6523 39.6914 27.6211 39.6914H7.19141C5.16016 39.6914 4.125 38.6172 4.125 36.6641ZM22.5234 20.7461C24.8867 20.7461 26.5469 19.1055 26.5469 16.7617C26.5469 14.4766 25.1406 12.9531 23.0703 12.9531C22.0156 12.9531 21.1758 13.2852 20.5703 14.0469H20.1602C20.3164 13.3438 20.7656 12.6797 21.3906 12.1133C22.0156 11.5469 22.7969 11.2148 23.6562 11.0195C24.3789 10.8438 24.6133 10.6289 24.6133 10.1992C24.6133 9.78906 24.3203 9.47656 23.7734 9.47656C22.5039 9.47656 20.8633 10.2969 19.8281 11.4297C18.7148 12.6211 18.168 14.1445 18.168 15.8047C18.168 18.9297 20.1016 20.7461 22.5234 20.7461ZM12.6211 20.7656C15.0039 20.7656 16.6445 19.125 16.6445 16.7812C16.6445 14.4961 15.2383 12.9727 13.168 12.9727C12.1328 12.9727 11.2734 13.3047 10.668 14.0664H10.2773C10.4336 13.3438 10.8828 12.6602 11.5664 12.0938C12.1719 11.5664 12.9141 11.2148 13.7734 11.0391C14.4961 10.8633 14.7109 10.6484 14.7109 10.2188C14.7109 9.80859 14.418 9.49609 13.8711 9.49609C12.6016 9.49609 11.0195 10.2773 9.92578 11.4492C8.83203 12.6406 8.28516 14.1641 8.28516 15.8242C8.28516 18.9492 10.2188 20.7656 12.6211 20.7656ZM10.0039 27.3477H24.8281C25.5312 27.3477 26.0391 26.8008 26.0391 26.1172C26.0391 25.4531 25.5312 24.9453 24.8281 24.9453H10.0039C9.30078 24.9453 8.77344 25.4531 8.77344 26.1172C8.77344 26.8008 9.30078 27.3477 10.0039 27.3477ZM10.0039 34.1445H17.0156C17.7188 34.1445 18.2266 33.6367 18.2266 32.9727C18.2266 32.2891 17.7188 31.7422 17.0156 31.7422H10.0039C9.30078 31.7422 8.77344 32.2891 8.77344 32.9727C8.77344 33.6367 9.30078 34.1445 10.0039 34.1445Z" fill="#54667A"/>
</svg>
