<svg version="1" xmlns="http://www.w3.org/2000/svg" width="1306.667" height="1306.667" viewBox="0 0 980.000000 980.000000"><path d="M434.5 150.7c-10.4 1.4-25.1 7.6-34.4 14.6-8.1 6-275.7 274.3-280.1 280.7-5.4 8-8.7 14.8-11.2 23.7-3.8 13-2.9 39.4 1.5 45.1.5.6.7 1.2.4 1.2-.3 0 .5 2.6 1.9 5.7 8 18 24.4 33.5 42.8 40.3 13.1 5 32.8 6.1 46.3 2.6 8.4-2.1 19.9-7.7 26.4-12.7 3-2.3 62-60.8 131.2-130 69.1-69.2 125.7-125.3 125.8-124.6.1 1.2-.2 52.9-.5 85.8l-.2 17.6-58.8 58.9c-32.4 32.4-60.3 60.7-62.1 62.9-5.4 6.5-9.5 14.3-12.7 23.9-5.4 16-4.9 37.6 1.2 51.3 1.1 2.5 2 5 2 5.5s2.1 4.2 4.6 8.1c5.4 8.4 16.3 19.4 23.1 23.3 2.7 1.6 5 3.1 5.3 3.4.5.7 7.1 3.4 13.5 5.6 6.1 2 11 2.7 22.2 2.9 19.8.4 38.6-6.5 52-19.2 2.3-2.2 4.9-4.5 5.7-5.2 1.3-1.1 1.4 3.5 1 37.6-.5 40.4-1.4 100.1-1.5 101.8-.2 3 1.2 15.9 2.2 20.1 3 12 9.5 24.2 17.8 33.6 10.4 11.6 28.1 21.5 42 23.4 2.5.3 5.5.8 6.6 1.1 2.6.6 11.6.5 18.1-.2 8.8-1 21.6-5.3 28.9-9.8 7.8-4.8 28-24.5 148.7-145.4 97.9-98 136.7-137.5 139.6-142.1 14.5-22.7 16.6-50 5.7-73.9-4.5-9.7-8.6-15.5-16.7-23.5-14.7-14.5-34.8-22.1-56.3-21.3-4.9.2-10.5.8-12.3 1.4-1.8.5-3.6 1-4 1-1.8.2-11.1 3.6-14.7 5.4-2.2 1.1-6.7 3.9-10 6.2-3.3 2.4-63.1 61.5-132.9 131.3-69.8 69.9-127.2 126.9-127.5 126.7-.4-.2-.5-7-.4-15.2.5-34.1 1.4-109 1.3-110.8-.1-1.1-.1-2.5-.1-3 0-.6.3-22.4.5-48.5.3-26.1.8-65.3 1.1-87 .2-21.7.7-64 1.1-94 .8-76 1.1-91.3 1.7-93 .3-.8.9-3.3 1.2-5.5 3.8-23.6-4.1-47.9-21-65-11.4-11.6-23.4-18.2-39.9-22.2-2.7-.6-22.2-1.1-26.1-.6zm20.5 33.9c10.6 1.8 23.6 11.9 28.8 22.3 2.7 5.4 2.8 6.1 2.6 18.9-.3 16.8-.7 18.8-4.9 24.7-5.1 7.2-270.2 272.2-276.1 276.1-17.5 11.3-41.1 7.9-55-7.9-12.7-14.4-14.4-34.6-4.4-51 3.9-6.5 272.9-275.7 278-278.3 10.5-5.3 20-6.8 31-4.8zm28.3 303.6c-.2 21.1-.5 48.6-.6 61.1l-.4 22.8-15.4 15.5c-16.2 16.4-20.6 20-27.9 22.8-6 2.4-8.3 2.8-16 2.9-9.4 0-15.7-2.1-24.4-8.1-14-9.7-20.5-26-17.4-43.4 2.2-12.2 3.6-13.8 54.2-64.5 25.9-26 47.4-47.3 47.7-47.3.4 0 .5 17.2.2 38.2zM828 457.5c0-.2 2.7.7 6 1.8 18 6.6 29.3 23.2 28.5 42.2-.3 8-2.6 16.6-5.1 19.6-.8.8-1.4 1.9-1.4 2.3 0 1.2-5.3 6.6-141 142.5-99.8 99.9-133.8 133.3-137.6 135.3-16.9 9.1-37.8 6.1-51.1-7.3-4.3-4.3-10.2-13.7-10.9-17.4-.2-.5-.7-3-1.2-5.5-1-5.2-.9-12 .3-17 .5-1.9.9-3.7.9-4 .1-.3 1.4-3.1 2.9-6.3 2.5-5 21.2-24.1 139.5-142.6 106.6-106.7 137.7-137.2 141.4-139 2.6-1.2 4.9-2.1 5.1-1.9.2.2 1.1-.3 1.9-1 .8-.6 4.2-1.5 7.4-1.8 3.2-.4 6-.8 6.2-.9.1-.1 2 .1 4.2.5s4 .6 4 .5z"/><path d="M556.6 343.7c-5 1.3-9.2 2.6-9.5 2.8-.2.3-.6 9.3-.7 20l-.2 19.4 4.4-2.9c18.2-12.6 40.8-10.6 56.1 5 13.7 14 15.9 37.5 5.1 53.4-1.1 1.7-16.7 17.8-34.6 35.7l-32.4 32.6-.3 23.7c-.2 21.5-.1 23.5 1.4 22.3 6.2-4.8 90.4-90.4 93.4-95 12.3-18.6 15.9-39.8 10.6-62.5-1.7-7-9.2-22-14.3-28.4-8.6-10.8-23.4-21-36.6-25.2-13-4.2-28.9-4.5-42.4-.9z"/></svg>