<?xml version="1.0" standalone="no"?>
<!DOCTYPE svg PUBLIC "-//W3C//DTD SVG 20010904//EN"
 "http://www.w3.org/TR/2001/REC-SVG-20010904/DTD/svg10.dtd">
<svg version="1.0" xmlns="http://www.w3.org/2000/svg"
 width="650.000000pt" height="650.000000pt" viewBox="0 0 650.000000 650.000000"
 preserveAspectRatio="xMidYMid meet">
<metadata>
Created by potrace 1.11, written by Peter Selinger 2001-2013
</metadata>
<g transform="translate(0.000000,650.000000) scale(0.100000,-0.100000)"
fill="#000000" stroke="none">
<path d="M3049 6066 c-2 -2 -33 -6 -69 -10 -58 -5 -214 -29 -265 -40 -407 -89
-778 -265 -1080 -510 -27 -23 -61 -50 -75 -61 -56 -45 -259 -256 -323 -335
-259 -322 -434 -691 -521 -1100 -13 -63 -27 -137 -31 -165 -3 -27 -7 -66 -10
-85 -13 -107 -20 -246 -20 -410 0 -226 6 -289 50 -535 46 -256 178 -604 328
-865 34 -59 127 -205 150 -235 4 -5 24 -32 44 -60 145 -197 373 -428 568 -576
66 -50 223 -159 229 -159 2 0 34 -18 70 -40 261 -159 649 -294 961 -335 28 -4
61 -10 75 -13 14 -3 628 -7 1366 -9 l1341 -4 0 668 c3 2563 4 2385 -12 2529
-7 70 -14 119 -21 154 -2 14 -7 39 -10 55 -3 17 -10 50 -15 75 -6 25 -12 52
-14 60 -1 8 -8 35 -15 60 -7 25 -14 52 -15 60 -7 28 -72 214 -103 290 -59 148
-158 335 -240 455 -138 202 -347 430 -522 569 -47 37 -92 73 -100 79 -25 20
-170 117 -175 117 -3 0 -28 15 -57 33 -168 105 -410 204 -652 267 -104 27
-156 37 -281 55 -22 4 -51 9 -65 12 -29 6 -485 15 -491 9z"/>
</g>
</svg>
