<svg version="1.1" xmlns="http://www.w3.org/2000/svg" width="32" height="32" viewBox="0 0 32 32"><path fill="none" stroke="currentColor" stroke-width="2.1733" stroke-miterlimit="4" stroke-linecap="round" stroke-linejoin="round" d="M15.933 3.267h-8.68c-1.195 0.008-2.16 0.978-2.16 2.173 0 0 0 0 0 0v0 17.333c0 1.2 0.973 2.173 2.173 2.173v0h13.027c1.2 0 2.173-0.973 2.173-2.173v0-12.987z"></path><path fill="none" stroke="currentColor" stroke-width="2.1733" stroke-miterlimit="4" stroke-linecap="round" stroke-linejoin="round" d="M15.933 3.267v6.52h6.507M13.76 20.64v-6.52M10.507 17.333h6.507"></path><path fill="#fff" stroke="currentColor" stroke-width="2.1733" stroke-miterlimit="4" stroke-linecap="round" stroke-linejoin="round" d="M23.853 8.413h-8.68c-1.195 0.008-2.16 0.978-2.16 2.173 0 0 0 0 0 0v0 17.413c0 1.2 0.973 2.173 2.173 2.173v0h13.027c1.189-0.015 2.147-0.982 2.147-2.173 0-0 0-0 0-0v0-13.080z"></path><path fill="#fff" stroke="currentColor" stroke-width="2.1733" stroke-miterlimit="4" stroke-linecap="round" stroke-linejoin="round" d="M23.853 8.413v6.507h6.507M21.68 25.773v-6.507M18.427 22.52h6.507"></path></svg>
