<svg xmlns="http://www.w3.org/2000/svg" xmlns:xlink="http://www.w3.org/1999/xlink" version="1.1" x="0px" y="0px" viewBox="10 10 80 80" enable-background="new 0 0 100 100" xml:space="preserve" fill="currentColor" stroke="currentColor"><path d="M50,10.327c-21.875,0-39.673,17.797-39.673,39.672c0,21.876,17.797,39.673,39.673,39.673   c21.875,0,39.672-17.797,39.672-39.673C89.672,28.124,71.875,10.327,50,10.327z M50,87.673c-20.773,0-37.673-16.9-37.673-37.673   S29.228,12.327,50,12.327c20.772,0,37.672,16.9,37.672,37.672S70.773,87.673,50,87.673z"/><path d="M63.826,53.612c-0.187-0.537-0.502-1.108-0.945-1.716c-0.442-0.607-0.816-1.085-1.12-1.435   c-0.303-0.35-0.805-0.793-1.505-1.33c-0.7-0.537-1.225-0.922-1.575-1.155l-1.89-1.26c-0.91-0.606-1.552-1.027-1.926-1.26   c-0.513-0.374-1.178-0.829-1.995-1.365c-0.816-0.537-1.389-0.91-1.715-1.12c-0.327-0.21-0.724-0.502-1.191-0.875   c-0.467-0.374-0.781-0.688-0.945-0.945c-0.163-0.257-0.314-0.56-0.455-0.91c-0.14-0.35-0.21-0.712-0.21-1.085   c0-0.887,0.374-1.587,1.12-2.101c0.747-0.513,1.564-0.77,2.451-0.77c0.934,0,2.24,0.338,3.921,1.015   c1.68,0.677,2.59,1.015,2.73,1.015c0.186,0,0.302-0.07,0.35-0.21c0.373-0.42,1.12-1.61,2.24-3.57s1.681-3.081,1.681-3.361   c0-0.093-0.105-0.21-0.315-0.35s-0.479-0.304-0.805-0.491l-0.98-0.561c-0.327-0.187-0.642-0.353-0.945-0.493   c-0.303-0.14-0.479-0.24-0.524-0.286c-2.147-0.7-3.968-1.132-5.461-1.272c-0.094-0.654-0.14-1.635-0.14-2.895   c0-0.233-0.094-0.707-0.28-1.22l-0.49-0.219h-5.181c-0.56,0-0.84,0.452-0.84,1.059c0,0.42,0.023,1.151,0.07,1.944   c0.046,0.793,0.069,1.389,0.069,1.763c-6.44,1.354-9.661,5.07-9.661,11.137c0,1.307,0.233,2.559,0.7,3.749   c0.467,1.19,0.957,2.172,1.471,2.942c0.513,0.77,1.388,1.646,2.625,2.626c1.236,0.98,2.17,1.669,2.8,2.066   c0.631,0.396,1.763,1.062,3.396,1.996c1.634,0.934,2.661,1.54,3.082,1.82c1.68,1.26,2.52,2.729,2.52,4.41   c0,1.82-1.213,2.73-3.64,2.73c-2.754,0-5.157-0.561-7.211-1.681c-0.141-0.046-0.607-0.338-1.4-0.875   c-0.793-0.536-1.447-0.829-1.96-0.876c-2.427,3.641-3.874,6.206-4.341,7.7c0,0.233,0.77,0.837,2.311,1.818   c2.847,1.587,5.834,2.608,8.961,3.075c0,0.514-0.023,1.296-0.07,2.37s-0.07,1.846-0.07,2.359c0,0.374-0.046,0.635-0.14,0.869   l0.28,0.076c0.14,0,0.303-0.076,0.49-0.076h5.25c0.561,0,0.84-0.087,0.84-0.693s-0.012-1.291-0.034-2.433   c-0.023-1.144-0.035-1.982-0.035-2.543c3.267-0.653,5.985-2.128,8.155-4.439c2.171-2.311,3.256-5.095,3.256-8.363   c0-0.84-0.082-1.631-0.245-2.378S64.013,54.148,63.826,53.612z"/></svg>
