<svg id="excel" viewBox="0 0 32 32"><path fill="#fff" d="M18.72 1.28c-0.16 0-0.16 0 0 0l-16.96 3.2c-0.32 0-0.48 0.32-0.48 0.64v22.080c0 0.32 0.16 0.48 0.48 0.64l16.96 3.2c0.16 0 0.32 0 0.48-0.16s0.16-0.32 0.16-0.48v-3.2h10.24c0.64 0 1.28-0.48 1.28-1.12v-20.16c0-0.64-0.48-1.12-1.28-1.12h-10.24v-3.040c0-0.16 0-0.32-0.16-0.48-0.16 0-0.32-0.16-0.48 0zM18.080 2.56v2.56c-0.16 0.16-0.16 0.32 0 0.48v20.96c0 0 0 0.16 0 0.32v2.72l-15.68-2.88v-21.28l15.68-2.88zM19.36 5.92h10.24v20.16h-10.24v-3.040h2.4v-1.12h-2.4v-3.52h2.4v-1.12h-2.4v-3.040h2.4v-1.12h-2.4v-3.040h2.4v-1.12h-2.4v-3.040zM22.88 8.96v1.12h4.8v-1.12h-4.8zM5.28 10.56l3.2 5.44-3.68 5.6h3.2l1.92-3.52c0.16-0.32 0.16-0.64 0.32-0.8v0c0 0.32 0.16 0.64 0.16 0.8l1.92 3.68h3.040l-3.36-5.76 3.36-5.44h-2.88l-1.76 3.2c-0.16 0.48-0.32 0.8-0.48 0.96v0c0-0.32-0.16-0.64-0.32-0.96l-1.6-3.36h-3.040zM22.88 13.12v1.12h4.8v-1.12h-4.8zM22.88 17.12v1.12h4.8v-1.12h-4.8zM22.88 21.92v1.12h4.8v-1.12h-4.8z"/><path fill="#fff" style="fill: var(--color1, #fff)" d="M18.72 31.68c-0.16 0-0.16 0-0.32 0l-16.8-3.2c-0.64-0.16-1.12-0.64-1.12-1.44v-22.080c0-0.64 0.48-1.28 1.12-1.44l16.96-3.2c0.32 0 0.8 0 1.12 0.32s0.48 0.64 0.48 1.12v2.080h9.44c1.12 0 2.080 0.96 2.080 1.92v20.16c0 1.12-0.96 1.92-2.080 1.92h-9.44v2.080c0 0.48-0.16 0.8-0.48 1.12-0.32 0.48-0.64 0.64-0.96 0.64zM3.2 25.92l14.080 2.72v-1.76c0-0.16 0-0.32 0-0.32v-20.8c-0.16-0.32-0.16-0.48 0-0.8v-1.44l-14.080 2.56v19.84zM20.16 25.28h8.64v-18.56h-8.64v1.44h8.48v2.72h-8.48v1.28h8.48v2.72h-8.48v1.44h8.48v2.88h-8.48v1.92h8.48v2.72h-8.48v1.44zM16.8 22.4h-4.96l-1.76-3.2-1.76 3.2h-4.8l4.16-6.4-3.84-6.24h4.96l1.6 3.040 1.6-3.040h4.8l-4 6.24 4 6.4zM12.8 20.8h1.12l-3.040-4.8 2.88-4.64h-0.8l-1.6 2.88c-0.16 0.16-0.16 0.48-0.32 0.8l-0.16 0.48h-1.12l-0.16-0.48c-0.16-0.32-0.32-0.64-0.32-0.96l-1.44-2.72h-1.12l2.88 4.8-3.2 4.64h1.12l1.76-3.2c0-0.16 0.16-0.48 0.16-0.64l0.16-0.48h1.28l0.16 0.64c0 0.32 0.16 0.48 0.16 0.48l1.6 3.2z"/></svg>