<svg version="1.1" xmlns="http://www.w3.org/2000/svg" width="32" height="32" viewBox="0 0 32 32"><path fill="#e2e5e7" d="M27.177 20.519l-0.757-0.507-0.46 0.609-1.101-0.749-0.788-0.094-0.695 0.328-0.414-0.328-0.46 0.234-0.086-0.375-0.258 0.609-0.367 0.983-0.484 0.835-0.414-0.796-0.695-0.648-0.593 0.468-0.46 1.022-0.554 0.788-0.78-0.578v-0.866l-0.695-0.835-0.71 0.328-0.437 0.882-0.281 0.976-0.64-0.859-0.554-0.351-0.367-0.601-0.601-0.375-0.695 1.538-0.507 1.116-0.827-0.554-0.827-0.796-0.46-0.515-0.226 0.562-0.913 0.187 0.086 0.601-0.601 0.702-0.367 0.562-0.741-0.421-0.648-0.211-0.414-0.632-0.5 0.702-0.258 0.562v5.128l21.549-0.016v-8.617z"></path><path fill="#e2e5e7" d="M6.361 22.33l0.46 0.601 0.663 0.164 0.78 0.367-0.070-0.96 0.585-0.343-0.507-0.57 0.905-0.25 0.944-0.624 0.499 0.476 0.89 0.734 0.874 0.5 0.429-1.155 0.593-1.561 0.632 0.328 0.414 0.578 0.609 0.312 0.687 0.78 0.25-0.983 0.375-0.913 0.695-0.375 0.78 0.78 0.062 0.859 0.827 0.523 0.133-0.827 0.78-0.679 0.57-0.882 0.78 0.601 0.476 0.78 0.429-0.874 0.195-0.983-0.133-0.624 0.468 0.343 0.445-0.265 0.445 0.297 0.671-0.375 1.194 1.179 0.78-0.476 0.421-0.64 0.78 0.445-0.414-5.893-5.807-5.058c-0.034 0.002-0.074 0.004-0.114 0.004-0.96 0-1.748-0.741-1.821-1.683l-0-0.006-0.382-5.463-12.699 0.921c-0.93 0.092-1.651 0.871-1.651 1.818 0 0.044 0.002 0.088 0.005 0.131l-0-0.006 1.428 20.293 0.219-0.578z"></path><path fill="#b0b7bd" d="M20.956 7.664l5.463-0.382-7.789-6.743 0.382 5.463c0.085 0.938 0.867 1.667 1.819 1.667 0.044 0 0.087-0.002 0.13-0.005l-0.006 0z"></path><path fill="#cad1d8" d="M26.779 12.722l-0.382-5.44-5.44 0.382 5.822 5.058z"></path><path fill="#e2e5e7" d="M26.295 29.791c0.008 0 0.018 0 0.028 0 0.376 0 0.698-0.234 0.828-0.564l0.002-0.006c0.002-0.030 0.004-0.066 0.004-0.101s-0.001-0.071-0.004-0.106l0 0.005h-21.549c0.073 0.879 0.805 1.564 1.696 1.564 0.035 0 0.070-0.001 0.104-0.003l-0.005 0h1.834v-0.78z"></path><path fill="#cad1d8" d="M7.61 30.587h-0.976c-0.016 0.001-0.036 0.002-0.055 0.002-0.518 0-0.94-0.414-0.952-0.929l-0-0.001v-0.898c0 0.089 0.015 0.175 0.041 0.256l-0.002-0.006c0.168 0.903 0.95 1.577 1.889 1.577 0.019 0 0.038-0 0.057-0.001l-0.003 0z"></path><path fill="#cad1d8" d="M5.643 29.003c0.141 0.386 0.506 0.657 0.933 0.657 0.020 0 0.041-0.001 0.061-0.002l-0.003 0h19.067v0.921h-18.076c-0.020 0.001-0.044 0.001-0.067 0.001-0.946 0-1.734-0.672-1.913-1.565l-0.002-0.012z"></path><path fill="#cad1d8" d="M25.186 30.587h0.999c0.012 0.001 0.025 0.001 0.039 0.001 0.516 0 0.936-0.414 0.944-0.929v-0.875c-0 0.087-0.014 0.17-0.041 0.247l0.002-0.006c-0.171 0.895-0.948 1.562-1.88 1.562-0.022 0-0.045-0-0.067-0.001l0.003 0z"></path><path fill="#cad1d8" d="M27.161 29.026c-0.144 0.382-0.506 0.648-0.93 0.648-0.011 0-0.021-0-0.032-0l0.002 0h-19.083v0.913h18.053c0.025 0.001 0.055 0.002 0.084 0.002 0.939 0 1.722-0.665 1.904-1.55l0.002-0.013z"></path></svg>