<svg version="1.1" xmlns="http://www.w3.org/2000/svg" width="32" height="32" viewBox="0 0 32 32"><path fill="#e2e5e7" d="M6.272 0.4c-1.075 0.005-1.946 0.876-1.948 1.952v27.3c0.005 1.074 0.874 1.943 1.948 1.948h19.5c1.076-0.002 1.947-0.873 1.952-1.948v-21.452l-7.8-7.8z"></path><path fill="#b0b7bd" d="M21.872 8.2h5.852l-7.8-7.8v5.852c0.005 1.074 0.874 1.943 1.948 1.948h0z"></path><path fill="#cad1d8" d="M27.724 14.052l-5.852-5.852h5.852z"></path><path fill="#cad1d8" d="M26.724 30.656h-18.96v0.992h18.96c0.004 0 0.008 0 0.012 0 0.541 0 0.981-0.436 0.988-0.975v-0.989c-0.009 0.539-0.448 0.972-0.988 0.972-0.004 0-0.009-0-0.013-0h0.001z"></path><path fill="#cad1d8" d="M5.328 30.656h19.024v0.992h-19.024c-0.005 0-0.010 0-0.016 0-0.541 0-0.981-0.436-0.988-0.976v-0.989c0.009 0.539 0.448 0.972 0.988 0.972 0.006 0 0.011-0 0.017-0h-0.001z"></path></svg>
