<svg id="Camada_1" data-name="Camada 1" xmlns="http://www.w3.org/2000/svg" viewBox="0 0 310 212.8"><path fill="#a6e2fe" d="M5.3,20.9V193.6c0,.6.1,1.2.1,1.5a2.07,2.07,0,0,1,.2.6.76.76,0,0,1,.2.4c.1.1.2.4.3.5a3.11,3.11,0,0,1,.4.6c.1.2.4.4.6.6s.5.4.7.6.6.4.7.6.5.3.7.4l.6.3c.1.1.4.2.5.3a1.07,1.07,0,0,0,.6.2,1.85,1.85,0,0,0,.7.2,3.78,3.78,0,0,0,1.2.1H298.6a5.07,5.07,0,0,0,1.3-.2,2.84,2.84,0,0,0,.9-.6c.2-.2.6-.4.7-.6s.4-.4.6-.4.4-.3.6-.5l.6-.6a2.65,2.65,0,0,1,.5-.6c.2-.1.3-.4.4-.6a3.33,3.33,0,0,0,.3-.6,2.09,2.09,0,0,1,.4-.6c.1-.1.2-.4.3-.5s.1-.4.1-.5V44.5c0-3.4-.1-6.6-.2-7.2a11.7,11.7,0,0,0-.5-2c-.2-.6-.5-1.2-.7-1.7a11,11,0,0,0-.9-1.4,14.93,14.93,0,0,0-1.2-1.4,9.34,9.34,0,0,0-1.5-1.3,17.68,17.68,0,0,0-1.7-1.2,16.45,16.45,0,0,0-1.9-1c-.6-.2-1.5-.6-2-.7a12.54,12.54,0,0,0-2.4-.5c-.8-.1-4.2-.2-7.5-.2l-40.2-.2c-3.4,0-8.9-.1-12.2-.1l-70.8-.4c-3.4,0-8.9-.1-12.2-.1L119.3,25a29.28,29.28,0,0,1-7.3-.7,12.7,12.7,0,0,1-2.1-1.5c-.6-.5-1.5-1.3-2.1-1.8a9.55,9.55,0,0,1-2.1-2.4c-.5-.8-1.4-2.2-1.9-3.1s-1.5-2.2-2-2.9A13.24,13.24,0,0,0,99,10.3a22.68,22.68,0,0,0-3.4-1.9,12.38,12.38,0,0,0-4.1-.9H19.1a11.59,11.59,0,0,0-4.5.9A23.75,23.75,0,0,0,11.4,10,14.37,14.37,0,0,0,9,12.1a8.7,8.7,0,0,0-1.8,2.6,22.88,22.88,0,0,1-1,2.3C5.6,17.6,5.3,19.4,5.3,20.9Z"/><path fill="#a6e2fe" d="M5.7,188.5H305.3V33.7a8.28,8.28,0,0,0-8.3-8.3H15.7a9.86,9.86,0,0,0-9.9,9.9C5.7,35.4,5.7,188.5,5.7,188.5Z"/><path fill="#8adff9" d="M299.5,200.7H11A5.76,5.76,0,0,1,5.3,195V44.4a4.48,4.48,0,0,1,4.5-4.5h289a6.44,6.44,0,0,1,6.4,6.4V195A5.76,5.76,0,0,1,299.5,200.7Z"/><path fill="#99d8f2" d="M301.3,206.9H9.1a3.8,3.8,0,0,1-3.8-3.8V190a.58.58,0,0,1,.6-.6H304.7a.58.58,0,0,1,.6.6v13.1A4.11,4.11,0,0,1,301.3,206.9Z"/><rect fill="#7edee8" x="5.7" y="190" width="299.5" height="5"/><rect fill="#7edee8" x="5.7" y="195.8" width="299.6" height="5.3"/><path fill="#7edee8" d="M301.9,207.4H8.7A3.37,3.37,0,0,1,5.3,204v-1.8h300V204A3.44,3.44,0,0,1,301.9,207.4Z"/></svg>
