<svg width="32" height="32" version="1.1" viewBox="0 0 32 32" xmlns="http://www.w3.org/2000/svg" stroke="currentColor"><path d="m3.307 3.147h0.093v24.253h-0.093v-24.253z" stroke="currentColor" stroke-linecap="round" stroke-linejoin="round" stroke-width="2"/><path stroke="currentColor" fill="currentColor" stroke-linecap="round" stroke-linejoin="round" stroke-width="0.5" d="m18.572 2.2734a1.2068 1.2068 0 0 0 -1.2051 1.207v24.252a1.2068 1.2068 0 0 0 1.2051 1.207h0.09375a1.2068 1.2068 0 0 0 1.207 -1.207v-24.252a1.2068 1.2068 0 0 0 -1.207 -1.207z"/><path stroke="currentColor" fill="currentColor" d="m4.5879 13.84a1.1735 1.1735 0 0 0 -1.1738 1.1738v0.16016a1.1735 1.1735 0 0 0 1.1738 1.1719h13.652a1.1735 1.1735 0 0 0 1.1738 -1.1719v-0.16016a1.1735 1.1735 0 0 0 -1.1738 -1.1738z"/><g transform="scale(.97755 1.023)" aria-label="3" stroke="currentColor" fill="currentColor"><path d="m25.69 19.399q0.8578 0 1.4732-0.50349 0.6247-0.50349 0.6247-1.4452 0-0.71794-0.49417-1.2308-0.49417-0.52214-1.3333-0.52214-0.56876 0-0.94171 0.15851-0.36363 0.15851-0.57808 0.41958-0.21445 0.26107-0.41025 0.67132-0.18648 0.41025-0.34498 0.77388-0.09324 0.1958-0.33566 0.30769-0.24242 0.11189-0.55943 0.11189-0.37296 0-0.68997-0.29836-0.30769-0.30769-0.30769-0.81118 0-0.48484 0.28904-1.0163 0.29836-0.54078 0.8578-1.0256 0.56876-0.48484 1.4079-0.77388 0.83915-0.29836 1.8741-0.29836 0.90442 0 1.6503 0.25174 0.74591 0.24242 1.296 0.70862 0.55011 0.46619 0.82983 1.0816 0.27972 0.61538 0.27972 1.324 0 0.93239-0.41025 1.6037-0.40093 0.662-1.1562 1.296 0.72726 0.3916 1.2214 0.89509 0.50349 0.50349 0.75524 1.1189 0.25174 0.60605 0.25174 1.3147 0 0.84847-0.34498 1.641-0.33566 0.79253-0.99766 1.4172-0.662 0.61538-1.5757 0.96968-0.90442 0.34498-2.0046 0.34498-1.1189 0-2.0046-0.40093-0.88577-0.40093-1.4638-0.99766-0.56876-0.60605-0.86712-1.2494-0.28904-0.64335-0.28904-1.0629 0-0.54079 0.34498-0.86712 0.35431-0.33566 0.87644-0.33566 0.26107 0 0.50349 0.15851 0.24242 0.14918 0.31701 0.36363 0.48484 1.296 1.035 1.93 0.55943 0.6247 1.5664 0.6247 0.57808 0 1.1095-0.27972 0.54078-0.28904 0.88577-0.84847 0.35431-0.55943 0.35431-1.296 0-1.0909-0.59673-1.7063-0.59673-0.6247-1.6597-0.6247-0.18648 0-0.57808 0.0373t-0.50349 0.0373q-0.51281 0-0.79253-0.25174-0.27972-0.26107-0.27972-0.71794 0-0.44755 0.33566-0.71794 0.33566-0.27972 0.99766-0.27972z" stroke-width="1.023"/></g></svg>
