<svg version="1.1" xmlns="http://www.w3.org/2000/svg" width="32" height="32" viewBox="0 0 32 32"><path fill="#fff" stroke="currentColor" stroke-width="2.4133" stroke-miterlimit="4" stroke-linecap="round" stroke-linejoin="round" d="M3.307 3.147h0.093v24.253h-0.093v-24.253z"></path><path fill="#fff" stroke="currentColor" stroke-width="2.4133" stroke-miterlimit="4" stroke-linecap="round" stroke-linejoin="round" d="M18.573 3.48h0.093v24.253h-0.093v-24.253z"></path><path fill="#fff" stroke="currentColor" stroke-width="2.3467" stroke-miterlimit="4" stroke-linecap="round" stroke-linejoin="round" d="M4.587 15.013h13.653v0.16h-13.653v-0.16z"></path><path fill="#fff" d="M28.533 20.773v0c0.387-2.053-3.627-4.24-5.88-0.627v-0.147c2.253-3.573 6.28-1.333 5.88 0.773z"></path><path fill="none" stroke="currentColor" stroke-width="1.8667" stroke-miterlimit="4" stroke-linecap="round" stroke-linejoin="round" d="M28.533 20.773v0c0.387-2.053-3.627-4.24-5.88-0.627v-0.147c2.253-3.573 6.28-1.333 5.88 0.773z"></path><path fill="#fff" stroke="currentColor" stroke-width="1.8667" stroke-miterlimit="4" stroke-linecap="round" stroke-linejoin="round" d="M22.68 27.347h5.907v0.133h-5.907v-0.133z"></path><path fill="#fff" d="M22.52 27.453v0c3.12-3.8 7.6-5.907 5.493-8.213v0c2.067 2.32-2.413 4.413-5.493 8.213z"></path><path fill="none" stroke="currentColor" stroke-width="1.8667" stroke-miterlimit="4" stroke-linecap="round" stroke-linejoin="round" d="M22.52 27.453v0c3.12-3.8 7.6-5.907 5.493-8.213v0c2.067 2.32-2.413 4.413-5.493 8.213z"></path></svg>