<?xml version="1.0" encoding="UTF-8"?><svg viewBox="0 0 37 32" width="37px" height="32px" xmlns="http://www.w3.org/2000/svg" xmlns:xlink="http://www.w3.org/1999/xlink"><path fill="#fff" d="M21.812 3.3c0 0 0 0 0 0l-18.081 2.726c-0.287 0-0.574 0.287-0.574 0.574v19.229c0 0.287 0.287 0.43 0.574 0.574l18.081 2.726c0.143 0 0.43 0 0.574-0.143s0.287-0.287 0.287-0.43v-2.583h10.906c0.718 0 1.291-0.43 1.291-1.004v-17.65c0-0.574-0.574-1.004-1.291-1.004h-10.906v-2.583c0-0.143-0.143-0.287-0.287-0.43-0.143 0-0.43-0.143-0.574 0zM21.238 4.305v2.296c-0.143 0.144-0.143 0.287 0 0.431v18.224c0 0 0 0.143 0 0.143v2.439l-16.789-2.439v-18.511l16.789-2.583zM22.529 7.318h10.906v17.507h-10.906v-2.583h2.583v-1.004h-2.583v-3.157h2.583v-0.861h-2.583v-2.583h2.583v-1.004h-2.583v-2.583h2.583v-1.148h-2.583v-2.583zM26.404 9.901v1.004h5.166v-1.004h-5.166zM7.605 11.336l3.587 4.879-4.018 4.735h3.157l2.152-3.157c0.143-0.287 0.287-0.574 0.287-0.718v0c0.143 0.287 0.143 0.574 0.287 0.718l2.152 3.157h3.157l-3.731-4.879 3.587-4.735h-3.013l-1.865 2.87c-0.143 0.431-0.287 0.717-0.431 0.861v0c-0.143-0.287-0.287-0.574-0.431-0.861l-1.722-2.87h-3.157zM26.404 13.632v1.004h5.166v-1.004h-5.166zM26.404 17.22v1.004h5.166v-1.004h-5.166zM26.404 21.381v1.004h5.166v-1.004h-5.166z"></path><path fill="#fff" d="M21.955 29.848c-0.143 0-0.143 0-0.287 0l-18.081-2.87c-0.718-0.143-1.148-0.574-1.148-1.291v-19.229c0-0.574 0.43-1.148 1.148-1.291l18.081-2.726c0.287 0 0.718 0 1.004 0.287s0.574 0.574 0.574 1.004v1.865h10.188c1.148 0 2.009 0.718 2.009 1.722v17.507c0 1.004-0.861 1.722-2.009 1.722h-10.188v1.865c0 0.43-0.143 0.718-0.574 1.004-0.143 0.287-0.43 0.43-0.718 0.43zM5.166 24.682l15.354 2.296v-1.435c0-0.143 0-0.287 0-0.287v-18.081c-0.143-0.287-0.143-0.574 0-0.718v-1.291l-15.354 2.439v17.076zM23.247 24.251h9.471v-16.215h-9.471v1.148h9.040v2.439h-9.040v1.291h9.040v2.439h-9.040v1.148h9.040v2.439h-9.040v1.722h9.040v2.439h-9.040v1.148zM19.803 21.668h-5.022l-2.009-3.013-2.009 3.013h-5.022l4.448-5.596-4.018-5.453h5.166l1.722 2.87 1.865-2.87h4.879l-4.161 5.453 4.161 5.596zM15.498 20.233h1.435l-3.157-4.161 3.013-4.018h-1.148l-1.722 2.583c-0.143 0.287-0.287 0.574-0.287 0.717l-0.143 0.431h-1.004l-0.143-0.431c-0.143-0.287-0.143-0.574-0.287-0.717l-1.578-2.583h-1.435l3.013 4.161-3.3 4.161h1.291l1.865-2.87c0-0.143 0.143-0.287 0.143-0.43l0.143-0.574h1.148l0.143 0.574c0.143 0.287 0.143 0.43 0.143 0.43l1.865 2.726z"></path></svg>
