<svg version="1.1" xmlns="http://www.w3.org/2000/svg" width="32" height="32" viewBox="0 0 32 32"><path fill="#e2e5e7" d="M16.231 2.388c-0.741 0.002-1.342 0.603-1.344 1.344v18.825c0.002 0.741 0.603 1.342 1.344 1.344h13.447c0.741-0.002 1.342-0.603 1.344-1.344v-14.791l-5.379-5.379z"></path><path fill="#b0b7bd" d="M26.988 7.766h4.034l-5.379-5.379v4.034c0.002 0.742 0.603 1.343 1.345 1.345h0z"></path><path fill="#cad1d8" d="M31.022 7.766v4.034l-4.034-4.034h4.034z"></path><path fill="#e2e5e7" d="M9.777 6.131c-0.741 0.002-1.342 0.603-1.344 1.344v18.825c0.002 0.741 0.603 1.342 1.344 1.344h13.447c0.741-0.002 1.342-0.603 1.344-1.344v-14.792l-5.381-5.378z"></path><path fill="#b0b7bd" d="M20.535 11.509h4.034l-5.381-5.378v4.034c0.003 0.743 0.605 1.344 1.347 1.344h0z"></path><path fill="#cad1d8" d="M20.535 11.509h4.034v4.034l-4.034-4.034z"></path><path fill="#e2e5e7" d="M2.474 9.491c-0.741 0.002-1.342 0.603-1.344 1.344v18.825c0.002 0.741 0.603 1.342 1.344 1.344h13.446c0.741-0.002 1.342-0.603 1.344-1.344v-14.792l-5.379-5.379z"></path><path fill="#b0b7bd" d="M13.231 14.869h4.034l-5.379-5.379v4.034c0.002 0.742 0.603 1.342 1.345 1.344h0z"></path><path fill="#cad1d8" d="M13.231 14.869h4.034v4.034l-4.034-4.034z"></path></svg>