<svg width="39" height="38" viewBox="0 0 39 38" fill="none" xmlns="http://www.w3.org/2000/svg">
<path d="M2.77734 16.0664C3.8125 16.0664 4.55469 15.2852 4.55469 14.25V12.6094L4.16406 5.79297L9.30078 11.2031L15.3164 17.2578C15.6484 17.6094 16.0781 17.7656 16.5469 17.7656C17.6602 17.7656 18.4805 17.043 18.4805 15.9492C18.4805 15.4219 18.3047 14.9531 17.9531 14.6016L11.918 8.58594L6.50781 3.44922L13.3438 3.83984H14.9648C16 3.83984 16.8008 3.11719 16.8008 2.0625C16.8008 1.00781 16.0195 0.265625 14.9648 0.265625H4.125C2.13281 0.265625 0.980469 1.41797 0.980469 3.41016V14.25C0.980469 15.2656 1.74219 16.0664 2.77734 16.0664ZM24.2031 37.5312H35.043C37.0352 37.5312 38.207 36.3789 38.207 34.3867V23.5469C38.207 22.5312 37.4453 21.7305 36.3906 21.7305C35.375 21.7305 34.6133 22.5117 34.6133 23.5469V25.1875L35.0234 32.0039L29.8672 26.5938L23.8711 20.5391C23.5391 20.1875 23.0898 20.0312 22.6211 20.0312C21.5273 20.0312 20.6875 20.7539 20.6875 21.8477C20.6875 22.375 20.8828 22.8438 21.2344 23.1953L27.25 29.2109L32.6797 34.3477L25.8438 33.957H24.2031C23.168 33.957 22.3672 34.6797 22.3672 35.7344C22.3672 36.7891 23.168 37.5312 24.2031 37.5312Z" fill="black"/>
</svg>
