<svg aria-hidden="true" version="1.1" viewBox="0 0 23 32" xmlns="http://www.w3.org/2000/svg" xmlns:xlink="http://www.w3.org/1999/xlink">
<path fill="#c43d8c" d="M19.514 24.866c0-0.464-0.356-0.711-0.984-0.711-0.020-0-0.043-0.001-0.066-0.001-0.186 0-0.368 0.013-0.547 0.039l0.020-0.002v1.433h0.456c0.731 0 1.121-0.302 1.121-0.759z"></path>
<path fill="#c43d8c" d="M18.413 26.616h-0.475v1.731c0.124 0.013 0.269 0.020 0.415 0.020 0.043 0 0.086-0.001 0.129-0.002l-0.006 0c0.629 0 1.188-0.237 1.188-0.884-0.002-0.619-0.558-0.866-1.25-0.866z"></path>
<path fill="#c43d8c" d="M12.244 24.211c-0.019-0-0.041-0.001-0.063-0.001-0.2 0-0.395 0.020-0.584 0.059l0.019-0.003v4.018c0.116 0.019 0.249 0.029 0.384 0.029 0.034 0 0.069-0.001 0.103-0.002l-0.005 0c1.258 0.009 2.078-0.683 2.078-2.15 0.012-1.276-0.738-1.951-1.932-1.951z"></path>
<path fill="#c43d8c" d="M23.289 7.669c0-0.001 0-0.002 0-0.004 0-0.154-0.056-0.295-0.149-0.404l0.001 0.001-6.171-7.048s0 0-0.005-0.004c-0.037-0.040-0.078-0.074-0.123-0.103l-0.002-0.002c-0.014-0.009-0.027-0.017-0.041-0.024-0.036-0.020-0.077-0.037-0.12-0.051l-0.005-0.001c-0.012-0.003-0.022-0.008-0.034-0.011-0.042-0.011-0.090-0.017-0.14-0.018h-15.166c-0.693 0.001-1.254 0.562-1.255 1.255v29.49c0.001 0.693 0.562 1.254 1.255 1.255h20.706c0.693-0.001 1.254-0.562 1.255-1.255v-23.006c-0.001-0.026-0.003-0.050-0.007-0.074l0 0.004zM7.798 29.331l-0.091-2.35c-0.027-0.738-0.054-1.631-0.054-2.524h-0.027c-0.191 0.783-0.447 1.658-0.684 2.375l-0.75 2.396h-1.082l-0.656-2.375c-0.2-0.72-0.41-1.594-0.556-2.396h-0.018c-0.036 0.829-0.063 1.777-0.109 2.543l-0.109 2.332h-1.286l0.393-6.145h1.85l0.601 2.050c0.191 0.711 0.383 1.476 0.519 2.196h0.027c0.173-0.711 0.383-1.522 0.583-2.205l0.656-2.041h1.813l0.337 6.141h-1.356zM14.631 28.602c-0.647 0.538-1.631 0.793-2.834 0.793-0.028 0-0.060 0-0.093 0-0.523 0-1.039-0.033-1.544-0.098l0.060 0.006v-6.032c0.529-0.080 1.139-0.126 1.759-0.126 0.041 0 0.081 0 0.122 0.001l-0.006-0c1.166 0 1.922 0.209 2.514 0.656 0.638 0.474 1.039 1.23 1.039 2.313 0.002 1.175-0.425 1.986-1.018 2.487zM20.481 28.839c-0.447 0.356-1.194 0.556-2.414 0.556-0.030 0-0.066 0-0.101 0-0.495 0-0.981-0.033-1.458-0.098l0.056 0.006v-6.032c0.365-0.073 1.102-0.125 1.795-0.125 0.848 0 1.367 0.082 1.813 0.346 0.441 0.225 0.738 0.675 0.738 1.195 0 0.003 0 0.006-0 0.008v-0c0 0.546-0.319 1.057-1.012 1.313v0.018c0.702 0.191 1.221 0.72 1.221 1.512 0 0.001 0 0.003 0 0.004 0 0.526-0.248 0.993-0.633 1.293l-0.004 0.003zM1.334 21.308v-20.052h14.536v6.421c0 0.345 0.28 0.625 0.625 0.625v0h5.543v13.007z"></path>
<path fill="#c43d8c" d="M20.148 11.031c-0.055-0.053-0.131-0.086-0.214-0.086-0.030 0-0.058 0.004-0.085 0.012l0.002-0.001-1.231 0.344c-0.053 0.015-0.099 0.042-0.135 0.079v0l-0.273 0.274c-0.029 0.029-0.047 0.068-0.048 0.112v0l-0.016 0.47h-0.418c-0 0-0 0-0.001 0-0.046 0-0.087 0.019-0.117 0.049v0c-0.029 0.029-0.047 0.069-0.049 0.112v0l-0.015 0.438h-0.371c-0.090 0-0.163 0.072-0.167 0.161v0l-0.013 0.389h-0.379c-0.091 0.004-0.129-0.008-0.175 0.038l-0.011 0.011c-0.025 0.042-0.040 0.092-0.040 0.146 0 0.008 0 0.016 0.001 0.023l-0-0.001-0.014 0.403h-0.449c-0 0-0 0-0.001 0-0.046 0-0.087 0.019-0.117 0.049v0l-0.688 0.688c-0.254-0.106-0.55-0.168-0.86-0.168-1.261 0-2.283 1.022-2.283 2.282s1.022 2.282 2.283 2.282c1.261 0 2.283-1.022 2.283-2.282 0-0.248-0.040-0.488-0.113-0.712l0.005 0.016 3.387-3.388c0.038-0.038 0.066-0.086 0.080-0.14l0-0.002 0.324-1.304c0.006-0.022 0.009-0.047 0.009-0.074 0-0.086-0.035-0.164-0.091-0.221v0zM14.447 18.188c-0.244 0.244-0.796 0.104-1.204-0.305s-0.549-0.964-0.306-1.208 0.795-0.104 1.204 0.306 0.549 0.961 0.306 1.207zM16.11 15.33l3.246-3.247 0.111 0.111-3.25 3.247zM16.427 15.648l-0.051-0.052 3.249-3.249 0.052 0.052z"></path>
<path fill="#c43d8c" d="M11.587 16.709h-6.813v-6.364h12.698v1.445c0.096-0.097 0.211-0.175 0.338-0.23l0.007-0.003c0.060-0.158 0.149-0.293 0.262-0.404l0-0 0.25-0.25v-3.063h-14.412v9.725h7.699c-0.029-0.163-0.046-0.352-0.046-0.544 0-0.11 0.005-0.219 0.016-0.327l-0.001 0.014z"></path>
<path fill="#c43d8c" d="M7.43 11.656h7.389v0.953h-7.389v-0.953z"></path>
<path fill="#c43d8c" d="M7.43 15.041h4.829c0.083-0.107 0.166-0.201 0.254-0.291l-0.001 0.001c0.277-0.273 0.604-0.497 0.967-0.655l0.021-0.008h-6.069z"></path>
</svg>
