<svg width="40" height="40" viewBox="0 0 40 40" fill="none" xmlns="http://www.w3.org/2000/svg">
<path d="M4.49609 18.0234H15.3359C17.3281 18.0234 18.4805 16.8516 18.4805 14.8594V4.03906C18.4805 3.02344 17.7188 2.22266 16.6836 2.22266C15.6484 2.22266 14.9062 3.00391 14.9062 4.03906V5.67969L15.3164 12.4961L10.1602 7.08594L4.16406 1.03125C3.83203 0.679688 3.38281 0.503906 2.91406 0.503906C1.80078 0.503906 0.980469 1.24609 0.980469 2.33984C0.980469 2.84766 1.17578 3.33594 1.52734 3.6875L7.54297 9.70312L12.9531 14.8398L6.13672 14.4492H4.49609C3.46094 14.4492 2.66016 15.1719 2.66016 16.2266C2.66016 17.2617 3.44141 18.0234 4.49609 18.0234ZM23.2266 37.8477C24.2617 37.8477 25.0039 37.0859 25.0039 36.0312V34.1758L24.5938 27.3789L29.75 32.7891L35.8828 38.9609C36.2148 39.3125 36.6445 39.4883 37.1328 39.4883C38.2266 39.4883 39.0469 38.7461 39.0469 37.6523C39.0469 37.1445 38.8711 36.6562 38.5195 36.3047L32.3672 30.1523L26.9375 25.0156L33.7734 25.4062H35.6289C36.6641 25.4062 37.4648 24.6836 37.4648 23.6484C37.4648 22.5938 36.6836 21.8516 35.6289 21.8516H24.5742C22.582 21.8516 21.4297 23.0039 21.4297 24.9961V36.0312C21.4297 37.0664 22.1719 37.8477 23.2266 37.8477Z" fill="black"/>
</svg>
