<svg aria-hidden="true" viewBox="0 0 32 32" version="1.1" xmlns="http://www.w3.org/2000/svg" xmlns:xlink="http://www.w3.org/1999/xlink">
<path fill="#2e7237" d="M6.404 23.163v-14.326l11.075-2.005v18.336l-11.075-2.005zM17.92 9.216h7.616l0.002 13.695h-7.618v-3.583l1.907 1.711 2.088-2.054-2.095-2.204-1.905 1.667 0.005-5.84h4.352v2.816h-1.6l2.108 2.182 2.052-2.182h-1.537v-3.904h-5.375v-2.304zM3.775 28.288h24.448v-24.446l-24.448-0.002v24.448z"></path>
<path fill="#2e7237" d="M11.456 14.016c0.802-0.029 1.274 0.009 1.293 0.932-0.002 0.898-0.444 1.003-1.29 1.003l-0.004-1.936zM10.368 12.928v6.208l1.083 0.080 0.014-2.164c1.615 0.015 2.505-0.544 2.505-2.197-0.016-2.48-1.87-2.001-3.603-1.927z"></path>
</svg>
