<svg version="1.1" xmlns="http://www.w3.org/2000/svg" width="32" height="32" viewBox="0 0 32 32"><path fill="#fff" stroke="currentColor" stroke-width="2.0400" stroke-miterlimit="4" stroke-linecap="round" stroke-linejoin="round" d="M23.72 4.093h-6.813c-0.943 0-1.707 0.764-1.707 1.707v0 0 13.613c0 0.943 0.764 1.707 1.707 1.707v0h10.213c0.943 0 1.707-0.764 1.707-1.707v0-10.213z"></path><path fill="none" stroke="currentColor" stroke-width="2.6667" stroke-miterlimit="4" stroke-linecap="round" stroke-linejoin="round" d="M23.72 4.093v5.107h5.107"></path><path fill="none" stroke="currentColor" stroke-width="2.0400" stroke-miterlimit="4" stroke-linecap="round" stroke-linejoin="round" d="M25.413 13.453h-6.8"></path><path fill="none" stroke="currentColor" stroke-width="2.0400" stroke-miterlimit="4" stroke-linecap="round" stroke-linejoin="round" d="M25.413 16.853h-6.8"></path><path fill="none" stroke="currentColor" stroke-width="2.6667" stroke-miterlimit="4" stroke-linecap="round" stroke-linejoin="round" d="M20.307 10.053h-1.693"></path><path fill="#fff" stroke="currentColor" stroke-width="2.0400" stroke-miterlimit="4" stroke-linecap="round" stroke-linejoin="round" d="M13.333 9.067h-8.12c0 0-0 0-0 0-1.122 0-2.032 0.906-2.040 2.026v16.281c0 1.127 0.913 2.040 2.040 2.040h12.2c1.127 0 2.040-0.913 2.040-2.040v0-12.213z"></path><path fill="none" stroke="currentColor" stroke-width="2.6667" stroke-miterlimit="4" stroke-linecap="round" stroke-linejoin="round" d="M13.347 9.053v6.107h6.107"></path><path fill="none" stroke="currentColor" stroke-width="2.0400" stroke-miterlimit="4" stroke-linecap="round" stroke-linejoin="round" d="M15.387 20.253h-8.133"></path><path fill="none" stroke="currentColor" stroke-width="2.0400" stroke-miterlimit="4" stroke-linecap="round" stroke-linejoin="round" d="M15.387 24.32h-8.133"></path><path fill="none" stroke="currentColor" stroke-width="2.6667" stroke-miterlimit="4" stroke-linecap="round" stroke-linejoin="round" d="M9.28 16.187h-2.027"></path></svg>