<svg aria-hidden="true" viewBox="0 0 28 32" version="1.1" xmlns="http://www.w3.org/2000/svg" xmlns:xlink="http://www.w3.org/1999/xlink">
<path fill="#e9e9e0" d="M5.561 0.345c-0.004-0-0.009-0-0.014-0-0.97 0-1.757 0.783-1.765 1.751v28.045c0.008 0.969 0.795 1.752 1.765 1.752 0.005 0 0.010-0 0.015-0h20.439c0.004 0 0.009 0 0.015 0 0.97 0 1.757-0.783 1.765-1.751v-21.681l-8.564-8.119z"></path>
<path fill="#d9d7ca" d="M27.778 8.23h-6.791c-0.982 0-1.779-0.762-1.779-1.703v-6.183z"></path>
<path fill="#d06a28" d="M19.077 19.797c0 0 0 0.001 0 0.001 0 1.133-0.918 2.051-2.051 2.051h-14.976c-1.133 0-2.051-0.918-2.051-2.051 0-0 0-0.001 0-0.001v0-6.269c0-1.133 0.918-2.051 2.051-2.051h14.976c1.133 0 2.051 0.918 2.051 2.051v0z"></path>
<path fill="#fff" d="M5.317 14.719c0.017-0.001 0.038-0.001 0.059-0.001 0.386 0 0.749 0.098 1.065 0.27l-0.012-0.006c0.306 0.173 0.548 0.43 0.7 0.738l0.004 0.010c0.151 0.317 0.24 0.689 0.24 1.081 0 0.020-0 0.040-0.001 0.061l0-0.003c0 0.010 0 0.022 0 0.034 0 0.302-0.048 0.592-0.137 0.864l0.006-0.020c-0.087 0.265-0.221 0.494-0.394 0.687l0.002-0.002c-0.174 0.192-0.389 0.343-0.631 0.441l-0.012 0.004c-0.247 0.097-0.532 0.154-0.831 0.154-0.013 0-0.025-0-0.038-0l0.002 0c-0.011 0-0.025 0-0.038 0-0.302 0-0.59-0.058-0.854-0.164l0.016 0.005c-0.255-0.102-0.471-0.253-0.645-0.444l-0.001-0.001c-0.172-0.193-0.305-0.423-0.387-0.677l-0.004-0.013c-0.084-0.253-0.132-0.545-0.132-0.848 0-0.009 0-0.018 0-0.026v0.001c-0-0.009-0-0.020-0-0.032 0-0.304 0.051-0.597 0.144-0.869l-0.006 0.019c0.089-0.265 0.225-0.493 0.401-0.684l-0.001 0.001c0.174-0.186 0.387-0.332 0.626-0.427l0.012-0.004c0.242-0.095 0.522-0.15 0.816-0.15 0.012 0 0.024 0 0.036 0l-0.002-0zM6.519 16.864c0-0.014 0.001-0.030 0.001-0.047 0-0.27-0.055-0.527-0.153-0.76l0.005 0.013c-0.089-0.212-0.235-0.386-0.418-0.506l-0.004-0.003c-0.173-0.108-0.384-0.173-0.609-0.173-0.008 0-0.015 0-0.023 0l0.001-0c-0.003-0-0.007-0-0.011-0-0.165 0-0.322 0.035-0.464 0.099l0.007-0.003c-0.147 0.066-0.271 0.16-0.369 0.277l-0.001 0.002c-0.108 0.131-0.192 0.286-0.242 0.456l-0.002 0.009c-0.057 0.181-0.090 0.39-0.090 0.607 0 0.010 0 0.021 0 0.031l-0-0.002c-0 0.008-0 0.018-0 0.028 0 0.219 0.033 0.431 0.094 0.63l-0.004-0.015c0.054 0.183 0.141 0.342 0.254 0.478l-0.002-0.002c0.102 0.119 0.227 0.215 0.369 0.28l0.007 0.003c0.137 0.059 0.296 0.094 0.463 0.094 0.22 0 0.427-0.060 0.604-0.165l-0.005 0.003c0.19-0.12 0.339-0.291 0.43-0.493l0.003-0.007c0.103-0.229 0.163-0.496 0.163-0.778 0-0.019-0-0.039-0.001-0.058l0 0.003z"></path>
<path fill="#fff" d="M8.621 14.792h1.101c0.016-0 0.035-0 0.054-0 0.243 0 0.478 0.029 0.704 0.084l-0.020-0.004c0.216 0.058 0.403 0.162 0.557 0.3l-0.001-0.001q0.652 0.556 0.652 1.695c0 0.007 0 0.016 0 0.025 0 0.234-0.024 0.462-0.069 0.682l0.004-0.022c-0.044 0.21-0.114 0.396-0.208 0.567l0.005-0.011c-0.096 0.172-0.212 0.319-0.349 0.444l-0.001 0.001c-0.105 0.095-0.226 0.176-0.358 0.238l-0.009 0.004c-0.124 0.058-0.268 0.102-0.419 0.127l-0.009 0.001c-0.147 0.023-0.317 0.037-0.489 0.037-0.009 0-0.019-0-0.028-0h-1.1c-0.013 0.001-0.028 0.001-0.043 0.001-0.111 0-0.215-0.026-0.308-0.072l0.004 0.002c-0.074-0.043-0.129-0.112-0.152-0.195l-0.001-0.002c-0.023-0.089-0.036-0.191-0.036-0.296 0-0.013 0-0.026 0.001-0.040l-0 0.002v-3.050c-0.004-0.024-0.007-0.051-0.007-0.079 0-0.246 0.199-0.445 0.445-0.445 0.029 0 0.057 0.003 0.084 0.008l-0.003-0zM8.948 15.459v2.831h0.641c0.14 0 0.25 0 0.334-0.011 0.092-0.009 0.176-0.029 0.255-0.059l-0.007 0.002c0.086-0.030 0.16-0.073 0.223-0.129l-0.001 0.001q0.424-0.358 0.424-1.235 0-0.617-0.186-0.924c-0.099-0.182-0.26-0.321-0.454-0.39l-0.006-0.002c-0.184-0.054-0.396-0.085-0.616-0.085-0.015 0-0.031 0-0.046 0l0.002-0h-0.556z"></path>
<path fill="#fff" d="M14.028 17.336h-0.779v1.181c0.001 0.011 0.001 0.025 0.001 0.038 0 0.131-0.045 0.252-0.121 0.347l0.001-0.001c-0.077 0.080-0.185 0.13-0.304 0.13s-0.227-0.050-0.304-0.13l-0-0c-0.071-0.092-0.113-0.209-0.113-0.336 0-0.016 0.001-0.031 0.002-0.046l-0 0.002v-3.214c-0.002-0.016-0.003-0.034-0.003-0.052 0-0.133 0.049-0.254 0.131-0.347l-0.001 0.001c0.097-0.076 0.222-0.121 0.356-0.121 0.018 0 0.036 0.001 0.053 0.002l-0.002-0h1.083c0.026-0.001 0.057-0.001 0.089-0.001 0.231 0 0.455 0.028 0.67 0.080l-0.019-0.004c0.172 0.046 0.322 0.128 0.446 0.237l-0.001-0.001c0.122 0.109 0.218 0.244 0.28 0.397l0.003 0.007c0.061 0.153 0.097 0.329 0.097 0.515 0 0.008-0 0.016-0 0.024v-0.001q0 0.637-0.393 0.965t-1.172 0.33zM13.823 15.424h-0.569v1.275h0.569c0.012 0 0.026 0 0.041 0 0.163 0 0.321-0.023 0.471-0.066l-0.012 0.003c0.125-0.035 0.23-0.107 0.305-0.203l0.001-0.001c0.067-0.096 0.106-0.216 0.106-0.344 0-0.010-0-0.020-0.001-0.030l0 0.001c0-0.006 0-0.014 0-0.022 0-0.163-0.062-0.312-0.163-0.424l0 0.001q-0.182-0.19-0.748-0.189z"></path>
</svg>
