<svg aria-hidden="true" viewBox="0 0 28 32" version="1.1" xmlns="http://www.w3.org/2000/svg" xmlns:xlink="http://www.w3.org/1999/xlink">
<path fill="#e9e9e0" d="M5.561 0.456c-0.005-0-0.011-0-0.017-0-0.968 0-1.753 0.78-1.763 1.745v27.939c0.009 0.966 0.794 1.746 1.762 1.746 0.006 0 0.013-0 0.019-0h20.44c0.005 0 0.012 0 0.018 0 0.968 0 1.753-0.78 1.762-1.745v-21.599l-8.564-8.087z"></path>
<path fill="#d9d7ca" d="M27.779 8.119h-6.791c-0.982 0-1.779-0.741-1.779-1.655v-6.008z"></path>
<path fill="#a1b13a" d="M19.077 19.797c0 0 0 0.001 0 0.001 0 1.133-0.918 2.051-2.051 2.051h-14.976c-1.133 0-2.051-0.918-2.051-2.051 0-0 0-0.001 0-0.001v0-6.269c0-1.133 0.918-2.051 2.051-2.051h14.976c1.133 0 2.051 0.918 2.051 2.051v0z"></path>
<path fill="#fff" d="M5.319 14.719c0.018-0.001 0.039-0.001 0.060-0.001 0.385 0 0.748 0.098 1.064 0.27l-0.012-0.006c0.306 0.173 0.548 0.43 0.7 0.738l0.004 0.010c0.151 0.317 0.24 0.689 0.24 1.081 0 0.020-0 0.040-0.001 0.061l0-0.003c0 0.010 0 0.022 0 0.034 0 0.302-0.048 0.592-0.137 0.864l0.006-0.020c-0.087 0.265-0.221 0.494-0.394 0.687l0.002-0.002c-0.174 0.192-0.389 0.343-0.631 0.441l-0.012 0.004c-0.246 0.097-0.531 0.153-0.829 0.153-0.014 0-0.028-0-0.042-0l0.002 0c-0.011 0-0.025 0-0.038 0-0.302 0-0.59-0.058-0.854-0.164l0.016 0.005c-0.255-0.102-0.471-0.253-0.645-0.444l-0.001-0.001c-0.172-0.193-0.306-0.423-0.388-0.677l-0.004-0.013c-0.084-0.254-0.132-0.547-0.132-0.851 0-0.008 0-0.015 0-0.023v0.001c-0-0.009-0-0.020-0-0.030 0-0.305 0.051-0.598 0.144-0.871l-0.006 0.019c0.090-0.265 0.226-0.493 0.402-0.684l-0.001 0.001c0.174-0.186 0.387-0.332 0.626-0.427l0.012-0.004c0.241-0.095 0.52-0.149 0.812-0.149 0.014 0 0.027 0 0.041 0l-0.002-0zM6.519 16.864c0-0.014 0.001-0.030 0.001-0.047 0-0.27-0.055-0.527-0.153-0.76l0.005 0.013c-0.089-0.212-0.234-0.386-0.418-0.506l-0.004-0.003c-0.173-0.108-0.383-0.173-0.608-0.173-0.007 0-0.015 0-0.022 0l0.001-0c-0.003-0-0.007-0-0.011-0-0.165 0-0.323 0.035-0.464 0.099l0.007-0.003c-0.147 0.066-0.271 0.16-0.369 0.277l-0.001 0.002c-0.107 0.131-0.191 0.286-0.242 0.455l-0.002 0.009c-0.057 0.182-0.089 0.391-0.089 0.607 0 0.010 0 0.020 0 0.030l-0-0.002c-0 0.008-0 0.018-0 0.028 0 0.219 0.033 0.431 0.093 0.63l-0.004-0.015c0.055 0.183 0.142 0.342 0.255 0.478l-0.002-0.002c0.101 0.119 0.227 0.215 0.369 0.28l0.007 0.003c0.137 0.060 0.296 0.094 0.463 0.094 0.22 0 0.427-0.060 0.604-0.165l-0.005 0.003c0.19-0.12 0.339-0.291 0.43-0.493l0.003-0.007c0.102-0.227 0.161-0.493 0.161-0.772 0-0.021-0-0.043-0.001-0.064l0 0.003z"></path>
<path fill="#fff" d="M8.621 14.792h1.101c0.016-0 0.035-0 0.054-0 0.243 0 0.478 0.029 0.704 0.084l-0.020-0.004c0.216 0.058 0.403 0.162 0.557 0.3l-0.001-0.001q0.652 0.556 0.652 1.695c0 0.007 0 0.016 0 0.025 0 0.234-0.024 0.462-0.069 0.682l0.004-0.022c-0.044 0.21-0.114 0.396-0.208 0.567l0.005-0.011c-0.096 0.172-0.212 0.319-0.349 0.444l-0.001 0.001c-0.105 0.095-0.226 0.176-0.358 0.238l-0.009 0.004c-0.124 0.058-0.268 0.102-0.419 0.127l-0.009 0.001c-0.147 0.023-0.316 0.037-0.489 0.037-0.010 0-0.019-0-0.029-0h-1.097c-0.013 0.001-0.028 0.001-0.043 0.001-0.111 0-0.215-0.026-0.308-0.072l0.004 0.002c-0.074-0.043-0.129-0.112-0.152-0.195l-0.001-0.002c-0.023-0.090-0.036-0.192-0.036-0.298 0-0.012 0-0.025 0.001-0.037l-0 0.002v-3.059c-0.003-0.021-0.005-0.045-0.005-0.069 0-0.246 0.199-0.445 0.445-0.445 0.027 0 0.054 0.002 0.080 0.007l-0.003-0zM8.948 15.459v2.831h0.641c0.14 0 0.25 0 0.334-0.011 0.092-0.009 0.176-0.029 0.255-0.059l-0.007 0.002c0.086-0.030 0.16-0.073 0.223-0.129l-0.001 0.001q0.424-0.358 0.424-1.235 0-0.617-0.187-0.924c-0.099-0.183-0.26-0.321-0.454-0.39l-0.006-0.002c-0.185-0.054-0.397-0.085-0.616-0.085-0.015 0-0.031 0-0.046 0l0.002-0h-0.556z"></path>
<path fill="#fff" d="M15.58 17.708c0 0.005 0 0.011 0 0.017 0 0.246-0.073 0.475-0.198 0.667l0.003-0.005c-0.141 0.208-0.334 0.37-0.562 0.469l-0.008 0.003c-0.247 0.108-0.534 0.171-0.836 0.171-0.019 0-0.038-0-0.056-0.001l0.003 0c-0.024 0.001-0.052 0.002-0.080 0.002-0.345 0-0.67-0.087-0.954-0.241l0.011 0.005c-0.189-0.111-0.344-0.261-0.458-0.439l-0.003-0.005c-0.106-0.153-0.172-0.341-0.178-0.543l-0-0.002c0-0.001-0-0.002-0-0.003 0-0.204 0.165-0.369 0.369-0.369 0.003 0 0.006 0 0.009 0h-0c0.001 0 0.003-0 0.004-0 0.084 0 0.161 0.033 0.219 0.086l-0-0c0.069 0.069 0.123 0.154 0.156 0.248l0.001 0.005c0.050 0.128 0.108 0.238 0.176 0.34l-0.004-0.006c0.067 0.094 0.154 0.17 0.256 0.221l0.004 0.002c0.118 0.055 0.256 0.088 0.402 0.088 0.015 0 0.030-0 0.045-0.001l-0.002 0c0.014 0.001 0.030 0.001 0.047 0.001 0.211 0 0.406-0.066 0.567-0.178l-0.003 0.002c0.142-0.095 0.235-0.255 0.235-0.437v-0c0-0.005 0-0.010 0-0.016 0-0.123-0.048-0.235-0.127-0.318l0 0c-0.089-0.089-0.199-0.157-0.321-0.196l-0.006-0.002q-0.201-0.068-0.536-0.146c-0.288-0.064-0.539-0.148-0.778-0.256l0.025 0.010c-0.195-0.088-0.356-0.218-0.478-0.381l-0.002-0.003c-0.112-0.159-0.179-0.357-0.179-0.571 0-0.012 0-0.024 0.001-0.036l-0 0.002c-0-0.005-0-0.011-0-0.016 0-0.223 0.070-0.43 0.19-0.599l-0.002 0.003c0.136-0.185 0.321-0.327 0.536-0.409l0.008-0.003c0.234-0.091 0.504-0.144 0.787-0.144 0.017 0 0.034 0 0.052 0.001l-0.003-0c0.013-0 0.029-0 0.044-0 0.223 0 0.437 0.035 0.638 0.1l-0.015-0.004c0.179 0.058 0.333 0.144 0.467 0.254l-0.002-0.002c0.111 0.091 0.201 0.202 0.268 0.328l0.003 0.006c0.051 0.097 0.083 0.211 0.086 0.333l0 0.001c-0.001 0.106-0.043 0.201-0.111 0.271l0-0c-0.063 0.074-0.156 0.121-0.26 0.121-0.002 0-0.004-0-0.006-0h0c-0.007 0.001-0.016 0.001-0.024 0.001-0.076 0-0.145-0.028-0.199-0.074l0 0c-0.064-0.069-0.118-0.147-0.161-0.232l-0.003-0.006c-0.067-0.145-0.159-0.268-0.272-0.367l-0.001-0.001c-0.125-0.085-0.279-0.135-0.444-0.135-0.024 0-0.047 0.001-0.070 0.003l0.003-0c-0.013-0.001-0.027-0.001-0.042-0.001-0.181 0-0.349 0.054-0.489 0.147l0.003-0.002c-0.118 0.073-0.196 0.2-0.2 0.345v0.001c-0 0.003-0 0.006-0 0.009 0 0.078 0.025 0.15 0.069 0.209l-0.001-0.001c0.051 0.065 0.113 0.117 0.185 0.155l0.003 0.002c0.069 0.039 0.149 0.074 0.233 0.1l0.009 0.002q0.122 0.037 0.404 0.111c0.261 0.060 0.474 0.123 0.683 0.196l-0.044-0.014c0.185 0.062 0.346 0.144 0.492 0.246l-0.006-0.004c0.131 0.093 0.237 0.214 0.31 0.355l0.003 0.006c0.076 0.149 0.12 0.326 0.12 0.512 0 0.005-0 0.010-0 0.014v-0.001z"></path>
</svg>