<svg aria-hidden="true" version="1.1" viewBox="0 0 28 32" xmlns="http://www.w3.org/2000/svg" xmlns:xlink="http://www.w3.org/1999/xlink">
<path fill="#e9e9e0" d="M5.468 0.536c-0.966 0-1.75 0.783-1.75 1.75v0 27.967c0 0.966 0.783 1.75 1.75 1.75v0h20.099c0.966 0 1.75-0.783 1.75-1.75v0-21.622l-8.42-8.092h-13.428z"></path>
<path fill="#d9d7ca" d="M27.314 8.63h-6.677c-0.966 0-1.75-0.783-1.75-1.75v0-6.345z"></path>
<path fill="#396183" d="M18.758 19.999c0 0 0 0.001 0 0.001 0 1.114-0.903 2.017-2.017 2.017h-14.725c-1.114 0-2.017-0.903-2.017-2.017 0-0 0-0.001 0-0.001v0-6.162c0-1.114 0.903-2.017 2.017-2.017h14.725c1.114 0 2.017 0.903 2.017 2.017v0z"></path>
<path fill="#fff" d="M5.35 15.008c0.018-0.001 0.038-0.001 0.059-0.001 0.379 0 0.735 0.096 1.046 0.266l-0.011-0.006c0.301 0.17 0.539 0.422 0.688 0.726l0.004 0.010c0.149 0.312 0.236 0.677 0.236 1.063 0 0.020-0 0.040-0.001 0.060l0-0.003c0 0.010 0 0.022 0 0.033 0 0.297-0.047 0.582-0.135 0.85l0.005-0.019c-0.085 0.261-0.217 0.486-0.388 0.675l0.002-0.002c-0.171 0.188-0.383 0.337-0.621 0.433l-0.011 0.004c-0.241 0.094-0.52 0.149-0.812 0.149-0.016 0-0.032-0-0.048-0l0.002 0c-0.011 0-0.023 0-0.036 0-0.297 0-0.581-0.057-0.841-0.161l0.015 0.005c-0.251-0.1-0.463-0.249-0.634-0.436l-0.001-0.001c-0.169-0.19-0.301-0.416-0.381-0.666l-0.004-0.013c-0.083-0.25-0.13-0.538-0.13-0.837 0-0.008 0-0.015 0-0.023v0.001c-0-0.009-0-0.019-0-0.030 0-0.3 0.050-0.588 0.141-0.856l-0.006 0.019c0.088-0.26 0.222-0.484 0.395-0.673l-0.001 0.001c0.171-0.182 0.38-0.327 0.615-0.42l0.011-0.004c0.236-0.092 0.51-0.146 0.796-0.146 0.016 0 0.031 0 0.046 0l-0.002-0zM6.53 17.118c0-0.014 0.001-0.030 0.001-0.046 0-0.265-0.054-0.518-0.151-0.748l0.005 0.013c-0.087-0.209-0.231-0.379-0.411-0.497l-0.004-0.003c-0.17-0.107-0.377-0.17-0.598-0.17-0.007 0-0.015 0-0.022 0l0.001-0c-0.003-0-0.007-0-0.011-0-0.163 0-0.317 0.035-0.457 0.097l0.007-0.003c-0.145 0.065-0.266 0.158-0.363 0.272l-0.001 0.001c-0.106 0.129-0.188 0.281-0.238 0.448l-0.002 0.009c-0.056 0.179-0.088 0.384-0.088 0.597 0 0.010 0 0.020 0 0.030l-0-0.002c-0 0.008-0 0.018-0 0.028 0 0.215 0.032 0.423 0.092 0.619l-0.004-0.015c0.054 0.18 0.139 0.337 0.251 0.47l-0.002-0.002c0.1 0.118 0.223 0.212 0.363 0.276l0.006 0.003c0.134 0.059 0.291 0.093 0.455 0.093 0.217 0 0.42-0.059 0.593-0.162l-0.005 0.003c0.187-0.118 0.334-0.286 0.423-0.485l0.003-0.007c0.1-0.223 0.158-0.484 0.158-0.759 0-0.022-0-0.043-0.001-0.065l0 0.003z"></path>
<path fill="#fff" d="M8.597 15.078h1.083c0.016-0 0.034-0 0.053-0 0.239 0 0.47 0.028 0.692 0.082l-0.020-0.004c0.212 0.057 0.396 0.159 0.548 0.295l-0.001-0.001q0.641 0.547 0.641 1.667c0 0.007 0 0.016 0 0.024 0 0.23-0.024 0.454-0.068 0.671l0.004-0.021c-0.043 0.206-0.112 0.389-0.204 0.557l0.005-0.010c-0.094 0.169-0.209 0.313-0.343 0.436l-0.001 0.001c-0.104 0.094-0.223 0.173-0.352 0.234l-0.009 0.004c-0.121 0.056-0.262 0.1-0.409 0.124l-0.009 0.001c-0.144 0.023-0.311 0.036-0.481 0.036-0.009 0-0.019-0-0.028-0h-1.081c-0.013 0.001-0.027 0.001-0.042 0.001-0.109 0-0.212-0.026-0.303-0.071l0.004 0.002c-0.072-0.041-0.125-0.106-0.149-0.185l-0.001-0.002c-0.023-0.088-0.036-0.189-0.036-0.293 0-0.012 0-0.025 0.001-0.037l-0 0.002v-3.007c-0.004-0.024-0.007-0.050-0.007-0.078 0-0.242 0.196-0.437 0.437-0.437 0.028 0 0.055 0.003 0.081 0.007l-0.003-0zM8.918 15.734v2.783h0.63c0.138 0 0.246 0 0.328-0.011 0.090-0.009 0.173-0.029 0.251-0.058l-0.007 0.002c0.084-0.029 0.157-0.072 0.22-0.126l-0.001 0.001q0.417-0.352 0.417-1.214 0-0.607-0.184-0.909c-0.098-0.18-0.255-0.316-0.446-0.383l-0.006-0.002c-0.181-0.053-0.39-0.084-0.605-0.084-0.015 0-0.030 0-0.045 0l0.002-0h-0.547z"></path>
<path fill="#fff" d="M14.982 15.764h-0.907v2.979c0.002 0.015 0.002 0.033 0.002 0.050 0 0.125-0.042 0.24-0.113 0.332l0.001-0.001c-0.076 0.078-0.182 0.126-0.299 0.126s-0.223-0.048-0.298-0.125l-0-0c-0.073-0.092-0.118-0.21-0.118-0.339 0-0.015 0.001-0.029 0.002-0.044l-0 0.002v-2.98h-0.907c-0.011 0.001-0.024 0.001-0.036 0.001-0.106 0-0.203-0.036-0.281-0.096l0.001 0.001c-0.064-0.059-0.104-0.143-0.104-0.236 0-0.004 0-0.008 0-0.012l-0 0.001c-0-0.004-0-0.009-0-0.013 0-0.095 0.042-0.18 0.109-0.238l0-0c0.077-0.059 0.175-0.094 0.282-0.094 0.011 0 0.021 0 0.031 0.001l-0.001-0h2.634c0.011-0.001 0.024-0.001 0.037-0.001 0.107 0 0.206 0.036 0.285 0.097l-0.001-0.001c0.067 0.059 0.109 0.145 0.109 0.241 0 0.003-0 0.005-0 0.008v-0c0 0.003 0 0.005 0 0.008 0 0.095-0.042 0.181-0.109 0.238l-0 0c-0.078 0.060-0.178 0.096-0.285 0.096-0.012 0-0.025-0-0.037-0.001l0.002 0z"></path>
</svg>
