<svg version="1.1" xmlns="http://www.w3.org/2000/svg" width="32" height="32" viewBox="0 0 32 32"><path fill="#e2e5e7" d="M8 0c-1.103 0.003-1.997 0.897-2 2v28c0.003 1.103 0.897 1.997 2 2h20c1.103-0.003 1.997-0.897 2-2v-22l-8-8z"></path><path fill="#b0b7bd" d="M24 8h6l-8-8v6c0.003 1.103 0.897 1.997 2 2h0z"></path><path fill="#cad1d8" d="M30 14l-6-6h6v6z"></path><path fill="#f15642" d="M31.017 27.234c-0.002 0.667-0.542 1.207-1.209 1.209h-26.6c-0.667-0.002-1.207-0.542-1.209-1.209v-12.091c0.002-0.667 0.542-1.207 1.209-1.209h26.6c0.667 0.002 1.207 0.542 1.209 1.209v0z"></path><path fill="#fff" d="M10.946 19.188q0 1.355-0.924 2.084t-2.647 0.728h-1.050v3.512h-1.037v-8.923h2.313q3.346 0 3.346 2.598zM6.326 21.11h0.934q1.379 0 1.996-0.446t0.616-1.428q0-0.885-0.58-1.318t-1.807-0.433h-1.159z"></path><path fill="#fff" d="M19.938 20.966q0 2.209-1.199 3.378t-3.452 1.169h-2.474v-8.923h2.734q2.081 0 3.235 1.154t1.156 3.223zM18.839 21.003q0-1.746-0.875-2.631t-2.603-0.885h-1.509v7.128h1.263q1.856 0 2.789-0.913t0.934-2.703z"></path><path fill="#fff" d="M22.964 25.512h-1.038v-8.923h4.974v0.922h-3.938v3.266h3.699v0.922h-3.699z"></path><path fill="#cad1d8" d="M30.017 28.234h-19v1h19c0.552 0 1-0.448 1-1v0-1c0 0.552-0.448 1-1 1v0z"></path></svg>