<svg aria-hidden="true" viewBox="0 0 28 32" version="1.1" xmlns="http://www.w3.org/2000/svg" xmlns:xlink="http://www.w3.org/1999/xlink">
<path fill="#e9e9e0" d="M5.464 0.421c-0.967 0-1.751 0.784-1.751 1.751v0 27.973c0 0.967 0.784 1.751 1.751 1.751v0h20.106c0.967 0 1.751-0.784 1.751-1.751v0-21.627l-8.427-8.098z"></path>
<path fill="#d9d7ca" d="M27.318 8.518h-6.676c-0.967 0-1.751-0.784-1.751-1.751v0-6.347z"></path>
<path fill="#6f448c" d="M18.761 19.887c0 0 0 0.001 0 0.001 0 1.114-0.903 2.017-2.017 2.017h-14.727c-1.114 0-2.017-0.903-2.017-2.017 0-0 0-0.001 0-0.001v0-6.164c0.002-1.113 0.904-2.014 2.017-2.014 0 0 0 0 0 0h14.727c1.114 0 2.017 0.903 2.017 2.017 0 0 0 0.001 0 0.001v-0z"></path>
<path fill="#fff" d="M4.661 17.313h-0.291v1.313c0.002 0.015 0.002 0.033 0.002 0.052 0 0.125-0.042 0.241-0.113 0.333l0.001-0.001c-0.071 0.076-0.173 0.124-0.285 0.124-0.005 0-0.010-0-0.014-0l0.001 0c-0.006 0-0.014 0.001-0.021 0.001-0.114 0-0.216-0.050-0.286-0.128l-0-0c-0.069-0.093-0.111-0.21-0.111-0.337 0-0.014 0.001-0.028 0.002-0.042l-0 0.002v-3.153c-0.001-0.015-0.002-0.031-0.002-0.048 0-0.13 0.046-0.249 0.123-0.341l-0.001 0.001c0.092-0.076 0.211-0.123 0.34-0.123 0.017 0 0.034 0.001 0.050 0.002l-0.002-0h1.346c0.009-0 0.019-0 0.030-0 0.158 0 0.314 0.009 0.467 0.026l-0.019-0.002c0.132 0.014 0.253 0.049 0.365 0.099l-0.007-0.003c0.133 0.058 0.247 0.137 0.341 0.235l0 0c0.096 0.098 0.172 0.215 0.223 0.344l0.002 0.007c0.048 0.124 0.077 0.267 0.077 0.417 0 0.002 0 0.004-0 0.007v-0c0.001 0.015 0.001 0.033 0.001 0.051 0 0.263-0.099 0.502-0.261 0.683l0.001-0.001c-0.209 0.199-0.478 0.338-0.776 0.387l-0.009 0.001c0.165 0.092 0.305 0.208 0.421 0.345l0.002 0.002c0.128 0.145 0.246 0.304 0.351 0.473l0.009 0.015c0.083 0.131 0.166 0.285 0.237 0.444l0.009 0.023c0.042 0.083 0.073 0.18 0.087 0.282l0.001 0.005c-0.001 0.060-0.021 0.116-0.053 0.162l0.001-0.001c-0.035 0.054-0.083 0.096-0.139 0.125l-0.002 0.001c-0.057 0.029-0.124 0.046-0.196 0.046-0.004 0-0.008-0-0.012-0h0.001c-0.004 0-0.009 0-0.014 0-0.082 0-0.159-0.025-0.223-0.067l0.002 0.001c-0.065-0.045-0.119-0.101-0.162-0.164l-0.001-0.002q-0.069-0.101-0.186-0.297l-0.328-0.554c-0.1-0.176-0.205-0.328-0.324-0.469l0.004 0.005c-0.077-0.093-0.173-0.167-0.282-0.217l-0.005-0.002c-0.102-0.039-0.22-0.062-0.343-0.062-0.010 0-0.020 0-0.029 0l0.001-0zM5.137 15.59h-0.766v1.127h0.744c0.012 0 0.026 0 0.040 0 0.164 0 0.324-0.019 0.477-0.055l-0.014 0.003c0.124-0.027 0.231-0.089 0.312-0.176l0-0c0.069-0.086 0.11-0.196 0.11-0.316 0-0.009-0-0.019-0.001-0.028l0 0.001c0-0.004 0-0.008 0-0.013 0-0.218-0.135-0.404-0.325-0.481l-0.003-0.001c-0.141-0.042-0.303-0.066-0.471-0.066-0.037 0-0.073 0.001-0.109 0.003l0.005-0z"></path>
<path fill="#fff" d="M10.287 18.605l-0.196-0.514h-1.665l-0.196 0.526c-0.052 0.159-0.119 0.296-0.2 0.423l0.004-0.007c-0.058 0.068-0.143 0.111-0.238 0.111-0.010 0-0.019-0-0.029-0.001l0.001 0c-0.002 0-0.004 0-0.006 0-0.105 0-0.201-0.042-0.271-0.11l0 0c-0.073-0.064-0.119-0.157-0.12-0.26v-0c0-0.062 0.010-0.122 0.029-0.178l-0.001 0.004q0.028-0.090 0.093-0.248l1.044-2.674c0.030-0.077 0.066-0.169 0.109-0.276 0.039-0.102 0.084-0.19 0.138-0.272l-0.003 0.005c0.050-0.072 0.115-0.13 0.191-0.17l0.003-0.001c0.084-0.041 0.183-0.066 0.288-0.066s0.204 0.024 0.292 0.067l-0.004-0.002c0.076 0.043 0.139 0.1 0.187 0.168l0.001 0.002c0.044 0.063 0.085 0.135 0.117 0.211l0.003 0.008c0.033 0.080 0.074 0.185 0.125 0.317l1.070 2.651c0.063 0.127 0.108 0.275 0.125 0.432l0.001 0.006c-0.002 0.104-0.048 0.196-0.119 0.261l-0 0c-0.071 0.074-0.17 0.119-0.281 0.119-0.002 0-0.004-0-0.006-0h0c-0.003 0-0.006 0-0.010 0-0.057 0-0.112-0.013-0.16-0.036l0.002 0.001c-0.047-0.023-0.086-0.055-0.117-0.095l-0.001-0.001c-0.039-0.053-0.073-0.114-0.1-0.179l-0.002-0.006c-0.040-0.082-0.071-0.155-0.1-0.217zM8.646 17.464h1.226l-0.618-1.693z"></path>
<path fill="#fff" d="M12.903 17.313h-0.291v1.313c0.002 0.015 0.002 0.033 0.002 0.052 0 0.125-0.042 0.241-0.113 0.333l0.001-0.001c-0.071 0.076-0.173 0.124-0.285 0.124-0.005 0-0.010-0-0.014-0l0.001 0c-0.006 0-0.014 0.001-0.021 0.001-0.114 0-0.216-0.050-0.286-0.128l-0-0c-0.069-0.093-0.111-0.21-0.111-0.337 0-0.014 0.001-0.028 0.002-0.042l-0 0.002v-3.153c-0.004-0.024-0.007-0.051-0.007-0.078 0-0.242 0.196-0.438 0.438-0.438 0.028 0 0.055 0.003 0.081 0.007l-0.003-0h1.352c0.166 0 0.33 0.010 0.49 0.029l-0.020-0.002c0.132 0.014 0.254 0.049 0.365 0.099l-0.007-0.003c0.133 0.057 0.247 0.135 0.341 0.232l0 0c0.096 0.098 0.172 0.215 0.223 0.344l0.002 0.007c0.049 0.124 0.077 0.267 0.077 0.417 0 0.002 0 0.004-0 0.007v-0c0.001 0.015 0.001 0.033 0.001 0.051 0 0.263-0.099 0.502-0.261 0.683l0.001-0.001c-0.209 0.199-0.478 0.338-0.776 0.387l-0.009 0.001c0.165 0.092 0.305 0.208 0.421 0.345l0.002 0.002c0.128 0.145 0.246 0.304 0.351 0.473l0.009 0.015c0.083 0.131 0.166 0.285 0.237 0.444l0.009 0.023c0.042 0.083 0.073 0.18 0.087 0.282l0.001 0.005c-0.001 0.060-0.021 0.116-0.053 0.162l0.001-0.001c-0.035 0.054-0.083 0.096-0.139 0.125l-0.002 0.001c-0.057 0.029-0.124 0.046-0.196 0.046-0.004 0-0.008-0-0.012-0h0.001c-0.004 0-0.009 0-0.014 0-0.082 0-0.159-0.025-0.223-0.067l0.002 0.001c-0.065-0.045-0.119-0.101-0.162-0.164l-0.001-0.002q-0.069-0.101-0.186-0.297l-0.328-0.554c-0.1-0.176-0.205-0.328-0.324-0.469l0.004 0.005c-0.077-0.093-0.172-0.167-0.282-0.217l-0.005-0.002c-0.102-0.039-0.22-0.062-0.344-0.062-0.009 0-0.017 0-0.026 0l0.001-0zM13.379 15.59h-0.766v1.127h0.739c0.012 0 0.026 0 0.040 0 0.164 0 0.324-0.019 0.477-0.055l-0.014 0.003c0.124-0.027 0.231-0.089 0.312-0.176l0-0c0.069-0.086 0.11-0.196 0.11-0.316 0-0.009-0-0.019-0.001-0.028l0 0.001c0-0.004 0-0.008 0-0.013 0-0.218-0.134-0.404-0.325-0.481l-0.004-0.001c-0.141-0.041-0.303-0.065-0.471-0.065-0.035 0-0.070 0.001-0.104 0.003l0.005-0z"></path>
</svg>
