<svg version="1.1" xmlns="http://www.w3.org/2000/svg" width="32" height="32" viewBox="0 0 32 32"><path fill="none" stroke="currentColor" stroke-width="2.9467" stroke-miterlimit="4" stroke-linecap="round" stroke-linejoin="round" d="M3.267 22.28h5.52c0.434 0 0.787 0.352 0.787 0.787v5.52c0 0.434-0.352 0.787-0.787 0.787h-5.52c-0.434 0-0.787-0.352-0.787-0.787v-5.52c0-0.434 0.352-0.787 0.787-0.787z"></path><path fill="none" stroke="currentColor" stroke-width="2.48" stroke-miterlimit="4" stroke-linecap="butt" stroke-linejoin="miter" d="M10.987 25.893h2.573l4.8-19.933h3.747"></path><path fill="none" stroke="currentColor" stroke-width="2.9467" stroke-miterlimit="4" stroke-linecap="round" stroke-linejoin="round" d="M23.413 2.28h5.52c0.434 0 0.787 0.352 0.787 0.787v5.52c0 0.434-0.352 0.787-0.787 0.787h-5.52c-0.434 0-0.787-0.352-0.787-0.787v-5.52c0-0.434 0.352-0.787 0.787-0.787z"></path></svg>