<svg aria-hidden="true" version="1.1" viewBox="0 0 32 32" xmlns="http://www.w3.org/2000/svg" xmlns:xlink="http://www.w3.org/1999/xlink">
<path fill="#e2e5e7" d="M8 0c-1.103 0.003-1.997 0.897-2 2v28c0.003 1.103 0.897 1.997 2 2h20c1.103-0.003 1.997-0.897 2-2v-22l-8-8z"></path>
<path fill="#b0b7bd" d="M24 8h6l-8-8v6c0.003 1.103 0.897 1.997 2 2h0z"></path>
<path fill="#cad1d8" d="M30 14l-6-6h6v6z"></path>
<path fill="#2f11aa" d="M26 26c0 0.552-0.448 1-1 1v0h-22c-0.552 0-1-0.448-1-1v0-10c0-0.552 0.448-1 1-1v0h22c0.552 0 1 0.448 1 1v0z"></path>
<path fill="#fff" d="M9.739 19.467h-1.399c-0.695 0-0.695-1.023 0-1.023h3.785c0.711 0 0.711 1.023 0 1.023h-1.33v4.037c0 0.695-1.056 0.712-1.056 0z"></path>
<path fill="#fff" d="M13.596 18.947c0-0.656 1.056-0.68 1.056 0v4.563c0 0.664-1.056 0.68-1.056 0z"></path>
<path fill="#fff" d="M17.107 19.506v1.271h2.038c0.288 0 0.576 0.288 0.576 0.568 0 0.264-0.288 0.479-0.576 0.479h-2.038v1.676c0 0.007 0.001 0.016 0.001 0.024 0 0.263-0.213 0.476-0.476 0.476-0.002 0-0.005-0-0.007-0h0c-0.352 0-0.567-0.216-0.567-0.496v-4.542c0-0.288 0.216-0.496 0.567-0.496h2.807c0.352 0 0.563 0.208 0.563 0.496-0.005 0.301-0.25 0.543-0.552 0.543-0.004 0-0.008-0-0.011-0h-2.324z"></path>
<path fill="#cad1d8" d="M25 27h-19v1h19c0.552 0 1-0.448 1-1v0-1c0 0.552-0.448 1-1 1v0z"></path>
</svg>
