<svg version="1.1" xmlns="http://www.w3.org/2000/svg" width="32" height="32" viewBox="0 0 32 32"><path fill="#e6e6e6" d="M6.375 0c-1.103 0.003-1.997 0.897-2 2v28c0.003 1.103 0.897 1.997 2 2h20c1.103-0.003 1.997-0.897 2-2v-22l-8-8z"></path><path fill="#b0b7bd" d="M22.375 8h6l-8-8v6c0.003 1.103 0.897 1.997 2 2h0z"></path><path fill="#cad1d8" d="M28.375 14l-6-6h6v6z"></path><path fill="#666" d="M10.913 11.313h-3.726c-0.343 0-0.621-0.278-0.621-0.621s0.278-0.621 0.621-0.621h3.728c0.343 0 0.621 0.278 0.621 0.621s-0.278 0.621-0.621 0.621v0z"></path><path fill="#666" d="M12.777 14.419h-5.589c-0.343 0-0.621-0.278-0.621-0.621s0.278-0.621 0.621-0.621h5.592c0.343 0 0.621 0.278 0.621 0.621s-0.278 0.621-0.621 0.621v0z"></path><path fill="#666" d="M15.262 14.419c-0.171-0.002-0.326-0.070-0.441-0.18l0 0c-0.111-0.114-0.179-0.27-0.18-0.441v-0c0.001-0.173 0.072-0.329 0.187-0.441l0-0c0.224-0.23 0.646-0.23 0.875 0 0.114 0.113 0.184 0.269 0.184 0.441 0 0.343-0.278 0.621-0.621 0.621-0.001 0-0.003 0-0.004 0h0z"></path><path fill="#666" d="M22.718 14.419h-4.968c-0.343 0-0.621-0.278-0.621-0.621s0.278-0.621 0.621-0.621h4.971c0.343 0 0.621 0.278 0.621 0.621s-0.278 0.621-0.621 0.621v0z"></path><path fill="#666" d="M7.188 23.738c-0.343-0.003-0.62-0.282-0.62-0.625 0-0.17 0.068-0.325 0.179-0.438l-0 0c0.115-0.106 0.269-0.172 0.438-0.172 0.173 0 0.329 0.068 0.445 0.178l-0-0c0.111 0.112 0.18 0.267 0.18 0.437v0c0 0.002 0 0.004 0 0.006 0 0.34-0.275 0.615-0.615 0.615-0.002 0-0.004 0-0.007-0h0z"></path><path fill="#666" d="M14.641 23.738h-4.971c-0.343 0-0.621-0.278-0.621-0.621s0.278-0.621 0.621-0.621h4.971c0.343 0 0.621 0.278 0.621 0.621s-0.278 0.621-0.621 0.621v0z"></path><path fill="#666" d="M26.446 14.419h-1.243c-0.343 0-0.621-0.278-0.621-0.621s0.278-0.621 0.621-0.621h1.242c0.343 0 0.621 0.278 0.621 0.621s-0.278 0.621-0.621 0.621v0z"></path><path fill="#666" d="M20.854 17.525h-13.667c-0.343 0-0.621-0.278-0.621-0.621s0.278-0.621 0.621-0.621h13.669c0.343 0 0.621 0.278 0.621 0.621s-0.278 0.621-0.621 0.621v0z"></path><path fill="#666" d="M26.446 17.525h-3.728c-0.343 0-0.621-0.278-0.621-0.621s0.278-0.621 0.621-0.621h3.728c0.343 0 0.621 0.278 0.621 0.621s-0.278 0.621-0.621 0.621v0z"></path><path fill="#666" d="M9.671 20.632h-2.483c-0.343 0-0.621-0.278-0.621-0.621s0.278-0.621 0.621-0.621h2.485c0.343 0 0.621 0.278 0.621 0.621s-0.278 0.621-0.621 0.621v0z"></path><path fill="#666" d="M18.369 20.632h-6.213c-0.343 0-0.621-0.278-0.621-0.621s0.278-0.621 0.621-0.621h6.213c0.343 0 0.621 0.278 0.621 0.621s-0.278 0.621-0.621 0.621v0z"></path><path fill="#666" d="M26.446 20.632h-5.592c-0.343 0-0.621-0.278-0.621-0.621s0.278-0.621 0.621-0.621h5.592c0.343 0 0.621 0.278 0.621 0.621s-0.278 0.621-0.621 0.621v0z"></path><path fill="#666" d="M26.108 28.011h-4.971c-0.343 0-0.621-0.278-0.621-0.621s0.278-0.621 0.621-0.621h4.971c0.343 0 0.621 0.278 0.621 0.621s-0.278 0.621-0.621 0.621v0z"></path></svg>