<svg version="1.1" xmlns="http://www.w3.org/2000/svg" width="32" height="32" viewBox="0 0 32 32"><path fill="#e2e5e7" d="M8 0c-1.103 0.003-1.997 0.897-2 2v28c0.003 1.103 0.897 1.997 2 2h20c1.103-0.003 1.997-0.897 2-2v-22l-8-8z"></path><path fill="#b0b7bd" d="M24 8h6l-8-8v6c0.003 1.103 0.897 1.997 2 2h0z"></path><path fill="#cad1d8" d="M30 14l-6-6h6v6z"></path><path fill="#4a148c" d="M31.017 27.234c-0.002 0.667-0.542 1.207-1.209 1.209h-26.6c-0.667-0.002-1.207-0.542-1.209-1.209v-12.091c0.002-0.667 0.542-1.207 1.209-1.209h26.6c0.667 0.002 1.207 0.542 1.209 1.209v0z"></path><path fill="#fff" d="M2.797 25.512l2.854-4.358-2.589-3.993h1.974l1.675 2.683 1.641-2.683h1.954l-2.598 4.056 2.854 4.295h-2.034l-1.851-2.887-1.857 2.887z"></path><path fill="#fff" d="M12.688 25.512v-8.351h2.525l1.516 5.697 1.5-5.697h2.529v8.351h-1.57v-6.575l-1.657 6.575h-1.625l-1.651-6.575v6.575z"></path><path fill="#fff" d="M23.688 25.512v-8.283h1.688v6.875h4.192v1.408z"></path><path fill="#cad1d8" d="M30.017 28.234h-19v1h19c0.552 0 1-0.448 1-1v0-1c0 0.552-0.448 1-1 1v0z"></path></svg>