<svg version="1.1" xmlns="http://www.w3.org/2000/svg" width="32" height="32" viewBox="0 0 32 32"><path fill="#e2e5e7" d="M8 0c-1.103 0.003-1.997 0.897-2 2v28c0.003 1.103 0.897 1.997 2 2h20c1.103-0.003 1.997-0.897 2-2v-22l-8-8z"></path><path fill="#b0b7bd" d="M24 8h6l-8-8v6c0.003 1.103 0.897 1.997 2 2h0z"></path><path fill="#cad1d8" d="M30 14l-6-6h6v6z"></path><path fill="#ff6d00" d="M31.017 27.234c-0.002 0.667-0.542 1.207-1.209 1.209h-26.6c-0.667-0.002-1.207-0.542-1.209-1.209v-12.091c0.002-0.667 0.542-1.207 1.209-1.209h26.6c0.667 0.002 1.207 0.542 1.209 1.209v0z"></path><path fill="#fff" d="M4.404 25.648v-1.629l4.7-5.804h-4.167v-1.514h6.547v1.404l-4.901 6.036h5.091v1.508z"></path><path fill="#fff" d="M15.26 25.648v-8.947h1.807v8.947z"></path><path fill="#fff" d="M21.288 25.648v-8.947h2.9q1.648 0 2.149 0.134c0.53 0.143 0.974 0.453 1.284 0.869l0.004 0.006q0.519 0.674 0.519 1.742 0 0.824-0.299 1.386c-0.185 0.357-0.441 0.652-0.753 0.877l-0.007 0.005c-0.266 0.193-0.58 0.34-0.92 0.421l-0.018 0.004q-0.647 0.128-1.875 0.128h-1.177v3.375zM23.094 18.214v2.536h0.989q1.068 0 1.428-0.141c0.233-0.088 0.424-0.24 0.56-0.434l0.003-0.004c0.128-0.188 0.205-0.421 0.205-0.671 0-0.009-0-0.017-0-0.026l0 0.001c0-0.013 0.001-0.027 0.001-0.042 0-0.293-0.109-0.561-0.289-0.764l0.001 0.001c-0.185-0.205-0.436-0.348-0.719-0.396l-0.007-0.001q-0.324-0.063-1.3-0.063z"></path><path fill="#cad1d8" d="M30.017 28.234h-19v1h19c0.552 0 1-0.448 1-1v0-1c0 0.552-0.448 1-1 1v0z"></path></svg>