<svg xmlns="http://www.w3.org/2000/svg" height="30" width="30"><path fill="#0075C9" d="M0 0h30v30H0z"/><g fill="#FFF"><path d="M16.5 12.4c-1.6 0-3 .9-3.7 2.2-.7-1.3-2.1-2.2-3.7-2.2-.9 0-1.8.3-2.5.8V9.7c0-.4-.4-.8-.8-.8s-.8.4-.8.8v6.9c0 2.3 1.9 4.1 4.1 4.1 1.6 0 3-.9 3.7-2.2.7 1.3 2.1 2.2 3.7 2.2 2.3 0 4.1-1.9 4.1-4.1 0-2.4-1.9-4.2-4.1-4.2zM9.1 19c-1.4 0-2.5-1.1-2.5-2.5S7.7 14 9.1 14s2.5 1.1 2.5 2.5S10.5 19 9.1 19zm7.4 0c-1.4 0-2.5-1.1-2.5-2.5s1.1-2.5 2.5-2.5 2.5 1.1 2.5 2.5c-.1 1.4-1.2 2.5-2.5 2.5z"/><path d="M26.2 19.4L24 16.5l2.1-2.8c.3-.4.2-.9-.2-1.1-.4-.3-.9-.2-1.1.2L23 15.2l-1.8-2.4c-.3-.4-.8-.4-1.1-.2-.4.3-.4.8-.2 1.1l2.1 2.8-2.1 2.8c-.3.4-.2.9.2 1.1.4.3.9.2 1.1-.2l1.8-2.4 1.8 2.4c.3.4.8.4 1.1.2.4-.2.5-.7.3-1z"/></g></svg>