<svg xmlns="http://www.w3.org/2000/svg" width="23" height="23" viewBox="-788 989 23 23"><path d="M-780.029 989.63c-2.804.96-5.191 3.057-6.515 5.707a11.432 11.432 0 0 0-.999 2.89 11.517 11.517 0 0 0 .998 7.436 11.59 11.59 0 0 0 3.124 3.84c1.228.98 2.66 1.703 4.179 2.107 1.916.514 3.955.502 5.883.063 1.743-.401 3.392-1.234 4.708-2.449 1.392-1.279 2.384-2.964 2.91-4.774.573-1.975.652-4.083.293-6.105-3.607-.002-7.215-.001-10.822 0 0 1.496-.002 2.992.001 4.488h6.267a5.402 5.402 0 0 1-2.302 3.552 6.576 6.576 0 0 1-2.532 1c-.906.154-1.841.174-2.744-.009a6.754 6.754 0 0 1-2.56-1.105 7.153 7.153 0 0 1-2.636-3.531 6.964 6.964 0 0 1 .002-4.478 7.142 7.142 0 0 1 1.669-2.711 6.849 6.849 0 0 1 3.434-1.908 6.812 6.812 0 0 1 3.376.137c.926.281 1.78.789 2.479 1.457.707-.703 1.41-1.41 2.116-2.114.37-.379.759-.742 1.118-1.131a11.127 11.127 0 0 0-3.701-2.293 11.626 11.626 0 0 0-7.746-.069z" fill="#fff"/><path d="M-780.029 989.63a11.626 11.626 0 0 1 7.746.068 11.127 11.127 0 0 1 3.701 2.293c-.358.389-.747.752-1.118 1.131-.706.704-1.409 1.411-2.116 2.114a6.239 6.239 0 0 0-2.479-1.457 6.8 6.8 0 0 0-3.376-.137 6.849 6.849 0 0 0-3.434 1.908 7.142 7.142 0 0 0-1.669 2.711l-3.769-2.924c1.323-2.65 3.71-4.747 6.514-5.707z" fill="#e94435"/><path d="M-787.543 998.228c.202-1.003.539-1.977.999-2.89l3.769 2.924a6.964 6.964 0 0 0-.002 4.478c-1.256.975-2.511 1.951-3.768 2.924a11.51 11.51 0 0 1-.998-7.436z" fill="#f8bb15"/><path d="M-776.27 998.345h10.822c.359 2.022.28 4.13-.293 6.105-.526 1.811-1.518 3.495-2.91 4.774-1.216-.948-2.438-1.891-3.654-2.84a5.402 5.402 0 0 0 2.302-3.552h-6.267v-4.487z" fill="#547dbe"/><path d="M-786.545 1005.664c1.257-.973 2.512-1.949 3.768-2.924a7.142 7.142 0 0 0 2.636 3.531 6.76 6.76 0 0 0 2.56 1.105c.903.183 1.839.163 2.744.009a6.576 6.576 0 0 0 2.532-1c1.216.949 2.438 1.891 3.654 2.84-1.317 1.215-2.965 2.048-4.708 2.449-1.928.439-3.968.451-5.883-.063a11.45 11.45 0 0 1-4.179-2.107 11.59 11.59 0 0 1-3.124-3.84z" fill="#34a751"/></svg>