<svg xmlns="http://www.w3.org/2000/svg" height="50" width="50"><path fill="#c2e3f1" d="M0 5h50v39H0z"/><path fill="#59B4D9" d="M2.2 7.2h45.7V42H2.2z"/><path fill="#59B4D9" d="M2.2 7.2h45.7V42H2.2z"/><path fill="#B8D432" d="M47.8 27.3L44.5 24c-1.3-1.3-3.4-1.3-4.8 0L21.9 42h26V27.3z"/><path opacity=".25" fill="#FFF" d="M47.8 27.3L44.5 24c-1.3-1.3-3.4-1.3-4.8 0L21.9 42h26V27.3z"/><path fill="#7FBA00" d="M43.1 42l-14-14c-1-1-2.7-1-3.7 0l-14 14h31.7z"/><path opacity=".25" fill="#FFF" d="M43.1 42l-14-14c-1-1-2.7-1-3.7 0l-14 14h31.7z"/><path opacity=".63" fill="#FFF" d="M27.6 22.3c0-1.4-1.1-2.5-2.4-2.5h-.3c.1-.6.2-1.1.2-1.7 0-3.6-2.9-6.6-6.5-6.6-2.9 0-5.3 1.9-6.2 4.5-.5-.2-.9-.3-1.5-.3-2.5 0-4.4 2-4.4 4.5s2 4.5 4.4 4.5h14.4c1.3-.1 2.3-1.1 2.3-2.4"/></svg>