<svg xmlns="http://www.w3.org/2000/svg" id="Layer_1" viewBox="-179 373.1 54.3 50"><style id="style2">.st0{fill:#02723b}</style><g id="g16" transform="matrix(1.26273 0 0 1.26273 36.082 -106.379)"><path class="st0" id="rect4" fill="#02723b" d="M-140.4 393.4h6.1v3h-6.1z"/><path class="st0" id="rect6" fill="#02723b" d="M-140.4 388.9h6.1v3h-6.1z"/><path class="st0" id="rect8" fill="#02723b" d="M-140.4 398h6.1v3h-6.1z"/><path class="st0" id="rect10" fill="#02723b" d="M-140.4 402.5h6.1v3h-6.1z"/><path class="st0" id="rect12" fill="#02723b" d="M-140.4 407.1h6.1v3h-6.1z"/><path class="st0" d="M-130.8 384.8h-14.7v-4.1l-22.3 3.9v30.2l22.3 3.8V414h14.7c.6 0 1-.5 1-1v-27.2c0-.5-.4-1-1-1zm-24.4 21.6s-2.1-5.4-2.1-5.5h-.1c0 .1-2.1 5.2-2.1 5.2l-2.8-.2 3.3-6.5-3-6.5 2.8-.2s1.9 5 1.9 5.1h.1c0-.1 2.1-5.3 2.1-5.3l2.9-.2-3.5 7.1 3.6 7.1zm24.1 6.5h-14.4v-2.8h3.5v-3h-3.5v-1.5h3.5v-3h-3.5v-1.5h3.5v-3h-3.5v-1.5h3.5v-3h-3.5v-1.5h3.5v-3h-3.5v-3h14.4z" id="path14" fill="#02723b"/></g></svg>