<svg xmlns="http://www.w3.org/2000/svg" id="Layer_1" viewBox="-178 375.1 53.8 46"><style id="style2">.st0{fill:#dc5b26}</style><g id="g10" transform="matrix(1.17385 0 0 1.17385 26.59 -67.136)"><path class="st0" d="M-144.3 386.1v5.6h5.6c0-3.1-2.5-5.6-5.6-5.6z" id="path4" fill="#dc5b26"/><path class="st0" d="M-158.1 391.8c-.6-.3-1.1-.2-1.7-.1-.3.1-.2.3-.2.5v3.6c.6.1 1 .2 1.6.1.9-.3 1.2-1.1 1.3-2 0-.8-.1-1.7-1-2.1z" id="path6" fill="#dc5b26"/><path class="st0" d="M-133.1 382h-14.7v-4.6l-22.4 3.9v30.4l22.4 3.9v-5.1h14.8c.6 0 1-.5 1-1v-26.4c-.1-.6-.5-1.1-1.1-1.1zm-21.3 12.8c-.3 1.5-1.2 2.8-2.6 3.4-1 .4-1.9.3-2.9.2v5.1c-.7-.1-1.3-.1-1.9-.2-.2-.1-.7 0-.7-.2v-3-9.2-1.2c0-.3-.1-.3.2-.3 1.3-.1 2.5-.2 3.7-.2 1.4 0 2.7.2 3.6 1.4.7 1.1.8 2.8.6 4.2zm21.1 14.5h-14.5v-3.1h10.7v-1.8h-10.7v-2.3h10.7v-1.7h-10.7v-2.6c.8.4 1.6.6 2.5.6 3.1 0 5.6-2.5 5.6-5.6h-5.6v-5.7c-.9 0-1.8.2-2.5.6v-4.4h14.5z" id="path8" fill="#dc5b26"/></g></svg>