<svg xmlns="http://www.w3.org/2000/svg" viewBox="-178 375.1 53.8 50"><path d="M-128.497 381.507h-18.215v-5.08l-27.632 4.833v37.545l27.632 4.832v-4.46h18.215c.744 0 1.24-.62 1.24-1.24v-35.19c0-.62-.496-1.24-1.24-1.24zm-28.252 26.517l-3.097-.247-2.355-11.276c-.124.248-2.23 11.028-2.23 11.028l-2.85-.248-2.726-14.002 2.602-.248s1.735 10.904 1.735 11.028l2.354-11.4 2.85-.247s2.23 11.523 2.23 11.771l2.107-12.02 2.974-.247zm28.004 9.666h-17.967v-3.718h13.878v-2.23h-13.878v-2.85h13.878v-2.107h-13.878v-2.85h13.878v-2.106h-13.878v-2.85h13.878v-2.107h-13.878v-2.85h13.878v-2.106h-13.878v-2.85h13.878v-2.106h-13.878v-3.47h17.967z" fill="#2c3580"/></svg>