<svg xmlns="http://www.w3.org/2000/svg" height="30" width="30"><path fill="#094AB1" d="M0 0h30v30H0z"/><g fill="#FFF"><path d="M11.6 22.2c-1.5-.4-2.3-1.6-2.3-3.3 0-.6 0-.8.2-1.2.3-.9 1.3-1.6 2.5-1.8.6-.1.8-.3.8-.6 0-.1.1-.4.2-.6.4-1.2 1.1-2.1 1.9-2.5.8-.4 1.2-.5 2.2-.5 1.4 0 2.1.3 3.1 1.3l.5.6.5-.2c2.3-.8 4.7.6 4.9 2.9l-.1.7.5.2c1.3.5 1.9 1.5 1.8 2.9-.1 1-.5 1.7-1.2 2.1l-.3.2h-7.4c-5.7-.1-7.5-.1-7.8-.2z"/><path d="M6 21.2c-.9-.2-1.8-1-2.2-1.9-.2-.5-.3-.6-.3-1.5 0-.8 0-1 .2-1.4.5-.8 1.3-1.4 2.3-1.7.2-.1.4-.1.4-.2s.1-.3.1-.6c.1-1.8 1.2-3.3 2.9-3.8.9-.3 2-.2 2.9.2.3.1.3.1.9-.7.4-.5 1.1-1.1 1.8-1.4.7-.3 1.4-.5 2.2-.5 2.3 0 4.4 1.5 5.1 3.7.2.7.2.9-.1.9-.1 0-.5.1-.8.2l-.6.1-.5-.5c-1.4-1.4-3.8-1.7-5.8-.8-.8.4-1.4 1-1.9 1.7-.3.5-.8 1.5-.8 1.7 0 .2-.1.3-.7.5-1.8.6-2.9 2-2.9 3.8 0 .7.2 1.4.4 1.9.1.2.1.3.1.4-.1 0-2.4 0-2.7-.1z"/></g></svg>