<svg xmlns="http://www.w3.org/2000/svg" viewBox="-183 366.1 56.3 54"><path d="M-135.6 381.5h-14.8v-4.1l-22.4 3.9v30.4l22.4 3.9v-4.5h14.8c.6 0 1-.5 1-1v-27.6c.1-.5-.4-1-1-1zm-25.4 22.4l-2.9-.1-3.8-14.2 2.7.1 2.4 9.9c.2.6.2 1 .3 1.4h.1c.1-.5.1-.9.3-1.4l2.4-9.8 2.6-.1-4.1 14.2zm10.6-13.5h2.4l4.6 4.6v7.1h-3.3V399c0-.4-.3-.7-.7-.7h-3v-7.9zm3.7-.4l.8-.8 3-3 3.8 3.8-3.1 3-.8.8-.8-.8-2.2-2.4-.7-.6zm-3.7 9.6h2.4v6.6h-2.3l-.1-6.6zm14.6 10.2h-14.6v-2.3h3c.4 0 .7-.3.7-.7v-3.4h3.9c.4 0 .7-.3.7-.7V395l4.6-4.3c.1-.1.2-.4.2-.7s-.1-.5-.2-.7l-4.7-4.6c-.2-.2-.3-.2-.5-.2s-.4.1-.5.2l-4.8 4.5h-2.3v-6.4h14.6l-.1 27z" fill="#4c69b1"/></svg>