<svg width="33" height="44" viewBox="0 0 33 44" fill="none" xmlns="http://www.w3.org/2000/svg">
<mask id="path-1-inside-1_805_11863" fill="white">
<path d="M14.0273 43.1914C20.8828 43.1914 25.7266 39.4805 28.3242 32.1562L31.7617 22.4883C31.9961 21.8242 32.1133 21.1797 32.1133 20.5938C32.1133 18.5234 30.5508 17.0781 28.5586 17.0781C27.2109 17.0781 26 17.8789 25.3359 19.4219L24.0664 22.5469C24.0273 22.625 23.9688 22.6836 23.8906 22.6836C23.793 22.6836 23.7539 22.6055 23.7539 22.5078V6.84375C23.7539 4.55859 22.3281 3.11328 20.1406 3.11328C19.3398 3.11328 18.6172 3.40625 18.0703 3.91406C17.8164 1.90234 16.5273 0.671875 14.5938 0.671875C12.6992 0.671875 11.3711 1.94141 11.0781 3.875C10.5898 3.38672 9.88672 3.11328 9.18359 3.11328C7.15234 3.11328 5.80469 4.53906 5.80469 6.70703V8.875C5.27734 8.32812 4.47656 8.03516 3.65625 8.03516C1.625 8.03516 0.21875 9.51953 0.21875 11.7266V28.5039C0.21875 37.6445 5.76562 43.1914 14.0273 43.1914ZM13.9297 40.4961C7.01562 40.4961 2.79688 36.043 2.79688 28.1914V12C2.79688 11.1602 3.32422 10.5938 4.14453 10.5938C4.94531 10.5938 5.53125 11.1602 5.53125 12V21.9805C5.53125 22.7031 6.11719 23.1914 6.74219 23.1914C7.40625 23.1914 8.01172 22.7031 8.01172 21.9805V7.05859C8.01172 6.21875 8.53906 5.63281 9.33984 5.63281C10.1602 5.63281 10.7266 6.21875 10.7266 7.05859V20.9844C10.7266 21.707 11.3125 22.1953 11.957 22.1953C12.6211 22.1953 13.207 21.707 13.207 20.9844V4.63672C13.207 3.79688 13.7734 3.19141 14.5938 3.19141C15.375 3.19141 15.9414 3.79688 15.9414 4.63672V20.9844C15.9414 21.668 16.4883 22.1953 17.1719 22.1953C17.8359 22.1953 18.4219 21.668 18.4219 20.9844V7.05859C18.4219 6.21875 18.9883 5.63281 19.7891 5.63281C20.5898 5.63281 21.1562 6.21875 21.1562 7.05859V26.2773C21.1562 27.2539 21.7227 27.8203 22.543 27.8203C23.2461 27.8203 23.832 27.5078 24.2812 26.5312L27.0938 20.2617C27.4648 19.4219 28.1875 19.1289 28.8711 19.3828C29.6328 19.6562 29.8672 20.3789 29.5156 21.3359L25.9414 31.3164C23.5586 37.9766 19.3789 40.4961 13.9297 40.4961Z"/>
</mask>
<path d="M28.3242 32.1562L24.5554 30.8162L24.5543 30.8192L28.3242 32.1562ZM31.7617 22.4883L35.5306 23.8283L35.5337 23.8196L31.7617 22.4883ZM25.3359 19.4219L21.6618 17.8406L21.6455 17.8783L21.6301 17.9164L25.3359 19.4219ZM24.0664 22.5469L27.6441 24.3357L27.7137 24.1965L27.7723 24.0524L24.0664 22.5469ZM18.0703 3.91406L14.1018 4.41494L15.0782 12.151L20.7921 6.84524L18.0703 3.91406ZM11.0781 3.875L8.2497 6.70343L13.8471 12.3009L15.033 4.47422L11.0781 3.875ZM5.80469 8.875L2.92531 11.6515L9.80469 18.7857V8.875H5.80469ZM24.2812 26.5312L27.9152 28.2029L27.9231 28.1857L27.9308 28.1685L24.2812 26.5312ZM27.0938 20.2617L30.7433 21.8989L30.748 21.8887L30.7525 21.8784L27.0938 20.2617ZM28.8711 19.3828L27.4783 23.1325L27.4989 23.1402L27.5196 23.1476L28.8711 19.3828ZM29.5156 21.3359L25.7609 19.9567L25.7553 19.972L25.7498 19.9873L29.5156 21.3359ZM25.9414 31.3164L22.1756 29.9678L22.1752 29.969L25.9414 31.3164ZM14.0273 47.1914C18.2146 47.1914 22.0294 46.0423 25.2136 43.5891C28.3636 41.1624 30.6081 37.6833 32.0941 33.4933L24.5543 30.8192C23.4427 33.9535 21.9665 35.9919 20.3313 37.2517C18.7304 38.4851 16.6956 39.1914 14.0273 39.1914V47.1914ZM32.0931 33.4963L35.5306 23.8283L27.9929 21.1482L24.5554 30.8162L32.0931 33.4963ZM35.5337 23.8196C35.8948 22.7962 36.1133 21.7004 36.1133 20.5938H28.1133C28.1133 20.659 28.0973 20.8522 27.9898 21.157L35.5337 23.8196ZM36.1133 20.5938C36.1133 16.1983 32.6421 13.0781 28.5586 13.0781V21.0781C28.5743 21.0781 28.4467 21.0749 28.2988 20.9315C28.2297 20.8645 28.1774 20.7856 28.1452 20.7084C28.1127 20.6301 28.1133 20.5844 28.1133 20.5938H36.1133ZM28.5586 13.0781C25.3972 13.0781 22.8676 15.0388 21.6618 17.8406L29.0101 21.0032C29.091 20.8152 29.126 20.8482 29.005 20.9341C28.9483 20.9743 28.874 21.0133 28.7867 21.041C28.6998 21.0685 28.6206 21.0781 28.5586 21.0781V13.0781ZM21.6301 17.9164L20.3605 21.0414L27.7723 24.0524L29.0418 20.9274L21.6301 17.9164ZM20.4887 20.758C20.6876 20.3603 21.6725 18.6836 23.8906 18.6836V26.6836C26.265 26.6836 27.3671 24.8897 27.6441 24.3357L20.4887 20.758ZM23.8906 18.6836C25.0814 18.6836 26.3086 19.2494 27.0744 20.3555C27.691 21.2462 27.7539 22.1183 27.7539 22.5078H19.7539C19.7539 22.995 19.8363 23.955 20.4969 24.9092C21.3066 26.0787 22.6022 26.6836 23.8906 26.6836V18.6836ZM27.7539 22.5078V6.84375H19.7539V22.5078H27.7539ZM27.7539 6.84375C27.7539 4.8622 27.1211 2.8591 25.6336 1.33126C24.1365 -0.206428 22.1383 -0.886719 20.1406 -0.886719V7.11328C20.2469 7.11328 20.2494 7.13042 20.1813 7.104C20.1077 7.07546 20.0016 7.01472 19.9016 6.9119C19.8023 6.80992 19.757 6.71617 19.7423 6.67626C19.7296 6.64161 19.7539 6.6871 19.7539 6.84375H27.7539ZM20.1406 -0.886719C18.3356 -0.886719 16.6392 -0.21559 15.3485 0.982889L20.7921 6.84524C20.5952 7.02809 20.3441 7.11328 20.1406 7.11328V-0.886719ZM22.0388 3.41318C21.8196 1.6762 21.1035 -0.060161 19.6993 -1.37808C18.2707 -2.71882 16.445 -3.32812 14.5938 -3.32812V4.67188C14.6513 4.67188 14.6193 4.68045 14.529 4.64702C14.4341 4.61191 14.3235 4.54806 14.2246 4.45523C14.0117 4.25547 14.0671 4.14021 14.1018 4.41494L22.0388 3.41318ZM14.5938 -3.32812C12.7104 -3.32812 10.9158 -2.67772 9.52174 -1.39042C8.15086 -0.124571 7.38441 1.55222 7.12326 3.27578L15.033 4.47422C15.0648 4.26418 15.1089 4.33941 14.949 4.4871C14.8739 4.55642 14.7848 4.61032 14.6985 4.64291C14.6137 4.67489 14.5706 4.67188 14.5938 4.67188V-3.32812ZM13.9066 1.04657C12.614 -0.24602 10.8684 -0.886719 9.18359 -0.886719V7.11328C9.02275 7.11328 8.87215 7.08324 8.73068 7.02687C8.58905 6.97043 8.41811 6.87184 8.2497 6.70343L13.9066 1.04657ZM9.18359 -0.886719C7.1933 -0.886719 5.2504 -0.163759 3.82029 1.355C2.41103 2.85161 1.80469 4.79289 1.80469 6.70703H9.80469C9.80469 6.45321 9.87217 6.59761 9.64456 6.83933C9.53976 6.95062 9.41704 7.02992 9.30554 7.07526C9.19785 7.11905 9.14603 7.11328 9.18359 7.11328V-0.886719ZM1.80469 6.70703V8.875H9.80469V6.70703H1.80469ZM8.68406 6.09846C7.26765 4.62959 5.35115 4.03516 3.65625 4.03516V12.0352C3.59828 12.0352 3.51546 12.026 3.40607 11.984C3.29684 11.9421 3.11527 11.8485 2.92531 11.6515L8.68406 6.09846ZM3.65625 4.03516C1.62304 4.03516 -0.324075 4.80194 -1.74477 6.32003C-3.1465 7.81784 -3.78125 9.76902 -3.78125 11.7266H4.21875C4.21875 11.4771 4.28713 11.5825 4.09633 11.7864C4.00887 11.8799 3.90239 11.9516 3.79837 11.9948C3.69643 12.0372 3.63923 12.0352 3.65625 12.0352V4.03516ZM-3.78125 11.7266V28.5039H4.21875V11.7266H-3.78125ZM-3.78125 28.5039C-3.78125 33.8854 -2.13532 38.6222 1.1344 42.0403C4.41837 45.4734 8.97479 47.1914 14.0273 47.1914V39.1914C10.8182 39.1914 8.4703 38.1359 6.91541 36.5104C5.34626 34.87 4.21875 32.2631 4.21875 28.5039H-3.78125ZM13.9297 36.4961C11.3604 36.4961 9.73649 35.6957 8.71998 34.5861C7.66165 33.4308 6.79688 31.4292 6.79688 28.1914H-1.20312C-1.20312 32.8052 0.041477 36.9559 2.82104 39.9901C5.64242 43.0699 9.58489 44.4961 13.9297 44.4961V36.4961ZM6.79688 28.1914V12H-1.20312V28.1914H6.79688ZM6.79688 12C6.79688 12.4194 6.65341 13.1159 6.06237 13.7377C5.45104 14.3809 4.69167 14.5938 4.14453 14.5938V6.59375C2.77708 6.59375 1.34388 7.08985 0.263805 8.22618C-0.795992 9.34118 -1.20312 10.7407 -1.20312 12H6.79688ZM4.14453 14.5938C3.57989 14.5938 2.87847 14.3791 2.30976 13.8104C1.73655 13.2372 1.53125 12.5382 1.53125 12H9.53125C9.53125 10.6219 9.03298 9.21988 7.96661 8.15351C6.90473 7.09163 5.50995 6.59375 4.14453 6.59375V14.5938ZM1.53125 12V21.9805H9.53125V12H1.53125ZM1.53125 21.9805C1.53125 25.1199 4.12159 27.1914 6.74219 27.1914V19.1914C8.11278 19.1914 9.53125 20.2863 9.53125 21.9805H1.53125ZM6.74219 27.1914C9.23579 27.1914 12.0117 25.2737 12.0117 21.9805H4.01172C4.01172 20.1326 5.57671 19.1914 6.74219 19.1914V27.1914ZM12.0117 21.9805V7.05859H4.01172V21.9805H12.0117ZM12.0117 7.05859C12.0117 7.47331 11.8726 8.13905 11.3158 8.7427C10.7311 9.37659 9.9658 9.63281 9.33984 9.63281V1.63281C7.9131 1.63281 6.48371 2.182 5.43518 3.31883C4.41455 4.4254 4.01172 5.80403 4.01172 7.05859H12.0117ZM9.33984 9.63281C8.76394 9.63281 8.04392 9.40729 7.47091 8.81709C6.90706 8.23633 6.72656 7.55308 6.72656 7.05859H14.7266C14.7266 5.72426 14.2629 4.32813 13.2107 3.24444C12.1494 2.1513 10.7361 1.63281 9.33984 1.63281V9.63281ZM6.72656 7.05859V20.9844H14.7266V7.05859H6.72656ZM6.72656 20.9844C6.72656 24.1633 9.35882 26.1953 11.957 26.1953V18.1953C13.2662 18.1953 14.7266 19.2508 14.7266 20.9844H6.72656ZM11.957 26.1953C14.5331 26.1953 17.207 24.202 17.207 20.9844H9.20703C9.20703 19.212 10.7091 18.1953 11.957 18.1953V26.1953ZM17.207 20.9844V4.63672H9.20703V20.9844H17.207ZM17.207 4.63672C17.207 5.12606 17.0308 5.78916 16.4893 6.35774C15.9325 6.94238 15.2098 7.19141 14.5938 7.19141V-0.808594C13.1574 -0.808594 11.7413 -0.256832 10.6962 0.8405C9.66643 1.92178 9.20703 3.30753 9.20703 4.63672H17.207ZM14.5938 7.19141C13.9038 7.19141 13.1726 6.90295 12.6363 6.32839C12.1154 5.77022 11.9414 5.12423 11.9414 4.63672H19.9414C19.9414 1.85215 17.8396 -0.808594 14.5938 -0.808594V7.19141ZM11.9414 4.63672V20.9844H19.9414V4.63672H11.9414ZM11.9414 20.9844C11.9414 23.9604 14.3634 26.1953 17.1719 26.1953V18.1953C18.6132 18.1953 19.9414 19.3755 19.9414 20.9844H11.9414ZM17.1719 26.1953C19.8363 26.1953 22.4219 24.0803 22.4219 20.9844H14.4219C14.4219 19.2556 15.8356 18.1953 17.1719 18.1953V26.1953ZM22.4219 20.9844V7.05859H14.4219V20.9844H22.4219ZM22.4219 7.05859C22.4219 7.5521 22.2426 8.22676 21.689 8.80264C21.1255 9.389 20.401 9.63281 19.7891 9.63281V1.63281C18.3764 1.63281 16.9683 2.1696 15.9213 3.25889C14.8844 4.3377 14.4219 5.72524 14.4219 7.05859H22.4219ZM19.7891 9.63281C19.1771 9.63281 18.4527 9.389 17.8891 8.80264C17.3356 8.22676 17.1562 7.5521 17.1562 7.05859H25.1562C25.1562 5.72524 24.6937 4.3377 23.6568 3.25889C22.6098 2.1696 21.2018 1.63281 19.7891 1.63281V9.63281ZM17.1562 7.05859V26.2773H25.1562V7.05859H17.1562ZM17.1562 26.2773C17.1562 27.5311 17.5297 28.9692 18.6069 30.1327C19.7094 31.3234 21.177 31.8203 22.543 31.8203V23.8203C23.0886 23.8203 23.8628 24.0341 24.477 24.6974C25.066 25.3335 25.1562 26.0002 25.1562 26.2773H17.1562ZM22.543 31.8203C23.5209 31.8203 24.6818 31.5904 25.777 30.8357C26.8293 30.1106 27.4895 29.1283 27.9152 28.2029L20.6473 24.8596C20.6238 24.9108 20.7664 24.573 21.2377 24.2482C21.7518 23.894 22.2682 23.8203 22.543 23.8203V31.8203ZM27.9308 28.1685L30.7433 21.8989L23.4442 18.6245L20.6317 24.894L27.9308 28.1685ZM30.7525 21.8784C30.6176 22.1836 30.2694 22.7028 29.563 23.0339C28.8392 23.3732 28.073 23.3534 27.4783 23.1325L30.2638 15.6331C28.9856 15.1584 27.5162 15.1581 26.1675 15.7903C24.8361 16.4144 23.941 17.5 23.435 18.6451L30.7525 21.8784ZM27.5196 23.1476C26.8751 22.9162 26.1282 22.3182 25.8106 21.3513C25.5459 20.5454 25.748 19.9919 25.7609 19.9567L33.2703 22.7152C33.6348 21.7229 33.8955 20.3296 33.4111 18.8548C32.8738 17.2189 31.6288 16.1228 30.2226 15.618L27.5196 23.1476ZM25.7498 19.9873L22.1756 29.9678L29.7072 32.665L33.2814 22.6846L25.7498 19.9873ZM22.1752 29.969C21.1787 32.7543 19.9475 34.2912 18.7428 35.1616C17.5532 36.0212 16.0232 36.4961 13.9297 36.4961V44.4961C17.2854 44.4961 20.5699 43.7113 23.4281 41.646C26.2713 39.5917 28.3213 36.5386 29.7076 32.6639L22.1752 29.969Z" fill="black" mask="url(#path-1-inside-1_805_11863)"/>
</svg>
