<svg width="41" height="44" viewBox="0 0 41 44" fill="none" xmlns="http://www.w3.org/2000/svg">
<mask id="path-1-inside-1_805_11866" fill="white">
<path d="M3.71484 34.2227L19.0859 42.9336C20.1797 43.5586 21.2148 43.5586 22.3281 42.9336L37.6797 34.2227C39.4766 33.1875 40.4141 32.1719 40.4141 29.3789V13.9102C40.4141 11.8789 39.6719 10.6289 38.0312 9.67188L24.2031 1.82031C21.8398 0.472656 19.5547 0.472656 17.1914 1.82031L3.38281 9.67188C1.72266 10.6289 0.980469 11.8789 0.980469 13.9102V29.3789C0.980469 32.1719 1.9375 33.1875 3.71484 34.2227ZM29.8867 15.2969L14.75 6.74219L18.5 4.61328C20.0039 3.75391 21.3906 3.73438 22.9141 4.61328L35.7852 11.957L29.8867 15.2969ZM20.707 20.4922L5.62891 11.957L11.6641 8.5L26.7422 17.0742L20.707 20.4922ZM5.47266 31.6445C4.33984 31 3.94922 30.3555 3.94922 29.2812V14.5352L19.1641 23.2266V39.4375L5.47266 31.6445ZM35.9414 31.6445L22.2305 39.4375V23.2266L37.4453 14.5352V29.2812C37.4453 30.3555 37.0547 31 35.9414 31.6445Z"/>
</mask>
<path d="M3.71484 34.2227L1.70172 37.6791L1.72213 37.691L1.74268 37.7027L3.71484 34.2227ZM19.0859 42.9336L21.0705 39.4606L21.0643 39.4571L21.0581 39.4536L19.0859 42.9336ZM22.3281 42.9336L24.2863 46.4215L24.2942 46.4171L24.3022 46.4125L22.3281 42.9336ZM37.6797 34.2227L39.6537 37.7016L39.6651 37.6952L39.6764 37.6887L37.6797 34.2227ZM38.0312 9.67188L40.0467 6.21676L40.0266 6.205L40.0063 6.19347L38.0312 9.67188ZM24.2031 1.82031L22.2217 5.29506L22.2281 5.29871L24.2031 1.82031ZM17.1914 1.82031L19.1685 5.29752L19.1729 5.29505L17.1914 1.82031ZM3.38281 9.67188L1.40568 6.19467L1.39537 6.20053L1.3851 6.20645L3.38281 9.67188ZM29.8867 15.2969L27.9186 18.7792L29.8886 19.8925L31.8576 18.7776L29.8867 15.2969ZM14.75 6.74219L12.7752 3.26365L6.6341 6.75001L12.7819 10.2245L14.75 6.74219ZM18.5 4.61328L20.4748 8.09183L20.4846 8.08625L18.5 4.61328ZM22.9141 4.61328L20.9152 8.07802L20.9235 8.08281L20.9318 8.08755L22.9141 4.61328ZM35.7852 11.957L37.756 15.4378L43.8799 11.9703L37.7674 8.48276L35.7852 11.957ZM20.707 20.4922L18.7366 23.9732L20.7075 25.0889L22.6782 23.9728L20.707 20.4922ZM5.62891 11.957L3.64072 8.48613L-2.45462 11.9776L3.65845 15.438L5.62891 11.957ZM11.6641 8.5L13.6413 5.02288L11.6568 3.89438L9.67588 5.0291L11.6641 8.5ZM26.7422 17.0742L28.7134 20.5548L34.8466 17.0813L28.7195 13.5971L26.7422 17.0742ZM5.47266 31.6445L7.45133 28.1682L7.45075 28.1679L5.47266 31.6445ZM3.94922 14.5352L5.93329 11.0619L-0.0507812 7.64353V14.5352H3.94922ZM19.1641 23.2266H23.1641V20.9049L21.1481 19.7533L19.1641 23.2266ZM19.1641 39.4375L17.1854 42.9138L23.1641 46.3168V39.4375H19.1641ZM35.9414 31.6445L37.918 35.1221L37.9318 35.1142L37.9456 35.1062L35.9414 31.6445ZM22.2305 39.4375H18.2305V46.312L24.207 42.915L22.2305 39.4375ZM22.2305 23.2266L20.2464 19.7533L18.2305 20.9049V23.2266H22.2305ZM37.4453 14.5352H41.4453V7.64353L35.4612 11.0619L37.4453 14.5352ZM1.74268 37.7027L17.1138 46.4136L21.0581 39.4536L5.68701 30.7426L1.74268 37.7027ZM17.1014 46.4066C18.1334 46.9963 19.3434 47.4023 20.6997 47.4023C22.0524 47.4023 23.2586 46.9985 24.2863 46.4215L20.37 39.4457C20.2844 39.4937 20.4163 39.4023 20.6997 39.4023C20.8291 39.4023 20.9387 39.4222 21.0159 39.4447C21.0887 39.4659 21.1083 39.4822 21.0705 39.4606L17.1014 46.4066ZM24.3022 46.4125L39.6537 37.7016L35.7056 30.7437L20.3541 39.4546L24.3022 46.4125ZM39.6764 37.6887C40.7557 37.0669 42.1261 36.1543 43.1102 34.584C44.1117 32.9857 44.4141 31.2003 44.4141 29.3789H36.4141C36.4141 30.3505 36.2476 30.4693 36.3313 30.3359C36.3974 30.2304 36.4006 30.3432 35.683 30.7567L39.6764 37.6887ZM44.4141 29.3789V13.9102H36.4141V29.3789H44.4141ZM44.4141 13.9102C44.4141 12.4046 44.1365 10.8537 43.3139 9.40896C42.4879 7.95826 41.303 6.9496 40.0467 6.21676L36.0158 13.127C36.4001 13.3512 36.4066 13.446 36.3619 13.3674C36.3205 13.2948 36.4141 13.3844 36.4141 13.9102H44.4141ZM40.0063 6.19347L26.1781 -1.65809L22.2281 5.29871L36.0562 13.1503L40.0063 6.19347ZM26.1846 -1.65443C24.5088 -2.61006 22.6703 -3.19043 20.6973 -3.19043C18.7243 -3.19043 16.8858 -2.61006 15.2099 -1.65443L19.1729 5.29505C19.8603 4.90303 20.3461 4.80957 20.6973 4.80957C21.0485 4.80957 21.5342 4.90303 22.2217 5.29505L26.1846 -1.65443ZM15.2143 -1.65689L1.40568 6.19467L5.35995 13.1491L19.1685 5.29751L15.2143 -1.65689ZM1.3851 6.20645C0.118271 6.93674 -1.07787 7.94448 -1.91161 9.39964C-2.7421 10.8491 -3.01953 12.405 -3.01953 13.9102H4.98047C4.98047 13.384 5.07413 13.2993 5.02977 13.3767C4.98216 13.4598 4.9872 13.364 5.38053 13.1373L1.3851 6.20645ZM-3.01953 13.9102V29.3789H4.98047V13.9102H-3.01953ZM-3.01953 29.3789C-3.01953 31.2146 -2.70711 32.9986 -1.70321 34.5921C-0.720767 36.1516 0.640552 37.0611 1.70172 37.6791L5.72797 30.7662C5.01179 30.3491 5.00592 30.2332 5.06552 30.3278C5.14656 30.4564 4.98047 30.3362 4.98047 29.3789H-3.01953ZM31.8548 11.8145L16.7181 3.25985L12.7819 10.2245L27.9186 18.7792L31.8548 11.8145ZM16.7248 10.2207L20.4748 8.09181L16.5252 1.13475L12.7752 3.26365L16.7248 10.2207ZM20.4846 8.08625C20.6375 7.99883 20.7249 7.96872 20.7531 7.96029C20.7761 7.95344 20.7578 7.96125 20.7132 7.9614C20.6681 7.96155 20.6463 7.95373 20.6628 7.9586C20.6846 7.96503 20.7666 7.99232 20.9152 8.07802L24.913 1.14854C23.6727 0.433014 22.257 -0.0438403 20.6862 -0.0385515C19.1205 -0.0332796 17.7235 0.449988 16.5154 1.14031L20.4846 8.08625ZM20.9318 8.08755L33.8029 15.4313L37.7674 8.48276L24.8963 1.13901L20.9318 8.08755ZM33.8143 8.47628L27.9158 11.8161L31.8576 18.7776L37.756 15.4378L33.8143 8.47628ZM22.6775 17.0112L7.59936 8.47604L3.65845 15.438L18.7366 23.9732L22.6775 17.0112ZM7.61709 15.4279L13.6522 11.9709L9.67588 5.0291L3.64072 8.48613L7.61709 15.4279ZM9.68679 11.9771L24.7649 20.5513L28.7195 13.5971L13.6413 5.02288L9.68679 11.9771ZM24.771 13.5936L18.7358 17.0116L22.6782 23.9728L28.7134 20.5548L24.771 13.5936ZM7.45075 28.1679C7.17524 28.0111 7.41185 28.0853 7.66078 28.4765C7.78866 28.6775 7.86951 28.8836 7.91289 29.0606C7.95261 29.2226 7.94922 29.3123 7.94922 29.2812H-0.0507812C-0.0507812 30.3231 0.145259 31.5675 0.911487 32.7715C1.63893 33.9147 2.63726 34.6334 3.49456 35.1212L7.45075 28.1679ZM7.94922 29.2812V14.5352H-0.0507812V29.2812H7.94922ZM1.96514 18.0084L17.18 26.6998L21.1481 19.7533L5.93329 11.0619L1.96514 18.0084ZM15.1641 23.2266V39.4375H23.1641V23.2266H15.1641ZM21.1427 35.9612L7.45133 28.1682L3.49398 35.1209L17.1854 42.9138L21.1427 35.9612ZM33.9649 28.167L20.2539 35.96L24.207 42.915L37.918 35.1221L33.9649 28.167ZM26.2305 39.4375V23.2266H18.2305V39.4375H26.2305ZM24.2145 26.6998L39.4294 18.0084L35.4612 11.0619L20.2464 19.7533L24.2145 26.6998ZM33.4453 14.5352V29.2812H41.4453V14.5352H33.4453ZM33.4453 29.2812C33.4453 29.3121 33.442 29.2245 33.4807 29.0656C33.5229 28.8924 33.6016 28.6901 33.7263 28.4922C33.9698 28.1056 34.2025 28.0293 33.9373 28.1828L37.9456 35.1062C38.7936 34.6152 39.7783 33.8944 40.4954 32.7559C41.2493 31.559 41.4453 30.3233 41.4453 29.2812H33.4453Z" fill="black" mask="url(#path-1-inside-1_805_11866)"/>
</svg>
