<svg width="37" height="44" viewBox="0 0 37 44" fill="none" xmlns="http://www.w3.org/2000/svg">
<path d="M13.2147 20.5879H15.0645H22.3262H24.1759L24.4253 20.6048C24.4264 20.6049 24.4276 20.605 24.4287 20.605C24.441 20.6853 24.4512 20.7984 24.4512 20.9512V29.502C24.4512 29.6614 24.4402 29.7776 24.4275 29.8583C24.3833 29.8623 24.3278 29.8652 24.2598 29.8652H13.1309C13.0628 29.8652 13.0074 29.8623 12.9632 29.8583C12.9504 29.7776 12.9395 29.6614 12.9395 29.502V20.9512C12.9395 20.7984 12.9496 20.6853 12.9619 20.605C12.9631 20.605 12.9642 20.6049 12.9654 20.6048L13.2147 20.5879Z" stroke="black" stroke-width="4"/>
</svg>
