<svg width="38" height="46" viewBox="0 0 38 46" fill="none" xmlns="http://www.w3.org/2000/svg">
<mask id="path-1-inside-1_805_11861" fill="white">
<path d="M7.03516 42.1133H17.7383C16.7227 41.2344 15.8438 40.1602 15.1992 38.9688H7.21094C5.19922 38.9688 4.125 37.9336 4.125 35.9805V6.41016C4.125 4.49609 5.17969 3.38281 7.21094 3.38281H27.6211C29.5742 3.38281 30.6875 4.47656 30.6875 6.41016V23.4609C31.8789 24.1055 32.9531 24.9648 33.832 26V6.37109C33.832 2.26953 31.8203 0.238281 27.7773 0.238281H7.03516C3.01172 0.238281 0.980469 2.28906 0.980469 6.37109V35.9805C0.980469 40.082 3.01172 42.1133 7.03516 42.1133ZM10.0234 11.3516H24.8281C25.5117 11.3516 26.0391 10.8047 26.0391 10.1211C26.0391 9.45703 25.5117 8.94922 24.8281 8.94922H10.0234C9.30078 8.94922 8.79297 9.45703 8.79297 10.1211C8.79297 10.8047 9.30078 11.3516 10.0234 11.3516ZM10.0234 18.1484H24.8281C25.5117 18.1484 26.0391 17.6211 26.0391 16.9375C26.0391 16.2734 25.5117 15.7461 24.8281 15.7461H10.0234C9.30078 15.7461 8.79297 16.2734 8.79297 16.9375C8.79297 17.6211 9.30078 18.1484 10.0234 18.1484ZM25.0625 42.1133C26.8203 42.1133 28.4805 41.5859 29.8477 40.6875L34.2422 45.082C34.7109 45.5508 35.1406 45.7266 35.668 45.7266C36.5664 45.7266 37.25 45.0234 37.25 44.0273C37.25 43.5977 37.0352 43.168 36.7031 42.8359L32.25 38.3633C33.2461 36.9375 33.832 35.2188 33.832 33.3438C33.832 28.4609 29.9062 24.5352 25.0625 24.5352C20.2188 24.5352 16.2539 28.5 16.2539 33.3438C16.2539 38.1875 20.2188 42.1133 25.0625 42.1133ZM25.0625 39.3203C21.7422 39.3203 19.0469 36.625 19.0469 33.3438C19.0469 30.0625 21.7422 27.3477 25.0625 27.3477C28.3242 27.3477 31.0195 30.0625 31.0195 33.3438C31.0195 36.625 28.3438 39.3203 25.0625 39.3203Z"/>
</mask>
<path d="M17.7383 42.1133V46.1133H28.4732L20.3558 39.0886L17.7383 42.1133ZM15.1992 38.9688L18.7174 37.0655L17.5831 34.9688H15.1992V38.9688ZM30.6875 23.4609H26.6875V25.8448L28.7842 26.9791L30.6875 23.4609ZM33.832 26L30.7829 28.5889L37.832 36.8913V26H33.832ZM29.8477 40.6875L32.6761 37.8591L30.3729 35.5559L27.6509 37.3447L29.8477 40.6875ZM36.7031 42.8359L33.8685 45.6582L33.8747 45.6644L36.7031 42.8359ZM32.25 38.3633L28.971 36.0724L27.0551 38.8148L29.4154 41.1855L32.25 38.3633ZM7.03516 46.1133H17.7383V38.1133H7.03516V46.1133ZM20.3558 39.0886C19.688 38.5107 19.1211 37.8117 18.7174 37.0655L11.681 40.872C12.5664 42.5086 13.7573 43.958 15.1208 45.138L20.3558 39.0886ZM15.1992 34.9688H7.21094V42.9688H15.1992V34.9688ZM7.21094 34.9688C6.85031 34.9688 7.22728 34.88 7.69436 35.3318C7.91471 35.5449 8.03671 35.7726 8.0932 35.9315C8.14372 36.0736 8.125 36.1103 8.125 35.9805H0.125C0.125 37.6725 0.603353 39.6031 2.13279 41.0823C3.63991 42.5399 5.55984 42.9688 7.21094 42.9688V34.9688ZM8.125 35.9805V6.41016H0.125V35.9805H8.125ZM8.125 6.41016C8.125 6.16697 8.18138 6.56044 7.73468 7.00714C7.28651 7.4553 6.90644 7.38281 7.21094 7.38281V-0.617188C5.48419 -0.617188 3.56114 -0.133037 2.07782 1.35028C0.595966 2.83214 0.125 4.73928 0.125 6.41016H8.125ZM7.21094 7.38281H27.6211V-0.617188H7.21094V7.38281ZM27.6211 7.38281C27.867 7.38281 27.5051 7.44054 27.0783 7.01971C26.6432 6.59072 26.6875 6.20476 26.6875 6.41016H34.6875C34.6875 4.68196 34.1751 2.78232 32.6951 1.32307C31.2234 -0.12804 29.3283 -0.617188 27.6211 -0.617188V7.38281ZM26.6875 6.41016V23.4609H34.6875V6.41016H26.6875ZM28.7842 26.9791C29.555 27.3961 30.2363 27.9452 30.7829 28.5889L36.8812 23.4111C35.6699 21.9845 34.2028 20.8148 32.5908 19.9428L28.7842 26.9791ZM37.832 26V6.37109H29.832V26H37.832ZM37.832 6.37109C37.832 3.72299 37.1822 0.99566 35.1662 -1.04476C33.1413 -3.09415 30.4203 -3.76172 27.7773 -3.76172V4.23828C28.4653 4.23828 28.9012 4.32612 29.1545 4.41126C29.3874 4.48957 29.4594 4.56175 29.4754 4.57796C29.476 4.57856 29.832 4.91764 29.832 6.37109H37.832ZM27.7773 -3.76172H7.03516V4.23828H27.7773V-3.76172ZM7.03516 -3.76172C4.38726 -3.76172 1.67363 -3.08183 -0.34633 -1.03747C-2.35766 0.998149 -3.01953 3.71826 -3.01953 6.37109H4.98047C4.98047 4.94189 5.33422 4.5956 5.34438 4.58532C5.3459 4.58379 5.65962 4.23828 7.03516 4.23828V-3.76172ZM-3.01953 6.37109V35.9805H4.98047V6.37109H-3.01953ZM-3.01953 35.9805C-3.01953 38.6382 -2.35997 41.3633 -0.342969 43.3998C1.68104 45.4433 4.39704 46.1133 7.03516 46.1133V38.1133C6.35405 38.1133 5.92071 38.0259 5.66764 37.9408C5.43437 37.8623 5.35973 37.7891 5.34102 37.7702C5.33653 37.7656 4.98047 37.4243 4.98047 35.9805H-3.01953ZM10.0234 15.3516H24.8281V7.35156H10.0234V15.3516ZM24.8281 15.3516C27.8042 15.3516 30.0391 12.9296 30.0391 10.1211H22.0391C22.0391 8.67981 23.2192 7.35156 24.8281 7.35156V15.3516ZM30.0391 10.1211C30.0391 7.11972 27.5905 4.94922 24.8281 4.94922V12.9492C23.433 12.9492 22.0391 11.7943 22.0391 10.1211H30.0391ZM24.8281 4.94922H10.0234V12.9492H24.8281V4.94922ZM10.0234 4.94922C7.22203 4.94922 4.79297 7.11972 4.79297 10.1211H12.793C12.793 10.8413 12.5024 11.5967 11.9167 12.1626C11.3332 12.7265 10.6201 12.9492 10.0234 12.9492V4.94922ZM4.79297 10.1211C4.79297 12.9296 7.00831 15.3516 10.0234 15.3516V7.35156C10.7106 7.35156 11.4424 7.62894 11.9969 8.19585C12.5385 8.74966 12.793 9.45805 12.793 10.1211H4.79297ZM10.0234 22.1484H24.8281V14.1484H10.0234V22.1484ZM24.8281 22.1484C27.7209 22.1484 30.0391 19.8302 30.0391 16.9375H22.0391C22.0391 15.412 23.3026 14.1484 24.8281 14.1484V22.1484ZM30.0391 16.9375C30.0391 14.0218 27.6781 11.7461 24.8281 11.7461V19.7461C23.3453 19.7461 22.0391 18.5251 22.0391 16.9375H30.0391ZM24.8281 11.7461H10.0234V19.7461H24.8281V11.7461ZM10.0234 11.7461C7.13437 11.7461 4.79297 14.0218 4.79297 16.9375H12.793C12.793 17.6487 12.5102 18.3829 11.9496 18.9371C11.3829 19.4974 10.6647 19.7461 10.0234 19.7461V11.7461ZM4.79297 16.9375C4.79297 19.8302 7.09164 22.1484 10.0234 22.1484V14.1484C10.6662 14.1484 11.3935 14.3988 11.9656 14.9709C12.5317 15.537 12.793 16.2664 12.793 16.9375H4.79297ZM25.0625 46.1133C27.6206 46.1133 30.0414 45.3466 32.0444 44.0303L27.6509 37.3447C26.9196 37.8253 26.02 38.1133 25.0625 38.1133V46.1133ZM27.0192 43.5159L31.4138 47.9105L37.0706 42.2536L32.6761 37.8591L27.0192 43.5159ZM31.4138 47.9105C32.5337 49.0304 33.9476 49.7266 35.668 49.7266V41.7266C35.8762 41.7266 36.2005 41.7669 36.5505 41.9217C36.8779 42.0664 37.0505 42.2335 37.0706 42.2536L31.4138 47.9105ZM35.668 49.7266C38.9931 49.7266 41.25 47.0085 41.25 44.0273H33.25C33.25 43.5961 33.409 43.0118 33.8859 42.5061C34.3704 41.9923 35.0333 41.7266 35.668 41.7266V49.7266ZM41.25 44.0273C41.25 42.2832 40.413 40.889 39.5316 40.0075L33.8747 45.6644C33.6573 45.4469 33.25 44.9121 33.25 44.0273H41.25ZM39.5377 40.0137L35.0846 35.5411L29.4154 41.1855L33.8685 45.6582L39.5377 40.0137ZM35.529 40.6541C36.9738 38.5861 37.832 36.0735 37.832 33.3438H29.832C29.832 34.364 29.5184 35.2889 28.971 36.0724L35.529 40.6541ZM37.832 33.3438C37.832 26.2634 32.127 20.5352 25.0625 20.5352V28.5352C27.6855 28.5352 29.832 30.6585 29.832 33.3438H37.832ZM25.0625 20.5352C18.0096 20.5352 12.2539 26.2909 12.2539 33.3438H20.2539C20.2539 30.7091 22.4279 28.5352 25.0625 28.5352V20.5352ZM12.2539 33.3438C12.2539 40.4197 18.0328 46.1133 25.0625 46.1133V38.1133C22.4047 38.1133 20.2539 35.9553 20.2539 33.3438H12.2539ZM25.0625 35.3203C23.9344 35.3203 23.0469 34.3989 23.0469 33.3438H15.0469C15.0469 38.8511 19.55 43.3203 25.0625 43.3203V35.3203ZM23.0469 33.3438C23.0469 32.2716 23.9513 31.3477 25.0625 31.3477V23.3477C19.533 23.3477 15.0469 27.8534 15.0469 33.3438H23.0469ZM25.0625 31.3477C26.0897 31.3477 27.0195 32.2461 27.0195 33.3438H35.0195C35.0195 27.8789 30.5588 23.3477 25.0625 23.3477V31.3477ZM27.0195 33.3438C27.0195 34.4329 26.1176 35.3203 25.0625 35.3203V43.3203C30.5699 43.3203 35.0195 38.8171 35.0195 33.3438H27.0195Z" fill="black" mask="url(#path-1-inside-1_805_11861)"/>
</svg>
