<svg width="45" height="44" viewBox="0 0 45 44" fill="none" xmlns="http://www.w3.org/2000/svg">
<mask id="path-1-inside-1_805_11875" fill="white">
<path d="M22.4883 40.9218C22.9961 40.9218 23.4844 40.8828 24.0117 40.8437L25.125 42.9726C25.3594 43.4218 25.7695 43.6367 26.3164 43.5781C26.8047 43.4804 27.1367 43.1093 27.2148 42.6015L27.5469 40.2383C28.5234 39.9648 29.4805 39.5937 30.3984 39.2031L32.1562 40.7851C32.5273 41.1367 32.9961 41.1953 33.4844 40.9414C33.9141 40.6875 34.0898 40.2383 33.9922 39.7109L33.5039 37.3867C34.3242 36.8203 35.125 36.1758 35.8477 35.4531L38.0156 36.3515C38.5039 36.5664 38.9727 36.4492 39.3438 36.0195C39.6758 35.6484 39.6953 35.1601 39.4219 34.7109L38.1523 32.6797C38.7383 31.8789 39.207 30.9804 39.6562 30.0429L42.0586 30.1601C42.5664 30.1992 42.9766 29.9062 43.1523 29.4375C43.3086 28.9492 43.1719 28.4804 42.7617 28.1679L40.8867 26.6836C41.1406 25.7265 41.3359 24.7304 41.4336 23.6758L43.6797 22.9531C44.1875 22.7968 44.4805 22.4258 44.4805 21.8984C44.4805 21.3711 44.1875 21 43.6797 20.8242L41.4336 20.1211C41.3359 19.0664 41.1406 18.0898 40.8867 17.1133L42.7617 15.6289C43.1523 15.3164 43.3086 14.8672 43.1523 14.3789C42.9766 13.9101 42.5664 13.6172 42.0586 13.6562L39.6562 13.7343C39.207 12.7968 38.7383 11.9375 38.1523 11.0976L39.4219 9.06637C39.6953 8.65622 39.6562 8.16794 39.3438 7.79684C38.9727 7.36716 38.5039 7.2695 38.0156 7.46481L35.8477 8.34372C35.125 7.64059 34.3242 6.97653 33.5039 6.41012L33.9922 4.10544C34.1094 3.55856 33.9141 3.10934 33.4844 2.87497C32.9961 2.60153 32.5273 2.66013 32.1562 3.03122L30.3984 4.59372C29.4805 4.18356 28.5234 3.85153 27.5469 3.55856L27.2148 1.21481C27.1367 0.707 26.7852 0.335906 26.2969 0.23825C25.7695 0.179656 25.3398 0.3945 25.125 0.824187L24.0117 2.95309C23.4844 2.91403 22.9961 2.8945 22.4883 2.8945C21.9609 2.8945 21.4922 2.91403 20.9648 2.95309L19.832 0.824187C19.6172 0.3945 19.1875 0.179656 18.6602 0.23825C18.1719 0.335906 17.8203 0.707 17.7617 1.21481L17.4102 3.55856C16.4336 3.85153 15.4961 4.16403 14.5586 4.59372L12.8008 3.03122C12.4297 2.66013 11.9609 2.62106 11.4727 2.87497C11.043 3.10934 10.8477 3.55856 10.9648 4.10544L11.4531 6.41012C10.6523 6.97653 9.83203 7.64059 9.10938 8.34372L6.94141 7.46481C6.45312 7.2695 6.00391 7.36716 5.63281 7.79684C5.30078 8.16794 5.26172 8.65622 5.53516 9.06637L6.80469 11.0976C6.23828 11.9375 5.75 12.7968 5.30078 13.7343L2.91797 13.6562C2.41016 13.6172 1.98047 13.9101 1.80469 14.3789C1.64844 14.8672 1.80469 15.3164 2.19531 15.6289L4.07031 17.1133C3.81641 18.0898 3.62109 19.0664 3.5625 20.1015L1.27734 20.8242C0.769531 21 0.496094 21.3711 0.496094 21.8984C0.496094 22.4258 0.769531 22.7968 1.27734 22.9531L3.5625 23.6758C3.62109 24.7304 3.81641 25.7265 4.07031 26.6836L2.19531 28.1679C1.80469 28.4609 1.66797 28.9297 1.80469 29.4375C1.98047 29.9062 2.41016 30.1992 2.91797 30.1601L5.30078 30.0429C5.75 30.9804 6.23828 31.8789 6.80469 32.6797L5.53516 34.7109C5.26172 35.1601 5.30078 35.6484 5.63281 36.0195C6.00391 36.4492 6.45312 36.5664 6.94141 36.3515L9.10938 35.4531C9.83203 36.1758 10.6523 36.8203 11.4531 37.3867L10.9648 39.7109C10.8672 40.2383 11.043 40.6875 11.4727 40.9414C11.9609 41.1953 12.4297 41.1367 12.8008 40.7851L14.5586 39.2031C15.4961 39.5937 16.4336 39.9648 17.4102 40.2383L17.7617 42.6015C17.8203 43.1093 18.1719 43.4804 18.6602 43.5781C19.1875 43.6367 19.5977 43.4218 19.832 42.9726L20.9648 40.8437C21.4727 40.8828 21.9609 40.9218 22.4883 40.9218ZM22.4492 16.8203C21.9609 16.8203 21.4922 16.8789 21.043 17.0156L15.457 7.46481C17.5664 6.42966 19.9492 5.84372 22.4883 5.84372C31.0039 5.84372 37.6641 12.3086 38.2891 20.6289H27.3906C26.8047 18.4218 24.8125 16.8203 22.4492 16.8203ZM6.62891 21.9179C6.62891 16.4687 9.20703 11.6836 13.25 8.77341L18.8359 18.3047C17.8984 19.2226 17.332 20.5117 17.332 21.9375C17.332 23.3633 17.8984 24.6328 18.8359 25.5703L13.1133 34.9258C9.14844 32.0156 6.62891 27.289 6.62891 21.9179ZM22.4492 24.3008C21.1016 24.3008 20.0859 23.2656 20.0859 21.9375C20.0859 20.6093 21.1016 19.5742 22.4492 19.5742C23.7773 19.5742 24.793 20.6093 24.793 21.9375C24.793 23.2656 23.7773 24.3008 22.4492 24.3008ZM22.4883 37.9726C19.8906 37.9726 17.4492 37.3672 15.3008 36.2734L21.0625 26.8593C21.4922 26.9765 21.9609 27.0547 22.4492 27.0547C24.8516 27.0547 26.8633 25.3945 27.4102 23.1484H38.3086C37.7031 31.4687 31.0234 37.9726 22.4883 37.9726Z"/>
</mask>
<path d="M22.4883 40.9218C22.9961 40.9218 23.4844 40.8828 24.0117 40.8437L25.125 42.9726C25.3594 43.4218 25.7695 43.6367 26.3164 43.5781C26.8047 43.4804 27.1367 43.1093 27.2148 42.6015L27.5469 40.2383C28.5234 39.9648 29.4805 39.5937 30.3984 39.2031L32.1562 40.7851C32.5273 41.1367 32.9961 41.1953 33.4844 40.9414C33.9141 40.6875 34.0898 40.2383 33.9922 39.7109L33.5039 37.3867C34.3242 36.8203 35.125 36.1758 35.8477 35.4531L38.0156 36.3515C38.5039 36.5664 38.9727 36.4492 39.3438 36.0195C39.6758 35.6484 39.6953 35.1601 39.4219 34.7109L38.1523 32.6797C38.7383 31.8789 39.207 30.9804 39.6562 30.0429L42.0586 30.1601C42.5664 30.1992 42.9766 29.9062 43.1523 29.4375C43.3086 28.9492 43.1719 28.4804 42.7617 28.1679L40.8867 26.6836C41.1406 25.7265 41.3359 24.7304 41.4336 23.6758L43.6797 22.9531C44.1875 22.7968 44.4805 22.4258 44.4805 21.8984C44.4805 21.3711 44.1875 21 43.6797 20.8242L41.4336 20.1211C41.3359 19.0664 41.1406 18.0898 40.8867 17.1133L42.7617 15.6289C43.1523 15.3164 43.3086 14.8672 43.1523 14.3789C42.9766 13.9101 42.5664 13.6172 42.0586 13.6562L39.6562 13.7343C39.207 12.7968 38.7383 11.9375 38.1523 11.0976L39.4219 9.06637C39.6953 8.65622 39.6562 8.16794 39.3438 7.79684C38.9727 7.36716 38.5039 7.2695 38.0156 7.46481L35.8477 8.34372C35.125 7.64059 34.3242 6.97653 33.5039 6.41012L33.9922 4.10544C34.1094 3.55856 33.9141 3.10934 33.4844 2.87497C32.9961 2.60153 32.5273 2.66013 32.1562 3.03122L30.3984 4.59372C29.4805 4.18356 28.5234 3.85153 27.5469 3.55856L27.2148 1.21481C27.1367 0.707 26.7852 0.335906 26.2969 0.23825C25.7695 0.179656 25.3398 0.3945 25.125 0.824187L24.0117 2.95309C23.4844 2.91403 22.9961 2.8945 22.4883 2.8945C21.9609 2.8945 21.4922 2.91403 20.9648 2.95309L19.832 0.824187C19.6172 0.3945 19.1875 0.179656 18.6602 0.23825C18.1719 0.335906 17.8203 0.707 17.7617 1.21481L17.4102 3.55856C16.4336 3.85153 15.4961 4.16403 14.5586 4.59372L12.8008 3.03122C12.4297 2.66013 11.9609 2.62106 11.4727 2.87497C11.043 3.10934 10.8477 3.55856 10.9648 4.10544L11.4531 6.41012C10.6523 6.97653 9.83203 7.64059 9.10938 8.34372L6.94141 7.46481C6.45312 7.2695 6.00391 7.36716 5.63281 7.79684C5.30078 8.16794 5.26172 8.65622 5.53516 9.06637L6.80469 11.0976C6.23828 11.9375 5.75 12.7968 5.30078 13.7343L2.91797 13.6562C2.41016 13.6172 1.98047 13.9101 1.80469 14.3789C1.64844 14.8672 1.80469 15.3164 2.19531 15.6289L4.07031 17.1133C3.81641 18.0898 3.62109 19.0664 3.5625 20.1015L1.27734 20.8242C0.769531 21 0.496094 21.3711 0.496094 21.8984C0.496094 22.4258 0.769531 22.7968 1.27734 22.9531L3.5625 23.6758C3.62109 24.7304 3.81641 25.7265 4.07031 26.6836L2.19531 28.1679C1.80469 28.4609 1.66797 28.9297 1.80469 29.4375C1.98047 29.9062 2.41016 30.1992 2.91797 30.1601L5.30078 30.0429C5.75 30.9804 6.23828 31.8789 6.80469 32.6797L5.53516 34.7109C5.26172 35.1601 5.30078 35.6484 5.63281 36.0195C6.00391 36.4492 6.45312 36.5664 6.94141 36.3515L9.10938 35.4531C9.83203 36.1758 10.6523 36.8203 11.4531 37.3867L10.9648 39.7109C10.8672 40.2383 11.043 40.6875 11.4727 40.9414C11.9609 41.1953 12.4297 41.1367 12.8008 40.7851L14.5586 39.2031C15.4961 39.5937 16.4336 39.9648 17.4102 40.2383L17.7617 42.6015C17.8203 43.1093 18.1719 43.4804 18.6602 43.5781C19.1875 43.6367 19.5977 43.4218 19.832 42.9726L20.9648 40.8437C21.4727 40.8828 21.9609 40.9218 22.4883 40.9218ZM22.4492 16.8203C21.9609 16.8203 21.4922 16.8789 21.043 17.0156L15.457 7.46481C17.5664 6.42966 19.9492 5.84372 22.4883 5.84372C31.0039 5.84372 37.6641 12.3086 38.2891 20.6289H27.3906C26.8047 18.4218 24.8125 16.8203 22.4492 16.8203ZM6.62891 21.9179C6.62891 16.4687 9.20703 11.6836 13.25 8.77341L18.8359 18.3047C17.8984 19.2226 17.332 20.5117 17.332 21.9375C17.332 23.3633 17.8984 24.6328 18.8359 25.5703L13.1133 34.9258C9.14844 32.0156 6.62891 27.289 6.62891 21.9179ZM22.4492 24.3008C21.1016 24.3008 20.0859 23.2656 20.0859 21.9375C20.0859 20.6093 21.1016 19.5742 22.4492 19.5742C23.7773 19.5742 24.793 20.6093 24.793 21.9375C24.793 23.2656 23.7773 24.3008 22.4492 24.3008ZM22.4883 37.9726C19.8906 37.9726 17.4492 37.3672 15.3008 36.2734L21.0625 26.8593C21.4922 26.9765 21.9609 27.0547 22.4492 27.0547C24.8516 27.0547 26.8633 25.3945 27.4102 23.1484H38.3086C37.7031 31.4687 31.0234 37.9726 22.4883 37.9726Z" stroke="black" stroke-width="8" mask="url(#path-1-inside-1_805_11875)"/>
</svg>
