<svg width="49" height="46" viewBox="0 0 49 46" fill="none" xmlns="http://www.w3.org/2000/svg">
<mask id="path-1-inside-1_805_11867" fill="white">
<path d="M1.68362 40.7305L5.08206 44.1485C6.80081 45.8868 8.77346 45.7696 10.6289 43.7188L30.9805 21.2969C31.5078 21.4727 32.0547 21.4337 32.6797 21.3165L34.8086 20.9258L36.1367 22.2735L36.0586 23.3868C35.9805 24.3829 36.2344 25.1446 37.211 26.1016L38.7344 27.586C39.6914 28.543 40.9219 28.6016 41.8594 27.6641L47.6797 21.8243C48.6172 20.8868 48.5782 19.6954 47.6211 18.7383L46.0782 17.2149C45.1211 16.2579 44.3789 15.9454 43.4219 16.0235L42.2696 16.1212L40.9805 14.8516L41.4688 12.6055C41.7227 11.4727 41.4102 10.5938 40.2383 9.42194L35.8438 5.04694C29.1641 -1.59369 20.2969 -1.43744 14.5157 4.34381C13.6758 5.16412 13.6172 6.31647 14.086 7.09772C14.5547 7.82037 15.4727 8.28912 16.7617 7.95709C19.6914 7.2735 22.7383 7.15631 25.5899 9.03131L24.418 11.9415C24.0274 12.8985 23.9688 13.6993 24.2227 14.4219L2.09378 35.2032C0.12112 37.0391 -0.0351295 38.9922 1.68362 40.7305ZM17.5039 5.086C22.3672 1.53131 28.9492 2.13678 33.4024 6.58991L38.2657 11.4141C38.7344 11.8829 38.8125 12.254 38.6758 12.9376L38.0313 15.9063L41.0391 18.8751L43.0117 18.7579C43.5196 18.7383 43.6758 18.7774 44.0664 19.168L45.2188 20.3204L40.336 25.2032L39.1836 24.0508C38.793 23.6602 38.7344 23.504 38.7539 22.9766L38.8907 21.0235L35.9024 18.0547L32.8555 18.5626C32.211 18.6993 31.918 18.6407 31.4297 18.1719L27.4258 14.168C26.918 13.6993 26.8594 13.3672 27.1719 12.6251L28.9297 8.44537C25.8047 5.53522 21.7422 4.28522 17.6797 5.47662C17.3672 5.55475 17.25 5.30084 17.5039 5.086ZM6.5469 41.6094L4.20315 39.2852C3.26565 38.3672 3.4805 37.6837 4.28128 36.961L25.9024 16.6094L28.8321 19.5782L8.85159 41.5508C8.14846 42.3516 7.4844 42.5469 6.5469 41.6094Z"/>
</mask>
<path d="M1.68362 40.7305L-1.16075 43.5429L-1.1529 43.5508L1.68362 40.7305ZM5.08206 44.1485L7.92643 41.3361L7.91858 41.3282L5.08206 44.1485ZM10.6289 43.7188L7.66707 41.0304L7.66279 41.0352L10.6289 43.7188ZM30.9805 21.2969L32.2454 17.5022L29.7714 16.6775L28.0186 18.6086L30.9805 21.2969ZM32.6797 21.3165L31.9578 17.3821L31.9502 17.3835L31.9426 17.385L32.6797 21.3165ZM34.8086 20.9258L37.6576 18.1181L36.1705 16.6092L34.0867 16.9915L34.8086 20.9258ZM36.1367 22.2735L40.1269 22.5535L40.2534 20.752L38.9857 19.4658L36.1367 22.2735ZM36.0586 23.3868L40.0464 23.6995L40.0477 23.6832L40.0488 23.6668L36.0586 23.3868ZM37.211 26.1016L34.4112 28.9585L34.4195 28.9665L37.211 26.1016ZM38.7344 27.586L41.5628 24.7576L41.5445 24.7392L41.5259 24.7211L38.7344 27.586ZM41.8594 27.6641L44.6878 30.4926L44.6926 30.4878L41.8594 27.6641ZM47.6797 21.8243L44.8513 18.9958L44.8466 19.0006L47.6797 21.8243ZM47.6211 18.7383L50.4495 15.9099L50.4405 15.9009L50.4315 15.892L47.6211 18.7383ZM46.0782 17.2149L43.2497 20.0433L43.2587 20.0523L43.2678 20.0613L46.0782 17.2149ZM43.4219 16.0235L43.0965 12.0367L43.0841 12.0378L43.4219 16.0235ZM42.2696 16.1212L39.4628 18.9711L40.7738 20.2622L42.6073 20.1069L42.2696 16.1212ZM40.9805 14.8516L37.0718 14.0019L36.6037 16.1553L38.1737 17.7016L40.9805 14.8516ZM41.4688 12.6055L37.5656 11.7307L37.5628 11.7432L37.5601 11.7558L41.4688 12.6055ZM40.2383 9.42194L43.0667 6.5935L43.0604 6.58722L40.2383 9.42194ZM35.8438 5.04694L38.6659 2.21222L38.6639 2.21023L35.8438 5.04694ZM14.5157 4.34381L17.3106 7.20532L17.3274 7.18888L17.3441 7.17224L14.5157 4.34381ZM14.086 7.09772L10.656 9.1557L10.692 9.21574L10.7301 9.27448L14.086 7.09772ZM16.7617 7.95709L15.8528 4.06173L15.8083 4.07212L15.764 4.08353L16.7617 7.95709ZM25.5899 9.03131L29.3003 10.5255L30.5234 7.48807L27.7875 5.68909L25.5899 9.03131ZM24.418 11.9415L28.1214 13.4531L28.1249 13.4443L28.1285 13.4356L24.418 11.9415ZM24.2227 14.4219L26.9609 17.3378L28.8602 15.5542L27.9965 13.096L24.2227 14.4219ZM2.09378 35.2032L4.81892 38.1313L4.82548 38.1251L4.83202 38.119L2.09378 35.2032ZM17.5039 5.086L15.1435 1.85667L15.0287 1.94059L14.9202 2.03245L17.5039 5.086ZM33.4024 6.58991L30.5739 9.41833L30.5796 9.42403L30.5854 9.42971L33.4024 6.58991ZM38.2657 11.4141L41.0941 8.5857L41.0884 8.57999L41.0827 8.57431L38.2657 11.4141ZM38.6758 12.9376L42.5847 13.7862L42.5917 13.7542L42.5981 13.722L38.6758 12.9376ZM38.0313 15.9063L34.1223 15.0577L33.6556 17.2077L35.2214 18.7532L38.0313 15.9063ZM41.0391 18.8751L38.2292 21.7219L39.4975 22.9737L41.2763 22.868L41.0391 18.8751ZM43.0117 18.7579L42.858 14.7608L42.8163 14.7624L42.7745 14.7649L43.0117 18.7579ZM45.2188 20.3204L48.0472 23.1488L50.8756 20.3204L48.0472 17.4919L45.2188 20.3204ZM40.336 25.2032L37.5075 28.0316L40.336 30.86L43.1644 28.0316L40.336 25.2032ZM38.7539 22.9766L34.7637 22.6973L34.7591 22.7629L34.7567 22.8286L38.7539 22.9766ZM38.8907 21.0235L42.8809 21.3028L43.0087 19.4763L41.7098 18.1858L38.8907 21.0235ZM35.9024 18.0547L38.7215 15.2171L37.2671 13.7721L35.2448 14.1092L35.9024 18.0547ZM32.8555 18.5626L32.1979 14.617L32.1113 14.6314L32.0255 14.6496L32.8555 18.5626ZM31.4297 18.1719L28.6013 21.0004L28.6301 21.0292L28.6596 21.0575L31.4297 18.1719ZM27.4258 14.168L30.2542 11.3396L30.1977 11.2831L30.1389 11.2288L27.4258 14.168ZM27.1719 12.6251L30.8584 14.1773L30.8591 14.1757L27.1719 12.6251ZM28.9297 8.44537L32.6169 9.99606L33.6997 7.42152L31.6557 5.51811L28.9297 8.44537ZM17.6797 5.47662L18.6499 9.35719L18.728 9.33765L18.8054 9.31497L17.6797 5.47662ZM6.5469 41.6094L9.37533 38.781L9.36941 38.7751L9.36347 38.7692L6.5469 41.6094ZM4.20315 39.2852L7.01972 36.445L7.01071 36.436L7.00165 36.4272L4.20315 39.2852ZM4.28128 36.961L6.96113 39.9306L6.99232 39.9024L7.0229 39.8736L4.28128 36.961ZM25.9024 16.6094L28.7495 13.7998L26.0054 11.0192L23.1607 13.6968L25.9024 16.6094ZM28.8321 19.5782L31.7915 22.2693L34.3408 19.4657L31.6792 16.7686L28.8321 19.5782ZM8.85159 41.5508L5.89219 38.8598L5.86878 38.8855L5.84583 38.9116L8.85159 41.5508ZM-1.1529 43.5508L2.24554 46.9688L7.91858 41.3282L4.52014 37.9102L-1.1529 43.5508ZM2.2377 46.9609C3.66972 48.4092 5.67467 49.52 8.09437 49.344C10.4199 49.1749 12.263 47.8747 13.5951 46.4025L7.66279 41.0352C7.41569 41.3083 7.26151 41.4082 7.22504 41.4292C7.19973 41.4438 7.30293 41.3804 7.51408 41.3651C7.61496 41.3578 7.71758 41.3634 7.81476 41.381C7.91102 41.3984 7.98397 41.4242 8.0302 41.4446C8.11909 41.4839 8.07656 41.4879 7.92642 41.3361L2.2377 46.9609ZM13.5908 46.4072L33.9424 23.9853L28.0186 18.6086L7.66707 41.0304L13.5908 46.4072ZM29.7156 25.0917C31.2297 25.5964 32.6015 25.4008 33.4169 25.248L31.9426 17.385C31.8481 17.4027 31.7896 17.4112 31.7559 17.4151C31.723 17.419 31.727 17.417 31.7587 17.4167C31.7919 17.4164 31.8563 17.418 31.9438 17.4305C32.0329 17.4431 32.1357 17.4656 32.2454 17.5022L29.7156 25.0917ZM33.4016 25.2508L35.5305 24.8602L34.0867 16.9915L31.9578 17.3821L33.4016 25.2508ZM31.9596 23.7335L33.2877 25.0812L38.9857 19.4658L37.6576 18.1181L31.9596 23.7335ZM32.1466 21.9935L32.0684 23.1068L40.0488 23.6668L40.1269 22.5535L32.1466 21.9935ZM32.0709 23.074C31.9969 24.0174 32.0659 25.1085 32.5312 26.2588C32.9791 27.3662 33.6788 28.2407 34.4112 28.9585L40.0107 23.2448C39.7666 23.0056 39.851 23.0206 39.9474 23.2589C39.9959 23.3789 40.0251 23.5005 40.038 23.6044C40.0498 23.6999 40.0431 23.7418 40.0464 23.6995L32.0709 23.074ZM34.4195 28.9665L35.9429 30.4509L41.5259 24.7211L40.0024 23.2367L34.4195 28.9665ZM35.906 30.4144C36.9589 31.4673 38.4293 32.2786 40.1787 32.3335C41.9669 32.3897 43.5429 31.6375 44.6878 30.4926L39.031 24.8357C39.2384 24.6283 39.7304 24.3155 40.4297 24.3375C41.0902 24.3582 41.467 24.6617 41.5628 24.7576L35.906 30.4144ZM44.6926 30.4878L50.5129 24.648L44.8466 19.0006L39.0262 24.8404L44.6926 30.4878ZM50.5081 24.6527C51.6152 23.5456 52.401 22.0005 52.3598 20.1973C52.3193 18.4244 51.493 16.9534 50.4495 15.9099L44.7927 21.5668C44.7062 21.4803 44.378 21.0835 44.3619 20.3799C44.3452 19.6461 44.6817 19.1655 44.8513 18.9959L50.5081 24.6527ZM50.4315 15.892L48.8885 14.3685L43.2678 20.0613L44.8108 21.5847L50.4315 15.892ZM48.9066 14.3865C48.238 13.7179 47.412 13.0349 46.3687 12.5732C45.2511 12.0786 44.1444 11.9512 43.0965 12.0368L43.7473 20.0102C43.7266 20.0119 43.6378 20.0169 43.5057 19.9968C43.3684 19.976 43.2387 19.9364 43.1313 19.8889C43.0305 19.8442 42.9882 19.8098 43.0097 19.8258C43.0351 19.8446 43.1125 19.9062 43.2497 20.0433L48.9066 14.3865ZM43.0841 12.0378L41.9318 12.1354L42.6073 20.1069L43.7597 20.0092L43.0841 12.0378ZM45.0763 13.2712L43.7872 12.0017L38.1737 17.7016L39.4628 18.9711L45.0763 13.2712ZM44.8892 15.7013L45.3775 13.4552L37.5601 11.7558L37.0718 14.0019L44.8892 15.7013ZM45.3719 13.4804C45.6379 12.2938 45.6469 10.9755 45.1276 9.60814C44.6509 8.35319 43.845 7.37178 43.0667 6.59351L37.4099 12.2504C37.5944 12.4349 37.6801 12.5437 37.711 12.5868C37.7384 12.625 37.6973 12.5762 37.6488 12.4486C37.5963 12.3103 37.5603 12.1456 37.5526 11.9779C37.5454 11.82 37.5664 11.7272 37.5656 11.7307L45.3719 13.4804ZM43.0604 6.58722L38.6659 2.21222L33.0217 7.88166L37.4162 12.2567L43.0604 6.58722ZM38.6639 2.21023C30.5264 -5.87972 19.1306 -5.92794 11.6872 1.51538L17.3441 7.17224C21.4632 3.05307 27.8018 2.69234 33.0237 7.88365L38.6639 2.21023ZM11.7207 1.48231C9.53575 3.61643 9.24795 6.80896 10.656 9.1557L17.5159 5.03973C17.9865 5.82398 17.8159 6.71181 17.3106 7.20532L11.7207 1.48231ZM10.7301 9.27448C12.1968 11.5357 14.919 12.5623 17.7595 11.8307L15.764 4.08353C15.7973 4.07495 16.0875 4.01742 16.5028 4.17094C16.9121 4.32217 17.2362 4.60404 17.4418 4.92095L10.7301 9.27448ZM17.6707 11.8525C20.1338 11.2777 21.8687 11.3717 23.3922 12.3735L27.7875 5.68909C23.6079 2.94088 19.2491 3.26926 15.8528 4.06173L17.6707 11.8525ZM21.8794 7.53717L20.7075 10.4473L28.1285 13.4356L29.3003 10.5255L21.8794 7.53717ZM20.7146 10.4299C20.0751 11.9966 19.7786 13.8401 20.4488 15.7479L27.9965 13.096C28.0266 13.1817 28.0484 13.2732 28.0599 13.3648C28.0713 13.4557 28.0705 13.529 28.0667 13.5782C28.0595 13.6717 28.0444 13.6417 28.1214 13.4531L20.7146 10.4299ZM21.4844 11.5061L-0.644469 32.2874L4.83202 38.119L26.9609 17.3378L21.4844 11.5061ZM-0.631362 32.2751C-2.05078 33.5961 -3.31104 35.4151 -3.48416 37.7015C-3.66491 40.0886 -2.59836 42.089 -1.16074 43.5429L4.52798 37.9181C4.37832 37.7668 4.3822 37.724 4.41975 37.8113C4.43915 37.8564 4.46331 37.927 4.47933 38.0195C4.49548 38.1128 4.5002 38.2104 4.493 38.3055C4.47798 38.5039 4.41954 38.5978 4.43668 38.5675C4.45967 38.5269 4.55796 38.3741 4.81892 38.1313L-0.631362 32.2751ZM19.8643 8.31533C23.0433 5.99176 27.4327 6.2771 30.5739 9.41833L36.2308 3.76148C30.4658 -2.00354 21.6912 -2.92914 15.1435 1.85667L19.8643 8.31533ZM30.5854 9.42971L35.4487 14.2539L41.0827 8.57431L36.2194 3.7501L30.5854 9.42971ZM35.4372 14.2426C35.3761 14.1814 35.0037 13.7894 34.8244 13.0936C34.6635 12.4694 34.7773 12.0342 34.7535 12.1531L42.5981 13.722C42.7111 13.1573 42.8542 12.1948 42.5712 11.097C42.2698 9.92755 41.624 9.11557 41.0941 8.5857L35.4372 14.2426ZM34.7669 12.0889L34.1223 15.0577L41.9402 16.755L42.5847 13.7862L34.7669 12.0889ZM35.2214 18.7532L38.2292 21.7219L43.849 16.0282L40.8412 13.0595L35.2214 18.7532ZM41.2763 22.868L43.249 22.7508L42.7745 14.7649L40.8019 14.8821L41.2763 22.868ZM43.1655 22.7549C43.2617 22.7512 43.1783 22.7584 43.0321 22.7472C42.8512 22.7335 42.5478 22.6915 42.1918 22.5594C41.4876 22.2982 41.1138 21.8722 41.238 21.9965L46.8949 16.3396C46.6285 16.0732 45.9812 15.4324 44.9743 15.0589C43.9963 14.6961 43.0985 14.7516 42.858 14.7608L43.1655 22.7549ZM41.238 21.9965L42.3903 23.1488L48.0472 17.4919L46.8949 16.3396L41.238 21.9965ZM42.3903 17.4919L37.5075 22.3748L43.1644 28.0316L48.0472 23.1488L42.3903 17.4919ZM43.1644 22.3748L42.012 21.2224L36.3552 26.8793L37.5075 28.0316L43.1644 22.3748ZM42.012 21.2224C41.8552 21.0656 42.2681 21.4222 42.5329 22.0896C42.8034 22.7713 42.7435 23.3323 42.7512 23.1247L34.7567 22.8286C34.7448 23.1483 34.7044 24.0511 35.097 25.0404C35.4839 26.0154 36.1214 26.6455 36.3552 26.8793L42.012 21.2224ZM42.7442 23.2559L42.8809 21.3028L34.9004 20.7442L34.7637 22.6973L42.7442 23.2559ZM41.7098 18.1858L38.7215 15.2171L33.0832 20.8924L36.0715 23.8612L41.7098 18.1858ZM35.2448 14.1092L32.1979 14.617L33.5131 22.5081L36.56 22.0003L35.2448 14.1092ZM32.0255 14.6496C31.852 14.6864 32.3766 14.5364 33.0955 14.7243C33.8549 14.9228 34.2552 15.3395 34.1998 15.2864L28.6596 21.0575C29.0925 21.4731 29.8834 22.1535 31.0725 22.4643C32.2211 22.7645 33.2145 22.5754 33.6855 22.4755L32.0255 14.6496ZM34.2581 15.3435L30.2542 11.3396L24.5974 16.9965L28.6013 21.0004L34.2581 15.3435ZM30.1389 11.2288C30.1393 11.2291 30.2908 11.3653 30.4619 11.6234C30.6564 11.9167 30.8516 12.33 30.9368 12.8415C31.0938 13.7833 30.7612 14.4082 30.8584 14.1773L23.4854 11.0728C23.2701 11.5841 22.8106 12.7461 23.0457 14.1567C23.3032 15.7021 24.228 16.6598 24.7127 17.1072L30.1389 11.2288ZM30.8591 14.1757L32.6169 9.99606L25.2425 6.89469L23.4847 11.0744L30.8591 14.1757ZM31.6557 5.51811C27.667 1.80365 22.1796 -0.0115336 16.554 1.63828L18.8054 9.31497C21.3048 8.58197 23.9424 9.26678 26.2037 11.3726L31.6557 5.51811ZM16.7096 1.59605C17.3895 1.42608 19.8862 1.23968 21.0209 3.73596C22.0718 6.04799 20.558 7.74157 20.0877 8.13954L14.9202 2.03245C14.1959 2.64527 12.6138 4.57323 13.738 7.04639C14.9459 9.70381 17.6574 9.6053 18.6499 9.35719L16.7096 1.59605ZM9.36347 38.7692L7.01972 36.445L1.38658 42.1255L3.73033 44.4497L9.36347 38.7692ZM7.00165 36.4272C6.92089 36.3481 7.70453 37.0721 7.57152 38.4376C7.45778 39.6053 6.74889 40.1221 6.96113 39.9306L1.60142 33.9914C1.01288 34.5225 -0.203821 35.7424 -0.390801 37.6621C-0.597054 39.7796 0.547915 41.3044 1.40465 42.1433L7.00165 36.4272ZM7.0229 39.8736L28.644 19.5221L23.1607 13.6968L1.53965 34.0484L7.0229 39.8736ZM23.0553 19.4191L25.985 22.3878L31.6792 16.7686L28.7495 13.7998L23.0553 19.4191ZM25.8727 16.8871L5.89219 38.8598L11.811 44.2419L31.7915 22.2693L25.8727 16.8871ZM5.84583 38.9116C5.6702 39.1117 6.21891 38.3515 7.44628 38.2465C8.80722 38.1301 9.50852 38.9142 9.37533 38.781L3.71847 44.4379C4.52279 45.2422 6.02486 46.3973 8.128 46.2174C10.0975 46.049 11.3299 44.7908 11.8574 44.19L5.84583 38.9116Z" fill="black" mask="url(#path-1-inside-1_805_11867)"/>
</svg>
