<svg width="48" height="34" viewBox="0 0 48 34" fill="none" xmlns="http://www.w3.org/2000/svg">
<mask id="path-1-inside-1_805_11859" fill="white">
<path d="M7.11328 33.5977H40.9023C45.0039 33.5977 47.0352 31.5664 47.0352 27.543V15.9805C47.0352 14.2227 46.8008 13.3438 45.9219 12.2695L39.1836 3.92969C36.8984 1.11719 35.8828 0.257812 32.4062 0.257812H15.6094C12.1328 0.257812 11.1367 1.11719 8.85156 3.92969L2.09375 12.2695C1.23438 13.3438 0.980469 14.2227 0.980469 15.9805V27.543C0.980469 31.5859 3.03125 33.5977 7.11328 33.5977ZM24.0078 21.1172C21.2539 21.1172 19.4766 18.7148 19.4766 16.4492V16.3906C19.4766 15.5703 18.9883 14.8086 17.9727 14.8086H5.10156C4.45703 14.8086 4.32031 14.2422 4.65234 13.832L11.8984 4.69141C12.8555 3.48047 13.9492 2.99219 15.375 2.99219H32.6406C34.0664 2.99219 35.1602 3.48047 36.1172 4.69141L43.3828 13.832C43.6953 14.2422 43.5781 14.8086 42.9336 14.8086H30.043C29.0273 14.8086 28.5586 15.5703 28.5586 16.3906V16.4492C28.5586 18.7148 26.7812 21.1172 24.0078 21.1172ZM32.2109 5.86328H15.8047C15.2773 5.86328 14.8672 6.27344 14.8672 6.80078C14.8672 7.32812 15.2773 7.73828 15.8047 7.73828H32.2109C32.7383 7.73828 33.1484 7.32812 33.1484 6.80078C33.1484 6.27344 32.7383 5.86328 32.2109 5.86328ZM34.8086 10.2773H13.207C12.6602 10.2773 12.2305 10.7656 12.2305 11.293C12.2305 11.8203 12.6602 12.2695 13.207 12.2695H34.8086C35.3555 12.2695 35.7852 11.8203 35.7852 11.293C35.7852 10.7656 35.3555 10.2773 34.8086 10.2773ZM7.15234 30.4531C5.19922 30.4531 4.125 29.418 4.125 27.3867V17.6602H16.5078C16.9766 21.3125 20.043 24.0078 24.0078 24.0078C27.9727 24.0078 31.0391 21.293 31.5078 17.6602H43.8906V27.3867C43.8906 29.418 42.7969 30.4531 40.8633 30.4531H7.15234Z"/>
</mask>
<path d="M45.9219 12.2695L42.8105 14.7834L42.8183 14.793L42.826 14.8025L45.9219 12.2695ZM39.1836 3.92969L42.295 1.41582L42.288 1.40732L39.1836 3.92969ZM8.85156 3.92969L5.7471 1.40731L5.74377 1.41143L8.85156 3.92969ZM2.09375 12.2695L-1.01404 9.75127L-1.02191 9.76099L-1.02973 9.77075L2.09375 12.2695ZM4.65234 13.832L7.76132 16.3488L7.77419 16.3329L7.7869 16.3169L4.65234 13.832ZM11.8984 4.69141L15.033 7.17628L15.0367 7.17162L11.8984 4.69141ZM36.1172 4.69141L32.9789 7.17163L32.9859 7.18038L36.1172 4.69141ZM43.3828 13.832L46.5645 11.4079L46.5397 11.3752L46.5141 11.3431L43.3828 13.832ZM4.125 17.6602V13.6602H0.125V17.6602H4.125ZM16.5078 17.6602L20.4753 17.151L20.0273 13.6602H16.5078V17.6602ZM31.5078 17.6602V13.6602H27.9908L27.5407 17.1483L31.5078 17.6602ZM43.8906 17.6602H47.8906V13.6602H43.8906V17.6602ZM7.11328 37.5977H40.9023V29.5977H7.11328V37.5977ZM40.9023 37.5977C43.5601 37.5977 46.2851 36.9381 48.3216 34.9211C50.3652 32.8971 51.0352 30.1811 51.0352 27.543H43.0352C43.0352 28.2241 42.9478 28.6574 42.8626 28.9105C42.7841 29.1438 42.7109 29.2184 42.692 29.2371C42.6875 29.2416 42.3461 29.5977 40.9023 29.5977V37.5977ZM51.0352 27.543V15.9805H43.0352V27.543H51.0352ZM51.0352 15.9805C51.0352 14.9661 50.9743 13.8597 50.6461 12.7418C50.2933 11.5401 49.7115 10.5846 49.0177 9.73658L42.826 14.8025C42.9321 14.9321 42.9674 14.9933 42.9735 15.0042C42.9764 15.0095 42.9752 15.0079 42.9725 15.0015C42.9698 14.995 42.9691 14.992 42.9701 14.9955C42.9788 15.025 43.0352 15.237 43.0352 15.9805H51.0352ZM49.0332 9.75567L42.2949 1.41583L36.0722 6.44354L42.8105 14.7834L49.0332 9.75567ZM42.288 1.40732C41.1897 0.0555336 39.9458 -1.43423 38.2523 -2.41888C36.3945 -3.4991 34.4482 -3.74219 32.4062 -3.74219V4.25781C33.8409 4.25781 34.1406 4.44442 34.2311 4.497C34.4859 4.64517 34.8923 4.99134 36.0791 6.45206L42.288 1.40732ZM32.4062 -3.74219H15.6094V4.25781H32.4062V-3.74219ZM15.6094 -3.74219C13.568 -3.74219 11.622 -3.49937 9.7655 -2.41447C8.07888 -1.42884 6.83899 0.0634622 5.74711 1.40732L11.956 6.45206C13.1493 4.98341 13.55 4.63978 13.8019 4.4926C13.8839 4.44468 14.1742 4.25781 15.6094 4.25781V-3.74219ZM5.74377 1.41143L-1.01404 9.75127L5.20154 14.7878L11.9594 6.44795L5.74377 1.41143ZM-1.02973 9.77075C-1.6945 10.6017 -2.26566 11.5416 -2.6187 12.7267C-2.95045 13.8405 -3.01953 14.9441 -3.01953 15.9805H4.98047C4.98047 15.259 5.03834 15.0443 5.04839 15.0106C5.04967 15.0062 5.04845 15.0077 5.05562 14.9948C5.06715 14.974 5.10795 14.9049 5.21723 14.7683L-1.02973 9.77075ZM-3.01953 15.9805V27.543H4.98047V15.9805H-3.01953ZM-3.01953 27.543C-3.01953 30.1957 -2.34205 32.9143 -0.291844 34.9352C1.74772 36.9455 4.47012 37.5977 7.11328 37.5977V29.5977C5.67442 29.5977 5.33041 29.2439 5.32407 29.2377C5.30532 29.2192 5.23238 29.1454 5.15388 28.9132C5.06862 28.6611 4.98047 28.2273 4.98047 27.543H-3.01953ZM24.0078 17.1172C23.9138 17.1172 23.8674 17.0995 23.841 17.0871C23.8074 17.0712 23.7551 17.0381 23.6941 16.9697C23.6308 16.8988 23.5713 16.8039 23.5295 16.6955C23.4874 16.5862 23.4766 16.4979 23.4766 16.4492H15.4766C15.4766 20.4831 18.6282 25.1172 24.0078 25.1172V17.1172ZM23.4766 16.4492V16.3906H15.4766V16.4492H23.4766ZM23.4766 16.3906C23.4766 15.2299 23.1344 13.8557 22.1532 12.7014C21.095 11.4564 19.5757 10.8086 17.9727 10.8086V18.8086C17.3852 18.8086 16.6179 18.5417 16.0577 17.8826C15.5746 17.3142 15.4766 16.731 15.4766 16.3906H23.4766ZM17.9727 10.8086H5.10156V18.8086H17.9727V10.8086ZM5.10156 10.8086C6.03927 10.8086 7.60294 11.3497 8.25019 13.0541C8.79246 14.4821 8.27719 15.7116 7.76132 16.3488L1.54336 11.3152C0.69547 12.3626 0.0825383 14.0804 0.771294 15.8942C1.56502 17.9843 3.51933 18.8086 5.10156 18.8086V10.8086ZM7.7869 16.3169L15.033 7.17628L8.76388 2.20654L1.51779 11.3472L7.7869 16.3169ZM15.0367 7.17162C15.1273 7.05698 15.185 7.00509 15.2049 6.98852C15.2219 6.97437 15.2148 6.9828 15.1879 6.99571C15.161 7.00857 15.1472 7.01019 15.1623 7.0071C15.1814 7.00323 15.2464 6.99219 15.375 6.99219V-1.00781C14.1935 -1.00781 12.9499 -0.802262 11.734 -0.22032C10.5165 0.362405 9.54503 1.21814 8.7602 2.21119L15.0367 7.17162ZM15.375 6.99219H32.6406V-1.00781H15.375V6.99219ZM32.6406 6.99219C32.7692 6.99219 32.8342 7.00323 32.8533 7.0071C32.8685 7.01019 32.8546 7.00857 32.8278 6.99571C32.8008 6.9828 32.7937 6.97437 32.8107 6.98852C32.8306 7.00509 32.8883 7.05698 32.979 7.17162L39.2554 2.21119C38.4706 1.21814 37.4991 0.362405 36.2816 -0.22032C35.0658 -0.802262 33.8221 -1.00781 32.6406 -1.00781V6.99219ZM32.9859 7.18038L40.2515 16.321L46.5141 11.3431L39.2485 2.20243L32.9859 7.18038ZM40.2011 16.2562C39.7387 15.6494 39.2544 14.4787 39.7621 13.0957C40.0305 12.3644 40.5414 11.7265 41.2239 11.3067C41.8811 10.9024 42.5149 10.8086 42.9336 10.8086V18.8086C44.5406 18.8086 46.4986 17.9595 47.2721 15.8525C47.9214 14.0838 47.3394 12.4249 46.5645 11.4079L40.2011 16.2562ZM42.9336 10.8086H30.043V18.8086H42.9336V10.8086ZM30.043 10.8086C28.4339 10.8086 26.9045 11.4623 25.847 12.7313C24.875 13.8977 24.5586 15.2679 24.5586 16.3906H32.5586C32.5586 16.693 32.4766 17.2722 31.9928 17.8527C31.4237 18.5357 30.6364 18.8086 30.043 18.8086V10.8086ZM24.5586 16.3906V16.4492H32.5586V16.3906H24.5586ZM24.5586 16.4492C24.5586 16.4978 24.5478 16.5855 24.506 16.6937C24.4646 16.801 24.4056 16.8949 24.3427 16.9652C24.2822 17.0328 24.2292 17.0668 24.1928 17.0838C24.1634 17.0976 24.111 17.1172 24.0078 17.1172V25.1172C29.396 25.1172 32.5586 20.4953 32.5586 16.4492H24.5586ZM32.2109 1.86328H15.8047V9.86328H32.2109V1.86328ZM15.8047 1.86328C13.0682 1.86328 10.8672 4.0643 10.8672 6.80078H18.8672C18.8672 8.48258 17.4865 9.86328 15.8047 9.86328V1.86328ZM10.8672 6.80078C10.8672 9.53726 13.0682 11.7383 15.8047 11.7383V3.73828C17.4865 3.73828 18.8672 5.11899 18.8672 6.80078H10.8672ZM15.8047 11.7383H32.2109V3.73828H15.8047V11.7383ZM32.2109 11.7383C34.9474 11.7383 37.1484 9.53726 37.1484 6.80078H29.1484C29.1484 5.11899 30.5291 3.73828 32.2109 3.73828V11.7383ZM37.1484 6.80078C37.1484 4.0643 34.9474 1.86328 32.2109 1.86328V9.86328C30.5291 9.86328 29.1484 8.48258 29.1484 6.80078H37.1484ZM34.8086 6.27734H13.207V14.2773H34.8086V6.27734ZM13.207 6.27734C10.2023 6.27734 8.23047 8.81369 8.23047 11.293H16.2305C16.2305 12.7176 15.118 14.2773 13.207 14.2773V6.27734ZM8.23047 11.293C8.23047 13.9773 10.3992 16.2695 13.207 16.2695V8.26953C14.9211 8.26953 16.2305 9.66337 16.2305 11.293H8.23047ZM13.207 16.2695H34.8086V8.26953H13.207V16.2695ZM34.8086 16.2695C37.6164 16.2695 39.7852 13.9773 39.7852 11.293H31.7852C31.7852 9.66337 33.0945 8.26953 34.8086 8.26953V16.2695ZM39.7852 11.293C39.7852 8.81369 37.8133 6.27734 34.8086 6.27734V14.2773C32.8976 14.2773 31.7852 12.7176 31.7852 11.293H39.7852ZM7.15234 26.4531C6.8509 26.4531 7.26257 26.3811 7.73468 26.8532C8.20736 27.3259 8.125 27.7283 8.125 27.3867H0.125C0.125 29.0764 0.579748 31.012 2.07782 32.5101C3.57532 34.0076 5.50066 34.4531 7.15234 34.4531V26.4531ZM8.125 27.3867V17.6602H0.125V27.3867H8.125ZM4.125 21.6602H16.5078V13.6602H4.125V21.6602ZM12.5404 18.1693C13.2776 23.9135 18.1288 28.0078 24.0078 28.0078V20.0078C21.9571 20.0078 20.6756 18.7115 20.4753 17.151L12.5404 18.1693ZM24.0078 28.0078C29.8959 28.0078 34.7377 23.8856 35.4749 18.172L27.5407 17.1483C27.3404 18.7003 26.0494 20.0078 24.0078 20.0078V28.0078ZM31.5078 21.6602H43.8906V13.6602H31.5078V21.6602ZM39.8906 17.6602V27.3867H47.8906V17.6602H39.8906ZM39.8906 27.3867C39.8906 27.7094 39.8135 27.3111 40.2803 26.8465C40.7431 26.3859 41.1453 26.4531 40.8633 26.4531V34.4531C42.5148 34.4531 44.4307 34.0027 45.9238 32.5168C47.4208 31.0268 47.8906 29.0953 47.8906 27.3867H39.8906ZM40.8633 26.4531H7.15234V34.4531H40.8633V26.4531Z" fill="black" mask="url(#path-1-inside-1_805_11859)"/>
</svg>
