<svg width="41" height="34" viewBox="0 0 41 34" fill="none" xmlns="http://www.w3.org/2000/svg">
<mask id="path-1-inside-1_805_11865" fill="white">
<path d="M27.6602 9.69141C29.6914 9.69141 31.4102 8.38281 32.0742 6.58594H38.832C39.6328 6.58594 40.3359 5.88281 40.3359 5.00391C40.3359 4.125 39.6328 3.44141 38.832 3.44141H32.0742C31.4297 1.625 29.6914 0.296875 27.6602 0.296875C25.6289 0.296875 23.8711 1.625 23.2266 3.44141H2.54297C1.66406 3.44141 0.980469 4.125 0.980469 5.00391C0.980469 5.88281 1.66406 6.58594 2.54297 6.58594H23.2461C23.8906 8.38281 25.6289 9.69141 27.6602 9.69141ZM27.6602 7.28906C26.3711 7.28906 25.375 6.27344 25.375 4.98438C25.375 3.69531 26.3711 2.69922 27.6602 2.69922C28.9492 2.69922 29.9453 3.69531 29.9453 4.98438C29.9453 6.27344 28.9492 7.28906 27.6602 7.28906ZM2.46484 15.3555C1.66406 15.3555 0.980469 16.0586 0.980469 16.9375C0.980469 17.8164 1.66406 18.5 2.46484 18.5H9.45703C10.1016 20.3359 11.8398 21.6445 13.8711 21.6445C15.9023 21.6445 17.6406 20.3359 18.3047 18.5H38.7539C39.6328 18.5 40.3359 17.8164 40.3359 16.9375C40.3359 16.0586 39.6328 15.3555 38.7539 15.3555H18.2852C17.6406 13.5586 15.9023 12.25 13.8711 12.25C11.8398 12.25 10.1016 13.5586 9.45703 15.3555H2.46484ZM13.8711 19.2227C12.6016 19.2227 11.5859 18.207 11.5859 16.9375C11.5859 15.6484 12.6016 14.6523 13.8711 14.6523C15.1602 14.6523 16.1562 15.6484 16.1562 16.9375C16.1562 18.207 15.1602 19.2227 13.8711 19.2227ZM27.6602 33.5586C29.6914 33.5586 31.4297 32.25 32.0742 30.4336H38.832C39.6328 30.4336 40.3359 29.75 40.3359 28.8711C40.3359 27.9922 39.6328 27.2891 38.832 27.2891H32.0742C31.4297 25.4727 29.6914 24.1836 27.6602 24.1836C25.6289 24.1836 23.8906 25.4727 23.2461 27.2891H2.54297C1.66406 27.2891 0.980469 27.9922 0.980469 28.8711C0.980469 29.75 1.66406 30.4336 2.54297 30.4336H23.2266C23.8906 32.25 25.6289 33.5586 27.6602 33.5586ZM27.6602 31.1562C26.3711 31.1562 25.375 30.1406 25.375 28.8711C25.375 27.5625 26.3711 26.5859 27.6602 26.5859C28.9492 26.5859 29.9453 27.5625 29.9453 28.8711C29.9453 30.1406 28.9492 31.1562 27.6602 31.1562Z"/>
</mask>
<path d="M32.0742 6.58594V2.58594H29.2881L28.3222 5.19934L32.0742 6.58594ZM32.0742 3.44141L28.3045 4.77905L29.2492 7.44141H32.0742V3.44141ZM23.2266 3.44141V7.44141H26.0516L26.9963 4.77905L23.2266 3.44141ZM23.2461 6.58594L27.0112 5.23541L26.0609 2.58594H23.2461V6.58594ZM9.45703 18.5L13.2312 17.175L12.2921 14.5H9.45703V18.5ZM18.3047 18.5V14.5H15.4979L14.5432 17.1395L18.3047 18.5ZM18.2852 15.3555L14.52 16.706L15.4704 19.3555H18.2852V15.3555ZM9.45703 15.3555V19.3555H12.2718L13.2221 16.706L9.45703 15.3555ZM32.0742 30.4336V26.4336H29.2492L28.3045 29.096L32.0742 30.4336ZM32.0742 27.2891L28.3045 28.6267L29.2492 31.2891H32.0742V27.2891ZM23.2461 27.2891V31.2891H26.0711L27.0158 28.6267L23.2461 27.2891ZM23.2266 30.4336L26.9834 29.0601L26.0231 26.4336H23.2266V30.4336ZM27.6602 13.6914C31.4651 13.6914 34.6169 11.2447 35.8262 7.97254L28.3222 5.19934C28.2034 5.52093 27.9177 5.69141 27.6602 5.69141V13.6914ZM32.0742 10.5859H38.832V2.58594H32.0742V10.5859ZM38.832 10.5859C41.972 10.5859 44.3359 7.95966 44.3359 5.00391H36.3359C36.3359 3.80597 37.2937 2.58594 38.832 2.58594V10.5859ZM44.3359 5.00391C44.3359 1.98231 41.9078 -0.558594 38.832 -0.558594V7.44141C37.3578 7.44141 36.3359 6.26769 36.3359 5.00391H44.3359ZM38.832 -0.558594H32.0742V7.44141H38.832V-0.558594ZM35.8439 2.10377C34.6633 -1.22349 31.4734 -3.70312 27.6602 -3.70312V4.29688C27.7894 4.29688 27.9155 4.3364 28.0351 4.42338C28.1625 4.51595 28.2571 4.64546 28.3045 4.77905L35.8439 2.10377ZM27.6602 -3.70312C23.8662 -3.70312 20.6442 -1.24231 19.4569 2.10377L26.9963 4.77905C27.0394 4.65751 27.131 4.52774 27.2657 4.43044C27.3935 4.33806 27.5285 4.29688 27.6602 4.29688V-3.70312ZM23.2266 -0.558594H2.54297V7.44141H23.2266V-0.558594ZM2.54297 -0.558594C-0.545076 -0.558594 -3.01953 1.91586 -3.01953 5.00391H4.98047C4.98047 6.33414 3.8732 7.44141 2.54297 7.44141V-0.558594ZM-3.01953 5.00391C-3.01953 8.02665 -0.609815 10.5859 2.54297 10.5859V2.58594C3.93794 2.58594 4.98047 3.73897 4.98047 5.00391H-3.01953ZM2.54297 10.5859H23.2461V2.58594H2.54297V10.5859ZM19.481 7.93647C20.6753 11.2661 23.8812 13.6914 27.6602 13.6914V5.69141C27.3766 5.69141 27.1059 5.49953 27.0112 5.23541L19.481 7.93647ZM27.6602 3.28906C28.6247 3.28906 29.375 4.10906 29.375 4.98438H21.375C21.375 8.43782 24.1175 11.2891 27.6602 11.2891V3.28906ZM29.375 4.98438C29.375 5.39637 29.2057 5.84377 28.8626 6.18683C28.5196 6.52988 28.0721 6.69922 27.6602 6.69922V-1.30078C24.162 -1.30078 21.375 1.48617 21.375 4.98438H29.375ZM27.6602 6.69922C27.2482 6.69922 26.8008 6.52988 26.4577 6.18683C26.1147 5.84377 25.9453 5.39637 25.9453 4.98438H33.9453C33.9453 1.48617 31.1584 -1.30078 27.6602 -1.30078V6.69922ZM25.9453 4.98438C25.9453 4.10906 26.6956 3.28906 27.6602 3.28906V11.2891C31.2029 11.2891 33.9453 8.43782 33.9453 4.98438H25.9453ZM2.46484 11.3555C-0.740884 11.3555 -3.01953 14.0505 -3.01953 16.9375H4.98047C4.98047 18.0667 4.06901 19.3555 2.46484 19.3555V11.3555ZM-3.01953 16.9375C-3.01953 19.8909 -0.67737 22.5 2.46484 22.5V14.5C4.00549 14.5 4.98047 15.7419 4.98047 16.9375H-3.01953ZM2.46484 22.5H9.45703V14.5H2.46484V22.5ZM5.68285 19.825C6.86829 23.2017 10.0769 25.6445 13.8711 25.6445V17.6445C13.6028 17.6445 13.3348 17.4702 13.2312 17.175L5.68285 19.825ZM13.8711 25.6445C17.6718 25.6445 20.8586 23.1992 22.0662 19.8605L14.5432 17.1395C14.4227 17.4727 14.1329 17.6445 13.8711 17.6445V25.6445ZM18.3047 22.5H38.7539V14.5H18.3047V22.5ZM38.7539 22.5C41.7767 22.5 44.3359 20.0903 44.3359 16.9375H36.3359C36.3359 15.5425 37.489 14.5 38.7539 14.5V22.5ZM44.3359 16.9375C44.3359 13.8495 41.842 11.3555 38.7539 11.3555V19.3555C37.4237 19.3555 36.3359 18.2677 36.3359 16.9375H44.3359ZM38.7539 11.3555H18.2852V19.3555H38.7539V11.3555ZM22.0503 14.0049C20.8559 10.6753 17.6501 8.25 13.8711 8.25V16.25C14.1546 16.25 14.4253 16.4419 14.52 16.706L22.0503 14.0049ZM13.8711 8.25C10.0921 8.25 6.88624 10.6753 5.69192 14.0049L13.2221 16.706C13.3169 16.4419 13.5876 16.25 13.8711 16.25V8.25ZM9.45703 11.3555H2.46484V19.3555H9.45703V11.3555ZM13.8711 15.2227C14.8107 15.2227 15.5859 15.9979 15.5859 16.9375H7.58594C7.58594 20.4162 10.3924 23.2227 13.8711 23.2227V15.2227ZM15.5859 16.9375C15.5859 17.8799 14.7883 18.6523 13.8711 18.6523V10.6523C10.4148 10.6523 7.58594 13.417 7.58594 16.9375H15.5859ZM13.8711 18.6523C13.4591 18.6523 13.0117 18.483 12.6686 18.14C12.3256 17.7969 12.1562 17.3495 12.1562 16.9375H20.1562C20.1562 13.4393 17.3693 10.6523 13.8711 10.6523V18.6523ZM12.1562 16.9375C12.1562 16.0203 12.9287 15.2227 13.8711 15.2227V23.2227C17.3916 23.2227 20.1562 20.3938 20.1562 16.9375H12.1562ZM27.6602 37.5586C31.4467 37.5586 34.654 35.1245 35.8439 31.7712L28.3045 29.096C28.2053 29.3755 27.9361 29.5586 27.6602 29.5586V37.5586ZM32.0742 34.4336H38.832V26.4336H32.0742V34.4336ZM38.832 34.4336C41.9078 34.4336 44.3359 31.8927 44.3359 28.8711H36.3359C36.3359 27.6073 37.3578 26.4336 38.832 26.4336V34.4336ZM44.3359 28.8711C44.3359 25.9153 41.972 23.2891 38.832 23.2891V31.2891C37.2937 31.2891 36.3359 30.069 36.3359 28.8711H44.3359ZM38.832 23.2891H32.0742V31.2891H38.832V23.2891ZM35.8439 25.9514C34.6448 22.572 31.4196 20.1836 27.6602 20.1836V28.1836C27.9632 28.1836 28.2146 28.3733 28.3045 28.6267L35.8439 25.9514ZM27.6602 20.1836C23.9007 20.1836 20.6755 22.572 19.4764 25.9514L27.0158 28.6267C27.1057 28.3733 27.3571 28.1836 27.6602 28.1836V20.1836ZM23.2461 23.2891H2.54297V31.2891H23.2461V23.2891ZM2.54297 23.2891C-0.609815 23.2891 -3.01953 25.8483 -3.01953 28.8711H4.98047C4.98047 30.136 3.93794 31.2891 2.54297 31.2891V23.2891ZM-3.01953 28.8711C-3.01953 31.9591 -0.545076 34.4336 2.54297 34.4336V26.4336C3.8732 26.4336 4.98047 27.5409 4.98047 28.8711H-3.01953ZM2.54297 34.4336H23.2266V26.4336H2.54297V34.4336ZM19.4698 31.8071C20.6817 35.122 23.867 37.5586 27.6602 37.5586V29.5586C27.3909 29.5586 27.0996 29.378 26.9834 29.0601L19.4698 31.8071ZM27.6602 27.1562C28.6026 27.1562 29.375 27.9539 29.375 28.8711H21.375C21.375 32.3273 24.1396 35.1562 27.6602 35.1562V27.1562ZM29.375 28.8711C29.375 29.262 29.2133 29.7177 28.8542 30.0747C28.4985 30.4282 28.0491 30.5859 27.6602 30.5859V22.5859C24.1845 22.5859 21.375 25.3309 21.375 28.8711H29.375ZM27.6602 30.5859C27.2712 30.5859 26.8218 30.4282 26.4662 30.0747C26.1071 29.7177 25.9453 29.262 25.9453 28.8711H33.9453C33.9453 25.3309 31.1358 22.5859 27.6602 22.5859V30.5859ZM25.9453 28.8711C25.9453 27.9539 26.7177 27.1562 27.6602 27.1562V35.1562C31.1807 35.1562 33.9453 32.3273 33.9453 28.8711H25.9453Z" fill="black" mask="url(#path-1-inside-1_805_11865)"/>
</svg>
