<svg width="41" height="41" viewBox="0 0 41 41" fill="none" xmlns="http://www.w3.org/2000/svg">
<mask id="path-1-inside-1_805_11873" fill="white">
<path d="M20.418 40.8203C31.3164 40.8203 40.3398 31.7773 40.3398 20.8984C40.3398 10 31.2969 0.976562 20.3984 0.976562C9.51953 0.976562 0.496094 10 0.496094 20.8984C0.496094 31.7773 9.53906 40.8203 20.418 40.8203ZM20.418 37.5C11.1992 37.5 3.83594 30.1172 3.83594 20.8984C3.83594 12.0508 10.6133 4.88281 19.3242 4.33594V21.1719C19.3242 21.6016 19.4219 21.9531 19.793 22.3047L31.2383 33.5156C28.3477 35.9961 24.5586 37.5 20.418 37.5ZM21.9414 19.1992V4.35547C27.2344 4.84375 31.7852 7.77344 34.4609 12.0117L21.9414 19.1992ZM23.0352 21.6016L35.6914 14.3359C36.5508 16.3477 37.0195 18.5547 37.0195 20.8984C37.0195 24.9805 35.5742 28.7109 33.1523 31.6016L23.0352 21.6016Z"/>
</mask>
<path d="M19.3242 4.33594H23.3242V0.0769415L19.0736 0.343797L19.3242 4.33594ZM19.793 22.3047L22.592 19.4472L22.5682 19.4238L22.5439 19.4009L19.793 22.3047ZM31.2383 33.5156L33.8431 36.5512L37.1535 33.7105L34.0373 30.6581L31.2383 33.5156ZM21.9414 19.1992H17.9414V26.108L23.933 22.6682L21.9414 19.1992ZM21.9414 4.35547L22.3088 0.372381L17.9414 -0.0305193V4.35547H21.9414ZM34.4609 12.0117L36.4525 15.4807L40.0702 13.4037L37.8433 9.87633L34.4609 12.0117ZM23.0352 21.6016L21.0437 18.1326L16.4838 20.7503L20.2233 24.4464L23.0352 21.6016ZM35.6914 14.3359L39.3698 12.7646L37.6022 8.62673L33.6999 10.8669L35.6914 14.3359ZM33.1523 31.6016L30.3404 34.4464L33.4293 37.4995L36.2184 34.1704L33.1523 31.6016ZM20.418 44.8203C33.5281 44.8203 44.3398 33.9839 44.3398 20.8984H36.3398C36.3398 29.5707 29.1047 36.8203 20.418 36.8203V44.8203ZM44.3398 20.8984C44.3398 7.78578 33.5009 -3.02344 20.3984 -3.02344V4.97656C29.0928 4.97656 36.3398 12.2142 36.3398 20.8984H44.3398ZM20.3984 -3.02344C7.30785 -3.02344 -3.50391 7.79341 -3.50391 20.8984H4.49609C4.49609 12.2066 11.7312 4.97656 20.3984 4.97656V-3.02344ZM-3.50391 20.8984C-3.50391 33.9865 7.32992 44.8203 20.418 44.8203V36.8203C11.7482 36.8203 4.49609 29.5682 4.49609 20.8984H-3.50391ZM20.418 33.5C13.4145 33.5 7.83594 27.9142 7.83594 20.8984H-0.164062C-0.164062 32.3202 8.98394 41.5 20.418 41.5V33.5ZM7.83594 20.8984C7.83594 14.159 12.9751 8.74241 19.5748 8.32808L19.0736 0.343797C8.25142 1.02322 -0.164062 9.94253 -0.164062 20.8984H7.83594ZM15.3242 4.33594V21.1719H23.3242V4.33594H15.3242ZM15.3242 21.1719C15.3242 21.6845 15.381 22.404 15.6823 23.1936C15.994 24.0107 16.4801 24.6761 17.042 25.2085L22.5439 19.4009C22.7348 19.5817 22.9864 19.8956 23.1566 20.3416C23.3163 20.7601 23.3242 21.089 23.3242 21.1719H15.3242ZM16.994 25.1622L28.4393 36.3732L34.0373 30.6581L22.592 19.4472L16.994 25.1622ZM28.6334 30.48C26.4473 32.356 23.5761 33.5 20.418 33.5V41.5C25.5411 41.5 30.248 39.6362 33.8431 36.5512L28.6334 30.48ZM25.9414 19.1992V4.35547H17.9414V19.1992H25.9414ZM21.574 8.33856C25.5985 8.70982 29.0494 10.9329 31.0786 14.1471L37.8433 9.87633C34.5209 4.61393 28.8703 0.977679 22.3088 0.372381L21.574 8.33856ZM32.4694 8.54275L19.9499 15.7302L23.933 22.6682L36.4525 15.4807L32.4694 8.54275ZM25.0266 25.0706L37.6829 17.8049L33.6999 10.8669L21.0437 18.1326L25.0266 25.0706ZM32.013 15.9073C32.6607 17.4235 33.0195 19.0961 33.0195 20.8984H41.0195C41.0195 18.0132 40.4409 15.2718 39.3698 12.7646L32.013 15.9073ZM33.0195 20.8984C33.0195 24.0186 31.9194 26.8447 30.0863 29.0327L36.2184 34.1704C39.229 30.5772 41.0195 25.9423 41.0195 20.8984H33.0195ZM35.9642 28.7567L25.8471 18.7567L20.2233 24.4464L30.3404 34.4464L35.9642 28.7567Z" fill="black" mask="url(#path-1-inside-1_805_11873)"/>
</svg>
