<svg width="50" height="47" viewBox="0 0 50 47" fill="none" xmlns="http://www.w3.org/2000/svg">
<path d="M17.8366 38.7074C18.0094 38.5386 18.1567 38.3551 18.2798 38.1611C17.5893 41.0805 15.2248 43.435 12.3175 44.1258C12.507 44.0055 12.6863 43.8623 12.8517 43.695C13.4783 43.0609 13.7539 42.2334 13.7539 41.4297V39.6016H15.5625C16.3618 39.6016 17.1943 39.335 17.8366 38.7074ZM8.27334 43.695C8.4441 43.8678 8.62983 44.0149 8.82627 44.1376C5.86382 43.4641 3.50859 41.1088 2.83505 38.1464C2.95776 38.3428 3.1049 38.5286 3.27767 38.6993C3.91172 39.326 4.7393 39.6016 5.54297 39.6016H7.37109V41.4297C7.37109 42.2334 7.64667 43.0609 8.27334 43.695ZM15.5625 33.1992H13.7539V31.3906C13.7539 30.587 13.4783 29.7594 12.8517 29.1253C12.6809 28.9526 12.4952 28.8054 12.2987 28.6827C15.2543 29.3547 17.6054 31.7005 18.2852 34.6532C18.1633 34.4587 18.0172 34.2742 17.845 34.104C17.2 33.4664 16.3623 33.1992 15.5625 33.1992ZM2.84033 34.6509C3.52083 31.6993 5.8715 29.3545 8.82625 28.6827C8.62982 28.8054 8.44411 28.9526 8.27334 29.1253C7.64667 29.7594 7.37109 30.587 7.37109 31.3906V33.1992H5.54297C4.73864 33.1992 3.90598 33.4756 3.26938 34.1122C3.10222 34.2793 2.95968 34.4602 2.84033 34.6509Z" stroke="black" stroke-width="4"/>
</svg>
