<svg width="41" height="41" viewBox="0 0 41 41" fill="none" xmlns="http://www.w3.org/2000/svg">
<mask id="path-1-inside-1_805_11872" fill="white">
<path d="M20.418 40.8203C31.3164 40.8203 40.3398 31.7773 40.3398 20.8984C40.3398 10 31.2969 0.976562 20.3984 0.976562C9.51953 0.976562 0.496094 10 0.496094 20.8984C0.496094 31.7773 9.53906 40.8203 20.418 40.8203ZM8.73828 8.24219C10.6914 6.42578 13.0742 5.05859 15.6914 4.29688C14.3438 5.66406 13.1914 7.59766 12.332 9.98047C10.9453 9.53125 9.73438 8.94531 8.73828 8.24219ZM25.1641 4.31641C27.7617 5.07812 30.125 6.44531 32.0977 8.26172C31.1016 8.96484 29.8906 9.53125 28.5039 9.98047C27.6445 7.61719 26.4922 5.68359 25.1641 4.31641ZM14.8516 10.625C15.9453 7.63672 17.4688 5.48828 19.1484 4.74609V11.0742C17.6055 11.0156 16.1797 10.8594 14.8516 10.625ZM21.707 4.74609C23.3672 5.48828 24.8906 7.63672 25.9844 10.625C24.6562 10.8594 23.2305 11.0156 21.707 11.0742V4.74609ZM3.19141 19.6094C3.46484 16.0547 4.85156 12.7539 7 10.0977C8.21094 11.0156 9.77344 11.7773 11.5898 12.3633C11.0234 14.5508 10.6719 16.9922 10.5742 19.6094H3.19141ZM30.2617 19.6094C30.1641 16.9922 29.8125 14.5508 29.2461 12.3633C31.0625 11.7773 32.625 11.0156 33.8164 10.1172C35.9844 12.7539 37.3711 16.0547 37.6445 19.6094H30.2617ZM21.707 19.6094V13.6328C23.4648 13.5742 25.1445 13.3594 26.7266 13.0273C27.2344 15.0391 27.5469 17.2656 27.6445 19.6094H21.707ZM13.1914 19.6094C13.2891 17.2656 13.6211 15.0391 14.1094 13.0273C15.6914 13.3594 17.3711 13.5742 19.1484 13.6328V19.6094H13.1914ZM3.19141 22.168H10.5742C10.6719 24.8438 11.0234 27.3047 11.5898 29.5117C9.79297 30.0977 8.25 30.8594 7.05859 31.7578C4.87109 29.082 3.46484 25.7617 3.19141 22.168ZM13.1914 22.168H19.1484V28.2617C17.3906 28.3203 15.7109 28.5352 14.1484 28.8477C13.6211 26.8164 13.2695 24.5508 13.1914 22.168ZM21.707 28.2617V22.168H27.6445C27.5664 24.5508 27.2148 26.8164 26.6875 28.8477C25.1445 28.5352 23.4453 28.3203 21.707 28.2617ZM29.2461 29.5117C29.8125 27.3047 30.1641 24.8438 30.2617 22.168H37.6445C37.3711 25.7617 35.9648 29.082 33.7773 31.7578C32.5859 30.8594 31.043 30.0977 29.2461 29.5117ZM21.707 30.8203C23.2109 30.8789 24.6367 31.0156 25.9453 31.2695C24.8516 34.1797 23.3477 36.3281 21.707 37.0703V30.8203ZM14.8906 31.2695C16.1992 31.0156 17.625 30.8789 19.1484 30.8203V37.0703C17.4883 36.3281 15.9844 34.1797 14.8906 31.2695ZM28.4844 31.8945C29.8516 32.3438 31.043 32.9102 32.0391 33.5938C30.0859 35.3711 27.7617 36.7188 25.1836 37.4805C26.4922 36.1328 27.625 34.2188 28.4844 31.8945ZM8.79688 33.5938C9.79297 32.9102 10.9844 32.3438 12.3516 31.8945C13.2109 34.2188 14.3438 36.1328 15.6719 37.4805C13.0938 36.7188 10.75 35.3711 8.79688 33.5938Z"/>
</mask>
<path d="M8.73828 8.24219L6.01423 5.3131L2.40616 8.66861L6.43155 11.5101L8.73828 8.24219ZM15.6914 4.29688L18.5401 7.10488L29.3261 -3.83739L14.5736 0.456234L15.6914 4.29688ZM12.332 9.98047L11.0993 13.7858L14.7816 14.9786L16.0948 11.3375L12.332 9.98047ZM25.1641 4.31641L26.2896 0.478026L11.7039 -3.79898L22.2949 7.10355L25.1641 4.31641ZM32.0977 8.26172L34.4044 11.5296L38.4502 8.67369L34.8071 5.31916L32.0977 8.26172ZM28.5039 9.98047L24.7447 11.3474L26.064 14.9755L29.7366 13.7858L28.5039 9.98047ZM14.8516 10.625L11.0953 9.25015L9.45401 13.7343L14.1564 14.5641L14.8516 10.625ZM19.1484 4.74609H23.1484V-1.39443L17.5318 1.08735L19.1484 4.74609ZM19.1484 11.0742L18.9966 15.0713L23.1484 15.229V11.0742H19.1484ZM21.707 4.74609L23.3396 1.0944L17.707 -1.42367V4.74609H21.707ZM25.9844 10.625L26.6795 14.5641L31.3819 13.7343L29.7407 9.25015L25.9844 10.625ZM21.707 11.0742H17.707V15.231L21.8608 15.0713L21.707 11.0742ZM3.19141 19.6094L-0.796812 19.3026L-1.1281 23.6094H3.19141V19.6094ZM7 10.0977L9.41642 6.91004L6.32753 4.56846L3.88996 7.58218L7 10.0977ZM11.5898 12.3633L15.4621 13.3659L16.4076 9.71444L12.8179 8.55645L11.5898 12.3633ZM10.5742 19.6094V23.6094H14.4277L14.5714 19.7585L10.5742 19.6094ZM30.2617 19.6094L26.2645 19.7585L26.4082 23.6094H30.2617V19.6094ZM29.2461 12.3633L28.0181 8.55645L24.4283 9.71444L25.3738 13.3659L29.2461 12.3633ZM33.8164 10.1172L36.9061 7.57677L34.4703 4.61426L31.408 6.92348L33.8164 10.1172ZM37.6445 19.6094V23.6094H41.964L41.6327 19.3026L37.6445 19.6094ZM21.707 19.6094H17.707V23.6094H21.707V19.6094ZM21.707 13.6328L21.5738 9.63503L17.707 9.76392V13.6328H21.707ZM26.7266 13.0273L30.6049 12.0483L29.6647 8.32356L25.905 9.11263L26.7266 13.0273ZM27.6445 19.6094V23.6094H31.8147L31.6411 19.4429L27.6445 19.6094ZM13.1914 19.6094L9.19487 19.4429L9.02127 23.6094H13.1914V19.6094ZM14.1094 13.0273L14.931 9.11263L11.1367 8.3163L10.2222 12.0839L14.1094 13.0273ZM19.1484 13.6328H23.1484V9.76251L19.2802 9.63498L19.1484 13.6328ZM19.1484 19.6094V23.6094H23.1484V19.6094H19.1484ZM3.19141 22.168V18.168H-1.1245L-0.797065 22.4714L3.19141 22.168ZM10.5742 22.168L14.5716 22.0221L14.4309 18.168H10.5742V22.168ZM11.5898 29.5117L12.8299 33.3146L16.3969 32.1515L15.4643 28.5174L11.5898 29.5117ZM7.05859 31.7578L3.96176 34.2895L6.3961 37.2673L9.46696 34.9515L7.05859 31.7578ZM13.1914 22.168V18.168H9.05811L9.19355 22.299L13.1914 22.168ZM19.1484 22.168H23.1484V18.168H19.1484V22.168ZM19.1484 28.2617L19.2817 32.2595L23.1484 32.1306V28.2617H19.1484ZM14.1484 28.8477L10.2768 29.8528L11.2266 33.5112L14.9329 32.77L14.1484 28.8477ZM21.707 28.2617H17.707V32.1292L21.5723 32.2594L21.707 28.2617ZM21.707 22.168V18.168H17.707V22.168H21.707ZM27.6445 22.168L31.6424 22.299L31.7778 18.168H27.6445V22.168ZM26.6875 28.8477L25.8935 32.7681L29.607 33.5202L30.5592 29.8528L26.6875 28.8477ZM29.2461 29.5117L25.3716 28.5174L24.439 32.1515L28.006 33.3146L29.2461 29.5117ZM30.2617 22.168V18.168H26.405L26.2644 22.0221L30.2617 22.168ZM37.6445 22.168L41.633 22.4714L41.9604 18.168H37.6445V22.168ZM33.7773 31.7578L31.369 34.9515L34.4398 37.2673L36.8742 34.2895L33.7773 31.7578ZM21.707 30.8203L21.8628 26.8233L17.707 26.6614V30.8203H21.707ZM25.9453 31.2695L29.6896 32.6768L31.3554 28.2446L26.7072 27.3428L25.9453 31.2695ZM21.707 37.0703H17.707V43.2701L23.3557 40.7147L21.707 37.0703ZM14.8906 31.2695L14.1287 27.3428L9.48057 28.2446L11.1463 32.6768L14.8906 31.2695ZM19.1484 30.8203H23.1484V26.6635L18.9947 26.8233L19.1484 30.8203ZM19.1484 37.0703L17.5159 40.722L23.1484 43.2401V37.0703H19.1484ZM28.4844 31.8945L29.733 28.0944L26.0698 26.8908L24.7326 30.5073L28.4844 31.8945ZM32.0391 33.5938L34.7312 36.5522L38.4663 33.1533L34.3024 30.2957L32.0391 33.5938ZM25.1836 37.4805L22.3139 34.6939L11.6856 45.6394L26.317 41.3165L25.1836 37.4805ZM8.79688 33.5938L6.53351 30.2957L2.36964 33.1533L6.10471 36.5522L8.79688 33.5938ZM12.3516 31.8945L16.1033 30.5073L14.7661 26.8908L11.1029 28.0944L12.3516 31.8945ZM15.6719 37.4805L14.5385 41.3165L29.3938 45.7056L18.5209 34.6728L15.6719 37.4805ZM20.418 44.8203C33.5281 44.8203 44.3398 33.9839 44.3398 20.8984H36.3398C36.3398 29.5707 29.1047 36.8203 20.418 36.8203V44.8203ZM44.3398 20.8984C44.3398 7.78578 33.5009 -3.02344 20.3984 -3.02344V4.97656C29.0928 4.97656 36.3398 12.2142 36.3398 20.8984H44.3398ZM20.3984 -3.02344C7.30785 -3.02344 -3.50391 7.79341 -3.50391 20.8984H4.49609C4.49609 12.2066 11.7312 4.97656 20.3984 4.97656V-3.02344ZM-3.50391 20.8984C-3.50391 33.9865 7.32992 44.8203 20.418 44.8203V36.8203C11.7482 36.8203 4.49609 29.5682 4.49609 20.8984H-3.50391ZM11.4623 11.1713C12.9631 9.77552 14.7973 8.72307 16.8092 8.13752L14.5736 0.456234C11.3511 1.39412 8.41967 3.07604 6.01423 5.3131L11.4623 11.1713ZM12.8427 1.48887C10.9905 3.36791 9.57088 5.84621 8.56927 8.62341L16.0948 11.3375C16.8119 9.3491 17.697 7.96022 18.5401 7.10488L12.8427 1.48887ZM13.5647 6.17515C12.4892 5.82672 11.6557 5.40538 11.045 4.97432L6.43155 11.5101C7.81307 12.4852 9.40147 13.2358 11.0993 13.7858L13.5647 6.17515ZM24.0385 8.15479C26.0233 8.73679 27.8496 9.7876 29.3882 11.2043L34.8071 5.31916C32.4004 3.10303 29.5001 1.41946 26.2896 0.478026L24.0385 8.15479ZM29.7909 4.99385C29.2062 5.40661 28.3844 5.81453 27.2712 6.17515L29.7366 13.7858C31.3968 13.248 32.997 12.5231 34.4044 11.5296L29.7909 4.99385ZM32.2631 8.6135C31.2618 5.85989 29.8473 3.39677 28.0332 1.52926L22.2949 7.10355C23.137 7.97042 24.0273 9.37449 24.7447 11.3474L32.2631 8.6135ZM18.6079 11.9999C19.0624 10.7579 19.5599 9.82393 20.0186 9.19126C20.4982 8.52987 20.7906 8.39355 20.7651 8.40484L17.5318 1.08735C14.2931 2.51841 12.2764 6.02312 11.0953 9.25015L18.6079 11.9999ZM15.1484 4.74609V11.0742H23.1484V4.74609H15.1484ZM19.3002 7.0771C17.9346 7.02524 16.6905 6.88771 15.5467 6.68587L14.1564 14.5641C15.6689 14.831 17.2763 15.006 18.9966 15.0713L19.3002 7.0771ZM20.0745 8.39779C20.0424 8.38345 20.3343 8.51949 20.816 9.18609C21.2753 9.82169 21.7736 10.7582 22.2281 11.9999L29.7407 9.25015C29.1014 7.50349 28.2911 5.87167 27.3002 4.50044C26.3317 3.1602 25.0318 1.85092 23.3396 1.0944L20.0745 8.39779ZM25.2892 6.68587C24.1442 6.88793 22.8994 7.0254 21.5533 7.07717L21.8608 15.0713C23.5615 15.0058 25.1683 14.8308 26.6795 14.5641L25.2892 6.68587ZM25.707 11.0742V4.74609H17.707V11.0742H25.707ZM7.17962 19.9162C7.38801 17.2071 8.44724 14.669 10.11 12.6131L3.88996 7.58218C1.25588 10.8388 -0.458326 14.9023 -0.796812 19.3026L7.17962 19.9162ZM4.58358 13.2853C6.24569 14.5453 8.24408 15.487 10.3618 16.1701L12.8179 8.55645C11.3028 8.06772 10.1762 7.48599 9.41642 6.91004L4.58358 13.2853ZM7.71755 11.3606C7.07212 13.8533 6.68436 16.583 6.577 19.4602L14.5714 19.7585C14.6594 17.4014 14.9748 15.2483 15.4621 13.3659L7.71755 11.3606ZM10.5742 15.6094H3.19141V23.6094H10.5742V15.6094ZM34.2589 19.4602C34.1516 16.583 33.7638 13.8533 33.1184 11.3606L25.3738 13.3659C25.8612 15.2483 26.1765 17.4014 26.2645 19.7585L34.2589 19.4602ZM30.4741 16.1701C32.5884 15.4881 34.584 14.5482 36.2248 13.3109L31.408 6.92348C30.666 7.48302 29.5366 8.06659 28.0181 8.55645L30.4741 16.1701ZM30.7267 12.6576C32.3894 14.6798 33.4479 17.2062 33.6563 19.9162L41.6327 19.3026C41.2943 14.9032 39.5794 10.828 36.9061 7.57677L30.7267 12.6576ZM37.6445 15.6094H30.2617V23.6094H37.6445V15.6094ZM25.707 19.6094V13.6328H17.707V19.6094H25.707ZM21.8403 17.6306C23.8388 17.564 25.7488 17.3197 27.5482 16.9421L25.905 9.11263C24.5403 9.39904 23.0909 9.58446 21.5738 9.63503L21.8403 17.6306ZM22.8482 14.0063C23.2816 15.7234 23.5605 17.6752 23.648 19.7759L31.6411 19.4429C31.5333 16.8561 31.1871 14.3547 30.6049 12.0483L22.8482 14.0063ZM27.6445 15.6094H21.707V23.6094H27.6445V15.6094ZM17.1879 19.7759C17.2744 17.6999 17.5687 15.7335 17.9965 13.9708L10.2222 12.0839C9.6735 14.3447 9.30369 16.8314 9.19487 19.4429L17.1879 19.7759ZM13.2878 16.9421C15.0886 17.32 16.999 17.5641 19.0166 17.6306L19.2802 9.63498C17.7432 9.58431 16.2943 9.39875 14.931 9.11263L13.2878 16.9421ZM15.1484 13.6328V19.6094H23.1484V13.6328H15.1484ZM19.1484 15.6094H13.1914V23.6094H19.1484V15.6094ZM3.19141 26.168H10.5742V18.168H3.19141V26.168ZM6.57688 22.3139C6.68393 25.2469 7.07086 27.9946 7.7154 30.506L15.4643 28.5174C14.976 26.6148 14.6598 24.4406 14.5716 22.0221L6.57688 22.3139ZM10.3498 25.7088C8.24653 26.3946 6.27923 27.3357 4.65023 28.5641L9.46696 34.9515C10.2208 34.3831 11.3394 33.8007 12.8299 33.3146L10.3498 25.7088ZM10.1554 29.2261C8.46062 27.153 7.38819 24.6023 7.17988 21.8645L-0.797065 22.4714C-0.458503 26.9211 1.28157 31.0111 3.96176 34.2895L10.1554 29.2261ZM13.1914 26.168H19.1484V18.168H13.1914V26.168ZM15.1484 22.168V28.2617H23.1484V22.168H15.1484ZM19.0152 24.2639C17.018 24.3305 15.1199 24.5742 13.364 24.9253L14.9329 32.77C16.302 32.4962 17.7633 32.3101 19.2817 32.2595L19.0152 24.2639ZM18.0201 27.8425C17.5644 26.0873 17.2574 24.1147 17.1893 22.0369L9.19355 22.299C9.28168 24.9869 9.67778 27.5455 10.2768 29.8528L18.0201 27.8425ZM25.707 28.2617V22.168H17.707V28.2617H25.707ZM21.707 26.168H27.6445V18.168H21.707V26.168ZM23.6467 22.0369C23.5786 24.1147 23.2715 26.0873 22.8158 27.8425L30.5592 29.8528C31.1582 27.5455 31.5543 24.9869 31.6424 22.299L23.6467 22.0369ZM27.4815 24.9273C25.7349 24.5735 23.815 24.3305 21.8418 24.264L21.5723 32.2594C23.0756 32.3101 24.5542 32.4968 25.8935 32.7681L27.4815 24.9273ZM33.1205 30.506C33.7651 27.9946 34.152 25.2469 34.2591 22.3139L26.2644 22.0221C26.1761 24.4406 25.8599 26.6148 25.3716 28.5174L33.1205 30.506ZM30.2617 26.168H37.6445V18.168H30.2617V26.168ZM33.6561 21.8645C33.4477 24.6023 32.3753 27.153 30.6805 29.2261L36.8742 34.2895C39.5544 31.0111 41.2944 26.9211 41.633 22.4714L33.6561 21.8645ZM36.1857 28.5641C34.5567 27.3357 32.5894 26.3946 30.4862 25.7088L28.006 33.3146C29.4965 33.8007 30.6152 34.3831 31.369 34.9515L36.1857 28.5641ZM21.5513 34.8173C22.9221 34.8707 24.1338 34.9926 25.1834 35.1963L26.7072 27.3428C25.1396 27.0386 23.4997 26.8871 21.8628 26.8233L21.5513 34.8173ZM22.201 29.8623C21.7449 31.0758 21.2483 32.0044 20.7887 32.6407C20.3041 33.3116 20.0164 33.4448 20.0584 33.4259L23.3557 40.7147C25.0382 39.9536 26.3229 38.6415 27.2738 37.3252C28.2497 35.9741 29.0519 34.3734 29.6896 32.6768L22.201 29.8623ZM25.707 37.0703V30.8203H17.707V37.0703H25.707ZM15.6525 35.1963C16.701 34.9929 17.9118 34.8708 19.3022 34.8174L18.9947 26.8233C17.3382 26.887 15.6974 27.0384 14.1287 27.3428L15.6525 35.1963ZM15.1484 30.8203V37.0703H23.1484V30.8203H15.1484ZM20.781 33.4186C20.8166 33.4345 20.5284 33.3011 20.0459 32.6354C19.5869 32.0022 19.0911 31.0762 18.6349 29.8623L11.1463 32.6768C11.7839 34.373 12.587 35.9763 13.5684 37.3304C14.5263 38.652 15.8202 39.9639 17.5159 40.722L20.781 33.4186ZM27.2358 35.6947C28.3182 36.0503 29.1518 36.4636 29.7757 36.8918L34.3024 30.2957C32.9341 29.3567 31.3849 28.6372 29.733 28.0944L27.2358 35.6947ZM29.3469 30.6353C27.8182 32.0264 26.021 33.0621 24.0502 33.6444L26.317 41.3165C29.5025 40.3754 32.3537 38.7157 34.7312 36.5522L29.3469 30.6353ZM28.0533 40.267C29.8513 38.4154 31.241 35.973 32.2361 33.2817L24.7326 30.5073C24.009 32.4645 23.1331 33.8502 22.3139 34.6939L28.0533 40.267ZM11.0602 36.8918C11.6841 36.4636 12.5177 36.0503 13.6002 35.6947L11.1029 28.0944C9.45103 28.6372 7.9018 29.3567 6.53351 30.2957L11.0602 36.8918ZM8.59981 33.2817C9.59456 35.9721 10.9886 38.4269 12.8229 40.2882L18.5209 34.6728C17.6989 33.8387 16.8273 32.4654 16.1033 30.5073L8.59981 33.2817ZM16.8053 33.6444C14.8251 33.0594 13.0102 32.0196 11.489 30.6353L6.10471 36.5522C8.4898 38.7226 11.3624 40.3781 14.5385 41.3165L16.8053 33.6444Z" fill="black" mask="url(#path-1-inside-1_805_11872)"/>
</svg>
