<svg width="76" height="38" viewBox="0 0 76 38" fill="none" xmlns="http://www.w3.org/2000/svg">
<mask id="path-1-inside-1_805_11862" fill="white">
<path d="M38.3242 18.9766C42.9727 18.9766 46.7617 14.8359 46.7617 9.79688C46.7617 4.81641 43.0312 0.871094 38.3242 0.871094C33.6953 0.871094 29.8867 4.875 29.9062 9.83594C29.9062 14.8555 33.6953 18.9766 38.3242 18.9766ZM15.8242 19.4062C19.8477 19.4062 23.1484 15.793 23.1484 11.3594C23.1484 7.02344 19.8867 3.52734 15.8242 3.52734C11.8008 3.52734 8.48047 7.08203 8.5 11.3984C8.5 15.8125 11.8008 19.4062 15.8242 19.4062ZM60.8242 19.4062C64.8477 19.4062 68.1484 15.8125 68.1484 11.3984C68.168 7.08203 64.8477 3.52734 60.8242 3.52734C56.7617 3.52734 53.5 7.02344 53.5 11.3594C53.5 15.793 56.8008 19.4062 60.8242 19.4062ZM38.3242 16.0273C35.4727 16.0273 33.0508 13.293 33.0508 9.83594C33.0312 6.4375 35.4336 3.82031 38.3242 3.82031C41.2539 3.82031 43.6172 6.39844 43.6172 9.79688C43.6172 13.2539 41.2148 16.0273 38.3242 16.0273ZM15.8242 16.4961C13.4219 16.4961 11.4102 14.2109 11.4102 11.3984C11.4102 8.64453 13.4023 6.4375 15.8242 6.4375C18.2852 6.4375 20.2578 8.60547 20.2578 11.3594C20.2578 14.2109 18.2266 16.4961 15.8242 16.4961ZM60.8242 16.4961C58.4219 16.4961 56.3906 14.2109 56.3906 11.3594C56.3906 8.60547 58.3633 6.4375 60.8242 6.4375C63.2461 6.4375 65.2383 8.64453 65.2383 11.3984C65.2383 14.2109 63.207 16.4961 60.8242 16.4961ZM4.94531 37.3164H20.2773C19.3398 36.7891 18.6367 35.6172 18.7734 34.4258H4.47656C4.06641 34.4258 3.89062 34.2695 3.89062 33.8984C3.89062 29.0547 9.41797 24.5234 15.8047 24.5234C18.2461 24.5234 20.4727 25.1094 22.3672 26.2227C22.9727 25.4414 23.6953 24.7578 24.5742 24.1523C22.0547 22.4922 19.0273 21.6328 15.8047 21.6328C7.62109 21.6328 0.980469 27.5703 0.980469 34.0742C0.980469 36.2422 2.30859 37.3164 4.94531 37.3164ZM71.7031 37.3164C74.3398 37.3164 75.668 36.2422 75.668 34.0742C75.668 27.5703 69.0273 21.6328 60.8438 21.6328C57.6211 21.6328 54.5938 22.4922 52.0742 24.1523C52.9531 24.7578 53.6758 25.4414 54.2812 26.2227C56.1758 25.1094 58.3828 24.5234 60.8438 24.5234C67.2305 24.5234 72.7578 29.0547 72.7578 33.8984C72.7578 34.2695 72.582 34.4258 72.1719 34.4258H57.875C58.0117 35.6172 57.2891 36.7891 56.3711 37.3164H71.7031ZM26.0586 37.3164H50.5898C53.832 37.3164 55.3945 36.3398 55.3945 34.1914C55.3945 29.0742 48.9297 21.6719 38.3242 21.6719C27.7188 21.6719 21.2539 29.0742 21.2539 34.1914C21.2539 36.3398 22.7969 37.3164 26.0586 37.3164ZM25.1211 34.3672C24.6133 34.3672 24.3984 34.2305 24.3984 33.8203C24.3984 30.6172 29.3594 24.6211 38.3242 24.6211C47.2891 24.6211 52.25 30.6172 52.25 33.8203C52.25 34.2305 52.0352 34.3672 51.5273 34.3672H25.1211Z"/>
</mask>
<path d="M29.9062 9.83594H33.9062V9.82806L33.9062 9.82019L29.9062 9.83594ZM8.5 11.3984H12.5V11.3894L12.5 11.3803L8.5 11.3984ZM68.1484 11.3984L64.1485 11.3803L64.1484 11.3894V11.3984H68.1484ZM33.0508 9.83594H37.0508V9.82444L37.0507 9.81295L33.0508 9.83594ZM20.2773 37.3164V41.3164H35.5474L22.2384 33.8301L20.2773 37.3164ZM18.7734 34.4258L22.7474 34.8818L23.2587 30.4258H18.7734V34.4258ZM22.3672 26.2227L20.3407 29.6713L23.3738 31.4537L25.5288 28.6729L22.3672 26.2227ZM24.5742 24.1523L26.8434 27.4464L31.7322 24.0786L26.7751 20.8122L24.5742 24.1523ZM52.0742 24.1523L49.8734 20.8122L44.9162 24.0786L49.805 27.4464L52.0742 24.1523ZM54.2812 26.2227L51.1196 28.6729L53.2746 31.4537L56.3078 29.6713L54.2812 26.2227ZM57.875 34.4258V30.4258H53.3897L53.9011 34.8818L57.875 34.4258ZM56.3711 37.3164L54.3786 33.848L41.378 41.3164H56.3711V37.3164ZM38.3242 22.9766C45.4975 22.9766 50.7617 16.7155 50.7617 9.79688H42.7617C42.7617 12.9563 40.4478 14.9766 38.3242 14.9766V22.9766ZM50.7617 9.79688C50.7617 2.82196 45.4491 -3.12891 38.3242 -3.12891V4.87109C40.6134 4.87109 42.7617 6.81086 42.7617 9.79688H50.7617ZM38.3242 -3.12891C31.2752 -3.12891 25.8789 2.88597 25.9063 9.85169L33.9062 9.82019C33.8946 6.86403 36.1154 4.87109 38.3242 4.87109V-3.12891ZM25.9062 9.83594C25.9062 16.7461 31.1806 22.9766 38.3242 22.9766V14.9766C36.2101 14.9766 33.9062 12.9649 33.9062 9.83594H25.9062ZM15.8242 23.4062C22.3986 23.4062 27.1484 17.644 27.1484 11.3594H19.1484C19.1484 13.9419 17.2967 15.4062 15.8242 15.4062V23.4062ZM27.1484 11.3594C27.1484 5.07392 22.3468 -0.472656 15.8242 -0.472656V7.52734C17.4266 7.52734 19.1484 8.97295 19.1484 11.3594H27.1484ZM15.8242 -0.472656C9.33836 -0.472656 4.47163 5.1384 4.50004 11.4165L12.5 11.3803C12.4893 9.02566 14.2632 7.52734 15.8242 7.52734V-0.472656ZM4.5 11.3984C4.5 17.6833 9.26784 23.4062 15.8242 23.4062V15.4062C14.3337 15.4062 12.5 13.9417 12.5 11.3984H4.5ZM60.8242 23.4062C67.3806 23.4062 72.1484 17.6833 72.1484 11.3984H64.1484C64.1484 13.9417 62.3147 15.4062 60.8242 15.4062V23.4062ZM72.1484 11.4165C72.1768 5.1384 67.3101 -0.472656 60.8242 -0.472656V7.52734C62.3852 7.52734 64.1591 9.02566 64.1485 11.3803L72.1484 11.4165ZM60.8242 -0.472656C54.3016 -0.472656 49.5 5.07392 49.5 11.3594H57.5C57.5 8.97295 59.2218 7.52734 60.8242 7.52734V-0.472656ZM49.5 11.3594C49.5 17.644 54.2498 23.4062 60.8242 23.4062V15.4062C59.3518 15.4062 57.5 13.9419 57.5 11.3594H49.5ZM38.3242 12.0273C38.2286 12.0273 37.9657 11.985 37.6477 11.6161C37.3305 11.2483 37.0508 10.6347 37.0508 9.83594H29.0508C29.0508 14.9247 32.7273 20.0273 38.3242 20.0273V12.0273ZM37.0507 9.81295C37.0464 9.06636 37.3053 8.52667 37.5855 8.21159C37.8635 7.89889 38.1331 7.82031 38.3242 7.82031V-0.179688C32.8057 -0.179688 29.0211 4.6755 29.0508 9.85893L37.0507 9.81295ZM38.3242 7.82031C38.5643 7.82031 38.8305 7.91326 39.0887 8.20176C39.3543 8.49846 39.6172 9.02815 39.6172 9.79688H47.6172C47.6172 4.61823 43.8689 -0.179688 38.3242 -0.179688V7.82031ZM39.6172 9.79688C39.6172 10.6066 39.335 11.234 39.0139 11.6097C38.6957 11.982 38.432 12.0273 38.3242 12.0273V20.0273C43.9902 20.0273 47.6172 14.8508 47.6172 9.79688H39.6172ZM15.8242 12.4961C15.9429 12.4961 15.8908 12.5566 15.7335 12.3759C15.575 12.1938 15.4102 11.8563 15.4102 11.3984H7.41016C7.41016 15.8805 10.7093 20.4961 15.8242 20.4961V12.4961ZM15.4102 11.3984C15.4102 10.9862 15.5583 10.6997 15.6914 10.5508C15.8206 10.4063 15.8767 10.4375 15.8242 10.4375V2.4375C10.7825 2.4375 7.41016 6.86982 7.41016 11.3984H15.4102ZM15.8242 10.4375C15.8303 10.4375 15.8888 10.4288 15.996 10.5474C16.1106 10.6743 16.2578 10.9403 16.2578 11.3594H24.2578C24.2578 6.78753 20.8662 2.4375 15.8242 2.4375V10.4375ZM16.2578 11.3594C16.2578 11.8391 16.0866 12.1851 15.9257 12.3698C15.7645 12.5549 15.7075 12.4961 15.8242 12.4961V20.4961C20.9364 20.4961 24.2578 15.8837 24.2578 11.3594H16.2578ZM60.8242 12.4961C60.941 12.4961 60.884 12.5549 60.7227 12.3698C60.5618 12.1851 60.3906 11.8391 60.3906 11.3594H52.3906C52.3906 15.8837 55.712 20.4961 60.8242 20.4961V12.4961ZM60.3906 11.3594C60.3906 10.9403 60.5378 10.6743 60.6525 10.5474C60.7596 10.4288 60.8181 10.4375 60.8242 10.4375V2.4375C55.7823 2.4375 52.3906 6.78753 52.3906 11.3594H60.3906ZM60.8242 10.4375C60.7717 10.4375 60.8279 10.4063 60.957 10.5508C61.0901 10.6997 61.2383 10.9862 61.2383 11.3984H69.2383C69.2383 6.86982 65.866 2.4375 60.8242 2.4375V10.4375ZM61.2383 11.3984C61.2383 11.846 61.0754 12.1836 60.9115 12.3713C60.7457 12.5613 60.6901 12.4961 60.8242 12.4961V20.4961C65.9091 20.4961 69.2383 15.8926 69.2383 11.3984H61.2383ZM4.94531 41.3164H20.2773V33.3164H4.94531V41.3164ZM22.2384 33.8301C22.4743 33.9628 22.5816 34.1081 22.6374 34.2106C22.6994 34.3249 22.785 34.5538 22.7474 34.8818L14.7995 33.9698C14.4609 36.9202 16.1211 39.5679 18.3163 40.8027L22.2384 33.8301ZM18.7734 30.4258H4.47656V38.4258H18.7734V30.4258ZM4.47656 30.4258C4.63689 30.4258 5.70426 30.4294 6.70142 31.3243C7.80199 32.312 7.89062 33.5242 7.89062 33.8984H-0.109375C-0.109375 34.6438 0.0671488 36.1197 1.35815 37.2782C2.54574 38.344 3.90607 38.4258 4.47656 38.4258V30.4258ZM7.89062 33.8984C7.89062 33.0305 8.4195 31.7394 9.94629 30.5221C11.4319 29.3376 13.5349 28.5234 15.8047 28.5234V20.5234C11.6877 20.5234 7.83371 21.9749 4.95899 24.267C2.12542 26.5262 -0.109375 29.9226 -0.109375 33.8984H7.89062ZM15.8047 28.5234C17.5971 28.5234 19.1131 28.9499 20.3407 29.6713L24.3937 22.774C21.8323 21.2688 18.8951 20.5234 15.8047 20.5234V28.5234ZM25.5288 28.6729C25.8726 28.2294 26.2908 27.8271 26.8434 27.4464L22.305 20.8583C21.0999 21.6885 20.0727 22.6534 19.2055 23.7724L25.5288 28.6729ZM26.7751 20.8122C23.546 18.6846 19.7395 17.6328 15.8047 17.6328V25.6328C18.3152 25.6328 20.5634 26.2998 22.3734 27.4924L26.7751 20.8122ZM15.8047 17.6328C6.0169 17.6328 -3.01953 24.8013 -3.01953 34.0742H4.98047C4.98047 30.3394 9.22528 25.6328 15.8047 25.6328V17.6328ZM-3.01953 34.0742C-3.01953 36.0138 -2.38579 38.1143 -0.553844 39.6082C1.12177 40.9747 3.18666 41.3164 4.94531 41.3164V33.3164C4.54461 33.3164 4.33419 33.2742 4.26229 33.2546C4.1991 33.2375 4.31899 33.2591 4.50209 33.4084C4.59275 33.4823 4.68243 33.5746 4.76189 33.6826C4.84105 33.7902 4.89603 33.8944 4.93204 33.9825C5.00273 34.1555 4.98047 34.2154 4.98047 34.0742H-3.01953ZM71.7031 41.3164C73.4618 41.3164 75.5267 40.9747 77.2023 39.6082C79.0342 38.1143 79.668 36.0138 79.668 34.0742H71.668C71.668 34.2154 71.6457 34.1555 71.7164 33.9825C71.7524 33.8944 71.8074 33.7902 71.8866 33.6826C71.966 33.5746 72.0557 33.4823 72.1464 33.4084C72.3294 33.2591 72.4493 33.2375 72.3862 33.2546C72.3142 33.2742 72.1038 33.3164 71.7031 33.3164V41.3164ZM79.668 34.0742C79.668 24.8013 70.6315 17.6328 60.8438 17.6328V25.6328C67.4232 25.6328 71.668 30.3394 71.668 34.0742H79.668ZM60.8438 17.6328C56.9089 17.6328 53.1024 18.6846 49.8734 20.8122L54.2751 27.4924C56.0851 26.2998 58.3333 25.6328 60.8438 25.6328V17.6328ZM49.805 27.4464C50.3577 27.8271 50.7758 28.2294 51.1196 28.6729L57.4429 23.7724C56.5757 22.6534 55.5486 21.6885 54.3434 20.8583L49.805 27.4464ZM56.3078 29.6713C57.5379 28.9485 59.0349 28.5234 60.8438 28.5234V20.5234C57.7307 20.5234 54.8137 21.2703 52.2547 22.774L56.3078 29.6713ZM60.8438 28.5234C63.1135 28.5234 65.2165 29.3376 66.7021 30.5221C68.2289 31.7394 68.7578 33.0305 68.7578 33.8984H76.7578C76.7578 29.9226 74.523 26.5262 71.6895 24.267C68.8147 21.9749 64.9607 20.5234 60.8438 20.5234V28.5234ZM68.7578 33.8984C68.7578 33.5242 68.8464 32.312 69.947 31.3243C70.9442 30.4294 72.0115 30.4258 72.1719 30.4258V38.4258C72.7424 38.4258 74.1027 38.344 75.2903 37.2782C76.5813 36.1197 76.7578 34.6438 76.7578 33.8984H68.7578ZM72.1719 30.4258H57.875V38.4258H72.1719V30.4258ZM53.9011 34.8818C53.8609 34.5319 53.9558 34.298 54.0108 34.1976C54.059 34.1098 54.1532 33.9775 54.3786 33.848L58.3636 40.7848C60.4742 39.5723 62.1917 36.9564 61.8489 33.9698L53.9011 34.8818ZM56.3711 41.3164H71.7031V33.3164H56.3711V41.3164ZM26.0586 41.3164H50.5898V33.3164H26.0586V41.3164ZM50.5898 41.3164C52.465 41.3164 54.6052 41.0618 56.3742 39.9223C58.4861 38.5618 59.3945 36.406 59.3945 34.1914H51.3945C51.3945 34.245 51.3859 34.069 51.5231 33.795C51.6719 33.4979 51.8862 33.2971 52.0419 33.1969C52.1643 33.118 52.1595 33.1589 51.8949 33.2138C51.6335 33.2681 51.2139 33.3164 50.5898 33.3164V41.3164ZM59.3945 34.1914C59.3945 30.0985 56.9457 25.9434 53.4208 22.9596C49.7664 19.8663 44.5861 17.6719 38.3242 17.6719V25.6719C42.6678 25.6719 46.0227 27.1786 48.2521 29.0658C50.611 31.0625 51.3945 33.1671 51.3945 34.1914H59.3945ZM38.3242 17.6719C32.0623 17.6719 26.882 19.8663 23.2277 22.9596C19.7028 25.9434 17.2539 30.0985 17.2539 34.1914H25.2539C25.2539 33.1671 26.0375 31.0625 28.3963 29.0658C30.6258 27.1786 33.9806 25.6719 38.3242 25.6719V17.6719ZM17.2539 34.1914C17.2539 36.3885 18.1442 38.5507 20.2622 39.9192C22.0331 41.0635 24.1788 41.3164 26.0586 41.3164V33.3164C25.4281 33.3164 25.006 33.2679 24.7441 33.2136C24.4791 33.1586 24.4777 33.1183 24.604 33.1999C24.7644 33.3036 24.9799 33.5079 25.1281 33.8061C25.264 34.0795 25.2539 34.2522 25.2539 34.1914H17.2539ZM25.1211 30.3672C25.1505 30.3672 25.3409 30.367 25.616 30.4248C25.8958 30.4836 26.3971 30.6299 26.926 31.0155C28.2429 31.9758 28.3984 33.3424 28.3984 33.8203H20.3984C20.3984 34.7084 20.6614 36.3485 22.2126 37.4796C23.4219 38.3613 24.7252 38.3672 25.1211 38.3672V30.3672ZM28.3984 33.8203C28.3984 33.9213 28.6256 32.6497 30.5069 31.1361C32.1665 29.8008 34.7659 28.6211 38.3242 28.6211V20.6211C32.9177 20.6211 28.5542 22.4394 25.4921 24.903C22.6517 27.1882 20.3984 30.5162 20.3984 33.8203H28.3984ZM38.3242 28.6211C41.8826 28.6211 44.4819 29.8008 46.1415 31.1361C48.0228 32.6497 48.25 33.9213 48.25 33.8203H56.25C56.25 30.5162 53.9967 27.1882 51.1563 24.903C48.0943 22.4394 43.7307 20.6211 38.3242 20.6211V28.6211ZM48.25 33.8203C48.25 33.3424 48.4055 31.9758 49.7224 31.0155C50.2513 30.6299 50.7526 30.4836 51.0324 30.4248C51.3076 30.367 51.4979 30.3672 51.5273 30.3672V38.3672C51.9232 38.3672 53.2266 38.3613 54.4358 37.4796C55.9871 36.3485 56.25 34.7084 56.25 33.8203H48.25ZM51.5273 30.3672H25.1211V38.3672H51.5273V30.3672Z" fill="black" mask="url(#path-1-inside-1_805_11862)"/>
</svg>
