<svg width="36" height="37" viewBox="0 0 36 37" fill="none" xmlns="http://www.w3.org/2000/svg">
<mask id="path-1-inside-1_805_11864" fill="white">
<path d="M18.0508 18.25C22.6992 18.25 26.4883 14.1094 26.4883 9.07031C26.4883 4.07031 22.7188 0.144531 18.0508 0.144531C13.4219 0.144531 9.61328 4.14844 9.61328 9.10938C9.63281 14.1289 13.4023 18.25 18.0508 18.25ZM18.0508 15.3008C15.1992 15.3008 12.7578 12.5664 12.7578 9.10938C12.7578 5.71094 15.1602 3.09375 18.0508 3.09375C20.9609 3.09375 23.3438 5.67188 23.3438 9.07031C23.3438 12.5273 20.9219 15.3008 18.0508 15.3008ZM5.76562 36.3164H30.3164C33.5586 36.3164 35.1016 35.3398 35.1016 33.1914C35.1016 28.0742 28.6367 20.6719 18.0508 20.6719C7.44531 20.6719 0.980469 28.0742 0.980469 33.1914C0.980469 35.3398 2.52344 36.3164 5.76562 36.3164ZM4.84766 33.3672C4.33984 33.3672 4.125 33.2305 4.125 32.8203C4.125 29.6172 9.08594 23.6211 18.0508 23.6211C26.9961 23.6211 31.957 29.6172 31.957 32.8203C31.957 33.2305 31.7617 33.3672 31.2539 33.3672H4.84766Z"/>
</mask>
<path d="M9.61328 9.10938H5.61328V9.11716L5.61331 9.12494L9.61328 9.10938ZM18.0508 22.25C25.2241 22.25 30.4883 15.989 30.4883 9.07031H22.4883C22.4883 12.2298 20.1744 14.25 18.0508 14.25V22.25ZM30.4883 9.07031C30.4883 2.0576 25.1193 -3.85547 18.0508 -3.85547V4.14453C20.3182 4.14453 22.4883 6.08302 22.4883 9.07031H30.4883ZM18.0508 -3.85547C10.9998 -3.85547 5.61328 2.15847 5.61328 9.10938H13.6133C13.6133 6.1384 15.844 4.14453 18.0508 4.14453V-3.85547ZM5.61331 9.12494C5.64012 16.0143 10.8803 22.25 18.0508 22.25V14.25C15.9244 14.25 13.6255 12.2435 13.6133 9.09381L5.61331 9.12494ZM18.0508 11.3008C17.9521 11.3008 17.6816 11.2555 17.3579 10.882C17.0367 10.5112 16.7578 9.89937 16.7578 9.10938H8.75781C8.75781 14.2183 12.4713 19.3008 18.0508 19.3008V11.3008ZM16.7578 9.10938C16.7578 8.35567 17.0211 7.80867 17.3062 7.48879C17.5887 7.17192 17.8603 7.09375 18.0508 7.09375V-0.90625C12.5311 -0.90625 8.75781 3.94655 8.75781 9.10938H16.7578ZM18.0508 7.09375C18.2762 7.09375 18.5457 7.18295 18.8113 7.47897C19.0818 7.78034 19.3438 8.31049 19.3438 9.07031H27.3438C27.3438 3.88161 23.5669 -0.90625 18.0508 -0.90625V7.09375ZM19.3438 9.07031C19.3438 9.87149 19.0622 10.4992 18.7364 10.8793C18.4107 11.2594 18.144 11.3008 18.0508 11.3008V19.3008C23.6885 19.3008 27.3438 14.1343 27.3438 9.07031H19.3438ZM5.76562 40.3164H30.3164V32.3164H5.76562V40.3164ZM30.3164 40.3164C32.1899 40.3164 34.3318 40.0625 36.1004 38.9162C38.2126 37.5471 39.1016 35.3871 39.1016 33.1914H31.1016C31.1016 33.2521 31.0915 33.0805 31.2266 32.8083C31.3738 32.5116 31.5883 32.3073 31.7492 32.203C31.8764 32.1205 31.877 32.16 31.6161 32.2143C31.358 32.2681 30.9407 32.3164 30.3164 32.3164V40.3164ZM39.1016 33.1914C39.1016 29.0989 36.6531 24.9442 33.1315 21.9607C29.4803 18.8675 24.3047 16.6719 18.0508 16.6719V24.6719C22.3828 24.6719 25.7326 26.1774 27.9603 28.0647C30.3176 30.0617 31.1016 32.1667 31.1016 33.1914H39.1016ZM18.0508 16.6719C11.7889 16.6719 6.60861 18.8663 2.95424 21.9596C-0.570674 24.9434 -3.01953 29.0985 -3.01953 33.1914H4.98047C4.98047 32.1671 5.76403 30.0625 8.12291 28.0658C10.3523 26.1786 13.7072 24.6719 18.0508 24.6719V16.6719ZM-3.01953 33.1914C-3.01953 35.3871 -2.13059 37.5471 -0.0183553 38.9162C1.75028 40.0625 3.89218 40.3164 5.76562 40.3164V32.3164C5.14131 32.3164 4.72405 32.2681 4.46596 32.2143C4.20507 32.16 4.20563 32.1205 4.33281 32.203C4.49375 32.3073 4.70825 32.5116 4.85546 32.8083C4.9905 33.0805 4.98047 33.2521 4.98047 33.1914H-3.01953ZM4.84766 29.3672C4.87711 29.3672 5.06745 29.367 5.34258 29.4248C5.62241 29.4836 6.12371 29.6299 6.65259 30.0155C7.96947 30.9758 8.125 32.3424 8.125 32.8203H0.125C0.125 33.7084 0.38795 35.3485 1.93921 36.4796C3.14842 37.3613 4.4518 37.3672 4.84766 37.3672V29.3672ZM8.125 32.8203C8.125 32.9213 8.35217 31.6497 10.2335 30.1361C11.8931 28.8008 14.4924 27.6211 18.0508 27.6211V19.6211C12.6443 19.6211 8.28073 21.4394 5.21866 23.903C2.3783 26.1882 0.125 29.5162 0.125 32.8203H8.125ZM18.0508 27.6211C21.5973 27.6211 24.1914 28.7995 25.8494 30.1348C27.7292 31.6487 27.957 32.9206 27.957 32.8203H35.957C35.957 29.5169 33.7044 26.1891 30.8674 23.9043C27.8086 21.4408 23.4496 19.6211 18.0508 19.6211V27.6211ZM27.957 32.8203C27.957 32.4574 28.0525 31.0696 29.3738 30.0642C29.9191 29.6494 30.4446 29.4915 30.7399 29.4282C31.0273 29.3666 31.2267 29.3672 31.2539 29.3672V37.3672C31.6333 37.3672 32.9857 37.3685 34.218 36.4309C35.7639 35.2546 35.957 33.5933 35.957 32.8203H27.957ZM31.2539 29.3672H4.84766V37.3672H31.2539V29.3672Z" fill="black" mask="url(#path-1-inside-1_805_11864)"/>
</svg>
