<svg width="60" height="38" viewBox="0 0 60 38" fill="none" xmlns="http://www.w3.org/2000/svg">
<path d="M12.1445 24.1563C12.1445 24.5947 11.79 24.9493 11.3516 24.9493C10.9132 24.9493 10.5586 24.5947 10.5586 24.1563C10.5586 23.7179 10.9132 23.3633 11.3516 23.3633C11.79 23.3633 12.1445 23.7179 12.1445 24.1563ZM20.5625 24.1563C20.5625 24.5947 20.2079 24.9493 19.7695 24.9493C19.3311 24.9493 18.9766 24.5947 18.9766 24.1563C18.9766 23.7179 19.3311 23.3633 19.7695 23.3633C20.2079 23.3633 20.5625 23.7179 20.5625 24.1563ZM28.9805 24.1563C28.9805 24.5947 28.6259 24.9493 28.1875 24.9493C27.7491 24.9493 27.3945 24.5947 27.3945 24.1563C27.3945 23.7179 27.7491 23.3633 28.1875 23.3633C28.6259 23.3633 28.9805 23.7179 28.9805 24.1563Z" stroke="black" stroke-width="4"/>
</svg>
