<svg width="37" height="36" viewBox="0 0 37 36" fill="none" xmlns="http://www.w3.org/2000/svg">
<mask id="path-1-inside-1_805_11870" fill="white">
<path d="M34.7109 2.3125C32.7188 0.320312 29.9062 0.0078125 26.5664 0.0078125H11.3516C8.07031 0.0078125 5.25781 0.320312 3.26562 2.3125C1.27344 4.30469 0.980469 7.09766 0.980469 10.3594V25.4375C0.980469 28.7773 1.27344 31.5508 3.26562 33.543C5.25781 35.5352 8.07031 35.8477 11.3906 35.8477H26.5664C29.9062 35.8477 32.7188 35.5352 34.7109 33.543C36.7031 31.5508 36.9961 28.7773 36.9961 25.4375V10.418C36.9961 7.07812 36.7031 4.28516 34.7109 2.3125ZM33.8516 9.87109V25.9648C33.8516 27.9961 33.5977 30.0664 32.4062 31.2578C31.2344 32.4297 29.125 32.7031 27.1133 32.7031H10.8633C8.85156 32.7031 6.74219 32.4297 5.55078 31.2578C4.37891 30.0664 4.125 27.9961 4.125 25.9648V9.92969C4.125 7.87891 4.37891 5.76953 5.55078 4.59766C6.74219 3.40625 8.87109 3.15234 10.9219 3.15234H27.1133C29.125 3.15234 31.2344 3.42578 32.4062 4.59766C33.5977 5.78906 33.8516 7.85938 33.8516 9.87109ZM9.94531 17.8984C9.94531 18.8555 10.6289 19.5 11.625 19.5H17.3672V25.2617C17.3672 26.2383 18.0117 26.9219 18.9688 26.9219C19.9453 26.9219 20.6289 26.2578 20.6289 25.2617V19.5H26.3906C27.3672 19.5 28.0508 18.8555 28.0508 17.8984C28.0508 16.9219 27.3672 16.2383 26.3906 16.2383H20.6289V10.4961C20.6289 9.5 19.9453 8.81641 18.9688 8.81641C18.0117 8.81641 17.3672 9.5 17.3672 10.4961V16.2383H11.625C10.6094 16.2383 9.94531 16.9219 9.94531 17.8984Z"/>
</mask>
<path d="M34.7109 2.3125L31.8825 5.14093L31.8895 5.14789L31.8965 5.15483L34.7109 2.3125ZM5.55078 31.2578L2.69908 34.0628L2.72226 34.0863L2.74583 34.1095L5.55078 31.2578ZM17.3672 19.5H21.3672V15.5H17.3672V19.5ZM20.6289 19.5V15.5H16.6289V19.5H20.6289ZM20.6289 16.2383H16.6289V20.2383H20.6289V16.2383ZM17.3672 16.2383V20.2383H21.3672V16.2383H17.3672ZM37.5394 -0.515927C34.2769 -3.77836 29.8834 -3.99219 26.5664 -3.99219V4.00781C29.9291 4.00781 31.1606 4.41898 31.8825 5.14093L37.5394 -0.515927ZM26.5664 -3.99219H11.3516V4.00781H26.5664V-3.99219ZM11.3516 -3.99219C8.08361 -3.99219 3.69661 -3.77534 0.437198 -0.515927L6.09405 5.14093C6.81902 4.41596 8.05702 4.00781 11.3516 4.00781V-3.99219ZM0.437198 -0.515927C-2.82762 2.74889 -3.01953 7.12817 -3.01953 10.3594H4.98047C4.98047 7.06714 5.3745 5.86048 6.09405 5.14093L0.437198 -0.515927ZM-3.01953 10.3594V25.4375H4.98047V10.3594H-3.01953ZM-3.01953 25.4375C-3.01953 28.7404 -2.82961 33.1046 0.437198 36.3714L6.09405 30.7145C5.37649 29.997 4.98047 28.8143 4.98047 25.4375H-3.01953ZM0.437198 36.3714C3.69863 39.6328 8.09 39.8477 11.3906 39.8477V31.8477C8.05062 31.8477 6.817 31.4375 6.09405 30.7145L0.437198 36.3714ZM11.3906 39.8477H26.5664V31.8477H11.3906V39.8477ZM26.5664 39.8477C29.8834 39.8477 34.2769 39.6338 37.5394 36.3714L31.8825 30.7145C31.1606 31.4365 29.9291 31.8477 26.5664 31.8477V39.8477ZM37.5394 36.3714C40.8062 33.1046 40.9961 28.7404 40.9961 25.4375H32.9961C32.9961 28.8143 32.6001 29.997 31.8825 30.7145L37.5394 36.3714ZM40.9961 25.4375V10.418H32.9961V25.4375H40.9961ZM40.9961 10.418C40.9961 7.13082 40.8118 2.72438 37.5254 -0.529826L31.8965 5.15483C32.5944 5.84594 32.9961 7.02543 32.9961 10.418H40.9961ZM29.8516 9.87109V25.9648H37.8516V9.87109H29.8516ZM29.8516 25.9648C29.8516 26.8497 29.7924 27.5317 29.6781 28.0268C29.5615 28.532 29.4536 28.5536 29.5778 28.4294L35.2347 34.0862C36.5503 32.7706 37.165 31.1614 37.4732 29.8257C37.7838 28.48 37.8516 27.1112 37.8516 25.9648H29.8516ZM29.5778 28.4294C29.7204 28.2868 29.7024 28.4 29.17 28.5236C28.6628 28.6413 27.9715 28.7031 27.1133 28.7031V36.7031C28.2668 36.7031 29.636 36.6282 30.9794 36.3163C32.2976 36.0102 33.9202 35.4007 35.2347 34.0862L29.5778 28.4294ZM27.1133 28.7031H10.8633V36.7031H27.1133V28.7031ZM10.8633 28.7031C10.0058 28.7031 9.31321 28.6415 8.80185 28.523C8.26788 28.3994 8.23029 28.2827 8.35574 28.4061L2.74583 34.1095C4.06268 35.4048 5.67548 36.0108 6.99698 36.3168C8.34108 36.6281 9.70904 36.7031 10.8633 36.7031V28.7031ZM8.40249 28.4529C8.5255 28.5779 8.41558 28.551 8.29826 28.0367C8.18399 27.5357 8.125 26.8489 8.125 25.9648H0.125C0.125 27.112 0.192968 28.476 0.498619 29.8159C0.801218 31.1424 1.40419 32.7463 2.69908 34.0628L8.40249 28.4529ZM8.125 25.9648V9.92969H0.125V25.9648H8.125ZM8.125 9.92969C8.125 9.03344 8.18422 8.32895 8.30027 7.81481C8.42147 7.2779 8.53225 7.27304 8.37921 7.42608L2.72235 1.76923C1.39743 3.09415 0.795332 4.72991 0.496603 6.05335C0.192733 7.39956 0.125 8.77515 0.125 9.92969H8.125ZM8.37921 7.42608C8.23907 7.56622 8.25732 7.45183 8.79791 7.32935C9.31774 7.21158 10.0257 7.15234 10.9219 7.15234V-0.847656C9.76722 -0.847656 8.38538 -0.779937 7.03021 -0.472907C5.6958 -0.170579 4.0539 0.437688 2.72235 1.76923L8.37921 7.42608ZM10.9219 7.15234H27.1133V-0.847656H10.9219V7.15234ZM27.1133 7.15234C27.9715 7.15234 28.6628 7.21412 29.17 7.3319C29.7024 7.4555 29.7204 7.56869 29.5778 7.42608L35.2347 1.76923C33.9202 0.454746 32.2976 -0.154718 30.9794 -0.460801C29.636 -0.772716 28.2668 -0.847656 27.1133 -0.847656V7.15234ZM29.5778 7.42608C29.4543 7.30251 29.5621 7.325 29.6786 7.82847C29.7926 8.32107 29.8516 8.99797 29.8516 9.87109H37.8516C37.8516 8.7325 37.7835 7.36838 37.4727 6.02505C37.1644 4.69258 36.5497 3.0842 35.2347 1.76923L29.5778 7.42608ZM5.94531 17.8984C5.94531 19.3686 6.49337 20.8525 7.65599 21.9575C8.80076 23.0455 10.2573 23.5 11.625 23.5V15.5C11.9966 15.5 12.6133 15.6322 13.1672 16.1587C13.739 16.7022 13.9453 17.3853 13.9453 17.8984H5.94531ZM11.625 23.5H17.3672V15.5H11.625V23.5ZM13.3672 19.5V25.2617H21.3672V19.5H13.3672ZM13.3672 25.2617C13.3672 26.6396 13.8343 28.0916 14.9211 29.2256C16.0228 30.3752 17.4998 30.9219 18.9688 30.9219V22.9219C19.4806 22.9219 20.1569 23.1267 20.697 23.6904C21.2223 24.2385 21.3672 24.8604 21.3672 25.2617H13.3672ZM18.9688 30.9219C20.3824 30.9219 21.8521 30.4256 22.9816 29.3056C24.1162 28.1804 24.6289 26.7017 24.6289 25.2617H16.6289C16.6289 24.8179 16.7998 24.1692 17.3485 23.6251C17.892 23.0861 18.5317 22.9219 18.9688 22.9219V30.9219ZM24.6289 25.2617V19.5H16.6289V25.2617H24.6289ZM20.6289 23.5H26.3906V15.5H20.6289V23.5ZM26.3906 23.5C27.7685 23.5 29.2205 23.0329 30.3545 21.9461C31.5041 20.8444 32.0508 19.3674 32.0508 17.8984H24.0508C24.0508 17.3865 24.2556 16.7103 24.8193 16.1702C25.3674 15.6449 25.9893 15.5 26.3906 15.5V23.5ZM32.0508 17.8984C32.0508 16.452 31.5281 14.9865 30.4153 13.8737C29.3026 12.761 27.8371 12.2383 26.3906 12.2383V20.2383C25.9208 20.2383 25.2853 20.0574 24.7585 19.5306C24.2317 19.0038 24.0508 18.3683 24.0508 17.8984H32.0508ZM26.3906 12.2383H20.6289V20.2383H26.3906V12.2383ZM24.6289 16.2383V10.4961H16.6289V16.2383H24.6289ZM24.6289 10.4961C24.6289 9.06078 24.1202 7.59034 23.0052 6.46605C21.8887 5.3403 20.4163 4.81641 18.9688 4.81641V12.8164C18.4978 12.8164 17.8554 12.6343 17.3249 12.0994C16.7958 11.5659 16.6289 10.9353 16.6289 10.4961H24.6289ZM18.9688 4.81641C17.4986 4.81641 16.0147 5.36447 14.9097 6.52709C13.8217 7.67185 13.3672 9.12841 13.3672 10.4961H21.3672C21.3672 10.8677 21.235 11.4844 20.7085 12.0383C20.165 12.6101 19.4819 12.8164 18.9688 12.8164V4.81641ZM13.3672 10.4961V16.2383H21.3672V10.4961H13.3672ZM17.3672 12.2383H11.625V20.2383H17.3672V12.2383ZM11.625 12.2383C10.196 12.2383 8.7123 12.7373 7.57587 13.8737C6.4427 15.0069 5.94531 16.4838 5.94531 17.8984H13.9453C13.9453 18.3365 13.78 18.9833 13.2327 19.5306C12.6822 20.0811 12.0384 20.2383 11.625 20.2383V12.2383Z" fill="black" mask="url(#path-1-inside-1_805_11870)"/>
</svg>
