<svg width="53" height="37" viewBox="0 0 53 37" fill="none" xmlns="http://www.w3.org/2000/svg">
<path d="M29.2969 3.51732C29.0626 3.3319 28.8058 3.20559 28.5462 3.12831C28.5819 3.10525 28.6144 3.08596 28.6442 3.06962C28.7564 3.0082 28.8259 2.98828 28.9727 2.98828C29.0492 2.98828 29.0962 3.0026 29.1231 3.01414C29.1511 3.02616 29.1751 3.04287 29.1968 3.06582C29.2392 3.11047 29.2969 3.20691 29.2969 3.37109V3.51732ZM28.3078 34.5723C28.6581 34.5083 29.0002 34.3611 29.2969 34.1252V34.5234C29.2969 34.6784 29.2467 34.7338 29.2339 34.7468C29.2233 34.7575 29.2068 34.7703 29.1782 34.7819C29.1498 34.7934 29.0968 34.8086 29.0117 34.8086C28.836 34.8086 28.6371 34.7884 28.3078 34.5723ZM19.5703 3.37109V3.51732C19.336 3.3319 19.0792 3.20559 18.8196 3.12831C18.8554 3.10525 18.8878 3.08596 18.9177 3.06962C19.0298 3.0082 19.0993 2.98828 19.2461 2.98828C19.3227 2.98828 19.3696 3.0026 19.3965 3.01414C19.4245 3.02616 19.4485 3.04287 19.4703 3.06582C19.5127 3.11047 19.5703 3.20691 19.5703 3.37109ZM19.2852 34.8086C19.1027 34.8086 18.8944 34.784 18.5713 34.5715C18.9106 34.5097 19.2598 34.3689 19.5703 34.1221V34.5234C19.5703 34.6784 19.5202 34.7338 19.5073 34.7468C19.4967 34.7575 19.4802 34.7703 19.4516 34.7819C19.4232 34.7934 19.3703 34.8086 19.2852 34.8086ZM49.591 34.7056C49.5489 34.6634 49.476 34.5774 49.3863 34.4155C49.5892 34.3893 49.8143 34.332 50.0388 34.2265C50.0338 34.561 49.9579 34.7351 49.9156 34.8062C49.7421 34.7983 49.6832 34.7727 49.6651 34.7637C49.6555 34.7589 49.6313 34.7461 49.591 34.7056Z" stroke="black" stroke-width="4"/>
</svg>
